<svg width="22" height="20" viewBox="0 0 22 20" fill="none" xmlns="http://www.w3.org/2000/svg">
<path d="M19 8.47501C18.7348 8.47501 18.4804 8.58036 18.2929 8.7679C18.1054 8.95544 18 9.20979 18 9.47501V16.475C18 16.7402 17.8946 16.9946 17.7071 17.1821C17.5196 17.3697 17.2652 17.475 17 17.475H3C2.73478 17.475 2.48043 17.3697 2.29289 17.1821C2.10536 16.9946 2 16.7402 2 16.475V8.47501C2 8.20979 2.10536 7.95544 2.29289 7.7679C2.48043 7.58036 2.73478 7.47501 3 7.47501H5C5.21807 7.48639 5.43386 7.42608 5.61443 7.30329C5.795 7.1805 5.93042 7.00199 6 6.79501L6.54 5.15501C6.60709 4.95638 6.7349 4.78387 6.90537 4.66185C7.07584 4.53983 7.28036 4.47446 7.49 4.47501H13C13.2652 4.47501 13.5196 4.36965 13.7071 4.18211C13.8946 3.99458 14 3.74022 14 3.47501C14 3.20979 13.8946 2.95544 13.7071 2.7679C13.5196 2.58036 13.2652 2.47501 13 2.47501H7.44C6.81155 2.47618 6.19933 2.67469 5.68977 3.04251C5.1802 3.41033 4.79901 3.9289 4.6 4.52501L4.28 5.52501H3C2.20435 5.52501 1.44129 5.84108 0.87868 6.40369C0.31607 6.96629 0 7.72936 0 8.52501V16.525C0 17.3207 0.31607 18.0837 0.87868 18.6463C1.44129 19.2089 2.20435 19.525 3 19.525H17C17.7956 19.525 18.5587 19.2089 19.1213 18.6463C19.6839 18.0837 20 17.3207 20 16.525V9.52501C20.0068 9.38954 19.9859 9.25411 19.9387 9.12695C19.8915 8.99979 19.8189 8.88357 19.7254 8.78535C19.6318 8.68713 19.5193 8.60897 19.3946 8.55561C19.2699 8.50226 19.1356 8.47484 19 8.47501ZM10 7.47501C9.20887 7.47501 8.43552 7.7096 7.77772 8.14913C7.11992 8.58865 6.60723 9.21337 6.30448 9.94427C6.00173 10.6752 5.92252 11.4794 6.07686 12.2554C6.2312 13.0313 6.61216 13.744 7.17157 14.3034C7.73098 14.8628 8.44371 15.2438 9.21964 15.3981C9.99556 15.5525 10.7998 15.4733 11.5307 15.1705C12.2616 14.8678 12.8864 14.3551 13.3259 13.6973C13.7654 13.0395 14 12.2661 14 11.475C14 10.4141 13.5786 9.39672 12.8284 8.64658C12.0783 7.89643 11.0609 7.47501 10 7.47501ZM10 13.475C9.60444 13.475 9.21776 13.3577 8.88886 13.1379C8.55996 12.9182 8.30362 12.6058 8.15224 12.2404C8.00087 11.8749 7.96126 11.4728 8.03843 11.0848C8.1156 10.6969 8.30608 10.3405 8.58579 10.0608C8.86549 9.78109 9.22186 9.59061 9.60982 9.51344C9.99778 9.43626 10.3999 9.47587 10.7654 9.62725C11.1308 9.77862 11.4432 10.035 11.6629 10.3639C11.8827 10.6928 12 11.0794 12 11.475C12 12.0054 11.7893 12.5141 11.4142 12.8892C11.0391 13.2643 10.5304 13.475 10 13.475ZM21 2.47501H20V1.47501C20 1.20979 19.8946 0.955436 19.7071 0.767899C19.5196 0.580363 19.2652 0.475006 19 0.475006C18.7348 0.475006 18.4804 0.580363 18.2929 0.767899C18.1054 0.955436 18 1.20979 18 1.47501V2.47501H17C16.7348 2.47501 16.4804 2.58036 16.2929 2.7679C16.1054 2.95544 16 3.20979 16 3.47501C16 3.74022 16.1054 3.99458 16.2929 4.18211C16.4804 4.36965 16.7348 4.47501 17 4.47501H18V5.47501C18 5.74022 18.1054 5.99458 18.2929 6.18211C18.4804 6.36965 18.7348 6.47501 19 6.47501C19.2652 6.47501 19.5196 6.36965 19.7071 6.18211C19.8946 5.99458 20 5.74022 20 5.47501V4.47501H21C21.2652 4.47501 21.5196 4.36965 21.7071 4.18211C21.8946 3.99458 22 3.74022 22 3.47501C22 3.20979 21.8946 2.95544 21.7071 2.7679C21.5196 2.58036 21.2652 2.47501 21 2.47501Z" fill="#868686"/>
</svg>
