<svg width="32" height="32" viewBox="0 0 32 32" fill="none" xmlns="http://www.w3.org/2000/svg">
<rect width="32" height="32" rx="4" fill="#FAEBDE"/>
<path d="M16 5.33337C13.243 5.33337 11 7.57637 11 10.3334V13.3334H10C8.897 13.3334 8 14.2304 8 15.3334V23.3334C8 24.4364 8.897 25.3334 10 25.3334H22C23.103 25.3334 24 24.4364 24 23.3334V15.3334C24 14.2304 23.103 13.3334 22 13.3334H21V10.3334C21 7.57637 18.757 5.33337 16 5.33337ZM22 15.3334L22.002 23.3334H10V15.3334H22ZM13 13.3334V10.3334C13 8.67937 14.346 7.33337 16 7.33337C17.654 7.33337 19 8.67937 19 10.3334V13.3334H13Z" fill="#E5A060"/>
</svg>
