<svg width="28" height="28" viewBox="0 0 28 28" fill="none" xmlns="http://www.w3.org/2000/svg">
<rect width="28" height="28" rx="14" fill="#F0F0F0"/>
<path d="M15.4099 13.9991L19.7099 9.70915C19.8982 9.52084 20.004 9.26545 20.004 8.99915C20.004 8.73285 19.8982 8.47745 19.7099 8.28915C19.5216 8.10084 19.2662 7.99506 18.9999 7.99506C18.7336 7.99506 18.4782 8.10084 18.2899 8.28915L13.9999 12.5891L9.70994 8.28915C9.52164 8.10084 9.26624 7.99506 8.99994 7.99506C8.73364 7.99506 8.47824 8.10084 8.28994 8.28915C8.10164 8.47745 7.99585 8.73285 7.99585 8.99915C7.99585 9.26545 8.10164 9.52084 8.28994 9.70915L12.5899 13.9991L8.28994 18.2891C8.19621 18.3821 8.12182 18.4927 8.07105 18.6146C8.02028 18.7364 7.99414 18.8671 7.99414 18.9991C7.99414 19.1312 8.02028 19.2619 8.07105 19.3837C8.12182 19.5056 8.19621 19.6162 8.28994 19.7091C8.3829 19.8029 8.4935 19.8773 8.61536 19.928C8.73722 19.9788 8.86793 20.0049 8.99994 20.0049C9.13195 20.0049 9.26266 19.9788 9.38452 19.928C9.50638 19.8773 9.61698 19.8029 9.70994 19.7091L13.9999 15.4091L18.2899 19.7091C18.3829 19.8029 18.4935 19.8773 18.6154 19.928C18.7372 19.9788 18.8679 20.0049 18.9999 20.0049C19.132 20.0049 19.2627 19.9788 19.3845 19.928C19.5064 19.8773 19.617 19.8029 19.7099 19.7091C19.8037 19.6162 19.8781 19.5056 19.9288 19.3837C19.9796 19.2619 20.0057 19.1312 20.0057 18.9991C20.0057 18.8671 19.9796 18.7364 19.9288 18.6146C19.8781 18.4927 19.8037 18.3821 19.7099 18.2891L15.4099 13.9991Z" fill="#BF2626"/>
</svg>
