<svg width="16" height="18" viewBox="0 0 16 18" fill="none" xmlns="http://www.w3.org/2000/svg">
<path d="M1.69602 9.40497L2.29649 9.85434L1.69602 9.40497ZM14.304 9.40497L14.9045 8.9556L14.304 9.40497ZM10.75 15C10.75 14.5858 10.4142 14.25 10 14.25C9.58579 14.25 9.25 14.5858 9.25 15H10.75ZM6.75 15C6.75 14.5858 6.41421 14.25 6 14.25C5.58579 14.25 5.25 14.5858 5.25 15H6.75ZM4.5 14.25C2.98122 14.25 1.75 13.0188 1.75 11.5H0.25C0.25 13.8472 2.15279 15.75 4.5 15.75V14.25ZM11.5 14.25H4.5V15.75H11.5V14.25ZM14.25 11.5C14.25 13.0188 13.0188 14.25 11.5 14.25V15.75C13.8472 15.75 15.75 13.8472 15.75 11.5H14.25ZM13.7035 9.85434C14.0469 10.3132 14.25 10.8818 14.25 11.5H15.75C15.75 10.5468 15.4353 9.66496 14.9045 8.9556L13.7035 9.85434ZM8 1.75C10.3472 1.75 12.25 3.65279 12.25 6H13.75C13.75 2.82436 11.1756 0.25 8 0.25V1.75ZM3.75 6C3.75 3.65279 5.65279 1.75 8 1.75V0.25C4.82436 0.25 2.25 2.82436 2.25 6H3.75ZM1.75 11.5C1.75 10.8818 1.95309 10.3132 2.29649 9.85434L1.09555 8.95559C0.564688 9.66495 0.25 10.5468 0.25 11.5H1.75ZM2.25 6C2.25 6.94605 1.74309 8.09032 1.09555 8.95559L2.29649 9.85434C3.04971 8.84785 3.75 7.39182 3.75 6H2.25ZM14.9045 8.9556C14.2569 8.09032 13.75 6.94605 13.75 6H12.25C12.25 7.39182 12.9503 8.84786 13.7035 9.85434L14.9045 8.9556ZM9.25 15C9.25 15.6904 8.69036 16.25 8 16.25V17.75C9.51878 17.75 10.75 16.5188 10.75 15H9.25ZM8 16.25C7.30965 16.25 6.75 15.6904 6.75 15H5.25C5.25 16.5188 6.48122 17.75 8 17.75V16.25Z" fill="#FDFDFD"/>
</svg>
