<svg width="94" height="97" viewBox="0 0 94 97" fill="none" xmlns="http://www.w3.org/2000/svg">
<path d="M11.5629 60.0208C11.5629 60.0208 11.8289 56.5112 11.1056 53.1467C10.3823 49.7821 8.62549 47.1912 6.47177 46.1798C4.31805 45.1684 1.73721 46.5465 3.59678 48.8493C5.45635 51.1521 9.3125 55.2581 9.29034 61.2599L11.5629 60.0208Z" fill="#E0E0E0"/>
<path d="M10.4568 59.8979H10.483C10.5168 59.8969 10.5489 59.8826 10.5723 59.8581C10.5956 59.8336 10.6084 59.8008 10.6079 59.767C10.4064 52.4173 7.95653 48.7365 5.12789 46.8729C5.09981 46.8545 5.06561 46.848 5.03276 46.8548C4.99992 46.8616 4.9711 46.8812 4.95261 46.9091C4.94316 46.9228 4.93655 46.9383 4.93316 46.9546C4.92977 46.9708 4.92967 46.9876 4.93286 47.004C4.93605 47.0203 4.94247 47.0358 4.95174 47.0496C4.96102 47.0634 4.97295 47.0753 4.98686 47.0844C7.77722 48.9319 10.1526 52.5362 10.352 59.7771C10.353 59.8062 10.3639 59.8341 10.383 59.8561C10.402 59.8781 10.4281 59.8929 10.4568 59.8979Z" fill="white"/>
<path d="M0.616968 53.4247C0.657263 53.8276 0.98566 54.1419 1.29995 54.4058C1.61425 54.6698 1.95473 54.9518 2.03935 55.3507C2.21262 56.1566 1.25563 56.9021 1.46315 57.6999C1.51821 57.8644 1.6063 58.0159 1.72201 58.1451C1.83772 58.2743 1.97862 58.3785 2.13606 58.4514C2.39376 58.5782 2.65807 58.6912 2.92784 58.7898C3.06022 58.8296 3.19475 58.8619 3.33078 58.8865C3.73399 58.9229 4.1141 59.0906 4.41267 59.364C4.85188 59.8415 4.79748 60.5729 4.95262 61.2095C5.142 61.965 5.59128 62.4183 6.62079 62.7689L10.1465 60.7703C11.0249 59.8758 11.3352 58.3526 10.5253 57.303C10.0397 56.6784 9.13112 56.5998 8.67176 55.9733C8.26882 55.4132 8.4985 54.6033 8.24666 53.9586C7.99482 53.3139 7.32393 53.0882 6.69131 52.9774C6.05869 52.8666 5.38578 53.1285 4.76928 52.9029C4.15278 52.6772 3.57859 52.3126 2.93791 52.1534C2.627 52.061 2.29908 52.0409 1.97923 52.0947C1.65937 52.1485 1.35605 52.2747 1.09244 52.4637C0.939557 52.5717 0.81602 52.7162 0.733002 52.8839C0.649984 53.0517 0.610104 53.2376 0.616968 53.4247Z" fill="#EBEBEB"/>
<path d="M7.1889 56.5979C7.18248 56.5837 7.17282 56.5713 7.1607 56.5616C5.50461 54.2124 2.90564 53.0963 2.02924 52.9009C2.01686 52.8963 2.00365 52.8945 1.9905 52.8955C1.97735 52.8964 1.96455 52.9002 1.95298 52.9065C1.9414 52.9128 1.9313 52.9215 1.92336 52.9321C1.91541 52.9426 1.90981 52.9547 1.90692 52.9676C1.90403 52.9804 1.90391 52.9938 1.90659 53.0067C1.90926 53.0196 1.91466 53.0318 1.92243 53.0424C1.93019 53.0531 1.94014 53.062 1.95161 53.0685C1.96308 53.075 1.97581 53.079 1.98895 53.0802C2.82102 53.2655 5.23262 54.289 6.85648 56.4528C6.1947 56.2295 5.49392 56.1454 4.7981 56.2057C4.10228 56.266 3.42643 56.4695 2.81296 56.8034C2.79254 56.8166 2.77814 56.8373 2.77286 56.861C2.76759 56.8848 2.77186 56.9097 2.78475 56.9303C2.7932 56.9425 2.80429 56.9526 2.8172 56.9599C2.8301 56.9673 2.84449 56.9716 2.8593 56.9726C2.87806 56.9732 2.89649 56.9675 2.91168 56.9565C3.54041 56.6166 4.23587 56.4182 4.94933 56.3754C5.66278 56.3326 6.37696 56.4464 7.04183 56.7087C8.00944 58.0939 8.4944 59.7591 8.4219 61.4473C8.42074 61.4703 8.42843 61.493 8.44341 61.5106C8.45838 61.5282 8.47952 61.5394 8.50249 61.5419C8.52673 61.5425 8.55023 61.5335 8.56793 61.5169C8.58563 61.5004 8.59613 61.4775 8.59718 61.4533C8.67426 59.724 8.17931 58.0175 7.1889 56.5979Z" fill="white"/>
<path d="M83.911 62.3841C83.8768 59.765 83.9251 57.3473 85.2548 53.6282C86.369 50.5034 89.2339 47.3524 91.168 47.4853C92.9711 47.6102 93.3701 49.8244 91.7482 51.7948C90.1264 53.7652 86.5946 57.5347 86.377 60.2566L85.686 63.3451L83.911 62.3841Z" fill="#E0E0E0"/>
<path d="M84.7109 61.7232C84.7353 61.7169 84.7571 61.7029 84.773 61.6833C84.7889 61.6638 84.7982 61.6396 84.7995 61.6144C85.0816 55.522 88.4844 50.4449 91.3232 48.8835C91.3499 48.8686 91.3696 48.8436 91.3779 48.8141C91.3862 48.7847 91.3825 48.7531 91.3675 48.7264C91.3525 48.6997 91.3276 48.68 91.2981 48.6717C91.2686 48.6634 91.2371 48.6671 91.2103 48.682C88.3253 50.2676 84.8539 55.4273 84.5618 61.6044C84.561 61.6195 84.5632 61.6346 84.5682 61.6488C84.5732 61.663 84.581 61.6762 84.5911 61.6874C84.6012 61.6986 84.6135 61.7077 84.6271 61.7142C84.6407 61.7207 84.6555 61.7245 84.6706 61.7253L84.7109 61.7232Z" fill="white"/>
<path d="M86.3509 63.7138C86.4617 62.7951 87.3038 61.1732 88.8471 59.6965C90.5555 58.0645 92.8886 57.0673 93.2794 55.9451C93.7549 54.5992 92.5642 53.88 90.5958 54.3011C88.2286 54.8068 85.6054 57.5145 85.1561 63.0469L86.3509 63.7138Z" fill="#EBEBEB"/>
<path d="M85.821 62.8535C85.8427 62.8484 85.8624 62.8371 85.8778 62.821C85.8932 62.8049 85.9035 62.7847 85.9076 62.7628C86.8122 57.9275 90.0438 55.7658 91.6274 55.2963C91.6565 55.2875 91.6809 55.2675 91.6952 55.2406C91.7096 55.2138 91.7127 55.1824 91.7039 55.1533C91.7 55.1385 91.6931 55.1247 91.6837 55.1127C91.6743 55.1007 91.6626 55.0907 91.6492 55.0834C91.6358 55.0761 91.6211 55.0715 91.6059 55.07C91.5908 55.0685 91.5754 55.0701 91.5609 55.0747C89.8121 55.5925 86.6047 57.7845 85.68 62.7185C85.6771 62.7335 85.6772 62.7489 85.6803 62.7638C85.6834 62.7787 85.6894 62.7928 85.698 62.8054C85.7066 62.818 85.7177 62.8287 85.7305 62.837C85.7433 62.8452 85.7576 62.8508 85.7726 62.8535C85.7885 62.8575 85.8051 62.8575 85.821 62.8535Z" fill="white"/>
<path d="M15.2336 89.2421C-1.89136 79.356 -1.89136 63.325 15.2336 53.4368C32.3586 43.5486 60.1253 43.5506 77.2503 53.4368C94.3753 63.3229 94.3753 79.356 77.2503 89.2421C60.1253 99.1283 32.3586 99.1303 15.2336 89.2421Z" fill="#FAFAFA"/>
<path d="M48.9377 81.9489L53.6259 79.2411C53.6563 79.2309 53.6826 79.2114 53.7013 79.1853C53.72 79.1593 53.73 79.1281 53.73 79.0961C53.73 79.064 53.72 79.0328 53.7013 79.0068C53.6826 78.9808 53.6563 78.9613 53.6259 78.951L52.4775 78.2882C52.3996 78.2484 52.3133 78.2276 52.2257 78.2276C52.1382 78.2276 52.0518 78.2484 51.9739 78.2882L47.2856 80.9959C47.2553 81.0062 47.2289 81.0257 47.2103 81.0517C47.1916 81.0777 47.1815 81.109 47.1815 81.141C47.1815 81.173 47.1916 81.2042 47.2103 81.2303C47.2289 81.2563 47.2553 81.2758 47.2856 81.2861L47.8598 81.6165L41.9729 85.0153C41.8338 85.0959 41.8923 85.1221 41.9567 85.1603C42.0212 85.1986 42.0696 85.2308 42.2086 85.1603L48.0935 81.7635L48.432 81.965C48.5115 82.0027 48.5989 82.0209 48.6868 82.018C48.7747 82.0152 48.8607 81.9915 48.9377 81.9489Z" fill="#E0E0E0"/>
<path d="M47.1667 76.753C46.8008 76.7605 46.4391 76.673 46.1171 76.4991L46.0224 76.4387L45.8491 76.3158L47.3259 76.1002L47.4589 75.8222L47.0559 75.5885L45.6456 75.7899L45.692 75.657C45.7765 75.4558 45.9301 75.2914 46.1251 75.1936C46.4425 75.0252 46.7975 74.9406 47.1567 74.9478C47.3155 74.9472 47.4741 74.962 47.6301 74.9921L52.4412 72.2158C52.3831 72.0948 52.3688 71.9574 52.4009 71.827C52.4366 71.7152 52.4946 71.6118 52.5715 71.5231C52.6484 71.4344 52.7425 71.3623 52.8482 71.3112C53.1665 71.1436 53.522 71.059 53.8817 71.0655C54.248 71.0576 54.6099 71.1458 54.9314 71.3213C54.964 71.3398 54.9956 71.36 55.0261 71.3818L55.1994 71.5026L53.7226 71.7182L53.5896 71.9983L53.9926 72.232L55.4029 72.0305L55.3565 72.1615C55.2721 72.3632 55.1185 72.5282 54.9233 72.6268C54.6057 72.7943 54.2509 72.8788 53.8918 72.8726C53.7329 72.8726 53.5743 72.8571 53.4184 72.8263L48.6072 75.6046C48.6653 75.7249 48.6795 75.8617 48.6475 75.9914C48.6121 76.1034 48.5542 76.2069 48.4773 76.2956C48.4003 76.3843 48.3061 76.4563 48.2003 76.5072C47.8823 76.6758 47.5266 76.7604 47.1667 76.753Z" fill="#E0E0E0"/>
<path d="M26.8928 87.2355C35.3815 87.2355 42.263 83.2621 42.263 78.3607C42.263 73.4593 35.3815 69.4859 26.8928 69.4859C18.4041 69.4859 11.5226 73.4593 11.5226 78.3607C11.5226 83.2621 18.4041 87.2355 26.8928 87.2355Z" fill="#E0E0E0"/>
<path d="M52.0464 78.8704L72.4433 67.0945L83.8385 73.6725L63.4416 85.4484L52.0464 78.8704Z" fill="#E0E0E0"/>
<path d="M46.784 72.0083L38.8279 67.4148C38.5398 67.2496 38.5398 66.9776 38.8279 66.8104L51.6938 59.3842C51.8561 59.3017 52.0356 59.2587 52.2176 59.2587C52.3997 59.2587 52.5792 59.3017 52.7415 59.3842L60.6975 63.9757C60.9856 64.1429 60.9856 64.4149 60.6975 64.5801L47.8316 72.0083C47.6693 72.0908 47.4898 72.1338 47.3078 72.1338C47.1257 72.1338 46.9463 72.0908 46.784 72.0083Z" fill="#E0E0E0"/>
<path d="M47.3078 71.2427V64.6284L39.124 59.9019L39.942 66.9897L47.3078 71.2427Z" fill="#263238"/>
<path d="M47.3077 71.2427L59.5833 64.155L60.4013 57.0673L47.3077 64.6285V71.2427Z" fill="#37474F"/>
<path d="M38.6123 58.4856C38.6183 58.4207 38.6414 58.3585 38.6793 58.3054C38.7172 58.2523 38.7684 58.2102 38.8279 58.1834L51.6938 50.7552C51.8561 50.6727 52.0356 50.6298 52.2176 50.6298C52.3997 50.6298 52.5791 50.6727 52.7414 50.7552L60.6975 55.3487C60.7571 55.3754 60.8085 55.4174 60.8464 55.4705C60.8843 55.5237 60.9073 55.5859 60.9131 55.6509V57.5407C60.9076 57.6061 60.8848 57.6688 60.8469 57.7223C60.8089 57.7758 60.7574 57.8182 60.6975 57.845L47.8316 65.2712C47.6693 65.3536 47.4898 65.3966 47.3078 65.3966C47.1257 65.3966 46.9463 65.3536 46.784 65.2712L38.8279 60.6776C38.7686 60.6507 38.7174 60.6085 38.6795 60.5555C38.6417 60.5024 38.6185 60.4403 38.6123 60.3754V58.4856Z" fill="#BA68C8"/>
<path opacity="0.2" d="M38.8279 58.1834L47.3078 53.2877V65.3981C47.1252 65.4015 46.9447 65.3578 46.784 65.2712L38.8279 60.6776C38.7686 60.6507 38.7174 60.6085 38.6795 60.5555C38.6417 60.5024 38.6185 60.4403 38.6123 60.3754V58.4836C38.6186 58.419 38.6419 58.3573 38.6798 58.3046C38.7176 58.2519 38.7687 58.2101 38.8279 58.1834Z" fill="black"/>
<path opacity="0.1" d="M47.3077 53.2877L51.6938 50.7552C51.8561 50.6727 52.0355 50.6298 52.2176 50.6298C52.3996 50.6298 52.5791 50.6727 52.7414 50.7552L60.6975 55.3487C60.757 55.3754 60.8084 55.4174 60.8463 55.4705C60.8842 55.5237 60.9073 55.5859 60.9131 55.6509V57.5407C60.9076 57.6061 60.8847 57.6688 60.8468 57.7223C60.8089 57.7758 60.7573 57.8182 60.6975 57.845L47.8316 65.2712C47.6708 65.3578 47.4904 65.4015 47.3077 65.3981V53.2877Z" fill="black"/>
<path d="M46.784 63.3814L38.8279 58.7878C38.5398 58.6206 38.5398 58.3506 38.8279 58.1834L51.6938 50.7552C51.8561 50.6727 52.0356 50.6298 52.2176 50.6298C52.3997 50.6298 52.5792 50.6727 52.7415 50.7552L60.6975 55.3487C60.9856 55.5159 60.9856 55.7859 60.6975 55.9531L47.8316 63.3814C47.6693 63.4638 47.4898 63.5068 47.3078 63.5068C47.1257 63.5068 46.9463 63.4638 46.784 63.3814Z" fill="#BA68C8"/>
<path opacity="0.2" d="M58.3565 55.8866C58.5821 56.0176 58.57 56.2352 58.3283 56.3742L49.381 61.5419C49.251 61.6106 49.1066 61.6477 48.9596 61.6502C48.8125 61.6526 48.667 61.6204 48.5348 61.556C48.3091 61.4271 48.3212 61.2075 48.563 61.0685L57.5103 55.9027C57.6401 55.8337 57.7844 55.7962 57.9315 55.7934C58.0785 55.7906 58.2241 55.8226 58.3565 55.8866Z" fill="black"/>
<path opacity="0.2" d="M49.3809 61.5419C49.2509 61.6107 49.1065 61.6478 48.9595 61.6502C48.8124 61.6527 48.6669 61.6204 48.5347 61.556L48.4904 61.5258C48.513 61.5069 48.5373 61.4901 48.5629 61.4754L57.5102 56.3097C57.64 56.2407 57.7843 56.2032 57.9314 56.2004C58.0784 56.1976 58.224 56.2295 58.3564 56.2936L58.4007 56.3258C58.378 56.344 58.3537 56.3602 58.3282 56.3742L49.3809 61.5419Z" fill="black"/>
<path opacity="0.2" d="M51.8087 52.107C52.0363 52.236 52.0242 52.4556 51.7825 52.5946L42.8332 57.7603C42.7037 57.8293 42.5597 57.8668 42.413 57.8696C42.2663 57.8724 42.121 57.8405 41.989 57.7764C41.7633 57.6455 41.7754 57.4279 42.0152 57.2889L50.9645 52.1212C51.0941 52.0524 51.2382 52.0153 51.3849 52.0129C51.5316 52.0104 51.6768 52.0427 51.8087 52.107Z" fill="black"/>
<path opacity="0.2" d="M42.8331 57.7603C42.7036 57.8294 42.5596 57.8668 42.4129 57.8696C42.2662 57.8724 42.1209 57.8405 41.9889 57.7764C41.973 57.7673 41.9581 57.7565 41.9446 57.7442C41.9669 57.7265 41.9905 57.7103 42.0151 57.6959L50.9644 52.5301C51.0937 52.4606 51.2378 52.4229 51.3846 52.4201C51.5313 52.4173 51.6767 52.4495 51.8086 52.514C51.824 52.5232 51.8388 52.5332 51.8529 52.5443C51.831 52.5631 51.8074 52.58 51.7824 52.5946L42.8331 57.7603Z" fill="black"/>
<path opacity="0.2" d="M43.6229 58.26C43.3973 58.3909 43.4094 58.6085 43.6511 58.7475L46.8747 60.6051C47.0041 60.6741 47.1481 60.7116 47.2948 60.7144C47.4415 60.7172 47.5868 60.6853 47.7188 60.6212C47.9445 60.4903 47.9324 60.2727 47.6926 60.1337L44.4691 58.2761C44.3393 58.207 44.195 58.1696 44.0479 58.1668C43.9009 58.164 43.7553 58.1959 43.6229 58.26Z" fill="black"/>
<path opacity="0.2" d="M46.8727 60.595C47.0021 60.664 47.1461 60.7015 47.2928 60.7043C47.4395 60.7071 47.5848 60.6752 47.7168 60.6111C47.7322 60.602 47.747 60.5919 47.7611 60.5809C47.7392 60.562 47.7156 60.5452 47.6906 60.5305L44.4671 58.673C44.3373 58.6039 44.193 58.5665 44.0459 58.5637C43.8989 58.5609 43.7533 58.5928 43.6209 58.6569C43.606 58.6665 43.5918 58.6772 43.5786 58.6891C43.6003 58.7077 43.624 58.7239 43.6491 58.7374L46.8727 60.595Z" fill="black"/>
<path opacity="0.2" d="M41.989 59.1948C41.7633 59.3237 41.7754 59.5433 42.0152 59.6823L45.2387 61.5399C45.3686 61.609 45.5128 61.6464 45.6599 61.6492C45.8069 61.652 45.9525 61.6201 46.0849 61.556C46.3105 61.4251 46.2985 61.2055 46.0567 61.0665L42.8332 59.2089C42.7035 59.1402 42.5595 59.1031 42.4128 59.1006C42.2661 59.0982 42.1209 59.1304 41.989 59.1948Z" fill="black"/>
<path opacity="0.2" d="M45.2367 61.5399C45.3665 61.609 45.5108 61.6464 45.6578 61.6492C45.8049 61.652 45.9505 61.6201 46.0828 61.556C46.099 61.546 46.1111 61.5339 46.1252 61.5238C46.1032 61.5049 46.0796 61.4881 46.0546 61.4734L42.8311 59.6159C42.7015 59.5472 42.5574 59.5101 42.4107 59.5076C42.264 59.5052 42.1188 59.5374 41.987 59.6018C41.9711 59.6102 41.9562 59.6203 41.9426 59.632C41.9646 59.6508 41.9882 59.6677 42.0131 59.6824L45.2367 61.5399Z" fill="black"/>
<path opacity="0.2" d="M53.4446 52.5805C53.2189 52.7115 53.229 52.9291 53.4707 53.0681L56.6943 54.9256C56.8238 54.9947 56.9677 55.0321 57.1144 55.0349C57.2611 55.0377 57.4064 55.0058 57.5384 54.9417C57.7661 54.8108 57.754 54.5932 57.5122 54.4542L54.2887 52.5966C54.1592 52.5276 54.0153 52.4902 53.8686 52.4874C53.7219 52.4846 53.5766 52.5165 53.4446 52.5805Z" fill="black"/>
<path opacity="0.2" d="M56.6922 54.9256C56.8221 54.9947 56.9664 55.0321 57.1134 55.0349C57.2604 55.0377 57.406 55.0058 57.5384 54.9417C57.5533 54.9321 57.5675 54.9213 57.5807 54.9095C57.5587 54.8913 57.5351 54.8751 57.5102 54.8611L54.2867 53.0036C54.1572 52.9346 54.0132 52.8971 53.8665 52.8943C53.7198 52.8915 53.5745 52.9234 53.4425 52.9875C53.4271 52.9966 53.4123 53.0067 53.3982 53.0177C53.4202 53.0365 53.4437 53.0534 53.4687 53.0681L56.6922 54.9256Z" fill="black"/>
<path opacity="0.2" d="M51.8087 53.5234C51.583 53.6544 51.5951 53.874 51.8349 54.013L55.0584 55.8705C55.1885 55.939 55.3327 55.9761 55.4796 55.9789C55.6265 55.9817 55.772 55.9501 55.9046 55.8867C56.1302 55.7557 56.1182 55.5361 55.8764 55.3971L52.6529 53.5395C52.5231 53.4714 52.3792 53.4345 52.2327 53.4317C52.0861 53.4289 51.941 53.4603 51.8087 53.5234Z" fill="black"/>
<path opacity="0.2" d="M55.0563 55.8705C55.1863 55.939 55.3306 55.9761 55.4775 55.9789C55.6244 55.9817 55.7699 55.9501 55.9025 55.8867L55.9468 55.8544C55.9241 55.8356 55.8999 55.8187 55.8743 55.804L52.6508 53.9465C52.5207 53.8781 52.3765 53.841 52.2296 53.8382C52.0827 53.8354 51.9371 53.8669 51.8046 53.9304L51.7603 53.9626C51.7826 53.981 51.8061 53.9978 51.8308 54.013L55.0563 55.8705Z" fill="black"/>
<path d="M46.4899 56.6583V58.4856L47.3078 58.9591L48.1258 58.4856V57.0995C48.1341 56.9483 48.1778 56.8011 48.2534 56.6699C48.329 56.5387 48.4344 56.427 48.561 56.344L50.5757 55.1775L50.9585 54.9579C51.1982 54.8188 51.3937 54.9317 51.3937 55.2097V56.5958L52.2116 56.1224V54.295C52.2137 54.2588 52.2137 54.2225 52.2116 54.1862C52.2099 54.1584 52.2058 54.1308 52.1995 54.1036C52.1939 54.0722 52.1858 54.0412 52.1754 54.0109C52.1672 53.987 52.1578 53.9634 52.1472 53.9404C52.136 53.9174 52.1233 53.8951 52.1089 53.8739C52.0957 53.8533 52.0809 53.8337 52.0646 53.8155C52.0493 53.7979 52.0324 53.7817 52.0142 53.7672C51.9966 53.7532 51.9777 53.7411 51.9578 53.7309L51.9316 53.7168L51.1438 53.2615C51.0454 53.2154 50.9364 53.1967 50.8283 53.2073C50.7202 53.2179 50.6169 53.2575 50.5294 53.3219L47.3642 55.1493C47.11 55.3141 46.8982 55.5368 46.7463 55.799C46.5943 56.0612 46.5065 56.3556 46.4899 56.6583Z" fill="#455A64"/>
<path d="M50.5797 55.1775V56.1203L51.3977 56.5938V55.2077C51.3977 54.9297 51.1962 54.8168 50.9625 54.9558L50.5797 55.1775Z" fill="#263238"/>
<path d="M47.3077 57.1297V58.9591L48.1257 58.4856V57.0995C48.134 56.9483 48.1777 56.8012 48.2533 56.6699C48.3289 56.5387 48.4343 56.4271 48.5609 56.344L50.5756 55.1795L50.9584 54.9599C51.1981 54.8209 51.3936 54.9337 51.3936 55.2117V56.5978L52.2115 56.1264V54.297C52.2137 54.2608 52.2137 54.2245 52.2115 54.1883C52.2098 54.1604 52.2057 54.1328 52.1994 54.1057C52.1938 54.0742 52.1857 54.0432 52.1753 54.013C52.1671 53.989 52.1577 53.9655 52.1471 53.9425C52.136 53.9194 52.1232 53.8972 52.1088 53.876C52.0956 53.8553 52.0808 53.8358 52.0645 53.8176C52.0492 53.7999 52.0323 53.7837 52.0141 53.7692C51.9965 53.7553 51.9776 53.7431 51.9577 53.7329L51.9315 53.7188C51.8353 53.6829 51.7317 53.6711 51.6298 53.6844C51.528 53.6978 51.4309 53.7359 51.3472 53.7954L48.1821 55.6227C47.9285 55.7879 47.7173 56.0103 47.5654 56.2721C47.4135 56.5338 47.3253 56.8276 47.3077 57.1297Z" fill="#37474F"/>
<path d="M51.3997 65.0999L51.0975 64.9266L50.2775 65.3981L50.5817 65.5734L51.3997 65.0999Z" fill="#455A64"/>
<path d="M50.5817 65.5733L50.2795 69.5282L50.2775 65.3981L50.5817 65.5733Z" fill="#263238"/>
<path d="M51.3996 65.0999L51.0974 69.0548L51.1961 69.0084L51.3996 65.0999Z" fill="#37474F"/>
<path d="M44.5497 65.8715L44.8519 65.6963L45.6699 66.1677L45.3677 66.343L44.5497 65.8715Z" fill="#455A64"/>
<path d="M44.5497 65.8715L44.8519 69.8244L44.7532 69.778L44.5497 65.8715Z" fill="black"/>
<path d="M41.2758 63.9797L41.58 63.8065L42.3979 64.2779L42.0937 64.4532L41.2758 63.9797Z" fill="#455A64"/>
<path d="M45.6699 70.2978L45.3677 66.343L45.6699 66.1677V70.2978Z" fill="#37474F"/>
<path d="M42.398 64.2779V68.408L42.0938 64.4532L42.398 64.2779Z" fill="#37474F"/>
<path d="M41.2758 63.9797L41.578 67.9346L41.4792 67.8883L41.2758 63.9797Z" fill="black"/>
<path d="M57.1275 61.7938L56.8253 61.6185L56.0073 62.0899L56.3095 62.2652L57.1275 61.7938Z" fill="#455A64"/>
<path d="M56.3095 62.2652L56.0073 66.2201V62.0899L56.3095 62.2652Z" fill="#263238"/>
<path d="M57.1274 61.7938L56.8252 65.7486L56.9259 65.7003L57.1274 61.7938Z" fill="#37474F"/>
<path d="M49.8383 64.429L49.8403 63.4841L51.4762 62.5392L51.7502 62.6964L51.7482 63.6413L50.1102 64.5862L49.8383 64.429Z" fill="#37474F"/>
<path d="M51.7502 62.6964L51.7482 63.6412L50.1102 64.5861L50.1143 63.6412L51.7502 62.6964Z" fill="#455A64"/>
<path d="M50.1143 63.6412L49.8403 63.4841L49.8383 64.429L50.1102 64.5861L50.1143 63.6412Z" fill="#263238"/>
<path d="M55.6104 61.0987L55.6144 60.1538L57.2503 59.2089L57.5243 59.366L57.5203 60.3109L55.8844 61.2558L55.6104 61.0987Z" fill="#37474F"/>
<path d="M57.5244 59.366L57.5203 60.3109L55.8844 61.2558L55.8864 60.3109L57.5244 59.366Z" fill="#455A64"/>
<path d="M55.8864 60.311L55.6144 60.1538L55.6104 61.0987L55.8844 61.2559L55.8864 60.311Z" fill="#263238"/>
<path d="M46.1956 75.1352C46.0848 75.1976 45.8773 75.1956 45.8108 75.2701V75.5421L47.076 75.3588L47.5535 75.6388L47.3722 76.0196L46.0949 75.933V76.205C46.122 76.2254 46.1502 76.2442 46.1795 76.2614C46.4818 76.4143 46.8158 76.494 47.1546 76.494C47.4934 76.494 47.8274 76.4143 48.1297 76.2614C48.2411 76.2113 48.3372 76.1325 48.408 76.033C48.4789 75.9335 48.5219 75.8169 48.5327 75.6952V75.4233L48.4581 75.4353C48.4575 75.4307 48.4575 75.4259 48.4581 75.4212L53.2451 72.6571C53.7318 72.765 54.2408 72.7009 54.6856 72.4757C54.8577 72.3915 54.9941 72.2486 55.0704 72.0728V71.7988L53.8051 72.2561L53.3277 71.9761L53.509 71.5953L54.7863 71.41V71.136C54.7863 71.136 53.2934 71.0372 52.7494 71.3374C52.6116 71.4099 52.4955 71.5176 52.413 71.6497L52.3405 71.6235V71.8935C52.3397 71.9942 52.3684 72.093 52.4231 72.1776L47.6361 74.9417C47.148 74.8375 46.6389 74.9059 46.1956 75.1352Z" fill="#37474F"/>
<path d="M53.2451 72.6651V72.3931L48.4581 75.1573V75.4293L53.2451 72.6651Z" fill="#37474F"/>
<path d="M52.4231 71.9177L47.6361 74.6819C47.1496 74.5741 46.6408 74.6375 46.1956 74.8612C46.0235 74.9454 45.8871 75.0883 45.8108 75.2641L47.076 75.0808L47.5535 75.3608L47.3722 75.7396L46.0949 75.9269C46.122 75.9474 46.1502 75.9662 46.1795 75.9834C46.4818 76.1363 46.8158 76.216 47.1546 76.216C47.4934 76.216 47.8274 76.1363 48.1297 75.9834C48.5327 75.7577 48.6374 75.4273 48.4581 75.1432L53.2451 72.379C53.7318 72.486 54.2405 72.4219 54.6856 72.1977C54.8577 72.1134 54.9941 71.9706 55.0704 71.7948L53.8051 71.9801L53.3277 71.7001L53.509 71.3193L54.7863 71.1319L54.7017 71.0775C54.3994 70.9246 54.0654 70.8449 53.7266 70.8449C53.3878 70.8449 53.0537 70.9246 52.7515 71.0775C52.3626 71.3032 52.2437 71.6336 52.4231 71.9177Z" fill="#455A64"/>
<path d="M53.4284 71.7666L53.3276 71.7081L53.509 71.3274L54.7863 71.14V71.414L53.509 71.5993L53.4284 71.7666Z" fill="#263238"/>
<path d="M47.4528 75.5784L47.5535 75.3668L47.076 75.0848L45.8108 75.2701V75.5441L47.076 75.3588L47.4528 75.5784Z" fill="#263238"/>
<path d="M49.125 79.1565L50.1324 80.8891L53.509 78.9409C53.5872 78.8925 53.6499 78.8228 53.6899 78.7401C53.7298 78.6573 53.7454 78.5648 53.7346 78.4735C53.7214 78.2276 53.6503 77.9883 53.5271 77.7751C53.4038 77.5618 53.232 77.3808 53.0255 77.2466C52.9541 77.1945 52.8701 77.1626 52.7823 77.1541C52.6944 77.1456 52.6058 77.1608 52.5258 77.1982L49.125 79.1565Z" fill="#BA68C8"/>
<path d="M48.9236 79.5151C48.9095 79.7791 48.5367 79.8355 48.5367 79.8355L49.2439 81.0624C49.2439 81.0624 49.4796 80.7723 49.7153 80.8872C50.0639 81.0383 50.3359 80.8509 50.3359 80.4338C50.3223 80.1883 50.2511 79.9494 50.1278 79.7365C50.0046 79.5237 49.8329 79.3429 49.6267 79.2089C49.2641 78.9974 48.9659 79.1384 48.9236 79.5151Z" fill="#BA68C8"/>
<path opacity="0.05" d="M48.9236 79.5151C48.9095 79.7791 48.5367 79.8355 48.5367 79.8355L49.2439 81.0624C49.2439 81.0624 49.4796 80.7723 49.7153 80.8872C50.0639 81.0383 50.3359 80.8509 50.3359 80.4338C50.3223 80.1883 50.2511 79.9494 50.1278 79.7365C50.0046 79.5237 49.8329 79.3429 49.6267 79.2089C49.2641 78.9974 48.9659 79.1384 48.9236 79.5151Z" fill="black"/>
<path opacity="0.05" d="M48.7039 79.7831C48.6499 79.8075 48.593 79.8251 48.5347 79.8355L49.2418 81.0624C49.2809 81.018 49.3248 80.9781 49.3728 80.9436C49.3526 80.7131 49.2823 80.4898 49.1667 80.2893C49.0512 80.0889 48.8932 79.9161 48.7039 79.7831Z" fill="black"/>
<path d="M47.7974 79.9221L47.8558 80.0248C47.8357 80.0963 47.8255 80.1702 47.8256 80.2444C47.8391 80.4903 47.9104 80.7295 48.0336 80.9426C48.1568 81.1558 48.3285 81.337 48.5347 81.4714C48.5973 81.509 48.6653 81.5369 48.7362 81.554L48.7946 81.6568L49.0304 81.5218C49.1016 81.4699 49.1578 81.4 49.1932 81.3193C49.2286 81.2386 49.2419 81.15 49.2318 81.0624C49.2187 80.8167 49.1478 80.5776 49.0249 80.3644C48.9021 80.1512 48.7307 79.97 48.5247 79.8355C48.4529 79.7835 48.3686 79.7516 48.2804 79.7431C48.1922 79.7346 48.1034 79.7498 48.023 79.7871L47.7974 79.9221Z" fill="#BA68C8"/>
<path d="M49.0062 81.1994C48.993 80.9537 48.9221 80.7146 48.7993 80.5014C48.6764 80.2882 48.505 80.107 48.299 79.9724C47.9082 79.7468 47.5898 79.9301 47.5898 80.3754C47.6037 80.6212 47.6751 80.8602 47.7983 81.0733C47.9215 81.2865 48.093 81.4677 48.299 81.6023C48.6899 81.832 49.0062 81.6507 49.0062 81.1994Z" fill="#BA68C8"/>
<path opacity="0.15" d="M49.0062 81.1994C48.993 80.9537 48.9221 80.7146 48.7993 80.5014C48.6764 80.2882 48.505 80.107 48.299 79.9724C47.9082 79.7468 47.5898 79.9301 47.5898 80.3754C47.6037 80.6212 47.6751 80.8602 47.7983 81.0733C47.9215 81.2865 48.093 81.4677 48.299 81.6023C48.6899 81.832 49.0062 81.6507 49.0062 81.1994Z" fill="black"/>
<path opacity="0.15" d="M48.0229 81.3828C48.0754 81.4414 48.1342 81.4941 48.1982 81.5399L48.3634 81.0685L48.162 80.9214L48.0229 81.3828Z" fill="black"/>
<path opacity="0.2" d="M53.1505 77.988C53.1744 78.0332 53.1803 78.0859 53.1668 78.1353C53.1533 78.1847 53.1216 78.2271 53.0779 78.2539L50.6603 79.6461C50.6151 79.6708 50.5621 79.6773 50.5123 79.6642C50.4624 79.6511 50.4195 79.6193 50.3923 79.5756C50.3684 79.5303 50.3625 79.4776 50.376 79.4282C50.3895 79.3788 50.4212 79.3364 50.4649 79.3096L52.8825 77.9175C52.9277 77.8927 52.9807 77.8862 53.0305 77.8993C53.0804 77.9125 53.1233 77.9442 53.1505 77.988Z" fill="black"/>
<path opacity="0.2" d="M52.7153 77.4702C52.7339 77.4796 52.7496 77.494 52.7606 77.5118C52.7715 77.5296 52.7773 77.55 52.7773 77.5709C52.7773 77.5918 52.7715 77.6123 52.7606 77.6301C52.7496 77.6479 52.7339 77.6623 52.7153 77.6717L50.2573 79.082C50.2118 79.104 50.1609 79.1126 50.1106 79.1069C50.0604 79.1012 50.0128 79.0814 49.9733 79.0497C49.9546 79.0403 49.939 79.0259 49.928 79.0081C49.9171 78.9904 49.9113 78.9699 49.9113 78.949C49.9113 78.9281 49.9171 78.9076 49.928 78.8898C49.939 78.8721 49.9546 78.8577 49.9733 78.8483L52.4292 77.438C52.475 77.4156 52.5263 77.4067 52.5769 77.4124C52.6276 77.4181 52.6756 77.4382 52.7153 77.4702Z" fill="black"/>
<path opacity="0.2" d="M53.3821 78.6246C53.3814 78.6043 53.3754 78.5845 53.3645 78.5672C53.3537 78.55 53.3385 78.5359 53.3205 78.5265C53.3024 78.5171 53.2822 78.5126 53.2619 78.5136C53.2416 78.5145 53.2218 78.5209 53.2048 78.5319L50.7468 79.9422C50.7051 79.9707 50.6722 80.0104 50.6519 80.0567C50.6316 80.103 50.6247 80.1541 50.632 80.2041C50.6326 80.2245 50.6387 80.2443 50.6495 80.2615C50.6603 80.2788 50.6755 80.2928 50.6936 80.3023C50.7116 80.3117 50.7318 80.3162 50.7522 80.3152C50.7725 80.3142 50.7922 80.3079 50.8093 80.2968L53.2672 78.8865C53.3088 78.8578 53.3416 78.8181 53.3618 78.7719C53.3821 78.7256 53.3891 78.6746 53.3821 78.6246Z" fill="black"/>
<path d="M42.0876 84.0583V84.5297L43.2683 84.1469C43.3848 83.9267 43.5452 83.7326 43.7397 83.5768L48.2244 80.9879L48.3614 80.595L48.2244 80.5164L43.7397 83.1053C43.6658 83.1428 43.5832 83.1601 43.5005 83.1555C43.4177 83.1509 43.3376 83.1246 43.2683 83.0792L42.0876 84.0583Z" fill="#455A64"/>
<path d="M42.2267 84.1389V84.6103L43.4073 84.2275C43.5233 84.0069 43.6838 83.8127 43.8787 83.6574L48.3635 81.0685V80.595L43.8787 83.1839C43.805 83.2219 43.7226 83.2396 43.6398 83.2354C43.557 83.2311 43.4767 83.205 43.4073 83.1597L42.2267 84.1389Z" fill="#37474F"/>
<path d="M42.2267 84.6103L42.0897 84.5297V84.0583L42.2267 84.1389V84.6103Z" fill="#263238"/>
<path d="M42.0897 84.0583L42.2267 84.1389L43.4073 83.1597L43.2703 83.0791L42.0897 84.0583Z" fill="#455A64"/>
<path d="M58.8962 23.3935H48.5124C48.4724 23.3935 48.4339 23.3775 48.4056 23.3492C48.3772 23.3209 48.3613 23.2824 48.3613 23.2424C48.3613 23.2023 48.3772 23.1638 48.4056 23.1355C48.4339 23.1072 48.4724 23.0912 48.5124 23.0912H58.8962C58.9363 23.0912 58.9747 23.1072 59.0031 23.1355C59.0314 23.1638 59.0473 23.2023 59.0473 23.2424C59.0473 23.2824 59.0314 23.3209 59.0031 23.3492C58.9747 23.3775 58.9363 23.3935 58.8962 23.3935Z" fill="#37474F"/>
<path d="M35.036 30.1085C34.0387 28.2046 32.429 24.0905 32.429 24.0905L32.4632 18.5682C32.4229 18.5682 33.2086 18.806 33.4484 18.8624C35.0037 19.4366 35.4329 19.7106 36.0997 21.0786C36.6296 22.1685 38.4146 27.1388 39.0493 28.8211L42.847 26.1194C43.804 25.3135 44.0276 24.1651 44.6119 23.4499C45.1961 22.7347 45.859 22.5372 46.5198 21.9308C47.1806 21.3244 47.4305 20.8731 47.6843 21.3586C47.9382 21.8441 47.2169 22.7367 47.092 22.9522C47.0054 23.1054 46.7858 23.2182 46.7354 23.3894C46.6528 23.6836 47.09 23.6372 47.2773 23.5909C48.2041 23.3894 49.0463 22.6077 49.6184 21.8925C49.8421 21.6125 50.658 20.5245 50.8655 21.4029C51.0348 22.1181 50.4465 22.5755 50.4042 23.2343C50.3837 23.5993 50.2876 23.956 50.1221 24.2819C49.9831 24.5801 50.0476 24.9267 49.9488 25.2389C49.6446 26.21 48.873 26.5424 47.9764 26.8507C47.0799 27.1589 46.1108 27.3705 45.3674 27.9427C44.4648 28.6398 42.2829 30.9889 40.9552 32.4012C39.2689 34.1963 38.1568 34.6174 37.1696 33.5597C36.1824 32.5019 35.4127 30.8136 35.036 30.1085Z" fill="#FFA8A7"/>
<path d="M50.8716 21.413C50.6701 20.5346 49.8481 21.6145 49.6245 21.9026C49.0523 22.6178 48.2142 23.3995 47.2834 23.601C47.096 23.6413 46.6588 23.6876 46.7414 23.3995C46.7918 23.2282 47.0114 23.1154 47.098 22.9623C47.2229 22.7467 47.9442 21.8522 47.6903 21.3687C47.4365 20.8851 47.1887 21.3324 46.5258 21.9409C45.863 22.5493 45.2022 22.7467 44.6179 23.4599C44.0337 24.1731 43.812 25.3256 42.853 26.1294L42.5931 26.3148C42.7503 27.3765 43.399 28.4161 44.3399 28.8936C44.7549 28.4907 45.1176 28.1542 45.3734 27.9547C46.1169 27.3826 47.1101 27.1489 47.9825 26.8628C48.8548 26.5767 49.6507 26.2261 49.9549 25.251C50.0536 24.9387 49.9891 24.5922 50.1281 24.294C50.2936 23.9681 50.3897 23.6114 50.4102 23.2464C50.4525 22.5856 51.0408 22.1282 50.8716 21.413Z" fill="#455A64"/>
<path d="M43.0486 25.9441C43.0304 26.2946 43.2258 27.2295 43.6711 27.7271C43.974 28.0478 44.3395 28.3028 44.7449 28.4766L44.9061 28.3517C44.9061 28.3517 45.0592 28.3678 44.6482 28.7808C44.2372 29.1938 44.1405 29.3469 43.9108 29.3127C43.6812 29.2784 43.0324 28.9097 42.5932 28.2267C42.2737 27.746 42.0842 27.1907 42.0432 26.615C42.0553 26.4135 42.3374 26.2684 42.5932 26.0831C42.8491 25.8977 43.115 25.5895 43.2581 25.7124L43.0486 25.9441Z" fill="#BA68C8"/>
<path opacity="0.2" d="M43.0486 25.9441C43.0304 26.2946 43.2258 27.2295 43.6711 27.7271C43.974 28.0478 44.3395 28.3028 44.7449 28.4766L44.9061 28.3517C44.9061 28.3517 45.0592 28.3678 44.6482 28.7808C44.2372 29.1938 44.1405 29.3469 43.9108 29.3127C43.6812 29.2784 43.0324 28.9097 42.5932 28.2267C42.2737 27.746 42.0842 27.1907 42.0432 26.615C42.0553 26.4135 42.3374 26.2684 42.5932 26.0831C42.8491 25.8977 43.115 25.5895 43.2581 25.7124L43.0486 25.9441Z" fill="black"/>
<path d="M32.9528 18.6589C33.9703 18.8946 34.7661 19.2794 35.2496 19.6904C35.995 20.3351 36.3355 21.3405 36.8432 22.7125C37.3509 24.0845 38.6565 27.4269 38.6565 27.4269C37.1453 27.9079 35.8579 28.9171 35.03 30.2697L31.5728 23.0751L32.9528 18.6589Z" fill="#E0E0E0"/>
<path d="M39.0654 28.8251C38.3948 29.163 37.8514 29.7086 37.5161 30.3805C37.5161 30.3805 37.5161 29.2704 38.9264 28.4403L39.0654 28.8251Z" fill="#F28F8F"/>
<path d="M21.2596 19.2391C21.2596 19.2391 20.0769 20.2787 19.7747 21.4029C19.6276 21.955 19.4906 22.4103 19.9581 25.4807C20.4033 28.4081 20.7196 28.4081 20.9473 30.6404L20.6209 36.2271C22.3717 38.2781 30.5473 39.3217 34.6372 36.5596C34.6372 36.5596 34.8145 28.0777 34.5264 24.5842C34.3249 22.2088 33.3276 19.773 32.9529 18.6589C31.8408 18.4574 30.771 18.3365 30.771 18.3365L26.6811 18.0988L21.2596 19.2391Z" fill="#FAFAFA"/>
<path d="M32.6969 10.866C33.2328 9.63301 32.707 7.99706 32.0643 7.22946C31.1355 6.11936 29.691 5.63986 27.511 5.77484C25.855 5.87759 24.2251 6.56662 23.9148 8.26703C22.5851 8.66998 22.7362 10.8499 23.0666 11.8149C23.7395 13.7732 25.0612 15.4757 25.0813 16.477L32.6969 10.866Z" fill="#37474F"/>
<path d="M32.695 15.4696C32.433 16.4145 31.8891 17.1076 31.0127 17.2446C30.5537 17.2878 30.0916 17.2878 29.6326 17.2446L29.6669 18.4534C31.4801 20.7481 27.2371 21.2135 25.1418 18.6992L25.0169 14.6355C25.0169 14.6355 24.483 15.2399 23.6066 14.6678C23.2501 14.4048 22.9953 14.0268 22.8852 13.5977C22.7751 13.1687 22.8164 12.7147 23.0022 12.3126C23.4394 11.3918 24.3138 11.7726 24.5837 12.0527C24.8537 12.3327 25.166 12.8586 25.3896 12.786C25.5188 12.7458 25.636 12.6742 25.7306 12.5775C25.8252 12.4807 25.8943 12.362 25.9316 12.232C26.135 11.6587 26.2313 11.053 26.2157 10.4449C26.4745 10.3127 26.7068 10.1337 26.9007 9.91708C27.2546 9.54489 27.4682 9.06135 27.5051 8.5491C29.3929 7.95879 31.5647 8.23682 32.3404 8.84526C32.7917 9.64107 32.8098 11.4906 32.8843 12.5563C32.9669 13.7148 32.9146 14.6798 32.695 15.4696Z" fill="#FFA8A7"/>
<path d="M29.6326 17.2506C28.6655 17.1962 26.7213 16.7449 26.2076 16.207C25.6938 15.6691 25.4702 14.563 25.4702 14.563C25.4702 14.563 25.5468 15.9572 25.9477 16.5777C26.3486 17.1983 27.358 17.4622 27.9624 17.6153C28.5181 17.7308 29.0797 17.8155 29.6447 17.8692L29.6326 17.2506Z" fill="#F28F8F"/>
<path d="M29.0201 11.9399C29.0202 12.0443 28.9797 12.1447 28.9071 12.2199C28.8346 12.2951 28.7357 12.3391 28.6313 12.3428C28.551 12.3456 28.4718 12.3244 28.4037 12.2819C28.3356 12.2393 28.2818 12.1774 28.2491 12.1041C28.2164 12.0307 28.2064 11.9493 28.2203 11.8703C28.2343 11.7912 28.2715 11.7181 28.3272 11.6603C28.383 11.6025 28.4547 11.5627 28.5332 11.546C28.6118 11.5293 28.6935 11.5364 28.7679 11.5664C28.8424 11.5965 28.9062 11.6481 28.9511 11.7146C28.996 11.7811 29.0201 11.8596 29.0201 11.9399Z" fill="#263238"/>
<path d="M28.4741 10.6907L27.6823 11.2246C27.6127 11.1156 27.5878 10.9839 27.613 10.857C27.6381 10.7302 27.7113 10.6179 27.8173 10.5437C27.8696 10.5088 27.9285 10.4849 27.9903 10.4734C28.0522 10.4619 28.1157 10.463 28.1771 10.4768C28.2385 10.4905 28.2965 10.5166 28.3475 10.5533C28.3986 10.5901 28.4416 10.6369 28.4741 10.6907Z" fill="#263238"/>
<path d="M32.3162 10.9406L31.4479 10.5255C31.472 10.4676 31.5077 10.4153 31.5528 10.3717C31.5979 10.3281 31.6514 10.2941 31.71 10.2718C31.7686 10.2496 31.8312 10.2395 31.8939 10.2423C31.9565 10.245 32.018 10.2605 32.0744 10.2878C32.1903 10.3453 32.2799 10.4449 32.3248 10.5662C32.3697 10.6875 32.3667 10.8214 32.3162 10.9406Z" fill="#263238"/>
<path d="M32.0139 11.8009C32.0116 11.8776 31.9866 11.9519 31.9423 12.0146C31.8979 12.0773 31.8361 12.1255 31.7645 12.1532C31.6929 12.181 31.6147 12.187 31.5397 12.1706C31.4647 12.1542 31.3962 12.116 31.3427 12.0609C31.2893 12.0058 31.2532 11.9362 31.2391 11.8607C31.225 11.7852 31.2334 11.7073 31.2633 11.6365C31.2932 11.5658 31.3433 11.5055 31.4073 11.463C31.4712 11.4206 31.5463 11.398 31.6231 11.3979C31.7278 11.4011 31.8273 11.4449 31.9002 11.5201C31.9732 11.5954 32.014 11.6961 32.0139 11.8009Z" fill="#263238"/>
<path d="M29.9187 11.0997L30.2008 13.9082L31.7098 13.4529L29.9187 11.0997Z" fill="#F28F8F"/>
<path d="M29.0182 14.563L30.6299 14.9216C30.6122 15.03 30.5726 15.1336 30.5135 15.2261C30.4544 15.3185 30.377 15.398 30.286 15.4595C30.1951 15.521 30.0926 15.5632 29.9847 15.5837C29.8769 15.6042 29.766 15.6024 29.6588 15.5784C29.4421 15.5238 29.2546 15.3879 29.1354 15.1989C29.0161 15.0098 28.9741 14.7822 29.0182 14.563Z" fill="#B16668"/>
<path d="M29.6648 15.5784C29.6981 15.5843 29.7317 15.5883 29.7655 15.5905C29.7613 15.3942 29.6802 15.2074 29.5397 15.0702C29.3991 14.9331 29.2104 14.8566 29.014 14.8572C29.0367 15.0291 29.111 15.1902 29.2272 15.319C29.3434 15.4478 29.496 15.5383 29.6648 15.5784Z" fill="#F28F8F"/>
<path d="M22.7464 10.6907C22.7963 11.183 22.9171 11.6655 23.105 12.1232C23.2118 11.9882 23.3347 11.8552 23.4596 11.7203C24.1888 11.0053 25.0386 10.4248 25.9699 10.0057C28.1236 8.99839 30.7609 8.65992 32.8723 9.2462C32.7949 8.82778 32.6628 8.42136 32.4794 8.03737C31.9737 6.93724 31.0941 6.05225 29.997 5.53993C28.9 5.02761 27.6567 4.92121 26.4885 5.23967C25.3204 5.55812 24.3031 6.28077 23.6179 7.27898C22.9326 8.27719 22.6238 9.48618 22.7464 10.6907Z" fill="#BA68C8"/>
<path d="M24.9625 5.60159C25.2184 5.47668 26.5058 5.09187 26.6105 5.05964C27.2774 4.85817 28.3513 4.87025 29.4533 5.77687C30.3139 6.49513 30.9189 7.47261 31.1779 8.56321L29.8079 8.99234L29.3707 9.03465C29.2095 8.0273 27.8818 5.85746 26.0162 5.77687C25.929 5.77085 25.8415 5.77085 25.7543 5.77687C25.5072 5.78924 25.2633 5.83883 25.031 5.92395C24.7775 6.10128 24.5358 6.29511 24.3077 6.50418C24.3307 6.31032 24.4029 6.12558 24.5175 5.96757C24.6321 5.80956 24.7854 5.68356 24.9625 5.60159Z" fill="#BA68C8"/>
<path opacity="0.45" d="M24.9625 5.60159C25.2184 5.47668 26.5058 5.09187 26.6105 5.05964C27.2774 4.85817 28.3513 4.87025 29.4533 5.77687C30.3139 6.49513 30.9189 7.47261 31.1779 8.56321L29.8079 8.99234L29.3707 9.03465C29.2095 8.0273 27.8818 5.85746 26.0162 5.77687C25.929 5.77085 25.8415 5.77085 25.7543 5.77687C25.5072 5.78924 25.2633 5.83883 25.031 5.92395C24.7775 6.10128 24.5358 6.29511 24.3077 6.50418C24.3307 6.31032 24.4029 6.12558 24.5175 5.96757C24.6321 5.80956 24.7854 5.68356 24.9625 5.60159Z" fill="white"/>
<path d="M29.3748 9.03667C29.1733 7.86411 27.3963 5.08986 25.0351 5.92597C24.7809 6.10327 24.5386 6.2971 24.3098 6.5062C24.3328 6.31237 24.4048 6.12759 24.519 5.96932C24.6332 5.81104 24.7859 5.68448 24.9626 5.6016C25.5771 5.30544 26.8101 5.16038 28.0854 6.20601C28.9452 6.92375 29.5495 7.90056 29.8079 8.99033L29.3748 9.03667Z" fill="#BA68C8"/>
<path opacity="0.3" d="M29.3748 9.03667C29.1733 7.86411 27.3963 5.08986 25.0351 5.92597C24.7809 6.10327 24.5386 6.2971 24.3098 6.5062C24.3328 6.31237 24.4048 6.12759 24.519 5.96932C24.6332 5.81104 24.7859 5.68448 24.9626 5.6016C25.5771 5.30544 26.8101 5.16038 28.0854 6.20601C28.9452 6.92375 29.5495 7.90056 29.8079 8.99033L29.3748 9.03667Z" fill="black"/>
<path d="M25.9316 9.60279C26.0304 9.51616 26.5078 8.48866 28.2083 7.58809C29.2579 7.028 31.4096 6.99979 32.3747 7.01591C34.065 7.04412 34.4679 7.40273 34.4901 7.65256C34.4901 7.71098 34.5183 7.98498 34.5264 8.04542C34.5341 8.10177 34.5212 8.15901 34.4901 8.2066C34.2383 8.5894 32.8783 9.25425 32.8783 9.25425C30.7669 8.66797 28.1297 9.00644 25.976 10.0138L25.9316 9.60279Z" fill="#BA68C8"/>
<path opacity="0.15" d="M25.9316 9.60279C26.0304 9.51616 26.5078 8.48866 28.2083 7.58809C29.2579 7.028 31.4096 6.99979 32.3747 7.01591C34.065 7.04412 34.4679 7.40273 34.4901 7.65256C34.4901 7.71098 34.5183 7.98498 34.5264 8.04542C34.5341 8.10177 34.5212 8.15901 34.4901 8.2066C34.2383 8.5894 32.8783 9.25425 32.8783 9.25425C30.7669 8.66797 28.1297 9.00644 25.976 10.0138L25.9316 9.60279Z" fill="black"/>
<path d="M25.9698 10.0057C28.1236 8.9984 30.7608 8.65993 32.8722 9.24621C32.8722 9.24621 34.2382 8.58135 34.484 8.19856C34.621 7.98701 34.4981 7.44506 32.4089 7.41081C31.4418 7.39469 29.2901 7.4229 28.2404 7.98298C26.5461 8.89968 26.0686 9.91912 25.9698 10.0057Z" fill="#BA68C8"/>
<path opacity="0.3" d="M25.9698 10.0057C28.1236 8.9984 30.7608 8.65993 32.8722 9.24621C32.8722 9.24621 34.2382 8.58135 34.484 8.19856C34.621 7.98701 34.4981 7.44506 32.4089 7.41081C31.4418 7.39469 29.2901 7.4229 28.2404 7.98298C26.5461 8.89968 26.0686 9.91912 25.9698 10.0057Z" fill="black"/>
<path d="M32.4754 71.7464C32.5399 70.6766 33.1141 59.8999 33.1141 59.8999L27.8759 63.5929C28.7885 69.7539 28.99 71.6114 29.0283 72.6389C29.0067 72.7251 28.9985 72.8141 29.0041 72.9028C29.0323 74.1238 30.495 74.7604 31.6413 75.5582C32.6186 76.2625 33.6538 76.8826 34.7359 77.4118C35.564 77.7925 37.2322 77.8046 37.4296 77.2989C36.0354 76.3198 34.4216 75.252 33.3055 74.1278C32.7796 73.5899 32.3969 73.0278 32.4754 71.7464Z" fill="#FFA8A7"/>
<path d="M39.8069 78.5803C39.8774 78.5803 39.9983 79.3157 39.6195 79.636C39.1844 80.0047 37.897 80.6192 36.1784 80.4318C34.4599 80.2444 33.521 79.7549 32.8239 79.223C32.1269 78.6911 31.1497 77.9295 30.37 77.7784C29.6467 77.6374 28.859 77.3372 28.6233 77.1297C28.3876 76.9222 28.4037 75.9773 28.4037 75.9773L39.8069 78.5803Z" fill="#263238"/>
<path d="M34.4478 74.5328C34.335 74.428 34.2262 74.3313 34.1194 74.2144C33.7595 73.8224 33.4808 73.3629 33.2995 72.8626C33.1882 72.6236 33.1017 72.3738 33.0416 72.1171C32.9872 71.821 32.9529 71.5127 32.9026 71.2246C32.8844 71.1138 32.9026 70.87 32.7656 70.8217C32.6059 70.8037 32.4446 70.8339 32.3022 70.9083C31.9536 71.0574 31.589 71.1722 31.2304 71.2992C31.0289 71.3697 30.6159 71.4785 30.5554 71.7021C30.495 71.9257 30.5957 72.2038 30.5554 72.4455C30.5373 72.5402 30.497 72.647 30.3862 72.6349C30.1847 72.6349 30.1344 72.3448 30.082 72.2038C29.9692 71.9076 29.8805 71.7686 29.5602 71.6819C29.3929 71.6356 29.0666 71.6134 28.9558 71.4644L28.9134 71.0614C28.8219 71.0799 28.7358 71.1193 28.6621 71.1767C28.5883 71.234 28.5288 71.3076 28.4883 71.3918C28.3493 71.6799 28.442 72.0809 28.4883 72.3871C28.5451 72.6913 28.5708 73.0005 28.5649 73.3098C28.5406 73.5743 28.4982 73.8369 28.438 74.0956C28.3524 74.5472 28.3099 75.0059 28.311 75.4656C28.3069 75.6788 28.3231 75.892 28.3594 76.1022C28.3911 76.2762 28.4876 76.4317 28.6294 76.5374C28.8454 76.7278 29.0947 76.8767 29.3647 76.9766C29.7334 77.1237 30.1142 77.2365 30.4889 77.3674C31.2606 77.6334 32.1591 78.1935 32.9489 78.7918C33.7387 79.3902 35.4693 80.0188 36.5875 80.0188C38.2959 80.0188 39.4886 79.4547 39.811 78.8664C39.8412 78.4634 39.8654 78.0605 39.682 77.7744C39.0776 76.8517 37.754 76.5535 36.6882 76.0458C36.2244 75.8117 35.7762 75.5479 35.3464 75.256C35.0272 75.0404 34.7266 74.7985 34.4478 74.5328Z" fill="#37474F"/>
<path d="M37.3491 76.3238C35.2558 76.9161 34.5285 78.3285 34.2202 79.4708C34.9709 79.7913 35.7723 79.9768 36.5875 80.0188C38.296 80.0188 39.4887 79.4547 39.811 78.8664C39.8412 78.4634 39.8654 78.0605 39.6821 77.7744C39.2086 77.029 38.2597 76.6905 37.3491 76.3238Z" fill="#455A64"/>
<path d="M30.483 77.3594L30.5716 77.3936C30.489 75.7819 29.8242 74.7141 28.3675 74.4985C28.3255 74.8164 28.3046 75.1368 28.3051 75.4575C28.301 75.6708 28.3172 75.8839 28.3534 76.0941C28.3851 76.2681 28.4816 76.4236 28.6234 76.5293C28.8394 76.7197 29.0887 76.8686 29.3588 76.9685C29.7274 77.1156 30.1082 77.2284 30.483 77.3594Z" fill="#455A64"/>
<path d="M23.8444 63.0731L18.3845 61.8864C18.2415 65.2651 18.3281 69.8365 18.2133 73.0076C18.1911 73.612 17.8829 77.6414 18.0541 78.8785C18.312 80.7421 20.8082 80.6212 21.0137 79.5252C21.2192 78.4292 21.4006 73.743 21.4429 73.2574C21.5577 71.2266 22.7182 67.8177 23.5301 64.1913C23.5704 64.024 23.8061 63.2464 23.8444 63.0731Z" fill="#FFA8A7"/>
<path d="M21.8962 80.3472C21.8761 81.4331 21.7169 82.1604 21.3099 82.8092C20.903 83.4579 20.091 83.6916 19.2509 83.5365C18.4108 83.3813 17.3208 82.932 17.0347 81.9972C16.7486 81.0624 16.7728 80.4298 16.9159 79.4184L21.8962 80.3472Z" fill="#263238"/>
<path d="M18.2577 71.14C17.9172 71.1762 17.8548 74.1238 17.7178 75.5864C17.5767 77.1539 17.0791 77.8187 16.9481 79.1061C16.799 80.5769 16.9159 81.2256 17.5364 82.0879C18.157 82.9502 20.2543 83.742 21.2092 82.4385C21.9869 81.3747 21.9688 80.2223 21.8278 78.7717C21.6807 77.2667 21.6746 74.8531 21.6928 73.7047C21.7089 72.6087 22.0413 71.4503 21.7371 71.3394C21.6726 71.6336 21.6323 71.8854 21.5981 72.0426C21.5235 72.3891 21.4409 72.8082 21.3362 72.7296C21.3362 72.7296 21.3664 72.4213 21.3704 72.2803C21.3744 72.1393 21.4047 72.0466 21.31 71.9559C21.2153 71.8653 20.8043 71.8089 20.6633 71.7907C20.3228 71.7424 19.9823 71.7041 19.6378 71.688C19.4665 71.688 19.2933 71.688 19.122 71.688C18.9758 71.6919 18.8307 71.7157 18.6909 71.7585C18.6516 71.7706 18.6153 71.7909 18.5844 71.8179C18.5535 71.845 18.5287 71.8783 18.5115 71.9156C18.5004 71.9708 18.5004 72.0277 18.5115 72.0829C18.5163 72.1838 18.5068 72.2848 18.4833 72.3831C18.4713 72.4274 18.441 72.4818 18.3907 72.4737C18.3403 72.4657 18.3101 72.4375 18.296 72.3387C18.2721 72.1382 18.2613 71.9363 18.2637 71.7343C18.2637 71.6396 18.2637 71.5087 18.2637 71.414C18.2637 71.3193 18.2557 71.2327 18.2577 71.14Z" fill="#37474F"/>
<path d="M16.8917 79.9563C16.8736 80.867 16.9622 81.4855 17.4477 82.1604C18.0683 83.0227 20.3308 83.8105 21.2757 82.5069C21.7512 81.8582 21.8519 81.1087 21.8801 80.3472C21.2434 79.3942 17.8124 79.09 16.8917 79.9563Z" fill="#455A64"/>
<path d="M34.8589 26.9877C34.8589 26.9877 30.7146 27.9205 24.5013 27.4934C24.5013 31.5994 24.9344 36.3097 22.9681 36.2836L20.6209 36.2271C20.49 42.376 19.4504 55.1956 19.4504 55.1956C19.3577 55.9511 18.2637 59.1626 18.2234 61.8945C18.161 66.1798 18.0703 69.4275 18.0703 69.4275C18.0703 69.4275 20.4638 70.3744 22.2226 69.7176C22.2226 69.7176 24.5093 60.6091 25.152 57.7664C25.9156 54.3796 27.4931 48.122 27.4931 48.122L27.6845 57.033C27.4607 58.8287 27.4364 60.6435 27.612 62.4445C27.8134 64.2578 28.5488 69.2764 28.5488 69.2764C28.5488 69.2764 30.7509 69.7196 32.6608 69.1535C32.6608 69.1535 33.8112 58.3607 33.9059 56.6986C34.0087 54.8853 34.5808 38.2298 34.6332 36.6764C35.157 28.8453 34.8589 26.9877 34.8589 26.9877Z" fill="#455A64"/>
<path d="M24.5013 27.4934C24.2112 23.7742 24.2192 20.7179 22.8251 18.9107L24.6061 18.536C24.6061 18.536 26.1473 21.9489 26.1473 27.6203L24.5013 27.4934Z" fill="#455A64"/>
<path d="M33.2229 27.3967C33.2229 23.3451 32.3303 19.8717 30.916 18.3547L32.9529 18.6589C32.9529 18.6589 34.8588 21.7253 34.8588 27.3967H33.2229Z" fill="#455A64"/>
<path d="M26.7396 28.3436C26.7396 28.3436 30.0135 28.5451 32.7636 28.0233L32.8885 30.8096L30.1445 32.5302L26.7396 31.418V28.3436Z" fill="#37474F"/>
<path d="M21.4671 36.4306C23.0446 37.0854 26.8746 37.4783 29.949 37.438C33.0235 37.3977 34.6332 36.6744 34.6332 36.6744L34.5828 38.5481C34.5828 38.5481 29.127 40.8368 21.2334 38.1452L21.4671 36.4306Z" fill="#BA68C8"/>
<path opacity="0.3" d="M21.4671 36.4306C23.0446 37.0854 26.8746 37.4783 29.949 37.438C33.0235 37.3977 34.6332 36.6744 34.6332 36.6744L34.5828 38.5481C34.5828 38.5481 29.127 40.8368 21.2334 38.1452L21.4671 36.4306Z" fill="black"/>
<path d="M27.493 48.122L28.9557 42.2108C28.9557 42.2108 31.1477 42.239 32.5822 40.8992C32.5822 40.8992 32.3807 42.4082 29.7757 43.2141L28.4218 47.9104L27.6542 56.8658L27.493 48.122Z" fill="#37474F"/>
<path d="M25.164 18.2842L25.1761 18.6871C25.4915 19.5812 25.7202 20.5034 25.8591 21.4412C26.2822 23.9939 26.3547 27.3403 26.3547 31.1118V41.5037C26.3547 41.5037 21.6303 41.8059 20.1293 38.1995L20.7337 30.6404C20.7337 30.6404 19.8674 26.7318 19.6317 24.4975C19.3959 22.2632 18.9749 20.6978 21.0641 18.9893L25.164 18.2842Z" fill="#BA68C8"/>
<path d="M20.2986 28.5269C20.5343 29.7237 20.7378 30.6404 20.7378 30.6404L20.7156 30.9365C22.1763 31.8915 24.3421 32.504 26.3568 32.4113V30.2999C24.1567 30.4006 21.7391 29.6512 20.2986 28.5269Z" fill="#F0F0F0"/>
<path d="M26.3528 36.6059V34.4864C24.2817 34.5811 22.0232 33.9223 20.5625 32.9089L20.4094 34.9095C21.86 35.9914 24.2071 36.7026 26.3528 36.6059Z" fill="#F0F0F0"/>
<path d="M29.7415 18.2358C31.0632 19.0318 32.0191 20.3154 32.4029 21.8099C33.0395 24.3122 33.1342 26.2866 33.2229 29.5C33.3115 32.7135 33.1806 41.6789 33.1806 41.6789C33.1806 41.6789 34.5909 41.0604 34.9011 40.3895C34.9011 40.3895 35.3041 29.0044 34.8588 24.969C34.4136 20.9335 32.9529 18.6589 32.9529 18.6589C32.9529 18.6589 31.9093 18.2318 29.7415 18.2358Z" fill="#BA68C8"/>
<path d="M33.2572 32.0063C33.8669 31.9887 34.4738 31.9159 35.0704 31.7887C35.0704 31.0836 35.0704 30.3785 35.0704 29.6794C34.4624 29.8071 33.844 29.8786 33.2229 29.8929C33.2451 30.5014 33.2531 31.2246 33.2572 32.0063Z" fill="#F0F0F0"/>
<path d="M35.0362 35.9934C35.0483 35.3447 35.0624 34.6275 35.0704 33.874C34.4773 33.9951 33.8745 34.0625 33.2693 34.0754C33.2693 34.7907 33.2693 35.5059 33.2693 36.1889C33.8628 36.1745 34.4539 36.1091 35.0362 35.9934Z" fill="#F0F0F0"/>
<path d="M22.1198 19.0316C20.911 19.0316 19.5007 18.9792 18.709 20.724C18.4511 21.2921 17.6553 24.6325 16.7708 27.713C15.1872 25.6983 13.8354 23.6332 13.6601 23.2665C13.1907 22.2854 13.1846 21.6225 12.7051 20.6091C12.429 20.0543 12.2154 19.4705 12.0685 18.8684C11.9536 18.4655 11.595 18.7616 11.4641 18.943C11.2543 19.249 11.1388 19.6097 11.1316 19.9805C11.1316 20.2425 11.1316 20.5104 11.1115 20.7683C11.0913 21.0262 11.0047 21.0161 10.7952 20.8993C10.364 20.6575 9.9893 20.2404 9.63875 19.906C9.28819 19.5716 8.80869 19.2573 8.42992 18.8986C8.05116 18.54 7.85976 18.1754 7.55151 17.8127C7.31982 17.5407 6.92494 17.1882 6.62071 17.577C6.43939 17.8127 6.60661 18.0867 6.6872 18.3224C6.77988 18.5904 6.6872 18.7878 6.63683 19.0518C6.54777 19.3385 6.55627 19.6467 6.66101 19.9282C6.80607 20.2122 6.93501 20.3875 6.89673 20.722C6.86651 20.998 6.76779 21.2619 6.80808 21.546C6.84032 21.7797 7.00955 21.9489 7.12641 22.1504C7.33274 22.5081 7.58843 22.835 7.88595 23.1215C8.23658 23.4766 8.61596 23.802 9.02023 24.0946C9.9893 24.8481 10.3499 25.0838 10.6743 25.3356C11.1598 25.7104 11.6615 26.6714 11.9436 27.2013C12.4936 28.2408 13.6802 31.138 15.2638 33.2111C16.1805 34.4058 17.4276 34.7866 18.5276 33.4368C19.1038 32.7276 19.5934 31.6034 19.9117 30.7532C21.1347 27.4954 22.0191 24.8158 22.0191 24.8158C22.0191 24.8158 23.0063 21.7716 22.1198 19.0316Z" fill="#FFA8A7"/>
<path d="M14.2464 24.2114C13.9321 23.736 13.7226 23.3914 13.6601 23.2625C13.1907 22.2813 13.1846 21.6185 12.7051 20.6051C12.4293 20.0516 12.2157 19.4691 12.0685 18.8684C11.9536 18.4655 11.595 18.7617 11.4641 18.943C11.2543 19.249 11.1388 19.6097 11.1316 19.9805C11.1316 20.2425 11.1316 20.5104 11.1115 20.7683C11.0913 21.0262 11.0047 21.0161 10.7952 20.8993C10.364 20.6575 9.9893 20.2404 9.63875 19.906C9.28819 19.5716 8.80869 19.2573 8.42992 18.8986C8.05116 18.54 7.85976 18.1754 7.55151 17.8127C7.31982 17.5407 6.92494 17.1882 6.62071 17.577C6.43939 17.8127 6.60661 18.0867 6.6872 18.3224C6.77988 18.5904 6.6872 18.7878 6.63683 19.0518C6.54777 19.3385 6.55627 19.6467 6.66101 19.9282C6.80607 20.2122 6.93501 20.3875 6.89673 20.722C6.86651 20.998 6.76779 21.2619 6.80808 21.546C6.84032 21.7797 7.00955 21.9489 7.12641 22.1504C7.33274 22.5081 7.58843 22.835 7.88595 23.1215C8.23658 23.4766 8.61596 23.802 9.02023 24.0946C9.9893 24.8481 10.3499 25.0838 10.6743 25.3356C11.1357 25.6922 11.6111 26.5767 11.8992 27.1166C12.8623 26.5001 13.7346 25.3155 14.2464 24.2114Z" fill="#455A64"/>
<path d="M13.9401 23.742L13.789 23.5163C13.789 23.5163 13.8495 23.2524 14.0953 23.6292C14.3163 23.9429 14.5072 24.2768 14.6654 24.6265C14.6956 24.7695 14.4519 26.0025 13.6863 26.615C12.9207 27.2274 12.2478 27.4108 12.0342 27.3846C11.8207 27.3584 11.7602 27.165 11.6313 26.9091C11.5023 26.6532 11.2042 26.339 11.2948 26.1032L11.4681 26.347C12.1555 26.1706 12.7719 25.7865 13.233 25.247C13.9119 24.3827 13.9401 23.742 13.9401 23.742Z" fill="#BA68C8"/>
<path opacity="0.2" d="M13.9401 23.742L13.789 23.5163C13.789 23.5163 13.8495 23.2524 14.0953 23.6292C14.3163 23.9429 14.5072 24.2768 14.6654 24.6265C14.6956 24.7695 14.4519 26.0025 13.6863 26.615C12.9207 27.2274 12.2478 27.4108 12.0342 27.3846C11.8207 27.3584 11.7602 27.165 11.6313 26.9091C11.5023 26.6532 11.2042 26.339 11.2948 26.1032L11.4681 26.347C12.1555 26.1706 12.7719 25.7865 13.233 25.247C13.9119 24.3827 13.9401 23.742 13.9401 23.742Z" fill="black"/>
<path d="M16.7709 27.713C17.3504 28.8095 17.7007 30.0125 17.8004 31.2488C18.0019 29.4134 17.4438 27.7351 16.928 27.169L16.7709 27.713Z" fill="#F28F8F"/>
<path d="M22.3194 18.7717C21.167 18.9531 20.9212 18.9732 20.1858 19.2271C19.4504 19.4809 18.9226 19.7327 18.2436 21.9469C17.5909 24.0825 16.9824 26.5122 16.9824 26.5122C16.9824 26.5122 17.6271 28.2006 20.8104 28.5269L22.4967 23.8246C22.4967 23.8246 23.0165 20.9879 22.3194 18.7717Z" fill="#EBEBEB"/>
<path d="M10.9947 21.3647C11.01 21.4912 10.9876 21.6194 10.9301 21.7331C10.8726 21.8469 10.7827 21.941 10.6717 22.0037C10.5608 22.0664 10.4337 22.0948 10.3066 22.0853C10.1795 22.0758 10.0581 22.0288 9.95768 21.9503C9.85726 21.8719 9.78235 21.7654 9.74242 21.6444C9.70249 21.5233 9.69933 21.3932 9.73333 21.2704C9.76733 21.1475 9.83698 21.0375 9.93346 20.9543C10.0299 20.871 10.1489 20.8182 10.2754 20.8025C10.3596 20.7919 10.4451 20.7979 10.5269 20.8205C10.6087 20.843 10.6853 20.8815 10.7522 20.9337C10.819 20.986 10.8749 21.051 10.9165 21.1249C10.9581 21.1989 10.9847 21.2804 10.9947 21.3647Z" fill="#263238"/>
<path d="M47.8738 23.3935H47.1606C46.9768 23.3935 46.8005 23.4665 46.6705 23.5965C46.5406 23.7264 46.4675 23.9027 46.4675 24.0865V31.6256C46.4675 32.5339 46.1067 33.4051 45.4644 34.0474C44.8221 34.6897 43.9509 35.0506 43.0425 35.0506H13.6218C12.7134 35.0506 11.8422 34.6897 11.1999 34.0474C10.5576 33.4051 10.1968 32.5339 10.1968 31.6256V21.8099C10.1968 21.7698 10.2127 21.7314 10.241 21.7031C10.2694 21.6747 10.3078 21.6588 10.3479 21.6588C10.388 21.6588 10.4264 21.6747 10.4547 21.7031C10.4831 21.7314 10.499 21.7698 10.499 21.8099V31.555C10.499 31.9735 10.5814 32.3879 10.7416 32.7745C10.9018 33.161 11.1366 33.5123 11.4326 33.8081C11.7286 34.1039 12.08 34.3385 12.4667 34.4984C12.8534 34.6584 13.2678 34.7406 13.6862 34.7403H42.9781C43.3965 34.7406 43.8109 34.6584 44.1976 34.4984C44.5843 34.3385 44.9357 34.1039 45.2317 33.8081C45.5277 33.5123 45.7625 33.161 45.9227 32.7745C46.0829 32.3879 46.1653 31.9735 46.1653 31.555V24.0865C46.1653 23.8226 46.2702 23.5694 46.4568 23.3828C46.6435 23.1961 46.8966 23.0913 47.1606 23.0913H48.3875C48.2248 23.2058 48.053 23.3069 47.8738 23.3935Z" fill="#37474F"/>
<path d="M9.59043 21.5782C9.13712 21.3767 9.08876 20.9879 9.48365 20.6917C9.70695 20.5415 9.96262 20.4462 10.2298 20.4136C10.4969 20.3811 10.768 20.4122 11.0209 20.5044C11.4742 20.7058 11.5225 21.0947 11.1276 21.3908C10.9043 21.5411 10.6487 21.6364 10.3815 21.6689C10.1144 21.7015 9.84328 21.6704 9.59043 21.5782Z" fill="#37474F"/>
<path d="M9.53806 21.3506C9.07065 21.1491 9.02028 20.7461 9.42725 20.4359C9.65704 20.2799 9.92041 20.1804 10.1959 20.1454C10.4714 20.1104 10.7513 20.1409 11.0128 20.2344C11.4802 20.4359 11.5306 20.8388 11.1236 21.1491C10.8938 21.3051 10.6305 21.4046 10.355 21.4396C10.0794 21.4746 9.79956 21.4441 9.53806 21.3506Z" fill="#263238"/>
<path d="M9.48564 21.1148C9.00211 20.9134 8.95174 20.4862 9.3708 20.1719C9.60793 20.0118 9.8796 19.9101 10.1636 19.8751C10.4476 19.8401 10.7358 19.8728 11.0047 19.9705C11.4862 20.1719 11.5386 20.5991 11.1196 20.9134C10.8824 21.0735 10.6108 21.1752 10.3268 21.2102C10.0428 21.2452 9.75456 21.2125 9.48564 21.1148Z" fill="#37474F"/>
<path d="M9.43128 20.8711C8.93364 20.6696 8.87925 20.2243 9.31241 19.9C9.55728 19.7366 9.8372 19.6332 10.1295 19.5982C10.4218 19.5632 10.7182 19.5976 10.9947 19.6985C11.4923 19.9 11.5467 20.3452 11.1136 20.6716C10.8685 20.8346 10.5885 20.9377 10.2962 20.9723C10.004 21.007 9.70765 20.9723 9.43128 20.8711Z" fill="#263238"/>
<path d="M9.38294 20.6152C8.87524 20.3996 8.82084 19.9564 9.26206 19.6239C9.51213 19.4576 9.79793 19.3527 10.0962 19.3177C10.3945 19.2827 10.6968 19.3186 10.9786 19.4225C11.4863 19.638 11.5407 20.0833 11.0995 20.4137C10.8495 20.5803 10.5637 20.6854 10.2654 20.7204C9.96705 20.7555 9.66467 20.7194 9.38294 20.6152Z" fill="#37474F"/>
<path d="M9.33052 13.0459C8.52081 13.1447 7.78346 13.561 7.2806 14.2032C6.77774 14.8455 6.55053 15.6612 6.64895 16.4709C6.94511 18.8886 8.99407 19.0538 9.11293 20.0309C9.13173 20.1241 9.17506 20.2106 9.23846 20.2814C9.30186 20.3523 9.38303 20.4049 9.47357 20.4339C9.71892 20.5225 9.98165 20.5522 10.2406 20.5207C10.4995 20.4892 10.7475 20.3974 10.9644 20.2525C11.0455 20.2037 11.112 20.134 11.157 20.0507C11.202 19.9675 11.2238 19.8737 11.2203 19.7791C11.1014 18.802 13.0517 18.1552 12.7575 15.7315C12.7091 15.3301 12.5821 14.9421 12.3836 14.5897C12.1851 14.2374 11.9191 13.9277 11.6008 13.6782C11.2825 13.4288 10.9182 13.2446 10.5286 13.1361C10.1391 13.0276 9.73193 12.997 9.33052 13.0459Z" fill="#BA68C8"/>
<g opacity="0.6">
<path d="M9.33052 13.0459C8.52081 13.1447 7.78346 13.561 7.2806 14.2032C6.77774 14.8455 6.55053 15.6612 6.64895 16.4709C6.94511 18.8886 8.99407 19.0538 9.11293 20.0309C9.13173 20.1241 9.17506 20.2106 9.23846 20.2814C9.30186 20.3523 9.38303 20.4049 9.47357 20.4339C9.71892 20.5225 9.98165 20.5522 10.2406 20.5207C10.4995 20.4892 10.7475 20.3974 10.9644 20.2525C11.0455 20.2037 11.112 20.134 11.157 20.0507C11.202 19.9675 11.2238 19.8737 11.2203 19.7791C11.1014 18.802 13.0517 18.1552 12.7575 15.7315C12.7091 15.3301 12.5821 14.9421 12.3836 14.5897C12.1851 14.2374 11.9191 13.9277 11.6008 13.6782C11.2825 13.4288 10.9182 13.2446 10.5286 13.1361C10.1391 13.0276 9.73193 12.997 9.33052 13.0459Z" fill="white"/>
</g>
<path d="M9.65079 20.2687C9.32038 20.1276 9.28411 19.8375 9.57222 19.6219C9.73508 19.5128 9.92135 19.4435 10.116 19.4197C10.3106 19.3959 10.508 19.4183 10.6924 19.4849C11.0228 19.626 11.0591 19.9161 10.771 20.1317C10.6083 20.2413 10.422 20.3108 10.2273 20.3346C10.0326 20.3584 9.83507 20.3358 9.65079 20.2687Z" fill="#BA68C8"/>
<path d="M10.5615 19.7509C10.5345 19.7543 10.5073 19.7469 10.4858 19.7303C10.4642 19.7137 10.4502 19.6892 10.4467 19.6622C10.3754 19.0741 10.3754 18.4794 10.4467 17.8913C10.4665 17.7216 10.4974 17.5533 10.5393 17.3876C10.4417 17.365 10.3465 17.3326 10.2553 17.2909C10.093 17.2165 9.94292 17.118 9.81002 16.9988C9.70951 17.146 9.58801 17.2776 9.44939 17.3896C9.37202 17.452 9.28828 17.506 9.19956 17.5508C9.28055 17.7017 9.35123 17.8578 9.41111 18.0182C9.62138 18.572 9.76477 19.149 9.83822 19.7368C9.84053 19.7642 9.83218 19.7914 9.81492 19.8128C9.79765 19.8342 9.77281 19.8481 9.74555 19.8516C9.71785 19.8539 9.69035 19.8452 9.66891 19.8276C9.64747 19.8099 9.63376 19.7845 9.63071 19.7569C9.55833 19.1871 9.41902 18.6279 9.21568 18.0908C9.15676 17.9313 9.08605 17.7764 9.00414 17.6274C8.90295 17.6612 8.79503 17.67 8.68972 17.6528C8.58441 17.6356 8.48487 17.593 8.39972 17.5286C8.33593 17.4811 8.29115 17.4125 8.27342 17.3349C8.2557 17.2574 8.26619 17.1761 8.30302 17.1056C8.32849 17.0567 8.36801 17.0166 8.41648 16.9904C8.46496 16.9641 8.52017 16.953 8.575 16.9585C8.74222 16.9726 8.92355 17.1197 9.09278 17.3775C9.17357 17.3385 9.24933 17.2897 9.31843 17.2325C9.45395 17.1261 9.57102 16.9981 9.66496 16.8537C9.59223 16.7792 9.53515 16.691 9.49709 16.5941C9.45903 16.4972 9.44075 16.3937 9.44334 16.2896C9.4537 16.2274 9.48387 16.1703 9.52937 16.1267C9.57487 16.0831 9.63324 16.0554 9.69579 16.0477C9.75833 16.04 9.82169 16.0527 9.87641 16.0839C9.93113 16.1152 9.97427 16.1633 9.9994 16.2211C10.0286 16.3218 10.0367 16.4275 10.0232 16.5315C10.0097 16.6355 9.97484 16.7356 9.92083 16.8255C10.0462 16.944 10.1906 17.0407 10.3479 17.1116C10.4291 17.1497 10.5143 17.1788 10.6018 17.1982C10.7045 16.9081 10.8436 16.7207 11.0047 16.6684C11.0568 16.6517 11.1125 16.6507 11.1652 16.6654C11.2178 16.6801 11.265 16.7098 11.3009 16.751C11.3523 16.8114 11.3805 16.8882 11.3805 16.9676C11.3805 17.0469 11.3523 17.1237 11.3009 17.1841C11.2345 17.266 11.1492 17.3306 11.0524 17.3724C10.9555 17.4141 10.85 17.4318 10.7448 17.4239C10.6994 17.589 10.6671 17.7574 10.6481 17.9276C10.5827 18.4972 10.5827 19.0724 10.6481 19.6421C10.6501 19.6557 10.6494 19.6696 10.646 19.6829C10.6427 19.6963 10.6367 19.7088 10.6285 19.7199C10.6202 19.7309 10.6099 19.7402 10.5981 19.7473C10.5862 19.7543 10.5731 19.759 10.5595 19.7609L10.5615 19.7509ZM8.54478 17.16C8.52866 17.16 8.50852 17.172 8.49039 17.2063C8.44808 17.2808 8.51658 17.3473 8.53874 17.3675C8.58827 17.4029 8.64482 17.4274 8.70459 17.4392C8.76436 17.451 8.82596 17.4499 8.88527 17.436C8.75028 17.2466 8.63141 17.164 8.5609 17.16H8.54478ZM10.8194 17.2002C10.8804 17.2008 10.9408 17.1875 10.9959 17.1613C11.0511 17.1352 11.0996 17.0968 11.1377 17.0491C11.1538 17.027 11.2062 16.9444 11.1478 16.8819C11.1391 16.8693 11.1266 16.8598 11.1121 16.8547C11.0976 16.8496 11.0819 16.8493 11.0672 16.8537C11.0007 16.8779 10.906 16.9867 10.8194 17.2023V17.2002ZM9.72137 16.2493C9.66899 16.2493 9.65489 16.2795 9.64884 16.3138C9.64882 16.4347 9.69164 16.5518 9.76972 16.6442C9.82311 16.5354 9.83665 16.4114 9.808 16.2936C9.80205 16.2766 9.78961 16.2626 9.77339 16.2547C9.75717 16.2467 9.73847 16.2455 9.72137 16.2513V16.2493Z" fill="white"/>
<path d="M11.3009 12.0708C11.2758 12.0611 11.2529 12.0464 11.2336 12.0276C11.2143 12.0089 11.1989 11.9865 11.1884 11.9617C11.1778 11.9369 11.1724 11.9102 11.1724 11.8833C11.1723 11.8564 11.1777 11.8297 11.1881 11.8049L11.5911 10.8217C11.6116 10.7727 11.6506 10.7338 11.6996 10.7134C11.7487 10.693 11.8038 10.6929 11.853 10.7129C11.8778 10.7227 11.9005 10.7373 11.9197 10.7559C11.9388 10.7745 11.9541 10.7967 11.9646 10.8213C11.9751 10.8458 11.9806 10.8722 11.9808 10.8989C11.981 10.9256 11.9759 10.9521 11.9658 10.9768L11.5629 11.962C11.5531 11.9871 11.5384 12.01 11.5197 12.0294C11.5009 12.0487 11.4785 12.0641 11.4537 12.0746C11.4289 12.0851 11.4023 12.0906 11.3753 12.0906C11.3484 12.0906 11.3217 12.0853 11.2969 12.0748L11.3009 12.0708Z" fill="#E0E0E0"/>
<path d="M8.97183 11.7807C8.93882 11.7675 8.90988 11.7459 8.88794 11.7179C8.86601 11.69 8.85185 11.6567 8.84692 11.6215L8.69984 10.5699C8.69236 10.5164 8.70641 10.4622 8.73891 10.4191C8.7714 10.3761 8.81967 10.3477 8.87311 10.3402C8.92654 10.3327 8.98076 10.3468 9.02383 10.3793C9.0669 10.4117 9.0953 10.46 9.10278 10.5135L9.24784 11.5651C9.25182 11.5916 9.25047 11.6186 9.24387 11.6446C9.23728 11.6706 9.22557 11.695 9.20944 11.7164C9.1933 11.7377 9.17307 11.7557 9.14991 11.7692C9.12675 11.7826 9.10114 11.7914 9.07458 11.7948C9.03968 11.7992 9.00426 11.7943 8.97183 11.7807Z" fill="#E0E0E0"/>
<path d="M6.81009 12.6954C6.77758 12.6821 6.74911 12.6606 6.72748 12.6329L6.07472 11.7948C6.05832 11.7736 6.04624 11.7494 6.03919 11.7236C6.03213 11.6978 6.03023 11.6708 6.0336 11.6442C6.03697 11.6177 6.04554 11.592 6.05881 11.5688C6.07209 11.5455 6.08982 11.5251 6.11098 11.5087C6.13215 11.4923 6.15634 11.4802 6.18217 11.4732C6.208 11.4661 6.23497 11.4642 6.26154 11.4676C6.28811 11.471 6.31375 11.4795 6.337 11.4928C6.36026 11.5061 6.38067 11.5238 6.39707 11.545L7.04984 12.3811C7.06656 12.4021 7.0789 12.4263 7.08613 12.4522C7.09337 12.478 7.09536 12.5051 7.09198 12.5318C7.0886 12.5584 7.07992 12.5841 7.06646 12.6074C7.05299 12.6306 7.03501 12.651 7.01357 12.6672C6.9853 12.6897 6.9515 12.7042 6.91569 12.7092C6.87989 12.7141 6.84342 12.7094 6.81009 12.6954Z" fill="#E0E0E0"/>
<path d="M4.41265 14.1681C4.36269 14.1476 4.32295 14.108 4.30217 14.0581C4.28139 14.0082 4.28127 13.9521 4.30184 13.9022C4.32242 13.8522 4.36199 13.8125 4.41186 13.7917C4.46174 13.7709 4.51782 13.7708 4.56778 13.7914L5.55096 14.1943C5.5757 14.2044 5.59821 14.2192 5.61722 14.238C5.63623 14.2567 5.65136 14.279 5.66174 14.3036C5.67212 14.3282 5.67756 14.3546 5.67774 14.3813C5.67791 14.408 5.67283 14.4345 5.66278 14.4593C5.65272 14.484 5.6379 14.5065 5.61914 14.5255C5.60039 14.5445 5.57807 14.5596 5.55347 14.57C5.52887 14.5804 5.50246 14.5858 5.47576 14.586C5.44906 14.5862 5.42258 14.5811 5.39784 14.5711L4.41467 14.1681H4.41265Z" fill="#E0E0E0"/>
<path d="M4.05603 17.0411C4.0234 17.0276 3.99488 17.0059 3.97331 16.9779C3.95174 16.95 3.93789 16.9169 3.93314 16.8819C3.92916 16.8554 3.93051 16.8284 3.93711 16.8024C3.9437 16.7765 3.95541 16.7521 3.97154 16.7307C3.98768 16.7093 4.00791 16.6914 4.03107 16.6779C4.05423 16.6644 4.07984 16.6557 4.1064 16.6522L5.15808 16.5052C5.21151 16.4977 5.26573 16.5117 5.3088 16.5442C5.35187 16.5767 5.38027 16.625 5.38776 16.6784C5.39524 16.7319 5.38118 16.7861 5.34869 16.8292C5.3162 16.8722 5.26792 16.9006 5.21449 16.9081L4.16281 17.0552C4.12661 17.0609 4.08951 17.056 4.05603 17.0411Z" fill="#E0E0E0"/>
<path d="M14.0832 15.6449C14.0397 15.6296 14.0028 15.5998 13.9786 15.5605C13.9544 15.5213 13.9444 15.4749 13.9503 15.4291C13.9562 15.3833 13.9776 15.341 14.011 15.3091C14.0443 15.2773 14.0876 15.2578 14.1336 15.2541L15.1853 15.107C15.2119 15.103 15.2391 15.1044 15.2652 15.1112C15.2913 15.1179 15.3157 15.1298 15.3371 15.1461C15.3586 15.1625 15.3765 15.1829 15.3898 15.2063C15.4032 15.2297 15.4117 15.2555 15.415 15.2823C15.4189 15.3088 15.4176 15.3358 15.411 15.3617C15.4044 15.3877 15.3927 15.4121 15.3765 15.4335C15.3604 15.4549 15.3402 15.4728 15.317 15.4863C15.2939 15.4998 15.2683 15.5085 15.2417 15.5119L14.19 15.657C14.154 15.6634 14.1169 15.6592 14.0832 15.6449Z" fill="#E0E0E0"/>
<path d="M13.1725 13.4851C13.139 13.4716 13.1098 13.4494 13.0879 13.4207C13.0705 13.3995 13.0577 13.3751 13.05 13.3488C13.0424 13.3225 13.0403 13.295 13.0437 13.2678C13.0471 13.2407 13.0559 13.2145 13.0698 13.1909C13.0836 13.1673 13.1021 13.1468 13.1242 13.1306L13.9623 12.4778C13.9834 12.4614 14.0076 12.4493 14.0335 12.4423C14.0593 12.4352 14.0863 12.4333 14.1128 12.4367C14.1394 12.44 14.165 12.4486 14.1883 12.4619C14.2115 12.4752 14.232 12.4929 14.2484 12.5141C14.2648 12.5352 14.2768 12.5594 14.2839 12.5852C14.2909 12.6111 14.2928 12.638 14.2895 12.6646C14.2861 12.6912 14.2775 12.7168 14.2643 12.7401C14.251 12.7633 14.2333 12.7837 14.2121 12.8001L13.374 13.4529C13.3463 13.4757 13.313 13.4908 13.2776 13.4964C13.2422 13.5021 13.2059 13.4982 13.1725 13.4851Z" fill="#E0E0E0"/>
<path d="M20.1273 36.7187L19.0595 37.307C18.9902 37.3502 18.9321 37.4093 18.8901 37.4794C18.8481 37.5494 18.8233 37.6285 18.8178 37.71C18.7916 38.6629 18.7029 42.4103 18.856 44.2014C18.8669 44.2833 18.8956 44.3619 18.9402 44.4315C18.9847 44.5011 19.044 44.5601 19.1139 44.6043C19.7183 44.9448 21.3583 45.8433 22.1098 46.0509C22.2815 46.0801 22.4579 46.0613 22.6195 45.9965L23.3771 45.6922C23.4476 45.6592 23.508 45.6077 23.5516 45.5431C23.5952 45.4786 23.6205 45.4034 23.6249 45.3256C23.6249 43.4237 23.9714 40.8549 24.2857 38.7838C24.2942 38.7075 24.2795 38.6303 24.2436 38.5624C24.2077 38.4945 24.1521 38.439 24.0842 38.403L20.5968 36.7026C20.5217 36.6723 20.4412 36.6581 20.3603 36.6609C20.2795 36.6636 20.2001 36.6834 20.1273 36.7187Z" fill="#455A64"/>
<path d="M18.856 44.1933C18.7029 42.4022 18.7916 38.6549 18.8178 37.7019C18.814 37.6716 18.8191 37.6407 18.8325 37.6133C18.846 37.5858 18.8672 37.5628 18.8935 37.5472C18.9198 37.5316 18.9501 37.524 18.9807 37.5253C19.0112 37.5267 19.0408 37.5369 19.0656 37.5548L22.3133 39.1666C22.3811 39.2047 22.4372 39.2608 22.4752 39.3287C22.5132 39.3966 22.5318 39.4737 22.5289 39.5514C22.4604 40.3956 22.2528 43.5708 22.3576 45.8131C22.3618 45.8456 22.3581 45.8786 22.3467 45.9093C22.3352 45.94 22.3165 45.9674 22.2921 45.9893C22.2677 46.0111 22.2384 46.0266 22.2066 46.0346C22.1748 46.0425 22.1416 46.0425 22.1098 46.0347C21.3583 45.8333 19.7204 44.9287 19.1139 44.5882C19.045 44.5449 18.9863 44.4871 18.9417 44.419C18.8972 44.3508 18.868 44.2738 18.856 44.1933Z" fill="#37474F"/>
<path d="M22.1421 46.0448C22.3015 46.0624 22.4628 46.0403 22.6115 45.9803L23.3711 45.6761C23.4404 45.6419 23.4994 45.5899 23.5422 45.5255C23.585 45.4612 23.6101 45.3866 23.6148 45.3094C23.7639 43.3572 23.9614 40.8408 24.2777 38.7697C24.2868 38.7002 24.2733 38.6296 24.2394 38.5682L22.4826 39.3741C22.5116 39.4321 22.5248 39.4968 22.5209 39.5615C22.4503 40.4097 22.2448 43.5909 22.3496 45.8252C22.3522 45.8537 22.3487 45.8824 22.3394 45.9094C22.33 45.9364 22.315 45.9611 22.2954 45.9818C22.2758 46.0026 22.252 46.019 22.2255 46.0298C22.1991 46.0407 22.1706 46.0458 22.1421 46.0448Z" fill="#263238"/>
<path d="M19.271 38.3144L22.1158 39.6421L21.9788 42.0597L19.1945 40.865C19.1945 40.865 19.2206 39.1364 19.271 38.3144Z" fill="#263238"/>
<path d="M21.9889 41.9126L19.3214 40.7703C19.3214 40.7703 19.3456 39.1908 19.3899 38.3748L22.1098 39.6421L21.9889 41.9126Z" fill="#BA68C8"/>
<path opacity="0.4" d="M21.9889 41.9126L19.3214 40.7703C19.3214 40.7703 19.3456 39.1908 19.3899 38.3748L22.1098 39.6421L21.9889 41.9126Z" fill="black"/>
<path d="M20.7983 39.2432L20.2019 40.1055L20.5766 40.2344L20.2845 40.996L20.9514 40.0974L20.5766 39.9564L20.7983 39.2432Z" fill="#FAFAFA"/>
<path d="M21.7995 42.6138L21.7814 42.8535C21.7818 42.8693 21.7781 42.885 21.7706 42.8989C21.7631 42.9129 21.7521 42.9246 21.7386 42.933C21.7252 42.9413 21.7098 42.946 21.6939 42.9466C21.6781 42.9471 21.6624 42.9435 21.6484 42.9361L21.2173 42.7588C21.1824 42.7422 21.153 42.7159 21.1326 42.683C21.1123 42.6502 21.1018 42.6121 21.1024 42.5735L21.1166 42.3297C21.1157 42.3139 21.1191 42.2982 21.1263 42.2842C21.1336 42.2702 21.1444 42.2584 21.1578 42.2499C21.1711 42.2415 21.1865 42.2368 21.2023 42.2363C21.218 42.2358 21.2336 42.2395 21.2475 42.2471L21.6847 42.4284C21.7196 42.445 21.749 42.4713 21.7694 42.5042C21.7897 42.5371 21.8002 42.5751 21.7995 42.6138Z" fill="#263238"/>
<path d="M21.8016 43.3935L21.7895 43.6332C21.7901 43.6489 21.7866 43.6645 21.7793 43.6785C21.7721 43.6924 21.7613 43.7043 21.7481 43.7128C21.7349 43.7213 21.7197 43.7263 21.704 43.7272C21.6883 43.728 21.6726 43.7248 21.6585 43.7178L21.2234 43.5466C21.1887 43.5305 21.1593 43.505 21.1386 43.4729C21.1179 43.4408 21.1068 43.4034 21.1065 43.3653V43.1195C21.1055 43.1038 21.1086 43.0882 21.1156 43.0741C21.1226 43.0601 21.1332 43.0482 21.1463 43.0396C21.1594 43.031 21.1746 43.026 21.1903 43.0252C21.2059 43.0243 21.2215 43.0277 21.2355 43.0348L21.6747 43.2101C21.7115 43.2248 21.7432 43.25 21.7658 43.2826C21.7884 43.3152 21.8008 43.3538 21.8016 43.3935Z" fill="#263238"/>
<path d="M21.8055 44.1731V44.4129C21.8065 44.4288 21.8033 44.4446 21.7962 44.4589C21.7891 44.4731 21.7783 44.4852 21.7651 44.494C21.7518 44.5028 21.7365 44.5079 21.7206 44.5089C21.7047 44.5099 21.6888 44.5066 21.6746 44.4995L21.2394 44.3363C21.2036 44.3212 21.173 44.296 21.1512 44.2638C21.1294 44.2317 21.1173 44.1939 21.1165 44.155V43.9092C21.1155 43.8936 21.1187 43.8779 21.1256 43.8639C21.1326 43.8499 21.1432 43.838 21.1563 43.8294C21.1695 43.8208 21.1846 43.8158 21.2003 43.8149C21.2159 43.8141 21.2315 43.8174 21.2455 43.8246L21.6867 43.9918C21.7217 44.0076 21.7515 44.033 21.7726 44.0651C21.7936 44.0973 21.8051 44.1347 21.8055 44.1731Z" fill="#263238"/>
<path d="M21.8096 44.9629V45.2027C21.8107 45.2184 21.8077 45.2343 21.8009 45.2485C21.794 45.2628 21.7836 45.275 21.7705 45.284C21.7575 45.2929 21.7423 45.2983 21.7266 45.2996C21.7108 45.3009 21.695 45.298 21.6807 45.2913L21.2414 45.1342C21.2059 45.1196 21.1752 45.0952 21.1531 45.0638C21.131 45.0324 21.1183 44.9953 21.1165 44.9569V44.7111C21.115 44.6954 21.1176 44.6795 21.1242 44.6652C21.1307 44.6509 21.141 44.6385 21.154 44.6295C21.1669 44.6205 21.182 44.615 21.1978 44.6138C21.2135 44.6126 21.2293 44.6155 21.2435 44.6224L21.6887 44.7836C21.7238 44.7989 21.7538 44.8239 21.7753 44.8557C21.7967 44.8874 21.8086 44.9246 21.8096 44.9629Z" fill="#263238"/>
<path d="M20.8325 42.1725L20.8204 42.4223C20.8213 42.4381 20.8179 42.4538 20.8107 42.4678C20.8034 42.4818 20.7926 42.4937 20.7792 42.5021C20.7659 42.5105 20.7505 42.5152 20.7347 42.5157C20.719 42.5162 20.7033 42.5125 20.6895 42.505L20.2624 42.3277C20.2267 42.3116 20.1965 42.2856 20.1754 42.2527C20.1543 42.2197 20.1432 42.1814 20.1435 42.1423V41.8885C20.1422 41.8728 20.1452 41.857 20.1522 41.8429C20.1591 41.8288 20.1698 41.8168 20.1831 41.8083C20.1963 41.7998 20.2117 41.7951 20.2274 41.7947C20.2432 41.7942 20.2587 41.7981 20.2724 41.8058L20.7076 41.9872C20.7444 42.0023 20.7759 42.028 20.7981 42.0609C20.8203 42.0939 20.8323 42.1327 20.8325 42.1725Z" fill="#263238"/>
<path d="M20.8305 42.9482L20.8184 43.198C20.8193 43.2138 20.8159 43.2295 20.8086 43.2435C20.8014 43.2575 20.7905 43.2693 20.7772 43.2778C20.7638 43.2862 20.7485 43.2909 20.7327 43.2914C20.7169 43.2919 20.7013 43.2882 20.6875 43.2806L20.2603 43.1053C20.2243 43.0896 20.1937 43.0637 20.1722 43.0307C20.1507 42.9978 20.1393 42.9593 20.1395 42.92V42.6661C20.1382 42.6504 20.1412 42.6347 20.1481 42.6206C20.1551 42.6065 20.1658 42.5945 20.1791 42.586C20.1923 42.5775 20.2076 42.5728 20.2234 42.5724C20.2391 42.5719 20.2547 42.5758 20.2684 42.5835L20.7036 42.7628C20.7407 42.7776 20.7727 42.8032 20.7953 42.8362C20.8179 42.8692 20.8301 42.9082 20.8305 42.9482Z" fill="#263238"/>
<path d="M20.8264 43.7218V43.9717C20.8275 43.9873 20.8243 44.003 20.8173 44.017C20.8103 44.031 20.7997 44.0429 20.7866 44.0515C20.7735 44.0601 20.7583 44.0651 20.7427 44.0659C20.727 44.0668 20.7114 44.0635 20.6975 44.0563L20.2663 43.883C20.2307 43.867 20.2005 43.8409 20.1793 43.808C20.1582 43.7751 20.1472 43.7368 20.1475 43.6977V43.4438C20.146 43.4282 20.1488 43.4126 20.1555 43.3984C20.1622 43.3843 20.1727 43.3723 20.1857 43.3636C20.1987 43.3549 20.2138 43.3499 20.2294 43.3492C20.2451 43.3484 20.2606 43.3519 20.2744 43.3592L20.7096 43.5385C20.7446 43.5547 20.7741 43.5806 20.7949 43.6131C20.8156 43.6456 20.8265 43.6833 20.8264 43.7218Z" fill="#263238"/>
<path d="M20.8224 44.4975V44.7473C20.823 44.7628 20.8196 44.7782 20.8125 44.7919C20.8053 44.8057 20.7947 44.8173 20.7816 44.8257C20.7686 44.834 20.7536 44.8388 20.7381 44.8396C20.7226 44.8403 20.7072 44.837 20.6935 44.8299L20.2623 44.6587C20.2269 44.6432 20.1967 44.6179 20.1752 44.5858C20.1538 44.5536 20.1421 44.516 20.1414 44.4774V44.2215C20.1404 44.2059 20.1436 44.1902 20.1506 44.1762C20.1575 44.1622 20.1681 44.1502 20.1812 44.1416C20.1944 44.133 20.2095 44.1281 20.2252 44.1272C20.2408 44.1264 20.2564 44.1297 20.2704 44.1369L20.7055 44.3142C20.7405 44.3304 20.7701 44.3562 20.7908 44.3887C20.8115 44.4212 20.8225 44.459 20.8224 44.4975Z" fill="#263238"/>
<path d="M19.8674 41.7394V41.9993C19.8683 42.0148 19.865 42.0303 19.8578 42.0441C19.8507 42.0579 19.84 42.0696 19.8268 42.0778C19.8136 42.0861 19.7984 42.0906 19.7829 42.091C19.7673 42.0913 19.752 42.0875 19.7384 42.0799L19.3133 41.9026C19.2777 41.8865 19.2474 41.8605 19.2263 41.8276C19.2052 41.7947 19.1941 41.7563 19.1944 41.7172V41.4513C19.1933 41.4361 19.1963 41.4209 19.2031 41.4073C19.2098 41.3937 19.2202 41.3821 19.233 41.3739C19.2457 41.3656 19.2605 41.361 19.2757 41.3604C19.2909 41.3598 19.306 41.3634 19.3194 41.3707L19.7505 41.554C19.7858 41.5704 19.8156 41.5965 19.8363 41.6294C19.8571 41.6623 19.8678 41.7005 19.8674 41.7394Z" fill="#263238"/>
<path d="M19.8715 42.4868V42.7467C19.8729 42.7622 19.87 42.7777 19.8631 42.7916C19.8562 42.8056 19.8457 42.8173 19.8326 42.8257C19.8195 42.834 19.8043 42.8385 19.7888 42.8388C19.7733 42.8391 19.758 42.8351 19.7446 42.8273L19.3195 42.65C19.2834 42.6343 19.2528 42.6084 19.2313 42.5754C19.2098 42.5425 19.1984 42.504 19.1986 42.4647V42.1987C19.1972 42.1833 19.2001 42.1677 19.207 42.1538C19.2138 42.1399 19.2244 42.1281 19.2375 42.1198C19.2506 42.1115 19.2658 42.1069 19.2813 42.1066C19.2968 42.1063 19.3121 42.1103 19.3255 42.1181L19.7566 42.3015C19.7916 42.3181 19.8209 42.3444 19.8413 42.3773C19.8617 42.4101 19.8721 42.4482 19.8715 42.4868Z" fill="#263238"/>
<path d="M19.8735 43.2403V43.5002C19.8744 43.5158 19.8711 43.5312 19.864 43.5451C19.8569 43.5589 19.8461 43.5705 19.8329 43.5788C19.8197 43.587 19.8046 43.5915 19.789 43.5919C19.7735 43.5923 19.7581 43.5884 19.7446 43.5808L19.3195 43.4035C19.2843 43.3866 19.2544 43.3604 19.2331 43.3277C19.2118 43.295 19.1999 43.2572 19.1986 43.2182V42.9522C19.1972 42.9368 19.2001 42.9212 19.207 42.9073C19.2138 42.8934 19.2244 42.8816 19.2375 42.8733C19.2506 42.865 19.2658 42.8604 19.2813 42.8601C19.2968 42.8598 19.3121 42.8638 19.3255 42.8716L19.7566 43.055C19.7919 43.0713 19.8217 43.0975 19.8425 43.1304C19.8632 43.1633 19.874 43.2015 19.8735 43.2403Z" fill="#263238"/>
<path d="M19.8755 43.9938V44.2537C19.8769 44.2692 19.874 44.2847 19.8671 44.2987C19.8603 44.3126 19.8497 44.3243 19.8366 44.3327C19.8235 44.341 19.8084 44.3455 19.7928 44.3458C19.7773 44.3461 19.762 44.3421 19.7486 44.3343L19.3215 44.157C19.2858 44.141 19.2556 44.1149 19.2345 44.082C19.2134 44.0491 19.2023 44.0108 19.2026 43.9717V43.7057C19.2015 43.6906 19.2045 43.6754 19.2112 43.6617C19.218 43.6481 19.2283 43.6366 19.2411 43.6283C19.2539 43.6201 19.2687 43.6154 19.2839 43.6149C19.2991 43.6143 19.3142 43.6179 19.3275 43.6251L19.7587 43.8065C19.7934 43.8241 19.8226 43.8509 19.8432 43.8839C19.8638 43.9169 19.875 43.9549 19.8755 43.9938Z" fill="#263238"/>
<path d="M68.5266 75.6872L66.667 75.0546C66.5079 73.2736 66.7376 68.9581 69.6327 66.4256C72.5721 63.8548 74.4901 65.5028 74.4337 66.6271C74.3733 67.854 71.736 69.0044 70.4043 70.6565C68.9497 72.4536 68.4964 73.6826 68.5266 75.6872Z" fill="#BA68C8"/>
<path opacity="0.5" d="M68.5266 75.6872L66.667 75.0546C66.5079 73.2736 66.7376 68.9581 69.6327 66.4256C72.5721 63.8548 74.4901 65.5028 74.4337 66.6271C74.3733 67.854 71.736 69.0044 70.4043 70.6565C68.9497 72.4536 68.4964 73.6826 68.5266 75.6872Z" fill="white"/>
<path d="M67.2714 75.3588C67.2451 75.3583 67.22 75.3474 67.2015 75.3286C67.1831 75.3098 67.1727 75.2844 67.1727 75.2581C67.1989 70.4671 70.7569 66.2745 72.5298 66.0025C72.5431 66.0005 72.5566 66.0012 72.5695 66.0044C72.5825 66.0076 72.5947 66.0134 72.6055 66.0213C72.6162 66.0293 72.6253 66.0393 72.6322 66.0507C72.6391 66.0622 72.6437 66.0749 72.6457 66.0881C72.6477 66.1014 72.647 66.1148 72.6438 66.1278C72.6406 66.1408 72.6348 66.153 72.6269 66.1638C72.6189 66.1745 72.6089 66.1836 72.5975 66.1905C72.586 66.1974 72.5733 66.202 72.5601 66.204C70.8234 66.4699 67.3984 70.735 67.3742 75.2601C67.3739 75.2733 67.3711 75.2864 67.3658 75.2985C67.3605 75.3106 67.3528 75.3216 67.3433 75.3307C67.3337 75.3399 67.3225 75.3471 67.3102 75.3519C67.2978 75.3567 67.2847 75.3591 67.2714 75.3588Z" fill="white"/>
<path d="M72.9449 71.3918C71.3331 70.862 67.8275 72.6248 67.1486 75.2198L68.5266 75.6852C69.6395 74.7758 70.9867 74.1996 72.413 74.023C74.6836 73.7954 74.5506 71.9217 72.9449 71.3918Z" fill="#BA68C8"/>
<path opacity="0.65" d="M72.9449 71.3918C71.3331 70.862 67.8275 72.6248 67.1486 75.2198L68.5266 75.6852C69.6395 74.7758 70.9867 74.1996 72.413 74.023C74.6836 73.7954 74.5506 71.9217 72.9449 71.3918Z" fill="white"/>
<path d="M67.7772 75.5703C67.7611 75.5709 67.7452 75.5674 67.7308 75.5603C67.7073 75.5474 67.6897 75.5259 67.6818 75.5004C67.6739 75.4748 67.6763 75.4471 67.6885 75.4233C69.0686 72.7578 72.0645 71.9701 73.2834 72.2964C73.2962 72.2997 73.3082 72.3055 73.3187 72.3135C73.3292 72.3215 73.338 72.3315 73.3446 72.343C73.3512 72.3544 73.3554 72.3671 73.357 72.3802C73.3586 72.3933 73.3575 72.4066 73.3539 72.4193C73.3468 72.445 73.33 72.4669 73.3071 72.4804C73.2841 72.4939 73.2569 72.498 73.231 72.4919C72.0665 72.1796 69.2016 72.9452 67.8678 75.5139C67.8597 75.531 67.8469 75.5454 67.8308 75.5554C67.8147 75.5654 67.7961 75.5706 67.7772 75.5703Z" fill="white"/>
<path d="M66.2218 45.8252V75.6187C66.2307 75.7178 66.2661 75.8127 66.3242 75.8935C66.3823 75.9743 66.4611 76.038 66.5522 76.078C66.7989 76.2041 67.072 76.2699 67.349 76.2699C67.6261 76.2699 67.8992 76.2041 68.1458 76.078C68.2367 76.0377 68.3153 75.9739 68.3733 75.8931C68.4314 75.8124 68.4669 75.7177 68.4763 75.6187V45.8252H66.2218Z" fill="#455A64"/>
<path d="M66.2218 51.41L68.4763 50.1085V45.8252H66.2218V51.41Z" fill="#37474F"/>
<path d="M63.0729 50.9305L78.6224 41.953V14.1238L63.0729 23.1013V50.9305Z" fill="#BA68C8"/>
<path d="M78.6224 14.1238L71.6253 10.0843L56.0758 19.0619L63.0729 23.1013L78.6224 14.1238Z" fill="#BA68C8"/>
<path opacity="0.2" d="M78.6224 14.1238L71.6253 10.0843L56.0758 19.0619L63.0729 23.1013L78.6224 14.1238Z" fill="white"/>
<path d="M56.0758 19.0618V46.891L63.0729 50.9305V23.1013L56.0758 19.0618Z" fill="#BA68C8"/>
<path opacity="0.2" d="M56.0758 19.0618V46.891L63.0729 50.9305V23.1013L56.0758 19.0618Z" fill="black"/>
<path d="M72.9872 21.3586L67.2211 36.3581L70.8475 33.4247L68.027 44.0301L74.474 27.9044L70.8475 30.733L72.9872 21.3586Z" fill="#FAFAFA"/>
<path d="M64.2494 23.3249C64.463 23.2021 64.6383 23.3028 64.6383 23.5506C64.6308 23.6854 64.5917 23.8166 64.5242 23.9335C64.4566 24.0504 64.3625 24.1497 64.2494 24.2235C64.0339 24.3484 63.8606 24.2477 63.8606 23.9999C63.8679 23.8648 63.9069 23.7333 63.9745 23.616C64.042 23.4988 64.1362 23.399 64.2494 23.3249Z" fill="#37474F"/>
<path d="M64.2494 48.4645C64.463 48.3395 64.6383 48.4403 64.6383 48.6881C64.6308 48.8229 64.5917 48.9541 64.5242 49.071C64.4566 49.1879 64.3625 49.2872 64.2494 49.361C64.0339 49.4859 63.8606 49.3852 63.8606 49.1374C63.8676 49.0024 63.9065 48.8711 63.9741 48.7541C64.0417 48.6372 64.136 48.5379 64.2494 48.4645Z" fill="#37474F"/>
<path d="M77.4558 15.6953C77.6714 15.5704 77.8446 15.6711 77.8446 15.9189C77.8376 16.0538 77.7988 16.1852 77.7312 16.3021C77.6636 16.4191 77.5692 16.5184 77.4558 16.5918C77.2422 16.7167 77.069 16.616 77.069 16.3682C77.076 16.2335 77.1148 16.1024 77.182 15.9855C77.2492 15.8686 77.343 15.7692 77.4558 15.6953Z" fill="#37474F"/>
<path d="M77.4558 40.8328C77.6714 40.7079 77.8446 40.8086 77.8446 41.0564C77.8376 41.1913 77.7988 41.3227 77.7312 41.4396C77.6636 41.5566 77.5692 41.6559 77.4558 41.7293C77.2422 41.8542 77.069 41.7535 77.069 41.5057C77.076 41.371 77.1148 41.2399 77.182 41.123C77.2492 41.0061 77.343 40.9067 77.4558 40.8328Z" fill="#37474F"/>
<path d="M78.6223 14.1238V33.874L87.1748 28.9359V1.10678L71.6252 10.0843L78.6223 14.1238Z" fill="#BA68C8"/>
<path d="M87.1748 1.10678L71.6253 10.0843L70.8477 9.63503L86.3972 0.657501L87.1748 1.10678Z" fill="#BA68C8"/>
<path opacity="0.2" d="M87.1748 1.10678L71.6253 10.0843L70.8477 9.63503L86.3972 0.657501L87.1748 1.10678Z" fill="white"/>
<path d="M70.8477 10.5336V9.63504L71.6253 10.0843L70.8477 10.5336Z" fill="#BA68C8"/>
<path opacity="0.2" d="M70.8477 10.5336V9.63504L71.6253 10.0843L70.8477 10.5336Z" fill="black"/>
<path opacity="0.2" d="M71.6252 10.0843L81.6383 12.8324V32.1333L78.6223 33.874V14.1238L71.6252 10.0843Z" fill="black"/>
</svg>
