<svg width="81" height="80" viewBox="0 0 81 80" fill="none" xmlns="http://www.w3.org/2000/svg">
<path d="M69.9832 55.2202H74.973V53.1116H69.9832V55.2202Z" fill="#EBEBEB"/>
<path d="M72.7683 57.8791L75.2839 57.8263L76.5238 57.8056C76.9365 57.7962 77.3473 57.8056 77.7581 57.7943L77.6733 57.8791V55.7705L77.7675 55.8647L75.2726 55.8534C74.4416 55.8534 73.6087 55.8308 72.7777 55.8214L72.8286 55.7705C72.8286 56.1154 72.8135 56.4621 72.8041 56.8126L72.7683 57.8791ZM72.7683 57.8791L72.7344 56.8446C72.725 56.4941 72.7118 56.138 72.7099 55.7799V55.714H72.7627C73.5937 55.7027 74.4265 55.6838 75.2575 55.682L77.7524 55.6707H77.8466V55.7649L77.8353 57.8735V57.9583H77.7524C77.3322 57.9583 76.9101 57.9583 76.4899 57.9488L75.2349 57.9281L72.7683 57.8791Z" fill="#EBEBEB"/>
<path d="M36.016 37.1683L38.5335 37.1156L39.7715 37.0949C40.1841 37.0854 40.5949 37.0949 41.0057 37.0854L40.9209 37.1683L40.9115 35.0598L41.0057 35.154L38.5108 35.1427C37.6798 35.1427 36.847 35.1219 36.016 35.1106L36.0668 35.0598C36.0668 35.4046 36.0518 35.7513 36.0423 36.1037L36.016 37.1683ZM36.016 37.1683L35.9896 36.1169C35.9802 35.7664 35.9689 35.4103 35.9651 35.0522V35.0013H36.0178C36.8488 34.9919 37.6817 34.9712 38.5127 34.9693L41.0076 34.958H41.1018V35.0522L41.0924 37.1608V37.2475H41.0095C40.5893 37.2475 40.1672 37.2475 39.7489 37.2362L38.492 37.2155L36.016 37.1683Z" fill="#EBEBEB"/>
<path d="M38.7992 39.8271H43.7889V37.7186H38.7992V39.8271Z" fill="#EBEBEB"/>
<path d="M33.1895 39.8271L35.707 39.7743L36.9469 39.7536C37.3596 39.7442 37.7685 39.7536 38.1792 39.7442L38.0963 39.8271L38.085 37.7185L38.1792 37.8127L35.6844 37.8014C34.8534 37.8014 34.0224 37.7807 33.1895 37.7694L33.2423 37.7185C33.2423 38.0633 33.2253 38.41 33.2178 38.7624L33.1895 39.8271ZM33.1895 39.8271L33.1631 38.7831C33.1631 38.4327 33.1424 38.0765 33.1386 37.7185V37.6676H33.1895C34.0224 37.6676 34.8534 37.6375 35.6844 37.6356L38.1792 37.6243H38.2753V37.7185L38.2659 39.8271V39.9119H38.1811C37.7609 39.9119 37.3388 39.9119 36.9205 39.9006L35.6655 39.8798L33.1895 39.8271Z" fill="#EBEBEB"/>
<path d="M43.6985 13.1204H48.6882V11.0118H43.6985V13.1204Z" fill="#EBEBEB"/>
<path d="M1.0048 57.8791L3.52228 57.8263L4.76218 57.8056C5.17297 57.7962 5.58376 57.8056 5.99455 57.7943L5.91164 57.8791L5.90033 55.7705L5.99455 55.8647L3.49967 55.8534C2.66867 55.8534 1.83579 55.8308 1.0048 55.8214L1.05567 55.7705C1.05567 56.1154 1.0406 56.4621 1.03118 56.8126L1.0048 57.8791ZM1.0048 57.8791L0.978415 56.8446C0.968993 56.4941 0.957687 56.138 0.953918 55.7799V55.714H1.0048C1.83579 55.7027 2.66867 55.6838 3.49967 55.682L5.99455 55.6707H6.08876V55.7649V57.8735V57.9583H6.00397C5.58376 57.9583 5.16167 57.9583 4.74334 57.9488L3.48837 57.9281L1.0048 57.8791Z" fill="#EBEBEB"/>
<path d="M3.78796 4.49748L6.30545 4.44472L7.54535 4.42399C7.95802 4.41457 8.36692 4.42399 8.77771 4.41268L8.6948 4.49748L8.6835 2.38701L8.77771 2.48123L6.28284 2.46992C5.45184 2.46992 4.62084 2.44731 3.78796 2.43789L3.84072 2.38701C3.84072 2.73185 3.82376 3.07857 3.81434 3.43094L3.78796 4.49748ZM3.78796 4.49748L3.76723 3.45355C3.76723 3.10306 3.74651 2.74692 3.74274 2.3889V2.33802H3.79361C4.6265 2.3286 5.45749 2.30787 6.28849 2.30598L8.78337 2.29468H8.87947V2.38701L8.85497 4.49748V4.58228H8.77018C8.34997 4.58228 7.92787 4.58228 7.50955 4.57097L6.25457 4.55024L3.78796 4.49748Z" fill="#EBEBEB"/>
<path d="M1.00476 7.15625L5.99451 7.15625V5.04767H1.00476V7.15625Z" fill="#EBEBEB"/>
<path d="M72.7683 4.49748L75.2839 4.44472L76.5238 4.42399C76.9365 4.41457 77.3473 4.42399 77.7581 4.41268L77.6733 4.49748V2.3889L77.7675 2.48311L75.2726 2.47181C74.4416 2.47181 73.6087 2.44919 72.7777 2.43977L72.8286 2.3889C72.8286 2.73373 72.8135 3.08045 72.8041 3.43282L72.7683 4.49748ZM72.7683 4.49748L72.7344 3.45355C72.725 3.10306 72.7118 2.74692 72.7099 2.3889V2.33802H72.7627C73.5937 2.3286 74.4265 2.30787 75.2575 2.30598L77.7524 2.29468H77.8466V2.38701L77.841 4.49748V4.58228H77.7581C77.3379 4.58228 76.9158 4.58228 76.4956 4.57097L75.2406 4.55024L72.7683 4.49748Z" fill="#EBEBEB"/>
<path d="M24.1691 64.7156H10.6112V79.7282H24.1691V64.7156Z" fill="#EBEBEB"/>
<path d="M3.61275 79.7297H10.6131L10.6131 64.7153H3.61275L3.61275 79.7297Z" fill="#DBDBDB"/>
<path d="M4.09326 78.703C4.61334 77.6352 5.12714 76.5674 5.63466 75.4996L7.1591 72.2529L8.66657 69.0099C9.16907 67.927 9.66151 66.8404 10.1439 65.75C9.62382 66.8178 9.11002 67.8887 8.60251 68.9628L7.08372 72.1926L5.57624 75.4355C5.07501 76.5197 4.58068 77.6088 4.09326 78.703Z" fill="#EBEBEB"/>
<path d="M4.09326 65.75C4.58068 66.8417 5.07312 67.9283 5.57059 69.0099L7.07807 72.2529L8.59685 75.4827C9.10563 76.5567 9.61942 77.6245 10.1382 78.686C9.65083 77.5956 9.15839 76.509 8.66092 75.4261L7.15344 72.1832L5.63466 68.9534C5.12588 67.8856 4.61209 66.8178 4.09326 65.75Z" fill="#EBEBEB"/>
<path d="M24.1691 42.0413H10.6112V56.0193H24.1691V42.0413Z" fill="#EBEBEB"/>
<path d="M3.61275 56.021H10.6131L10.6131 42.041H3.61275L3.61275 56.021Z" fill="#DBDBDB"/>
<path d="M16.2398 45.2861H16.5281H16.7429L16.8654 45.0355L17.0388 45.2861L17.2724 44.7717L17.4948 45.2861H18.1298H18.4181L18.5236 44.9432L18.6216 45.2861H18.8101V42.0413H16.2398V45.2861Z" fill="#DBDBDB"/>
<path d="M4.09326 55.1298C4.61334 54.1374 5.12714 53.1387 5.63466 52.1337L7.15344 49.1188L8.66092 46.1038C9.16341 45.0988 9.65586 44.0869 10.1382 43.0681C9.61817 44.0631 9.10437 45.0605 8.59685 46.0605L7.07807 49.066L5.57059 52.0809C5.07312 53.0972 4.58068 54.1135 4.09326 55.1298Z" fill="#EBEBEB"/>
<path d="M4.09326 43.0757C4.58068 44.0895 5.07312 45.0988 5.57059 46.1038L7.07807 49.1188L8.59685 52.1337C9.10563 53.1387 9.61942 54.1362 10.1382 55.1261C9.65083 54.1111 9.15839 53.0992 8.66092 52.0904L7.15344 49.0754L5.63466 46.0699C5.12588 45.0687 4.61209 44.0706 4.09326 43.0757Z" fill="#EBEBEB"/>
<path d="M11.5044 55.1523H13.01V53.6468H11.5044V55.1523Z" fill="white"/>
<path d="M23.2664 56.021H9.70856V64.7154H23.2664V56.021Z" fill="#DBDBDB"/>
<path d="M2.70821 64.7156H9.70856L9.70856 56.0212H2.70821L2.70821 64.7156Z" fill="#C7C7C7"/>
<path d="M15.3372 59.2658H15.6236H15.8403L15.9628 59.0152L16.1361 59.2658L16.3698 58.7514L16.5921 59.2658H17.2253H17.5155L17.6191 58.9229L17.719 59.2658H17.9074V56.021H15.3372V59.2658Z" fill="white"/>
<path d="M3.19061 64.1935C3.70944 63.5654 4.22324 62.9316 4.73201 62.2922L6.25079 60.3815L7.75827 58.4613C8.25323 57.8206 8.74504 57.1774 9.23372 56.5317C8.71615 57.1599 8.20235 57.7936 7.69232 58.433L6.17353 60.3457L4.66606 62.2639C4.16984 62.9084 3.67803 63.5516 3.19061 64.1935Z" fill="#DBDBDB"/>
<path d="M3.19061 56.5376C3.67929 57.1833 4.17173 57.8265 4.66794 58.4672L6.17542 60.3873L7.6942 62.298C8.1967 62.9337 8.70924 63.5656 9.23183 64.1937C8.74567 63.548 8.25385 62.9048 7.75639 62.2641L6.24891 60.3459L4.73012 58.4333C4.22261 57.8026 3.70944 57.1707 3.19061 56.5376Z" fill="#DBDBDB"/>
<path d="M76.0546 66.5962H62.4967V79.7301H76.0546V66.5962Z" fill="#DBDBDB"/>
<path d="M55.4982 79.7297H62.4986V66.5958H55.4982V79.7297Z" fill="#C7C7C7"/>
<path d="M68.1252 69.841H68.4117H68.6284L68.7508 69.5904L68.9242 69.841L69.1579 69.3266L69.3802 69.841H70.0134H70.3035L70.4091 69.4962L70.5071 69.841H70.6955V66.5962H68.1252V69.841Z" fill="white"/>
<path d="M55.9787 78.9481C56.4975 77.9946 57.0113 77.0373 57.5201 76.0763L59.0389 73.1895L60.5464 70.2914C61.0489 69.3228 61.5407 68.3518 62.0218 67.3782C61.5042 68.3317 60.9904 69.2889 60.4804 70.2499L58.9616 73.1349L57.4636 76.0349C56.9661 77.0034 56.4711 77.9745 55.9787 78.9481Z" fill="#DBDBDB"/>
<path d="M55.9787 67.3782C56.4674 68.3518 56.9598 69.3228 57.456 70.2914L58.9541 73.1895L60.4729 76.0763C60.9816 77.0373 61.4954 77.9946 62.0143 78.9481C61.5281 77.9732 61.0363 77.0022 60.5388 76.0349L59.0313 73.1349L57.5126 70.2499C57.0088 69.2889 56.4975 68.3317 55.9787 67.3782Z" fill="#DBDBDB"/>
<path d="M52.4814 1.63306V33.6858H74.5396V1.63306H52.4814ZM73.7255 32.8623H53.2954V2.43767H73.7255V32.8623Z" fill="#EBEBEB"/>
<path d="M73.7256 2.43774H53.2955V32.8624H73.7256V2.43774Z" fill="white"/>
<path d="M53.2954 18.9993L73.7255 18.9993V18.1852L53.2954 18.1852V18.9993Z" fill="#EBEBEB"/>
<path d="M50.9815 36.0112H76.0377V33.6746H50.9815V36.0112Z" fill="#DBDBDB"/>
<path d="M51.6467 36.9459L75.3744 37.4433V36.0112H51.6467V36.9459Z" fill="#EBEBEB"/>
<path d="M53.2955 2.43774H73.7256V23.3408H53.2955V2.43774ZM72.9718 3.19148H54.0492V22.5871H72.9718V3.19148Z" fill="#DBDBDB"/>
<path d="M67.2057 2.43774H66.7987V22.5871H67.2057V2.43774Z" fill="#DBDBDB"/>
<path d="M60.2223 2.43774H59.8153V22.5871H60.2223V2.43774Z" fill="#DBDBDB"/>
<path d="M4.22327 1.63306V33.6858H26.2814V1.63306H4.22327ZM25.4674 32.8623H5.0373V2.43767H25.4674V32.8623Z" fill="#EBEBEB"/>
<path d="M25.4674 2.43774H5.03729V32.8624H25.4674V2.43774Z" fill="white"/>
<path d="M5.03731 18.9993L25.4674 18.9993V18.1852L5.03731 18.1852V18.9993Z" fill="#EBEBEB"/>
<path d="M2.72337 36.0112H27.7795V33.6746H2.72337V36.0112Z" fill="#DBDBDB"/>
<path d="M3.38855 36.9459L27.1163 37.4433V36.0112H3.38855V36.9459Z" fill="#EBEBEB"/>
<path d="M5.03729 2.43774H25.4674V23.3408H5.03729V2.43774ZM24.7136 3.19148H5.79103V22.5871H24.7136V3.19148Z" fill="#DBDBDB"/>
<path d="M18.9475 2.43774H18.5405V22.5871H18.9475V2.43774Z" fill="#DBDBDB"/>
<path d="M11.9642 2.43774H11.5572V22.5871H11.9642V2.43774Z" fill="#DBDBDB"/>
<path d="M0.083313 79.73L9.9083 79.6829L19.7333 79.6678L39.3814 79.6357L59.0295 79.6678L68.8545 79.6829L78.6794 79.73L68.8545 79.7752L59.0295 79.7921L39.3814 79.8242L19.7333 79.7921L9.9083 79.7752L0.083313 79.73Z" fill="#263238"/>
<path d="M46.8661 26.2803C46.7605 26.2125 46.655 26.1465 46.5495 26.0824L46.623 25.96L46.9433 26.1616L46.8661 26.2803Z" fill="#263238"/>
<path d="M42.2645 45.1617H42.1288V45.0203C42.3804 45.0259 42.6321 45.0165 42.8826 44.9921L42.8977 45.1334C42.6923 45.1485 42.4774 45.1617 42.2645 45.1617ZM43.6627 45.0071L43.6326 44.8696C43.8776 44.8141 44.1182 44.7404 44.3524 44.6491L44.4033 44.781C44.1623 44.8734 43.9147 44.9477 43.6627 45.0034V45.0071ZM45.1005 44.4418L45.0307 44.3193C45.2473 44.1929 45.4534 44.0492 45.6469 43.8897L45.7374 43.9971C45.5379 44.1635 45.3249 44.3129 45.1005 44.4437V44.4418ZM46.2933 43.462L46.1896 43.3659C46.3587 43.18 46.5142 42.9823 46.6551 42.7742L46.7719 42.8533C46.6274 43.0688 46.4675 43.2735 46.2933 43.4657V43.462ZM47.1563 42.1825L47.0281 42.1222C47.1356 41.8953 47.2232 41.6595 47.2901 41.4175L47.4257 41.4551C47.3573 41.7056 47.2672 41.9496 47.1563 42.1844V42.1825ZM47.5633 40.6901L47.422 40.6788C47.422 40.577 47.4352 40.4734 47.4352 40.3735C47.4346 40.2337 47.4265 40.0941 47.4107 39.9552C47.264 39.9453 47.1181 39.9271 46.9735 39.9006L46.998 39.7611C47.2281 39.8026 47.4614 39.8241 47.6952 39.8252H47.7442V39.9665H47.6933H47.552C47.5671 40.1029 47.5746 40.2401 47.5746 40.3773C47.5765 40.479 47.5708 40.5865 47.5633 40.692V40.6901ZM48.5187 39.8723L48.4866 39.7347C48.729 39.6773 48.9637 39.5913 49.1857 39.4785L49.2498 39.6047C49.0176 39.7231 48.7722 39.8136 48.5187 39.8742V39.8723ZM46.2235 39.697C45.9799 39.6092 45.7436 39.5021 45.5169 39.3767L45.5866 39.2542C45.806 39.3754 46.0347 39.4787 46.2706 39.5633L46.2235 39.697ZM47.2373 39.1996C47.1547 38.964 47.0459 38.7383 46.9132 38.5269L47.0319 38.4515C47.1715 38.6714 47.2853 38.9066 47.3711 39.1525L47.2373 39.1996ZM49.898 39.1694L49.8076 39.062C49.9987 38.9005 50.1736 38.7207 50.3295 38.525L50.4388 38.6135C50.2778 38.8184 50.0967 39.0065 49.898 39.1751V39.1694ZM44.8781 38.9433L44.8385 38.9056C44.652 38.7418 44.5035 38.5392 44.4033 38.312L44.5352 38.2593C44.627 38.4672 44.7634 38.6525 44.9346 38.802L44.9723 38.8359L44.8781 38.9433ZM50.876 37.9804L50.7554 37.9069C50.8873 37.6883 51.0098 37.4641 51.1172 37.2436L51.2453 37.3058C51.136 37.53 51.0117 37.7581 50.876 37.9804ZM46.444 37.9521C46.2718 37.7854 46.0823 37.6376 45.8787 37.5112L45.8504 37.4924L45.9239 37.3718L45.9541 37.3906C46.1641 37.5232 46.3593 37.678 46.5363 37.8523L46.444 37.9521ZM44.5728 37.5885L44.456 37.5093C44.5367 37.396 44.6436 37.3038 44.7677 37.2408C44.8917 37.1778 45.0292 37.1458 45.1683 37.1475V37.2888C45.0524 37.2882 44.9381 37.315 44.8345 37.3671C44.731 37.4191 44.6414 37.495 44.5728 37.5885V37.5885ZM51.5449 36.5954L51.413 36.5464C51.5003 36.3099 51.5751 36.069 51.6373 35.8247L51.7729 35.8586C51.7122 36.1085 51.6367 36.3545 51.5468 36.5954H51.5449ZM51.9218 35.1011L51.7805 35.0823C51.8141 34.8323 51.8336 34.5807 51.8389 34.3285H51.9802C51.9751 34.5869 51.9556 34.8449 51.9218 35.1011V35.1011ZM51.8125 33.5748C51.7898 33.3219 51.754 33.0703 51.7051 32.8211L51.8445 32.7928C51.8937 33.0452 51.9302 33.2999 51.9538 33.556L51.8125 33.5748ZM51.5204 32.0937C51.4488 31.8563 51.364 31.617 51.266 31.3795L51.398 31.3268C51.4959 31.5661 51.5864 31.811 51.6561 32.0522L51.5204 32.0937ZM50.9551 30.6899C50.8421 30.4694 50.7158 30.247 50.5783 30.0285L50.6989 29.955C50.8345 30.1754 50.9627 30.4016 51.0757 30.6258L50.9551 30.6899ZM50.1618 29.3972C50.0167 29.1937 49.8603 28.9921 49.6983 28.7961L49.8076 28.7056C49.9715 28.9035 50.1298 29.1089 50.2768 29.3143L50.1618 29.3972ZM49.197 28.2251C49.0256 28.0367 48.8447 27.8615 48.66 27.6881L48.7561 27.5845C48.9445 27.7616 49.133 27.9444 49.2988 28.129L49.197 28.2251ZM48.0909 27.1831C47.9025 27.0229 47.6971 26.8646 47.4955 26.7139L47.5784 26.6008C47.7838 26.7516 47.9873 26.9117 48.1814 27.0757L48.0909 27.1831Z" fill="#263238"/>
<path d="M41.3393 45.0936C41.2125 45.0778 41.0867 45.0552 40.9624 45.0257L40.9963 44.8882C40.9963 44.8882 41.132 44.9221 41.3581 44.9541L41.3393 45.0936Z" fill="#263238"/>
<path d="M39.4379 44.813C39.3494 45.5667 40.8889 45.9888 41.0057 45.0014C41.1225 44.014 39.5265 44.0536 39.4379 44.813Z" fill="#263238"/>
<path d="M41.4542 46.0604C41.311 46.3449 40.8041 46.3845 40.2802 46.0189C39.9245 45.7473 39.6239 45.4103 39.3946 45.0259C39.8376 44.9797 40.2853 45.0187 40.7136 45.1408C41.3336 45.35 41.6049 45.7721 41.4542 46.0604Z" fill="#EBEBEB"/>
<path d="M39.4003 45.0259C39.698 45.1597 39.9901 45.3048 40.2821 45.448C40.5742 45.5912 40.8625 45.7438 41.1471 45.9021C40.8493 45.7683 40.5573 45.6232 40.2652 45.48C39.9731 45.3368 39.6848 45.1842 39.4003 45.0259Z" fill="#263238"/>
<path d="M40.7684 46.0548C40.7007 45.9763 40.6378 45.8939 40.5799 45.8079C40.523 45.7226 40.4714 45.6339 40.4254 45.5422C40.4931 45.6207 40.556 45.7031 40.6139 45.7891C40.6712 45.8741 40.7228 45.9629 40.7684 46.0548V46.0548Z" fill="#263238"/>
<path d="M40.1351 45.3934C40.2388 45.3664 40.3439 45.345 40.4498 45.3293C40.5567 45.3142 40.6642 45.3047 40.772 45.301C40.5634 45.353 40.35 45.3839 40.1351 45.3934V45.3934Z" fill="#263238"/>
<path d="M39.9712 45.5176C39.9064 45.4369 39.86 45.343 39.8355 45.2424C39.9003 45.3231 39.9466 45.417 39.9712 45.5176V45.5176Z" fill="#263238"/>
<path d="M41.7029 44.0875C41.6295 43.7766 41.1471 43.6221 40.5535 43.8558C40.1439 44.0381 39.7729 44.2972 39.4606 44.6189C39.8841 44.7656 40.3319 44.8296 40.7796 44.8074C41.4146 44.7546 41.7783 44.4079 41.7029 44.0875Z" fill="#EBEBEB"/>
<path d="M39.4606 44.6191C39.7809 44.5588 40.0994 44.4834 40.4159 44.4099C40.7325 44.3364 41.0491 44.2573 41.3581 44.1687C41.0397 44.229 40.7212 44.3044 40.4046 44.3779C40.0881 44.4514 39.7753 44.5305 39.4606 44.6191Z" fill="#263238"/>
<path d="M41.0303 43.9331C40.9483 43.9914 40.8696 44.0543 40.7947 44.1215C40.7199 44.1919 40.6489 44.2661 40.5818 44.3439C40.6646 44.2867 40.7433 44.2237 40.8173 44.1555C40.8926 44.0855 40.9637 44.0113 41.0303 43.9331V43.9331Z" fill="#263238"/>
<path d="M40.2576 44.4304C40.4485 44.5298 40.6494 44.6087 40.8569 44.666C40.6663 44.5658 40.4654 44.4868 40.2576 44.4304V44.4304Z" fill="#263238"/>
<path d="M40.1352 44.2722C40.0941 44.3029 40.0568 44.3384 40.024 44.3777C39.9914 44.4181 39.963 44.4617 39.9392 44.5078C39.9803 44.4764 40.0176 44.4403 40.0504 44.4004C40.0846 44.3619 40.1132 44.3187 40.1352 44.2722V44.2722Z" fill="#263238"/>
<path d="M39.438 44.8129C39.4919 44.8192 39.5429 44.8413 39.5843 44.8765C39.6257 44.9117 39.6558 44.9584 39.6707 45.0106C39.6856 45.0629 39.6847 45.1184 39.6682 45.1701C39.6516 45.2219 39.62 45.2676 39.5775 45.3014C39.535 45.3353 39.4834 45.3558 39.4293 45.3603C39.3751 45.3649 39.3208 45.3533 39.2733 45.3271C39.2257 45.3008 39.1869 45.2611 39.1619 45.2128C39.1369 45.1646 39.1267 45.11 39.1327 45.056C39.1412 44.9834 39.1781 44.9171 39.2353 44.8716C39.2924 44.8261 39.3653 44.805 39.438 44.8129V44.8129Z" fill="#455A64"/>
<path d="M39.502 44.2648C39.538 44.269 39.5729 44.2803 39.6045 44.2979C39.6362 44.3156 39.664 44.3393 39.6865 44.3678C39.709 44.3962 39.7257 44.4288 39.7356 44.4637C39.7455 44.4985 39.7484 44.535 39.7442 44.571C39.74 44.607 39.7287 44.6418 39.7111 44.6735C39.6934 44.7052 39.6697 44.733 39.6412 44.7555C39.6128 44.778 39.5802 44.7947 39.5453 44.8045C39.5105 44.8144 39.474 44.8174 39.438 44.8132C39.3653 44.8047 39.2989 44.7676 39.2535 44.7102C39.2081 44.6528 39.1873 44.5797 39.1958 44.5069C39.2043 44.4342 39.2414 44.3679 39.2988 44.3225C39.3562 44.2771 39.4293 44.2563 39.502 44.2648V44.2648Z" fill="#455A64"/>
<path d="M22.4223 62.5562C22.4223 62.5562 18.4049 70.6004 18.403 70.6004C18.0713 72.2605 17.8113 73.7247 17.7453 74.4935C17.7444 74.4978 17.7444 74.5023 17.7453 74.5067C17.7106 74.6849 17.7177 74.8687 17.7661 75.0437C17.7651 75.0481 17.7651 75.0526 17.7661 75.0569C18.1938 75.4903 31.3956 78.5298 31.8987 78.4808C32.4018 78.4318 32.2944 77.0129 31.8761 76.4871C31.4577 75.9614 26.9221 72.53 26.9221 72.53L30.8491 64.4725L22.4223 62.5562Z" fill="#D3766A"/>
<path d="M31.6989 78.4882C31.2033 78.5372 18.1995 75.4959 17.7736 75.0643C17.773 75.06 17.773 75.0555 17.7736 75.0512C17.7243 74.8764 17.7165 74.6924 17.751 74.5141C17.7494 74.5099 17.7494 74.5052 17.751 74.5009C17.8151 73.7321 18.077 72.268 18.4067 70.606L19.3678 68.6802L27.6985 70.964L26.9296 72.5431C26.9296 72.5431 31.2636 75.9669 31.6839 76.5002C32.1041 77.0335 32.1964 78.4411 31.6989 78.4882Z" fill="#EBEBEB"/>
<path d="M31.8799 78.2773C31.3768 78.315 18.143 74.942 17.7209 74.4936C17.5589 74.3259 17.9376 72.368 18.4633 70.0164L18.4803 69.9429L27.0428 72.0251L27.0032 72.1683C27.0032 72.1683 31.4898 75.7259 31.9025 76.2686C32.3152 76.8113 32.3811 78.2415 31.8799 78.2773Z" fill="#263238"/>
<path d="M31.8591 77.7251C29.6431 77.1033 20.6435 74.7969 18.4049 74.3484C18.386 74.3484 18.3822 74.3578 18.4049 74.3635C20.5888 75.0286 29.6073 77.2616 31.8553 77.7553C31.8987 77.7722 31.9062 77.7383 31.8591 77.7251Z" fill="white"/>
<path d="M27.7135 72.3773C26.8769 71.9891 25.7689 71.8496 24.9398 72.3057C24.9078 72.3226 24.9398 72.3678 24.9624 72.366C25.8705 72.309 26.782 72.3494 27.6815 72.4866C27.6947 72.4874 27.7078 72.4836 27.7186 72.476C27.7295 72.4684 27.7374 72.4574 27.7411 72.4447C27.7448 72.432 27.7441 72.4184 27.7391 72.4061C27.7341 72.3939 27.7251 72.3837 27.7135 72.3773V72.3773Z" fill="white"/>
<path d="M28.2487 72.9201C27.4139 72.5338 26.3059 72.3943 25.475 72.8484C25.4429 72.8654 25.475 72.9106 25.4994 72.9106C26.4075 72.8527 27.3192 72.8932 28.2186 73.0312C28.2323 73.0326 28.2461 73.029 28.2574 73.0212C28.2688 73.0133 28.277 73.0017 28.2806 72.9884C28.2842 72.9751 28.283 72.9609 28.2772 72.9484C28.2713 72.9359 28.2612 72.9258 28.2487 72.9201V72.9201Z" fill="white"/>
<path d="M28.7858 73.4645C27.9491 73.0763 26.8411 72.9369 26.012 73.391C25.98 73.4099 26.012 73.4551 26.0365 73.4532C26.9439 73.3963 27.8549 73.4367 28.7537 73.5738C28.7669 73.5746 28.78 73.5709 28.7908 73.5633C28.8017 73.5557 28.8096 73.5446 28.8133 73.5319C28.817 73.5192 28.8163 73.5056 28.8113 73.4934C28.8063 73.4811 28.7973 73.471 28.7858 73.4645V73.4645Z" fill="white"/>
<path d="M32.202 77.8553C32.415 78.006 32.1606 78.788 31.974 78.8087C31.7875 78.8295 17.3741 75.0872 17.1461 74.9684C16.9181 74.8497 17.2309 73.9942 17.523 74.0263C17.815 74.0583 32.202 77.8553 32.202 77.8553Z" fill="#FFC727"/>
<path d="M20.2873 71.9818C19.4507 71.2582 18.3238 72.5584 19.1567 73.2839C19.9896 74.0093 21.1259 72.7073 20.2873 71.9818Z" fill="white"/>
<path d="M19.3923 68.0378L29.0477 70.4723C29.0477 70.4723 38.0473 54.2311 37.8457 50.1025C37.5687 44.408 30.883 26.8987 30.883 26.8987H22.8783C22.8783 26.8987 28.1903 45.827 28.2638 49.0115C28.2958 50.6773 19.3923 68.0378 19.3923 68.0378Z" fill="#9AC3D7"/>
<path d="M29.4604 68.5124C28.9459 68.307 24.35 66.9805 20.9205 66.2512C20.9167 66.2525 20.9134 66.2549 20.9111 66.2581C20.9088 66.2613 20.9075 66.2652 20.9075 66.2691C20.9075 66.2731 20.9088 66.277 20.9111 66.2802C20.9134 66.2834 20.9167 66.2858 20.9205 66.287C22.0002 66.6639 28.814 68.4597 29.4528 68.5482C29.4679 68.5539 29.483 68.5275 29.4604 68.5124Z" fill="#263238"/>
<path d="M28.9271 44.9449C28.2901 42.2729 27.608 39.6084 26.892 36.9609C26.1759 34.3134 25.409 31.6414 24.5667 29.0146C24.4649 28.6924 24.3575 28.3739 24.2539 28.0536C24.2509 28.0434 24.2439 28.0347 24.2346 28.0296C24.2252 28.0245 24.2142 28.0233 24.2039 28.0263C24.1937 28.0293 24.1851 28.0362 24.1799 28.0456C24.1748 28.055 24.1736 28.066 24.1766 28.0762C24.9304 30.6936 25.6841 33.3053 26.3983 35.9321C27.1124 38.5588 27.7927 41.1932 28.4334 43.8463C28.5935 44.5021 28.7499 45.1559 28.9026 45.8136C29.0799 46.4876 29.2171 47.1716 29.3133 47.8619C29.3926 48.5214 29.3472 49.1901 29.1796 49.8329C28.9977 50.4646 28.76 51.0788 28.4692 51.6682C27.3147 54.1744 26.1608 56.6812 25.0076 59.1887C23.8544 61.7024 23.6678 62.2752 22.558 64.8097C22.4204 65.1244 22.2828 65.4391 22.1509 65.7519C22.1509 65.7726 22.1717 65.7914 22.183 65.7688C23.4455 63.2852 23.6396 62.6879 24.8211 60.1591C26.0025 57.6303 27.1765 55.0714 28.3486 52.5256C28.8762 51.3762 29.4961 50.2041 29.5753 48.919C29.6544 47.5773 29.2323 46.2319 28.9271 44.9449Z" fill="#263238"/>
<path d="M29.3643 65.7366L29.6733 74.593C29.7242 76.2889 29.7977 77.7719 29.9088 78.535C29.9079 78.5394 29.9079 78.5439 29.9088 78.5482C29.9152 78.7293 29.9629 78.9066 30.0483 79.0664L30.0596 79.0777C30.574 79.4037 44.1206 79.3962 44.5936 79.236C45.0665 79.0758 44.6482 77.7191 44.1225 77.2989C43.5967 76.8787 38.4072 74.5628 38.4072 74.5628L38.0134 65.7158L29.3643 65.7366Z" fill="#D3766A"/>
<path d="M29.6093 72.7807C29.6093 72.7807 29.6733 74.5934 29.6733 74.599C29.7242 76.295 29.7977 77.7779 29.9089 78.5411C29.9079 78.5455 29.9079 78.5499 29.9089 78.5543C29.9346 78.7319 29.9814 78.9059 30.0483 79.0725L30.0596 79.0838C30.574 79.4098 44.1206 79.4022 44.5936 79.2421C45.0666 79.0819 44.6482 77.7252 44.1225 77.305C43.5968 76.8848 38.4073 74.5689 38.4073 74.5689L38.3677 72.7241L29.6093 72.7807Z" fill="#EBEBEB"/>
<path d="M44.6011 79.2269C44.1225 79.3795 30.4685 79.1684 29.9522 78.8293C29.7638 78.703 29.6695 76.7131 29.6356 74.3068V74.2314L38.4468 74.2691V74.4199C38.4468 74.4199 43.6382 76.8375 44.1639 77.269C44.6897 77.7005 45.0816 79.0799 44.6011 79.2269Z" fill="#263238"/>
<path d="M44.456 78.703C42.1552 78.6107 32.8654 78.4561 30.5834 78.5409C30.5646 78.5409 30.5646 78.5541 30.5834 78.5541C32.8616 78.6954 42.1533 78.7765 44.456 78.7426C44.5031 78.7312 44.505 78.703 44.456 78.703Z" fill="white"/>
<path d="M39.1817 74.454C38.2791 74.2655 37.1673 74.3918 36.4663 75.0193C36.4381 75.0438 36.4663 75.0815 36.504 75.0739C37.374 74.8084 38.2697 74.636 39.176 74.5595C39.1869 74.556 39.1965 74.5493 39.2035 74.5402C39.2105 74.5311 39.2146 74.5201 39.2152 74.5087C39.2158 74.4972 39.2129 74.4859 39.207 74.4761C39.201 74.4663 39.1921 74.4586 39.1817 74.454V74.454Z" fill="white"/>
<path d="M39.8299 74.857C38.9254 74.6686 37.8155 74.7967 37.1146 75.4318C37.0863 75.4562 37.1146 75.4939 37.1504 75.4845C38.0208 75.2187 38.9172 75.0469 39.8242 74.972C39.8379 74.9703 39.8505 74.9638 39.8598 74.9537C39.8692 74.9437 39.8747 74.9306 39.8754 74.9169C39.876 74.9031 39.8719 74.8896 39.8635 74.8787C39.8552 74.8677 39.8433 74.8601 39.8299 74.857V74.857Z" fill="white"/>
<path d="M40.4762 75.2623C39.5736 75.0739 38.4638 75.2001 37.7609 75.8276C37.7345 75.8521 37.7609 75.8898 37.7986 75.8823C38.6686 75.6169 39.5643 75.4445 40.4706 75.3678C40.4815 75.3643 40.4911 75.3576 40.4981 75.3485C40.5051 75.3395 40.5092 75.3285 40.5098 75.317C40.5104 75.3056 40.5075 75.2942 40.5015 75.2845C40.4956 75.2747 40.4867 75.267 40.4762 75.2623V75.2623Z" fill="white"/>
<path d="M44.8178 78.7407C45.0609 78.8387 44.9949 79.6584 44.8178 79.7206C44.6407 79.7828 29.743 79.4869 29.4999 79.4266C29.2569 79.3663 29.3549 78.46 29.6507 78.4166C29.9465 78.3733 44.8178 78.7407 44.8178 78.7407Z" fill="#FFC727"/>
<path d="M31.8666 75.7918C30.8849 75.2811 30.0897 76.8075 31.0733 77.3181C32.057 77.8288 32.8503 76.3025 31.8666 75.7918Z" fill="white"/>
<path d="M30.7832 26.8833C30.7474 27.0472 28.7519 34.937 28.5031 35.0839C28.2205 35.2517 35.7541 45.3876 36.6473 50.3641C37.2126 53.5468 38.5316 72.0982 38.5316 72.0982H28.9252C28.9252 72.0982 27.983 56.3432 27.6702 51.1518C27.5478 49.1374 19.9915 39.825 19.2736 33.616C19.0475 31.6601 20.4532 26.8757 20.4532 26.8757L30.7832 26.8833Z" fill="#9AC3D7"/>
<path d="M28.6821 64.6024C28.5691 61.9926 28.4654 59.3771 28.2751 56.7711C28.1677 55.2938 27.9567 53.8635 27.8097 52.3919C27.8097 52.3146 27.74 52.2958 27.7419 52.3749C27.8097 54.996 28.0264 57.5889 28.1658 60.2081C28.3053 62.8274 28.4391 63.4379 28.5879 66.0496C28.6708 67.5269 28.7443 69.0043 28.8593 70.4797C28.8605 70.4835 28.8629 70.4868 28.8661 70.4891C28.8693 70.4914 28.8732 70.4927 28.8772 70.4927C28.8811 70.4927 28.885 70.4914 28.8882 70.4891C28.8914 70.4868 28.8938 70.4835 28.8951 70.4797C28.9007 67.8567 28.7971 67.2217 28.6821 64.6024Z" fill="#263238"/>
<path d="M36.6567 50.4886C36.5745 49.7994 36.441 49.1172 36.2572 48.4479C36.0593 47.7991 35.7987 47.1712 35.479 46.5729C34.8251 45.318 34.0808 44.1045 33.3628 42.8853C32.6449 41.6661 31.8968 40.4206 31.1393 39.2033C30.7134 38.5199 30.2857 37.8371 29.8561 37.155C29.4189 36.4672 28.9572 35.7926 28.5069 35.1142C28.5034 35.1085 28.4977 35.1044 28.4912 35.1028C28.4847 35.1012 28.4778 35.1023 28.472 35.1057C28.4663 35.1092 28.4621 35.1149 28.4606 35.1214C28.459 35.128 28.46 35.1349 28.4635 35.1406C29.1984 36.373 29.9258 37.6072 30.6607 38.8396C31.3956 40.0719 32.1192 41.3081 32.8428 42.5442C33.5664 43.7803 34.2692 44.9788 34.9513 46.2149C35.2872 46.8018 35.5764 47.4142 35.8163 48.0465C36.0393 48.7016 36.2014 49.3759 36.3005 50.0609C36.5568 51.6569 36.766 53.2643 37.0863 54.8452C37.0876 54.849 37.0899 54.8523 37.0932 54.8546C37.0964 54.8569 37.1002 54.8582 37.1042 54.8582C37.1082 54.8582 37.112 54.8569 37.1153 54.8546C37.1185 54.8523 37.1209 54.849 37.1221 54.8452C37.0222 53.3905 36.8489 51.9339 36.6567 50.4886Z" fill="#263238"/>
<path d="M37.6855 70.4515C37.1372 70.3799 32.9521 70.2348 29.451 70.3855C29.4283 70.3855 29.4302 70.4194 29.451 70.4213C30.591 70.5212 37.0373 70.5664 37.6799 70.491C37.6969 70.4892 37.7044 70.4552 37.6855 70.4515Z" fill="#263238"/>
<path d="M29.7561 34.5452C28.7774 34.9018 27.8316 35.3431 26.9296 35.8642C26.9219 35.8677 26.9158 35.8742 26.9128 35.8821C26.9098 35.8901 26.9101 35.8989 26.9136 35.9066C26.9171 35.9144 26.9235 35.9204 26.9315 35.9234C26.9394 35.9264 26.9483 35.9261 26.956 35.9226C27.9095 35.5119 28.8837 35.1199 29.8146 34.6582C29.8296 34.6505 29.8409 34.6371 29.846 34.621C29.8511 34.605 29.8496 34.5875 29.8419 34.5725C29.8341 34.5575 29.8208 34.5462 29.8047 34.5411C29.7886 34.536 29.7711 34.5374 29.7561 34.5452V34.5452Z" fill="#263238"/>
<path d="M30.0445 28.0142C30.0445 27.9822 29.9842 27.9747 29.9842 28.0142C29.9844 29.079 29.931 30.1431 29.8241 31.2025C29.7788 31.6944 29.3831 34.4059 28.5314 34.2175C28.3882 34.1836 28.3166 34.0441 28.294 33.8274C28.2964 33.5462 28.3343 33.2663 28.407 32.9946C28.5013 32.4293 28.5766 31.864 28.6256 31.2817C28.7255 30.2118 28.7142 29.1345 28.5917 28.067C28.5901 28.061 28.5866 28.0556 28.5816 28.0518C28.5767 28.048 28.5706 28.046 28.5644 28.046C28.5582 28.046 28.5521 28.048 28.5471 28.0518C28.5422 28.0556 28.5387 28.061 28.5371 28.067C28.5617 29.55 28.4748 31.0328 28.277 32.5027C28.1696 33.2094 27.8135 34.274 28.554 34.3871C29.2946 34.5002 29.7939 32.7157 29.8844 32.2276C30.1201 30.836 30.1739 29.4197 30.0445 28.0142V28.0142Z" fill="#263238"/>
<path d="M28.554 34.2756C28.4785 34.4596 28.4155 34.6485 28.3656 34.8409C28.3113 34.9887 28.2845 35.1452 28.2864 35.3026C28.2873 35.309 28.2902 35.315 28.2946 35.3198C28.299 35.3246 28.3047 35.3279 28.3111 35.3293C28.3174 35.3308 28.324 35.3302 28.3301 35.3278C28.3361 35.3254 28.3412 35.3212 28.3448 35.3158C28.4338 35.1769 28.5006 35.025 28.5427 34.8654C28.6086 34.6902 28.6765 34.5187 28.7311 34.3416C28.7399 34.3181 28.7389 34.2921 28.7285 34.2693C28.7181 34.2465 28.699 34.2288 28.6755 34.2201C28.652 34.2113 28.626 34.2122 28.6032 34.2227C28.5805 34.2331 28.5627 34.2522 28.554 34.2756V34.2756Z" fill="#263238"/>
<path d="M28.9554 53.6846C28.8649 52.3429 28.8706 50.9278 28.2996 49.6841C27.9964 49.078 27.6474 48.496 27.2557 47.943C26.8663 47.3475 26.4818 46.7489 26.1025 46.1472C24.595 43.7409 23.1403 41.2856 21.8156 38.7699C21.1768 37.5583 20.5889 36.3071 20.2685 34.9692C19.9561 33.5613 19.8968 32.1091 20.0933 30.6804C20.1385 30.3243 20.1875 29.97 20.2459 29.6158C20.2461 29.611 20.2446 29.6063 20.2417 29.6024C20.2388 29.5986 20.2347 29.5959 20.23 29.5948C20.2253 29.5937 20.2204 29.5942 20.2161 29.5963C20.2118 29.5985 20.2083 29.602 20.2063 29.6064C19.8963 30.9649 19.7902 32.3621 19.8917 33.7519C20.0367 35.0807 20.4109 36.3743 20.9978 37.5753C21.5819 38.8397 22.2772 40.057 22.9631 41.2686C23.6704 42.5248 24.3984 43.7628 25.1471 44.9826C25.9008 46.1999 26.6772 47.3927 27.4554 48.5912C27.8524 49.1564 28.1618 49.7784 28.3731 50.4359C28.5444 51.1221 28.643 51.8245 28.6671 52.5313C28.8555 55.4973 29.6092 65.3581 29.8768 68.309C29.9088 68.6858 29.9428 69.0627 29.9786 69.4396C29.9775 69.4435 29.9773 69.4476 29.9781 69.4516C29.9789 69.4556 29.9806 69.4593 29.983 69.4626C29.9855 69.4658 29.9887 69.4684 29.9923 69.4702C29.9959 69.472 29.9999 69.473 30.004 69.473C30.0081 69.473 30.0121 69.472 30.0157 69.4702C30.0194 69.4684 30.0225 69.4658 30.025 69.4626C30.0274 69.4593 30.0291 69.4556 30.0299 69.4516C30.0307 69.4476 30.0305 69.4435 30.0294 69.4396C29.9164 66.4774 29.1495 56.6411 28.9554 53.6846Z" fill="#263238"/>
<path d="M24.3444 29.4838C24.3444 29.4631 24.3105 29.4706 24.3105 29.4838C24.2822 30.3073 24.3105 31.159 23.9882 31.9335C23.6981 32.6476 23.1139 33.1489 22.46 33.5239C22.0798 33.7372 21.6878 33.9291 21.2861 34.0986C21.2578 34.1118 21.2691 34.157 21.3012 34.1476C22.0549 33.9064 22.8331 33.6445 23.4644 33.1395C24.139 32.5968 24.4348 31.811 24.4669 30.963C24.4784 30.467 24.4374 29.9712 24.3444 29.4838V29.4838Z" fill="#263238"/>
<path d="M28.5257 16.0618C29.6036 19.3708 32.5149 25.0068 33.555 25.6871C34.4765 26.2882 38.8124 25.6174 40.7156 25.1595C41.4241 24.988 39.8299 19.5875 39.0743 19.7853C38.1679 20.0227 35.4677 20.6314 35.2717 20.4806C35.0757 20.3299 32.3528 16.9758 30.4233 15.001C28.667 13.2127 28.1187 14.8106 28.5257 16.0618Z" fill="#D3766A"/>
<path d="M40.2992 25.2007C40.6629 25.1555 43.74 25.0123 45.1514 24.2453C45.9051 23.8364 47.829 22.4835 47.6368 21.9973C47.4616 21.5545 46.8435 21.7957 46.8435 21.7957C46.8435 21.7957 47.6934 21.1795 47.4446 20.5652C47.1959 19.9509 46.1689 20.4126 46.1689 20.4126C46.1689 20.4126 46.9961 19.7154 46.7041 19.1218C46.412 18.5282 45.4585 19.1633 45.4585 19.1633C45.4585 19.1633 46.2443 18.5622 45.7977 18.174C45.2588 17.7067 43.9341 18.9805 43.039 19.2782C42.8355 19.346 38.8256 20.3598 38.8256 20.3598L40.2992 25.2007Z" fill="#D3766A"/>
<path d="M45.4246 19.1463C44.4485 20.079 43.8587 20.3184 42.5547 20.5822C42.5302 20.5822 42.5321 20.6274 42.5547 20.6236C43.8549 20.4823 44.6369 20.2882 45.4679 19.1915C45.5131 19.1369 45.4698 19.1011 45.4246 19.1463Z" fill="#263238"/>
<path d="M46.1368 20.3898C45.0382 21.2717 44.4013 21.5355 43.0559 21.9124C43.0371 21.9124 43.0446 21.952 43.0653 21.9482C44.4145 21.6882 45.1909 21.4771 46.1726 20.452C46.2178 20.4068 46.1877 20.3503 46.1368 20.3898Z" fill="#263238"/>
<path d="M46.7775 21.8107C45.6469 22.5871 44.9666 22.9093 43.6137 23.1072C43.6072 23.1072 43.6009 23.1098 43.5963 23.1143C43.5918 23.1189 43.5892 23.1252 43.5892 23.1317C43.5892 23.1382 43.5918 23.1444 43.5963 23.149C43.6009 23.1536 43.6072 23.1562 43.6137 23.1562C45.0137 23.0883 45.8749 22.6945 46.7926 21.8484C46.8604 21.7957 46.8472 21.7636 46.7775 21.8107Z" fill="#263238"/>
<path d="M37.7741 20.5333C37.7741 20.5333 38.8953 19.2651 39.5096 18.8166C40.1239 18.3681 43.0333 17.539 43.2481 18.1571C43.5251 18.9561 41.9404 19.7644 41.1132 20.0584C41.1132 20.0584 41.7557 21.9051 40.7363 22.7304C39.7169 23.5558 37.7741 20.5333 37.7741 20.5333Z" fill="#D3766A"/>
<path d="M43.2537 18.4038C42.9805 19.3139 41.8687 19.6305 41.0867 19.9754C41.0752 19.9803 41.0649 19.988 41.0568 19.9976C41.0487 20.0073 41.043 20.0187 41.04 20.0309C41.0371 20.0432 41.0371 20.056 41.04 20.0682C41.0428 20.0805 41.0485 20.0919 41.0566 20.1016C41.2752 20.893 41.3506 22.0726 40.7966 22.7397C40.7815 22.7585 40.806 22.7849 40.8248 22.768C41.5164 22.1348 41.5352 20.9684 41.2413 20.1167C42.0496 19.7756 43.1501 19.4082 43.2613 18.4076C43.2632 18.4038 43.2556 18.4038 43.2537 18.4038Z" fill="#263238"/>
<path d="M40.2972 26.1299L38.8764 19.659L35.3602 20.2978C33.9733 18.7093 31.2014 15.5342 30.084 14.5807C28.765 13.4614 27.902 14.3018 28.3881 15.9977C29.4867 19.8738 32.6995 25.5646 33.5399 26.1016C34.7591 26.8836 40.2972 26.1299 40.2972 26.1299Z" fill="#D38713"/>
<path opacity="0.1" d="M35.2774 22.2667C35.4514 22.3046 35.6288 22.3254 35.8069 22.3289C36.1837 22.3798 36.3496 22.9356 36.0066 23.1467C35.8265 23.2576 35.6229 23.3248 35.4122 23.3428C35.2014 23.3608 34.9894 23.3291 34.7931 23.2503C34.4162 23.1034 34.0978 22.7378 34.1788 22.3082C34.1928 22.2281 34.2273 22.153 34.279 22.0902C34.3306 22.0274 34.3977 21.979 34.4736 21.9498C34.5494 21.9206 34.6316 21.9115 34.712 21.9235C34.7924 21.9354 34.8684 21.968 34.9325 22.018C35.037 22.1146 35.1527 22.1981 35.2774 22.2667V22.2667ZM34.305 20.7272C34.1694 21.3679 35.1605 21.9181 35.6674 21.577C35.7083 21.5461 35.7416 21.5063 35.765 21.4607C35.7884 21.4151 35.8012 21.3648 35.8025 21.3136C35.8037 21.2623 35.7934 21.2115 35.7723 21.1648C35.7512 21.118 35.7199 21.0767 35.6806 21.0438C35.5317 20.9232 35.4074 20.9043 35.2755 20.795C35.2294 20.759 35.1887 20.7165 35.1549 20.6688C35.0801 20.5658 34.9845 20.4797 34.8741 20.4163C34.8167 20.3917 34.7545 20.3806 34.6921 20.3836C34.6298 20.3866 34.5689 20.4037 34.5141 20.4336C34.4593 20.4635 34.412 20.5055 34.3758 20.5564C34.3396 20.6072 34.3154 20.6656 34.305 20.7272V20.7272ZM32.7241 20.7611C32.5206 21.0268 32.6732 21.4263 32.8522 21.6675C32.9328 21.7876 33.0438 21.8842 33.1739 21.9474C33.304 22.0107 33.4485 22.0383 33.5928 22.0274C33.6453 22.02 33.6946 21.9976 33.7347 21.9628C33.7748 21.928 33.804 21.8824 33.8187 21.8314C33.8335 21.7804 33.8331 21.7262 33.8178 21.6754C33.8024 21.6246 33.7727 21.5793 33.7322 21.545C33.6189 21.4588 33.5283 21.3463 33.4684 21.2171C33.3798 21.0174 33.3214 20.7592 33.0915 20.6725C33.0287 20.6467 32.9594 20.6414 32.8934 20.6573C32.8275 20.6732 32.7682 20.7095 32.7241 20.7611V20.7611ZM36.8979 24.9519C36.6322 25.4889 37.4406 26.0995 37.9305 25.9939C38.0945 25.9581 38.2527 25.7433 38.1077 25.5888C37.9908 25.4644 37.8514 25.3665 37.7421 25.2346C37.6083 25.0744 37.5348 24.869 37.3256 24.788C37.2469 24.755 37.1586 24.7537 37.0789 24.7842C36.9993 24.8147 36.9344 24.8748 36.8979 24.9519V24.9519ZM29.3077 18.3661C29.2614 18.2779 29.1972 18.2002 29.1193 18.1381C29.2248 18.4082 29.336 18.6789 29.4528 18.9503C29.4591 18.7459 29.4089 18.5438 29.3077 18.3661ZM30.3573 17.8008C30.3204 17.3353 30.1385 16.8931 29.8373 16.5364C29.6111 16.2443 29.2192 15.7827 28.8046 15.8825C28.7606 15.8963 28.7221 15.9239 28.695 15.9612C28.6678 15.9986 28.6534 16.0437 28.6539 16.0898C28.6275 16.4083 28.9931 16.7493 29.1513 17.0037C29.3398 17.3241 29.4886 17.6783 29.6922 17.9968C29.7347 18.0622 29.7973 18.1122 29.8705 18.1392C29.9438 18.1662 30.0238 18.1687 30.0987 18.1464C30.1735 18.1242 30.2392 18.0783 30.2858 18.0157C30.3324 17.953 30.3575 17.877 30.3573 17.7989V17.8008ZM30.2348 19.8265C30.3085 19.8227 30.379 19.7954 30.4359 19.7486C30.4929 19.7018 30.5334 19.6379 30.5514 19.5664C30.5807 19.4201 30.571 19.2687 30.5232 19.1274C30.495 18.9928 30.4297 18.8688 30.3347 18.7694C30.3007 18.7379 30.2591 18.7158 30.214 18.7052C30.1689 18.6947 30.1218 18.696 30.0773 18.7091C30.0329 18.7222 29.9926 18.7466 29.9604 18.78C29.9282 18.8133 29.9053 18.8545 29.8938 18.8994C29.8787 19.0094 29.8787 19.121 29.8938 19.231C29.8938 19.2781 29.8938 19.3252 29.8938 19.3742C29.8928 19.4452 29.9004 19.5161 29.9164 19.5853C29.9367 19.6541 29.9786 19.7146 30.036 19.7577C30.0933 19.8008 30.1631 19.8243 30.2348 19.8246V19.8265Z" fill="#030402"/>
<path d="M39.0668 25.5646C38.9047 25.1877 38.5015 23.5144 38.4129 23.098C38.3244 22.6816 37.9965 20.9969 37.9004 20.5692C37.9004 20.5447 37.9268 20.5315 37.9324 20.5541C38.0342 20.9762 38.4883 22.6382 38.5882 23.0528C38.688 23.4673 39.063 25.1387 39.0894 25.559C39.0898 25.5604 39.0899 25.562 39.0896 25.5635C39.0894 25.565 39.0889 25.5665 39.0881 25.5678C39.0865 25.5704 39.0839 25.5723 39.0809 25.5731C39.0779 25.5738 39.0748 25.5734 39.0721 25.5718C39.0695 25.5702 39.0676 25.5676 39.0668 25.5646Z" fill="#263238"/>
<path opacity="0.1" d="M35.8012 26.4538C34.8119 26.4538 33.9432 26.3596 33.54 26.1015C32.6939 25.555 29.4811 19.8831 28.375 15.9995C28.0961 15.0271 28.2638 14.3337 28.7047 14.1321L35.8012 26.4538Z" fill="black"/>
<path d="M19.8559 27.7709C19.8804 27.8067 31.6387 29.3142 31.7649 29.2049C31.8314 28.8776 31.8786 28.5466 31.9063 28.2138C31.9063 28.2138 30.8284 15.4115 30.2706 14.6597C29.7826 14.0039 28.3015 13.529 27.2934 13.9568C25.1773 14.8537 20.1102 26.2917 20.1649 26.7704C20.1611 26.7647 19.8257 27.7257 19.8559 27.7709Z" fill="#D38713"/>
<path opacity="0.1" d="M24.0956 26.2126C24.2769 26.3007 24.4662 26.3713 24.6609 26.4237C25.0528 26.5801 25.0886 27.2339 24.6609 27.3658C24.4335 27.438 24.1924 27.456 23.9568 27.4183C23.7213 27.3807 23.4977 27.2885 23.3042 27.1491C22.9273 26.8853 22.6842 26.3954 22.8877 25.9582C22.9251 25.875 22.9832 25.8029 23.0565 25.7486C23.1298 25.6944 23.2158 25.66 23.3063 25.6486C23.3968 25.6373 23.4887 25.6494 23.5731 25.6838C23.6575 25.7182 23.7317 25.7738 23.7884 25.8452C23.894 25.9677 23.958 26.1297 24.0956 26.2126ZM23.4511 24.2661C23.1289 24.9313 24.0617 25.7999 24.708 25.5644C24.7621 25.5428 24.8105 25.5088 24.8493 25.4653C24.8881 25.4218 24.9163 25.3699 24.9317 25.3136C24.947 25.2574 24.9491 25.1983 24.9377 25.1411C24.9264 25.0839 24.9019 25.0302 24.8663 24.984C24.7381 24.8125 24.6062 24.7579 24.4894 24.6072C24.4491 24.5551 24.4167 24.4973 24.3933 24.4357C24.3376 24.3041 24.2562 24.185 24.154 24.0852C23.9298 23.8685 23.5698 24.0211 23.4511 24.2661V24.2661ZM22.362 23.5576C22.0096 23.6895 21.9192 24.1643 21.9455 24.4997C21.951 24.6627 21.9995 24.8213 22.0862 24.9593C22.173 25.0974 22.2948 25.2099 22.4392 25.2855C22.4937 25.3099 22.5542 25.3179 22.6131 25.3087C22.6721 25.2994 22.7272 25.2733 22.7716 25.2334C22.8161 25.1936 22.848 25.1417 22.8636 25.084C22.8792 25.0264 22.8777 24.9655 22.8594 24.9087C22.7996 24.758 22.7789 24.5946 22.7991 24.4338C22.8312 24.1926 22.9273 23.9099 22.7671 23.6932C22.7225 23.6308 22.6593 23.584 22.5866 23.5596C22.5138 23.5353 22.4352 23.5346 22.362 23.5576ZM26.2249 25.7999C26.1357 25.7923 26.047 25.8191 25.9769 25.8748C25.9068 25.9305 25.8607 26.0109 25.848 26.0996C25.8384 26.1948 25.8623 26.2904 25.9156 26.3698C25.9689 26.4493 26.0483 26.5077 26.1401 26.5348C26.2686 26.5773 26.4073 26.5773 26.5358 26.5348C26.6016 26.5088 26.6558 26.46 26.6884 26.3973C26.7263 26.3366 26.7416 26.2646 26.7318 26.1938C26.7213 26.1277 26.6911 26.0664 26.645 26.0179C26.5989 25.9694 26.5391 25.9361 26.4736 25.9224C26.4618 25.9068 26.4478 25.8928 26.4322 25.881C26.3724 25.8345 26.3004 25.8064 26.2249 25.7999V25.7999ZM23.3362 21.253C23.0196 21.5771 23.1478 22.3139 23.5095 22.5626C23.5561 22.5981 23.6112 22.6207 23.6692 22.6282C23.7272 22.6358 23.7862 22.628 23.8403 22.6057C23.8944 22.5835 23.9417 22.5474 23.9776 22.5012C24.0134 22.4549 24.0366 22.4001 24.0447 22.3422C24.0503 22.2675 24.0503 22.1926 24.0447 22.1179C24.0447 22.0369 24.0334 21.986 24.0447 21.9295C24.0729 21.7684 24.0786 21.6041 24.0617 21.4415C24.047 21.3643 24.0108 21.2929 23.9571 21.2355C23.9034 21.1782 23.8346 21.1373 23.7586 21.1175C23.6826 21.0978 23.6025 21.1 23.5277 21.124C23.453 21.148 23.3865 21.1927 23.3362 21.253V21.253ZM21.2917 25.9413C20.8564 26.4576 21.5743 27.3432 22.1377 27.3602C22.3262 27.3602 22.558 27.1718 22.4411 26.9645C22.3469 26.7987 22.2207 26.6517 22.1377 26.4802C22.036 26.2691 22.0115 26.0223 21.8042 25.8791C21.7269 25.8223 21.6309 25.7971 21.5356 25.8086C21.4404 25.8202 21.3531 25.8676 21.2917 25.9413ZM31.6876 25.7773C31.6167 25.788 31.5505 25.8194 31.4975 25.8677C31.4445 25.9161 31.407 25.979 31.3899 26.0487C31.3296 26.2578 31.322 26.4444 31.1656 26.614C30.9964 26.7471 30.8444 26.901 30.7134 27.0719C30.6915 27.1146 30.6811 27.1622 30.6832 27.2101C30.6852 27.258 30.6997 27.3046 30.7252 27.3452C30.7506 27.3858 30.7862 27.4192 30.8284 27.442C30.8706 27.4647 30.918 27.4762 30.9659 27.4751C31.295 27.4347 31.5962 27.2703 31.8082 27.0154C31.7705 26.6573 31.7328 26.2371 31.6895 25.7698L31.6876 25.7773ZM30.7454 24.2227C30.6399 24.479 30.6588 24.7692 30.5702 25.0368C30.4925 25.2821 30.4 25.5225 30.2932 25.7566C30.2141 25.9262 30.3723 26.1938 30.5777 26.1033C30.9118 25.9751 31.185 25.7254 31.3428 25.4042C31.486 25.1084 31.6443 24.6109 31.5067 24.2962C31.3692 23.9816 30.9018 23.844 30.7417 24.2152L30.7454 24.2227ZM29.6714 26.7911C29.5148 26.9934 29.3144 27.1577 29.0853 27.2716C29.0307 27.2886 28.9804 27.3169 28.9376 27.3548C28.8948 27.3927 28.8605 27.4392 28.8371 27.4914C28.8136 27.5435 28.8016 27.6 28.8016 27.6572C28.8017 27.7143 28.8139 27.7708 28.8374 27.8229C28.861 27.875 28.8953 27.9215 28.9382 27.9593C28.9811 27.997 29.0315 28.0253 29.0861 28.0421C29.1408 28.059 29.1983 28.064 29.2551 28.0569C29.3118 28.0497 29.3663 28.0307 29.4151 28.0009C29.6101 27.9173 29.7843 27.792 29.9256 27.6337C30.0669 27.4755 30.1718 27.2882 30.2329 27.0851C30.3215 26.7591 29.8805 26.5461 29.6676 26.7836L29.6714 26.7911ZM27.9491 17.5578C28.0544 17.5801 28.1642 17.5607 28.2555 17.5038C28.3468 17.4469 28.4126 17.3569 28.439 17.2525C28.5445 16.8474 28.1827 16.431 27.8963 16.1785C27.6099 15.926 27.2066 15.6961 26.8053 15.8261C26.7518 15.8434 26.7037 15.8741 26.6655 15.9152C26.6272 15.9564 26.6001 16.0066 26.5867 16.0611C26.5733 16.1157 26.574 16.1727 26.5889 16.2269C26.6037 16.2811 26.6322 16.3306 26.6715 16.3707C26.8467 16.5893 27.0898 16.7475 27.2764 16.9624C27.4629 17.1772 27.6174 17.4956 27.9453 17.5503L27.9491 17.5578ZM29.3944 19.1576C29.5526 18.9296 29.4302 18.5923 29.3171 18.3756C29.2569 18.2561 29.1633 18.1566 29.0476 18.0892C28.9698 18.0394 28.8755 18.0223 28.7851 18.0418C28.6948 18.0612 28.6158 18.1155 28.5653 18.1928C28.5139 18.3 28.5058 18.4228 28.5426 18.5358C28.5584 18.5949 28.5798 18.6523 28.6067 18.7073V18.7242V18.7393C28.6404 18.9192 28.7166 19.0885 28.8291 19.233C28.868 19.2722 28.9154 19.3018 28.9677 19.3196C29.02 19.3374 29.0757 19.3429 29.1304 19.3356C29.1852 19.3283 29.2375 19.3084 29.2833 19.2776C29.329 19.2467 29.3671 19.2056 29.3944 19.1576ZM30.3667 17.8084C30.3298 17.343 30.1479 16.9008 29.8466 16.544C29.6205 16.252 29.2285 15.7903 28.814 15.8902C28.7699 15.9039 28.7315 15.9315 28.7043 15.9689C28.6772 16.0062 28.6628 16.0513 28.6632 16.0974C28.6369 16.4159 29.0024 16.757 29.1607 17.0114C29.3491 17.3317 29.498 17.6859 29.7015 18.0044C29.7459 18.0663 29.8086 18.1126 29.8808 18.1367C29.953 18.1608 30.031 18.1616 30.1037 18.1388C30.1763 18.116 30.2399 18.071 30.2855 18.0099C30.331 17.9489 30.3561 17.8751 30.3573 17.799L30.3667 17.8084ZM28.944 21.0344C29.0129 21.0495 29.0843 21.0495 29.1532 21.0344C29.2576 21.0023 29.3459 20.9315 29.4 20.8366C29.4506 20.7355 29.4759 20.6236 29.4735 20.5106C29.4701 20.4035 29.441 20.2988 29.3887 20.2053L29.3265 20.1281L29.2436 20.0678C29.1918 20.041 29.1345 20.0263 29.0762 20.0247C29.0179 20.0231 28.9599 20.0347 28.9067 20.0586C28.8534 20.0825 28.8063 20.1181 28.7687 20.1628C28.7311 20.2074 28.7041 20.26 28.6896 20.3165C28.6582 20.4262 28.6362 20.5384 28.6237 20.6519L28.6406 20.7555C28.6538 20.8076 28.6797 20.8555 28.716 20.895C28.7729 20.9608 28.8496 21.0064 28.9346 21.025L28.944 21.0344ZM30.2442 19.8341C30.3178 19.8303 30.3883 19.803 30.4453 19.7562C30.5023 19.7094 30.5427 19.6456 30.5608 19.5741C30.5901 19.4278 30.5803 19.2763 30.5325 19.135C30.5043 19.0004 30.4391 18.8764 30.3441 18.777C30.3101 18.7455 30.2685 18.7234 30.2233 18.7128C30.1782 18.7023 30.1311 18.7036 30.0867 18.7167C30.0422 18.7298 30.0019 18.7543 29.9698 18.7876C29.9376 18.821 29.9146 18.8621 29.9031 18.907C29.8881 19.017 29.8881 19.1286 29.9031 19.2386C29.9031 19.2858 29.9031 19.3329 29.9031 19.3819C29.9022 19.4529 29.9098 19.5237 29.9258 19.5929C29.9468 19.6588 29.9879 19.7166 30.0433 19.7581C30.0987 19.7996 30.1656 19.8229 30.2348 19.8247L30.2442 19.8341Z" fill="#030402"/>
<path d="M29.5828 16.6666C28.8649 16.6006 27.9453 15.0667 27.7701 14.0925C27.7588 14.0247 28.0452 13.4575 28.3599 12.7528C28.5483 12.325 28.7518 11.8426 28.9026 11.3904L31.5105 13.0316C31.1586 13.5436 30.8707 14.0967 30.6531 14.6786C30.6337 14.74 30.6198 14.8031 30.6117 14.867C30.6124 14.8777 30.6124 14.8884 30.6117 14.899C30.5457 15.2759 30.2782 16.7306 29.5828 16.6666Z" fill="#D3766A"/>
<path d="M30.6116 14.8707C30.6122 14.8813 30.6122 14.892 30.6116 14.9027C30.5112 14.883 30.4123 14.856 30.3158 14.8217C28.684 14.2338 28.9723 12.0932 29.0872 11.5015L29.7373 11.9123L31.518 13.0429C31.1663 13.5546 30.8789 14.1077 30.6625 14.6898C30.6401 14.7484 30.6231 14.809 30.6116 14.8707V14.8707Z" fill="#263238"/>
<path d="M29.1759 8.36971C28.6369 9.34015 28.5427 12.4569 29.1401 13.2841C30.0031 14.4825 31.7367 14.9499 32.8353 13.8494C33.8999 12.7716 33.9489 8.70701 33.2555 7.92312C32.2304 6.7586 29.9711 6.93573 29.1759 8.36971Z" fill="#D3766A"/>
<path d="M31.6782 10.8892C31.6782 10.8892 31.6613 10.8892 31.6613 10.908C31.6613 11.1228 31.6236 11.3678 31.4276 11.4319V11.445C31.6669 11.4187 31.7121 11.0927 31.6782 10.8892Z" fill="#263238"/>
<path d="M31.4954 10.6592C31.1506 10.6215 31.0997 11.3112 31.4182 11.347C31.7366 11.3828 31.7837 10.6912 31.4954 10.6592Z" fill="#263238"/>
<path d="M32.9144 10.9626C32.9144 10.9626 32.9294 10.974 32.9294 10.9834C32.9049 11.1963 32.9144 11.445 33.1009 11.5298C33.1009 11.5298 33.1009 11.5449 33.1009 11.543C32.8654 11.4903 32.8578 11.1605 32.9144 10.9626Z" fill="#263238"/>
<path d="M33.1235 10.7554C33.4684 10.7554 33.4401 11.4469 33.1235 11.4469C32.8069 11.4469 32.8333 10.7535 33.1235 10.7554Z" fill="#263238"/>
<path d="M31.7743 10.5197C31.6782 10.5404 31.5859 10.5423 31.4916 10.5536C31.394 10.5792 31.2907 10.5719 31.1977 10.5329C31.1706 10.5151 31.1502 10.4887 31.1396 10.4581C31.129 10.4274 31.1289 10.3941 31.1393 10.3633C31.1702 10.3071 31.2154 10.2601 31.2703 10.227C31.3252 10.1939 31.3879 10.1759 31.4521 10.1749C31.5822 10.1499 31.717 10.1755 31.8289 10.2465C31.8522 10.264 31.8701 10.2877 31.8805 10.3149C31.8908 10.3421 31.8933 10.3717 31.8876 10.4003C31.8819 10.4289 31.8682 10.4552 31.8482 10.4764C31.8281 10.4975 31.8025 10.5125 31.7743 10.5197V10.5197Z" fill="#263238"/>
<path d="M33.4325 10.1126C33.341 10.087 33.2511 10.0561 33.1631 10.0203C33.0639 10.0016 32.9738 9.95057 32.9068 9.8752C32.89 9.84758 32.883 9.81516 32.8867 9.78307C32.8905 9.75099 32.9048 9.72107 32.9275 9.69807C32.979 9.65873 33.0402 9.63409 33.1046 9.62679C33.1689 9.61949 33.2341 9.6298 33.2931 9.65661C33.4204 9.69145 33.5304 9.77195 33.6021 9.88273C33.617 9.90902 33.624 9.93907 33.6222 9.96923C33.6204 9.99939 33.6098 10.0284 33.5919 10.0527C33.574 10.077 33.5494 10.0956 33.5211 10.1063C33.4928 10.1169 33.462 10.1191 33.4325 10.1126V10.1126Z" fill="#263238"/>
<path d="M31.5218 12.589C31.7993 12.5226 32.0885 12.5226 32.366 12.589C32.3905 12.589 32.415 12.54 32.4207 12.5174L32.4357 12.0652C32.4941 12.0991 32.7881 12.2536 32.7881 12.1707C32.8188 11.4357 32.774 10.6994 32.6543 9.97353C32.653 9.96932 32.6504 9.96563 32.6468 9.96301C32.6433 9.9604 32.639 9.95898 32.6345 9.95898C32.6301 9.95898 32.6258 9.9604 32.6223 9.96301C32.6187 9.96563 32.6161 9.96932 32.6147 9.97353C32.5846 10.6538 32.6713 11.3321 32.6505 12.0162C32.5466 11.9585 32.4349 11.916 32.3189 11.8899C32.2944 11.8899 32.3189 12.3704 32.3189 12.442C32.0595 12.3527 31.7755 12.3682 31.5275 12.4854C31.4295 12.5476 31.3899 12.6305 31.5218 12.589Z" fill="#263238"/>
<path d="M30.9641 13.0373C31.0112 13.09 31.0583 13.1616 31.1336 13.1729C31.2129 13.1767 31.292 13.1632 31.3654 13.1334C31.3654 13.1334 31.3786 13.1334 31.3654 13.1447C31.333 13.1847 31.2901 13.215 31.2416 13.2323C31.1931 13.2495 31.1407 13.2531 31.0903 13.2427C31.0491 13.2295 31.0126 13.2047 30.9852 13.1713C30.9578 13.1378 30.9406 13.0972 30.9358 13.0542C30.9396 13.0335 30.9565 13.0297 30.9641 13.0373Z" fill="#263238"/>
<path opacity="0.2" d="M30.086 7.38037C30.0577 7.86465 29.9428 9.36647 29.7091 9.67174C29.4755 9.977 28.9818 10.6874 28.7311 10.8023C28.7651 9.80176 28.9196 8.85016 29.1777 8.3527C29.3894 7.95412 29.7027 7.61865 30.086 7.38037Z" fill="#263238"/>
<path d="M32.7712 8.84841C32.6394 8.98252 32.4755 9.08065 32.2951 9.13342C32.1147 9.1862 31.9237 9.19188 31.7404 9.1499C31.5529 9.10817 31.3793 9.01879 31.2364 8.89039C31.0934 8.76199 30.986 8.59891 30.9245 8.41689C30.9245 8.40558 30.9038 8.41689 30.9076 8.41689C30.9555 8.61341 31.0563 8.79303 31.1992 8.93623C31.342 9.07942 31.5214 9.1807 31.7178 9.22904C31.9139 9.26647 32.1164 9.25131 32.3047 9.18512C32.493 9.11893 32.6605 9.00405 32.79 8.85217C32.8013 8.85406 32.7863 8.8371 32.7712 8.84841Z" fill="#263238"/>
<path d="M31.8252 6.0557C31.5356 6.03611 31.2458 6.08971 30.9823 6.21155C30.7189 6.33339 30.4903 6.51956 30.3177 6.75291C30.1707 6.9904 30.1082 7.27065 30.1406 7.54811C30.1406 7.54811 30.1651 7.54811 30.1651 7.54811C30.1687 7.30464 30.238 7.06668 30.3657 6.85936C30.4934 6.65205 30.6747 6.48311 30.8906 6.37039C31.1265 6.23832 31.3897 6.16263 31.6597 6.14923C31.9298 6.13582 32.1992 6.18508 32.447 6.29313C32.6908 6.39363 32.8911 6.57722 33.0123 6.81133C33.0236 6.83582 33.0726 6.82452 33.0632 6.80002C32.9087 6.38923 32.4094 6.08397 31.8252 6.0557Z" fill="#263238"/>
<path d="M35.4243 7.69883C35.3423 7.37981 35.1501 7.10011 34.8816 6.90929C34.5047 6.63983 34.0638 6.64359 33.6229 6.65867C33.6097 6.65867 33.6116 6.67751 33.6229 6.67563C33.9978 6.63649 34.376 6.7065 34.712 6.87725C34.9855 7.0414 35.1939 7.29503 35.3018 7.59519C35.4045 7.90306 35.3926 8.23765 35.2683 8.53745C35.1441 8.83725 34.9157 9.08212 34.6253 9.22704C34.4563 9.30648 34.2728 9.35047 34.0862 9.3563C33.8995 9.36213 33.7136 9.32969 33.54 9.26095C33.5268 9.26095 33.5155 9.27414 33.5286 9.28168C33.7636 9.38547 34.0229 9.42149 34.2773 9.38567C34.5316 9.34986 34.7709 9.24363 34.9681 9.079C35.1652 8.91437 35.3124 8.69788 35.3931 8.45399C35.4737 8.21011 35.4845 7.94854 35.4243 7.69883Z" fill="#263238"/>
<path d="M28.9874 8.98234C28.9874 8.98234 28.4673 7.79709 29.0232 7.17525C29.3379 6.82477 30.2838 6.94536 30.2838 6.94536C30.5664 6.58667 30.9798 6.35486 31.4333 6.30092C32.2416 6.17467 33.1631 6.72113 33.1631 6.72113C33.1631 6.72113 33.9507 6.34426 34.6272 6.80215C35.5694 7.44095 35.3339 8.93524 34.305 9.34225C33.5814 9.63056 32.6807 8.94089 32.6807 8.94089C32.5902 8.94089 31.6142 9.43836 30.9716 8.55271C30.9716 8.55271 30.3611 9.01815 29.873 8.62243C29.7802 8.7661 29.6454 8.87771 29.487 8.94211C29.3285 9.0065 29.1541 9.02055 28.9874 8.98234V8.98234Z" fill="#263238"/>
<path d="M29.2945 10.9514C29.2945 10.9514 28.8008 9.84531 28.3128 10.0093C27.8247 10.1732 28.0621 11.6769 28.5445 11.9709C28.6033 12.0117 28.6697 12.0404 28.7398 12.0552C28.8099 12.0699 28.8822 12.0705 28.9525 12.0567C29.0228 12.043 29.0896 12.0154 29.149 11.9754C29.2084 11.9354 29.2592 11.8839 29.2983 11.8239L29.2945 10.9514Z" fill="#D3766A"/>
<path d="M28.3919 10.4351V10.4482C28.7273 10.6649 28.8536 11.0399 28.9195 11.4149C28.9053 11.3745 28.8826 11.3377 28.8527 11.3069C28.8229 11.2762 28.7868 11.2523 28.7468 11.2369C28.7069 11.2215 28.6641 11.2149 28.6213 11.2177C28.5786 11.2204 28.537 11.2324 28.4993 11.2529C28.488 11.2529 28.4993 11.2736 28.4993 11.2736C28.5679 11.2657 28.6373 11.2796 28.6976 11.3134C28.7578 11.3473 28.8058 11.3993 28.8347 11.462C28.8859 11.564 28.9251 11.6714 28.9516 11.7824C28.9516 11.8182 29.0232 11.8125 29.0194 11.7824C29.1155 11.2962 28.88 10.5783 28.3919 10.4351Z" fill="#263238"/>
<path d="M55.4131 13.1467L35.1257 19.3608L38.7835 31.3027L59.0709 25.0886L55.4131 13.1467Z" fill="#FFC727"/>
<path opacity="0.2" d="M55.4131 13.1467L35.1257 19.3608L38.7835 31.3027L59.0709 25.0886L55.4131 13.1467Z" fill="#FF725E"/>
<path opacity="0.2" d="M55.4121 13.1466L48.5944 15.2349L52.2522 27.1767L59.0699 25.0884L55.4121 13.1466Z" fill="black"/>
<path d="M55.0856 13.7554C54.8557 14.8131 54.6321 15.8709 54.4148 16.9286L53.7722 20.1094L53.1504 23.3034C52.9469 24.3661 52.7484 25.4308 52.5549 26.4973C52.7848 25.4408 53.0084 24.3831 53.2258 23.3241L53.8683 20.1433L54.4902 16.9569C54.6937 15.8891 54.8921 14.8219 55.0856 13.7554Z" fill="#FFC727"/>
<path d="M58.4341 24.6882C57.6804 23.9143 56.9197 23.1436 56.1522 22.3761L53.8533 20.0847L51.5393 17.8103C50.7655 17.0566 49.9879 16.3028 49.2065 15.5491C49.9602 16.3242 50.7209 17.0949 51.4884 17.8612L53.7873 20.1525L56.1013 22.4269C56.8764 23.1882 57.654 23.942 58.4341 24.6882Z" fill="#FFC727"/>
<path d="M39.0221 20.8995L39.1339 20.8652L38.6532 19.2959L38.5415 19.3302L39.0221 20.8995Z" fill="#263238"/>
<path d="M38.7568 20.9793L38.8685 20.9451L38.3878 19.3758L38.2761 19.41L38.7568 20.9793Z" fill="#263238"/>
<path d="M38.489 21.065L38.6007 21.0308L38.12 19.4615L38.0083 19.4957L38.489 21.065Z" fill="#263238"/>
<path d="M38.2239 21.1419L38.3356 21.1077L37.8552 19.5383L37.7435 19.5725L38.2239 21.1419Z" fill="#263238"/>
<path d="M37.9565 21.2249L38.0682 21.1907L37.5876 19.6214L37.4758 19.6556L37.9565 21.2249Z" fill="#263238"/>
<path d="M37.6906 21.3045L37.8023 21.2703L37.3216 19.701L37.2099 19.7352L37.6906 21.3045Z" fill="#263238"/>
<path d="M37.4215 21.3924L37.5332 21.3582L37.0525 19.7889L36.9408 19.8231L37.4215 21.3924Z" fill="#263238"/>
<path d="M37.1553 21.4717L37.267 21.4375L36.7861 19.8683L36.6744 19.9025L37.1553 21.4717Z" fill="#263238"/>
<path d="M36.8866 21.5562L36.9983 21.522L36.5176 19.9527L36.4059 19.9869L36.8866 21.5562Z" fill="#263238"/>
<path d="M39.7828 19.0806L39.3193 19.0919L40.3236 18.781L39.9317 19.0335L40.1088 19.6101C40.4273 19.5555 40.6421 19.8212 40.8041 20.3488L39.7998 20.6654C39.6377 20.1396 39.666 19.7986 39.96 19.6648L39.7828 19.0806Z" fill="#263238"/>
<path d="M40.7928 19.4817L41.0548 19.4007L40.8192 18.6319L41.4901 18.4265L41.7256 19.1953L41.9894 19.1143L41.6352 20.0979L40.7928 19.4817Z" fill="#263238"/>
<path opacity="0.1" d="M35.1266 19.3612L35.4262 20.341L49.4495 18.027L48.594 15.2363L35.1266 19.3612Z" fill="black"/>
<path d="M61.6997 26.4425L54.8803 28.5303L52.2516 27.1774L59.071 25.0876L61.6997 26.4425Z" fill="#FFC727"/>
<path opacity="0.2" d="M61.6997 26.4425L54.8803 28.5303L52.2516 27.1774L59.071 25.0876L61.6997 26.4425Z" fill="black"/>
<path d="M37.3633 33.897L44.1827 31.8072L45.6017 29.2144L38.7822 31.3022L37.3633 33.897Z" fill="#FFC727"/>
<path opacity="0.1" d="M37.3633 33.897L44.1827 31.8072L45.6017 29.2144L38.7822 31.3022L37.3633 33.897Z" fill="black"/>
<path d="M26.1401 17.5183C27.137 20.8517 29.9088 26.5632 30.9377 27.2604C31.8441 27.8841 36.195 27.3169 38.0982 26.9042C38.8105 26.7516 37.3445 21.3134 36.5907 21.4924C35.6787 21.7091 32.9634 22.2461 32.7712 22.0973C32.579 21.9484 29.9446 18.517 28.0603 16.5045C26.3493 14.6729 25.7633 16.2577 26.1401 17.5183Z" fill="#D3766A"/>
<path d="M36.1987 21.935C36.1987 21.935 37.6403 20.3107 38.6616 19.6908C39.7396 19.0737 40.9515 18.7278 42.1928 18.6827C43.5326 18.6299 46.8095 19.4251 46.7435 20.4087C46.6851 21.3 43.3781 20.3164 43.3781 20.3164C43.3781 20.3164 46.915 20.763 46.6474 21.8239C46.3799 22.8848 42.6055 21.5224 42.6055 21.5224C42.6055 21.5224 46.2291 22.0613 45.7882 23.1146C45.449 23.908 41.9611 22.8678 41.9611 22.8678C41.9611 22.8678 45.074 23.354 44.7593 24.1868C44.4126 25.1045 41.132 24.347 41.132 24.347C39.9806 26.3218 38.622 26.7967 37.6176 27.0096C37.367 27.0529 36.1987 21.935 36.1987 21.935Z" fill="#D3766A"/>
<path d="M42.1646 20.083C42.581 20.1207 43.005 20.1565 43.4177 20.23C43.8304 20.3035 44.2393 20.3939 44.6444 20.507C45.1751 20.6434 45.6884 20.84 46.1745 21.093C45.2794 20.7067 43.8059 20.4165 43.3932 20.3393C42.9805 20.262 42.5716 20.1697 42.1608 20.0962C42.1495 20.1 42.1533 20.083 42.1646 20.083Z" fill="#263238"/>
<path d="M41.8688 21.5695C42.3983 21.6392 42.9297 21.6901 43.4573 21.7843C43.9849 21.8786 44.4729 22.0142 44.9911 22.1442C45.0307 22.1537 45.0119 22.1725 44.9723 22.1631C44.4484 22.0538 43.9585 21.9935 43.4347 21.8917C42.9108 21.79 42.3907 21.6656 41.865 21.5808C41.8575 21.5808 41.8594 21.5676 41.8688 21.5695Z" fill="#263238"/>
<path d="M41.3845 22.7984C42.2016 22.8871 43.0074 23.0602 43.7889 23.3147C43.8285 23.326 43.8021 23.3468 43.7606 23.3374C42.9655 23.1489 42.3417 22.9982 41.3826 22.8267C41.3675 22.8248 41.3675 22.7965 41.3845 22.7984Z" fill="#263238"/>
<path d="M37.6667 27.8689L36.4004 21.3641L32.8711 21.9181C31.5219 20.2976 28.8272 17.0565 27.7268 16.0766C26.436 14.9253 25.5523 15.7469 25.9951 17.4522C27.0089 21.3509 30.0841 27.1095 30.917 27.6748C32.1117 28.4851 37.6667 27.8689 37.6667 27.8689Z" fill="#D38713"/>
<path opacity="0.1" d="M35.2773 22.2668C35.4514 22.3046 35.6287 22.3254 35.8068 22.3289C36.1837 22.3798 36.3495 22.9357 36.0065 23.1468C35.8264 23.2577 35.6229 23.3248 35.4121 23.3428C35.2014 23.3608 34.9893 23.3292 34.793 23.2504C34.4161 23.1034 34.0977 22.7379 34.1787 22.3082C34.1927 22.2281 34.2273 22.153 34.2789 22.0902C34.3306 22.0274 34.3976 21.9791 34.4735 21.9499C34.5494 21.9207 34.6315 21.9116 34.7119 21.9235C34.7924 21.9355 34.8683 21.968 34.9325 22.018C35.0369 22.1146 35.1527 22.1982 35.2773 22.2668V22.2668ZM34.9004 21.5997C35.0187 21.6567 35.1489 21.6844 35.2801 21.6805C35.4112 21.6765 35.5396 21.6411 35.6542 21.5771C35.6964 21.5489 35.7302 21.5098 35.7522 21.464L34.9004 21.5997ZM33.067 21.8861C33.217 21.9957 33.4022 22.046 33.587 22.0275C33.6508 22.0187 33.7094 21.9879 33.7528 21.9404C33.7962 21.8929 33.8215 21.8317 33.8245 21.7674L33.067 21.8861ZM37.0618 24.7899C36.9872 24.8212 36.9268 24.8789 36.8922 24.952C36.7339 25.2704 36.9544 25.6134 37.2691 25.8188L37.0618 24.7899ZM31.3861 26.0411C31.3258 26.2503 31.3183 26.4368 31.1619 26.6064C30.9935 26.7421 30.8428 26.8985 30.7134 27.0718C30.6915 27.1145 30.6811 27.1622 30.6832 27.2101C30.6852 27.258 30.6997 27.3045 30.7252 27.3452C30.7506 27.3858 30.7862 27.4192 30.8284 27.4419C30.8706 27.4647 30.918 27.4761 30.9659 27.4751C31.2942 27.4347 31.5954 27.2724 31.8097 27.0204C32.024 26.7685 32.1358 26.4451 32.1229 26.1146C32.1123 26.0299 32.0733 25.9513 32.0122 25.8917C31.9511 25.832 31.8716 25.7949 31.7866 25.7864C31.7017 25.7778 31.6164 25.7984 31.5446 25.8447C31.4729 25.891 31.419 25.9602 31.3918 26.0411H31.3861ZM30.736 24.2152C30.6305 24.4714 30.6493 24.7616 30.5608 25.0292C30.483 25.2745 30.3905 25.5149 30.2838 25.749C30.2046 25.9186 30.3629 26.1862 30.5683 26.0958C30.9023 25.9675 31.1756 25.7178 31.3334 25.3967C31.4766 25.1008 31.6349 24.6034 31.4973 24.2887C31.3597 23.974 30.9018 23.844 30.7417 24.2152H30.736ZM27.9396 17.5502C28.0449 17.5725 28.1547 17.5532 28.2461 17.4963C28.3374 17.4394 28.4032 17.3493 28.4296 17.245C28.5351 16.8398 28.1733 16.4234 27.8869 16.1709C27.6005 15.9184 27.1972 15.6885 26.7958 15.8185C26.7424 15.8358 26.6943 15.8665 26.656 15.9077C26.6178 15.9488 26.5907 15.999 26.5773 16.0536C26.5639 16.1081 26.5646 16.1652 26.5795 16.2193C26.5943 16.2735 26.6227 16.323 26.6621 16.3631C26.8373 16.5817 27.0804 16.74 27.2669 16.9548C27.4535 17.1696 27.6174 17.4956 27.9453 17.5502H27.9396ZM29.3944 19.1576C29.5526 18.9296 29.4302 18.5923 29.3171 18.3756C29.2569 18.256 29.1633 18.1566 29.0476 18.0892C28.9698 18.0394 28.8755 18.0223 28.7851 18.0417C28.6948 18.0611 28.6158 18.1154 28.5653 18.1928C28.5139 18.3 28.5058 18.4228 28.5426 18.5358C28.5584 18.5949 28.5798 18.6523 28.6067 18.7072V18.7242V18.7393C28.6404 18.9192 28.7166 19.0885 28.8291 19.233C28.868 19.2722 28.9154 19.3018 28.9677 19.3196C29.02 19.3374 29.0757 19.3429 29.1304 19.3356C29.1852 19.3283 29.2375 19.3084 29.2833 19.2775C29.329 19.2467 29.3671 19.2056 29.3944 19.1576ZM28.944 21.0419C29.0129 21.057 29.0843 21.057 29.1532 21.0419C29.2576 21.0098 29.3459 20.939 29.4 20.8441C29.4506 20.743 29.4759 20.6311 29.4735 20.5181C29.4701 20.411 29.441 20.3063 29.3887 20.2128L29.3265 20.1356L29.2436 20.0753C29.1918 20.0485 29.1345 20.0338 29.0762 20.0322C29.0179 20.0306 28.9599 20.0422 28.9067 20.0661C28.8534 20.09 28.8063 20.1256 28.7687 20.1703C28.7311 20.2149 28.7041 20.2675 28.6896 20.324C28.6582 20.4338 28.6362 20.546 28.6237 20.6594L28.6406 20.7631C28.6538 20.8151 28.6797 20.863 28.716 20.9025C28.774 20.9655 28.8506 21.0084 28.9346 21.025L28.944 21.0419ZM30.525 19.1293L30.1481 18.7053C30.0879 18.6982 30.0271 18.7134 29.9774 18.7482C29.9277 18.7829 29.8926 18.8348 29.8786 18.8938C29.8636 19.0038 29.8636 19.1154 29.8786 19.2254C29.8786 19.2725 29.8786 19.3196 29.8786 19.3686C29.8777 19.4396 29.8853 19.5105 29.9013 19.5797C29.9219 19.6514 29.9659 19.7141 30.0264 19.7579C30.0868 19.8016 30.1602 19.8238 30.2348 19.8209C30.3084 19.8171 30.3789 19.7898 30.4359 19.743C30.4928 19.6962 30.5333 19.6323 30.5514 19.5608C30.5796 19.4171 30.5706 19.2685 30.525 19.1293Z" fill="#030402"/>
<path d="M36.4494 27.2716C36.2967 26.8853 35.9387 25.2082 35.8539 24.788C35.7691 24.3678 35.4884 22.6794 35.4036 22.2479C35.4036 22.2253 35.4299 22.2102 35.4356 22.2347C35.526 22.6587 35.9425 24.3301 36.0311 24.7485C36.1196 25.1668 36.4569 26.8438 36.472 27.2659C36.4727 27.2689 36.4723 27.2721 36.4707 27.2748C36.4691 27.2774 36.4665 27.2793 36.4635 27.2801C36.4605 27.2808 36.4573 27.2804 36.4547 27.2788C36.452 27.2772 36.4501 27.2746 36.4494 27.2716V27.2716Z" fill="#263238"/>
<path d="M35.2848 28.0516C34.7063 28.0855 34.1279 28.0987 33.5494 28.095C32.9687 28.0975 32.3885 28.0641 31.812 27.9951C31.5166 27.9658 31.2278 27.8895 30.9565 27.769C30.7126 27.5968 30.5009 27.3831 30.3309 27.1377C29.9893 26.6662 29.6802 26.172 29.4057 25.6585C28.8404 24.6428 28.3542 23.5857 27.8794 22.5342C27.4045 21.4828 26.973 20.4012 26.5773 19.312C27.0578 20.3654 27.5326 21.4206 28.0263 22.4664C28.52 23.5122 29.0194 24.5543 29.5583 25.5737C29.8273 26.0822 30.1242 26.5754 30.4477 27.051C30.5987 27.2878 30.7901 27.4964 31.013 27.6672C31.27 27.7857 31.5441 27.8627 31.8252 27.8952C32.9728 28.0343 34.1293 28.0865 35.2848 28.0516V28.0516Z" fill="#263238"/>
<path d="M26.9448 20.2319C26.8674 20.1537 26.7973 20.0685 26.7356 19.9775C26.6717 19.8873 26.6227 19.7874 26.5905 19.6816C26.6189 19.7284 26.6497 19.7737 26.6828 19.8173L26.7752 19.9511C26.8372 20.0413 26.8938 20.135 26.9448 20.2319Z" fill="#263238"/>
<path d="M29.9202 18.4851C30.3969 18.9637 30.8247 19.4895 31.2675 19.9926C31.7103 20.4957 32.1343 21.0271 32.5865 21.5283L32.7542 21.7168C32.7844 21.745 32.8126 21.7771 32.8409 21.8034C32.8692 21.8298 32.8692 21.8279 32.8824 21.8392C32.8824 21.8392 32.8956 21.8392 32.9031 21.8392C33.0463 21.8392 33.2272 21.8072 33.3893 21.7865L34.3917 21.6376C35.0588 21.5396 35.7277 21.4379 36.3967 21.3474L36.4231 21.5133L36.3835 21.3493H36.3929C35.7315 21.4906 35.0739 21.6169 34.403 21.7394C34.0695 21.7997 33.736 21.8524 33.4006 21.9033C33.2291 21.9331 33.0561 21.9532 32.8824 21.9636C32.8686 21.9654 32.8547 21.9654 32.8409 21.9636C32.8224 21.9581 32.8052 21.9491 32.79 21.9372C32.771 21.9225 32.7528 21.9068 32.7354 21.8901L32.6431 21.7997C32.5828 21.7375 32.5262 21.6753 32.4697 21.6112C32.0269 21.0968 31.5972 20.5767 31.1751 20.0491L30.5439 19.2558C30.3366 19.009 30.1482 18.7376 29.9202 18.4851Z" fill="#263238"/>
<path d="M30.167 18.5415C30.238 18.6287 30.301 18.722 30.3554 18.8204C30.4085 18.9176 30.4461 19.0225 30.4666 19.1313C30.444 19.0804 30.4157 19.0352 30.3893 18.9862L30.3121 18.8411C30.2584 18.7439 30.2099 18.6439 30.167 18.5415Z" fill="#263238"/>
<path d="M45.2228 4.22774C45.2227 5.00322 45.0072 5.76342 44.6002 6.42354C44.1933 7.08367 43.6109 7.61774 42.9182 7.96619C42.2254 8.31463 41.4494 8.46374 40.6768 8.39688C39.9042 8.33002 39.1654 8.04981 38.5428 7.58753L36.4907 8.11138L37.3443 6.20253C37.0439 5.64128 36.8754 5.0189 36.8517 4.38273C36.8279 3.74657 36.9495 3.11336 37.2073 2.53127C37.4651 1.94918 37.8522 1.43353 38.3392 1.02353C38.8262 0.613529 39.4002 0.319976 40.0178 0.165194C40.6353 0.0104116 41.2799 -0.00152481 41.9027 0.130292C42.5256 0.26211 43.1101 0.534209 43.6119 0.925901C44.1138 1.31759 44.5197 1.81856 44.7988 2.39071C45.078 2.96286 45.223 3.59113 45.2228 4.22774V4.22774Z" fill="white"/>
<path d="M45.2229 4.22608C45.2227 5.00252 45.0089 5.76394 44.6048 6.427C44.5066 6.59414 44.3983 6.75523 44.2807 6.90939C44.1557 7.057 44.0217 7.19671 43.8794 7.32771C43.5982 7.59274 43.281 7.81668 42.9372 7.99289C42.5923 8.16894 42.2244 8.2958 41.8443 8.36976C41.6535 8.40774 41.4601 8.43167 41.2658 8.44136C41.072 8.45738 40.8773 8.45738 40.6835 8.44136C39.8997 8.38055 39.1482 8.1033 38.5127 7.64052L38.5693 7.65182L36.5229 8.19075L36.3571 8.23409L36.4268 8.0758L37.2728 6.16319V6.24233C36.9651 5.67018 36.7931 5.03488 36.7702 4.38561C36.7474 3.73635 36.8742 3.09052 37.1409 2.49813C37.408 1.90741 37.8055 1.38491 38.3036 0.969927C38.801 0.561063 39.3846 0.270167 40.0106 0.119066C40.6365 -0.0320344 41.2886 -0.0394169 41.9178 0.0974738C42.5413 0.239313 43.1252 0.518727 43.6269 0.915281C44.1258 1.31063 44.5287 1.81394 44.8051 2.38738C45.0816 2.96083 45.2244 3.58948 45.2229 4.22608V4.22608ZM45.2229 4.22608C45.2226 3.26881 44.891 2.34116 44.2844 1.60062C43.6778 0.860069 42.8336 0.352269 41.8952 0.163426C41.2777 0.0405187 40.6404 0.0598509 40.0315 0.219957C39.4246 0.376695 38.8619 0.670666 38.3865 1.07922C37.9155 1.49219 37.54 2.00273 37.286 2.57539C37.0356 3.14644 36.9183 3.76696 36.9431 4.39002C36.9721 5.00687 37.1368 5.60972 37.4255 6.15565L37.4462 6.19522L37.4274 6.23479L36.5662 8.14175L36.4701 8.02869L38.5259 7.51992H38.558L38.5825 7.53876C39.1918 8.00157 39.9181 8.28541 40.6798 8.35845C40.8679 8.3723 41.0569 8.3723 41.2451 8.35845C41.8209 8.33867 42.3858 8.19536 42.9014 7.93824C43.2454 7.77079 43.5628 7.55365 43.8436 7.2938C43.9858 7.16473 44.1199 7.02691 44.2449 6.88112C44.3649 6.7312 44.4763 6.57454 44.5785 6.41192C44.9898 5.75625 45.2128 5.00003 45.2229 4.22608V4.22608Z" fill="#263238"/>
<path d="M41.3279 4.68032V5.14199C41.3292 5.18812 41.3211 5.23403 41.304 5.27691C41.2869 5.3198 41.2613 5.35875 41.2287 5.39138C41.196 5.42401 41.1571 5.44964 41.1142 5.4667C41.0713 5.48376 41.0254 5.49189 40.9793 5.49059C40.9336 5.49059 40.8883 5.48156 40.8462 5.46402C40.804 5.44648 40.7657 5.42077 40.7334 5.38837C40.7012 5.35598 40.6757 5.31753 40.6584 5.27525C40.6411 5.23296 40.6323 5.18768 40.6326 5.14199V4.4052C40.6326 4.4052 40.6326 4.40521 40.6326 4.39013C40.6326 4.37506 40.6326 4.39013 40.6326 4.37694C40.6349 4.28555 40.6722 4.19853 40.7366 4.13371C40.8011 4.06889 40.8879 4.03119 40.9793 4.02834C41.0868 4.03358 41.1943 4.01692 41.2953 3.97937C41.3962 3.94182 41.4884 3.88416 41.5664 3.80989C41.6444 3.73562 41.7065 3.64629 41.7489 3.54731C41.7913 3.44833 41.8132 3.34177 41.8132 3.23408C41.8132 3.1264 41.7913 3.01984 41.7489 2.92086C41.7065 2.82188 41.6444 2.73254 41.5664 2.65828C41.4884 2.58401 41.3962 2.52635 41.2953 2.4888C41.1943 2.45125 41.0868 2.43459 40.9793 2.43983C40.8416 2.4394 40.7063 2.47522 40.5869 2.54369C40.4675 2.61216 40.3682 2.71087 40.299 2.82989C40.2758 2.87003 40.2449 2.9052 40.2081 2.93338C40.1713 2.96155 40.1292 2.98219 40.0844 2.99409C40.0396 3.00599 39.9929 3.00894 39.9469 3.00275C39.901 2.99656 39.8567 2.98136 39.8166 2.95803C39.7773 2.93474 39.743 2.9039 39.7156 2.8673C39.6883 2.83069 39.6684 2.78904 39.6572 2.74474C39.646 2.70043 39.6436 2.65435 39.6503 2.60913C39.657 2.56392 39.6725 2.52047 39.696 2.48129C39.82 2.26783 39.995 2.08851 40.2054 1.9594C40.4158 1.8303 40.6549 1.75546 40.9013 1.74161C41.1478 1.72775 41.3938 1.77532 41.6173 1.88004C41.8408 1.98475 42.0349 2.14333 42.1819 2.34155C42.329 2.53977 42.4246 2.77141 42.4601 3.01568C42.4955 3.25995 42.4697 3.5092 42.3851 3.74106C42.3004 3.97291 42.1595 4.18011 41.975 4.34405C41.7904 4.50799 41.5681 4.62354 41.3279 4.68032V4.68032ZM41.3279 6.23491V6.36304C41.3289 6.40902 41.3206 6.45473 41.3034 6.49739C41.2863 6.54005 41.2606 6.57877 41.228 6.6112C41.1954 6.64363 41.1565 6.66909 41.1138 6.68604C41.071 6.70298 41.0253 6.71105 40.9793 6.70976C40.8873 6.70976 40.7991 6.67323 40.7341 6.60821C40.6691 6.54319 40.6326 6.455 40.6326 6.36304V6.23491C40.6335 6.14308 40.6703 6.05525 40.7351 5.99014C40.7998 5.92503 40.8875 5.88777 40.9793 5.8863C41.0252 5.8858 41.0708 5.89447 41.1133 5.91181C41.1558 5.92915 41.1944 5.95481 41.2269 5.98728C41.2594 6.01975 41.285 6.05838 41.3024 6.10091C41.3197 6.14343 41.3284 6.18899 41.3279 6.23491Z" fill="#FFC727"/>
<rect x="0.083313" width="80.8333" height="80" fill="white" fill-opacity="0.72"/>
</svg>
