<svg width="99" height="102" viewBox="0 0 99 102" fill="none" xmlns="http://www.w3.org/2000/svg">
<path d="M25.4895 68.6906L22.0704 74.2398C21.8968 74.5211 21.6192 74.7218 21.2985 74.7978C20.9778 74.8738 20.6401 74.819 20.3596 74.6453C20.1998 74.5431 20.0648 74.4064 19.9644 74.2451C19.864 74.0838 19.8008 73.902 19.7793 73.7131C19.7101 73.1809 19.4785 72.6832 19.1165 72.2884C18.7545 71.8935 18.2796 71.6208 17.7571 71.5075C17.2346 71.3943 16.69 71.4462 16.1979 71.656C15.7059 71.8658 15.2906 72.2233 15.0089 72.6794C14.7273 73.1356 14.593 73.668 14.6246 74.2038C14.6563 74.7396 14.8522 75.2524 15.1855 75.672C15.5189 76.0915 15.9733 76.3973 16.4866 76.5473C16.9998 76.6973 17.5467 76.6842 18.0523 76.5098C18.2299 76.4453 18.4196 76.4214 18.6075 76.44C18.7955 76.4585 18.9769 76.519 19.1386 76.617C19.2776 76.7031 19.3983 76.8158 19.4938 76.9487C19.5893 77.0817 19.6578 77.2322 19.6953 77.3918C19.7328 77.5513 19.7387 77.7167 19.7124 77.8785C19.6862 78.0403 19.6285 78.1953 19.5425 78.3347L16.121 83.8839L10.5941 80.4602L6.51572 77.9268L0.979553 74.4868L4.40106 68.9377C4.48655 68.7982 4.59861 68.6771 4.73081 68.5812C4.86301 68.4853 5.01275 68.4166 5.17146 68.3789C5.33017 68.3412 5.49472 68.3354 5.65569 68.3617C5.81665 68.388 5.97087 68.4459 6.1095 68.5321C6.2696 68.634 6.40487 68.7706 6.50531 68.9319C6.60575 69.0933 6.6688 69.2753 6.68981 69.4644C6.75888 69.9965 6.9902 70.4942 7.35205 70.8891C7.7139 71.2841 8.18857 71.557 8.71097 71.6704C9.23337 71.7839 9.77794 71.7323 10.27 71.5228C10.7621 71.3133 11.1775 70.9561 11.4594 70.5001C11.7414 70.0442 11.8759 69.5119 11.8447 68.9762C11.8134 68.4405 11.6179 67.9276 11.2849 67.5078C10.9519 67.088 10.4977 66.782 9.98467 66.6315C9.47161 66.4811 8.92478 66.4937 8.41913 66.6676C8.24116 66.7322 8.05107 66.7561 7.86274 66.7375C7.67441 66.719 7.49256 66.6585 7.33047 66.5604C7.0507 66.3858 6.85131 66.107 6.77603 65.785C6.70075 65.463 6.75572 65.1241 6.9289 64.8428L10.3388 59.2843L15.875 62.7219C16.0136 62.8083 16.1679 62.8664 16.329 62.8929C16.49 62.9194 16.6547 62.9138 16.8136 62.8763C16.9725 62.8389 17.1224 62.7704 17.2549 62.6747C17.3874 62.579 17.4998 62.4581 17.5857 62.3187C17.7055 62.1233 17.7682 61.898 17.7668 61.6685C17.7663 61.5178 17.7412 61.3682 17.6925 61.2257C17.5193 60.718 17.5067 60.1689 17.6565 59.6538C17.8064 59.1387 18.1112 58.6827 18.5293 58.3484C18.9473 58.014 19.4582 57.8177 19.9917 57.7863C20.5253 57.7549 21.0555 57.89 21.5096 58.1731C21.9637 58.4561 22.3194 58.8733 22.5281 59.3673C22.7368 59.8614 22.7882 60.4081 22.6752 60.9327C22.5622 61.4572 22.2904 61.9337 21.897 62.2971C21.5036 62.6604 21.008 62.8926 20.478 62.962C20.2896 62.9831 20.1084 63.0464 19.9477 63.1472C19.787 63.2481 19.6509 63.3839 19.5495 63.5446C19.4635 63.684 19.4058 63.839 19.3796 64.0008C19.3534 64.1626 19.3592 64.328 19.3967 64.4875C19.4342 64.6471 19.5027 64.7976 19.5982 64.9306C19.6937 65.0635 19.8144 65.1762 19.9534 65.2623L25.4895 68.6906Z" fill="#EBEBEB"/>
<path d="M85.8744 63.8546L80.705 59.8925C80.4438 59.6913 80.2728 59.3943 80.2293 59.0667C80.1858 58.7391 80.2733 58.4075 80.4728 58.1446C80.5895 57.9948 80.738 57.8729 80.9074 57.7879C81.0769 57.7028 81.263 57.6567 81.4524 57.6528C81.9863 57.6339 82.5014 57.4498 82.927 57.1255C83.3526 56.8013 83.6679 56.3529 83.8298 55.8417C83.9918 55.3305 83.9923 54.7816 83.8314 54.2701C83.6704 53.7586 83.3559 53.3095 82.9309 52.9845C82.506 52.6594 81.9913 52.4742 81.4574 52.4543C80.9235 52.4344 80.3965 52.5807 79.9487 52.8732C79.5008 53.1656 79.154 53.59 78.9557 54.0881C78.7574 54.5862 78.7173 55.1337 78.841 55.6555C78.8874 55.8396 78.8923 56.0318 78.8553 56.2181C78.8184 56.4044 78.7405 56.58 78.6274 56.7322C78.5284 56.8623 78.4048 56.9715 78.2637 57.0537C78.1226 57.1358 77.9667 57.1892 77.8051 57.2108C77.6434 57.2325 77.4791 57.2219 77.3215 57.1798C77.1639 57.1377 77.0161 57.0648 76.8865 56.9653L71.7171 53.0033L75.6632 47.813C75.7623 47.6829 75.8349 47.5345 75.8768 47.3763C75.9188 47.2181 75.9293 47.0531 75.9077 46.8907C75.8862 46.7284 75.833 46.572 75.7512 46.4303C75.6694 46.2886 75.5607 46.1645 75.4311 46.065C75.2791 45.9523 75.104 45.8749 74.9186 45.8382C74.7332 45.8015 74.5419 45.8066 74.3587 45.853C73.8389 45.9771 73.2937 45.9369 72.7976 45.7378C72.3015 45.5387 71.8788 45.1905 71.5875 44.7408C71.2962 44.2911 71.1505 43.7621 71.1704 43.226C71.1902 42.69 71.3746 42.1732 71.6984 41.7465C72.0221 41.3198 72.4694 41.004 72.9788 40.8425C73.4883 40.6809 74.035 40.6814 74.5441 40.844C75.0532 41.0065 75.4999 41.3232 75.8228 41.7505C76.1457 42.1778 76.3292 42.6949 76.348 43.231C76.3519 43.4208 76.3978 43.6074 76.4825 43.7771C76.5673 43.9469 76.6886 44.0955 76.8378 44.2122C76.9673 44.3117 77.1151 44.3846 77.2727 44.4267C77.4303 44.4688 77.5946 44.4794 77.7563 44.4577C77.918 44.4361 78.0738 44.3827 78.2149 44.3006C78.356 44.2184 78.4796 44.1092 78.5787 43.9791L82.5248 38.7889L87.6942 42.7509C87.8238 42.8504 87.9325 42.9745 88.0143 43.1162C88.0961 43.2578 88.1493 43.4143 88.1709 43.5766C88.1924 43.7389 88.1819 43.9039 88.14 44.0622C88.098 44.2204 88.0254 44.3688 87.9263 44.4989C87.8099 44.6484 87.6618 44.77 87.4928 44.8551C87.3238 44.9401 87.1381 44.9864 86.9491 44.9906C86.4151 45.0091 85.8998 45.1928 85.4738 45.5168C85.0479 45.8408 84.7321 46.289 84.5699 46.8002C84.4076 47.3114 84.4067 47.8605 84.5674 48.3721C84.7281 48.8838 85.0424 49.3331 85.4673 49.6584C85.8923 49.9837 86.407 50.1691 86.941 50.1892C87.475 50.2093 88.0021 50.0631 88.4501 49.7707C88.8981 49.4782 89.245 49.0538 89.4434 48.5557C89.6418 48.0575 89.6819 47.5099 89.5582 46.988C89.5118 46.8038 89.5069 46.6116 89.5438 46.4254C89.5808 46.2391 89.6586 46.0635 89.7717 45.9112C89.8708 45.7811 89.9944 45.6719 90.1355 45.5898C90.2766 45.5077 90.4325 45.4543 90.5941 45.4327C90.7558 45.411 90.9201 45.4216 91.0777 45.4637C91.2353 45.5058 91.3831 45.5787 91.5127 45.6782L96.6821 49.6402L92.7359 54.8305C92.6369 54.9605 92.5643 55.1089 92.5223 55.2672C92.4804 55.4254 92.4699 55.5904 92.4914 55.7527C92.513 55.915 92.5662 56.0715 92.648 56.2132C92.7297 56.3548 92.8385 56.479 92.9681 56.5784C93.1201 56.6911 93.2951 56.7686 93.4806 56.8053C93.666 56.8419 93.8572 56.8369 94.0405 56.7905C94.5604 56.6673 95.1055 56.7085 95.6012 56.9084C96.0969 57.1084 96.5189 57.4573 96.8095 57.9074C97.1 58.3575 97.2448 58.8868 97.2241 59.4227C97.2034 59.9587 97.0182 60.4751 96.6938 60.9013C96.3694 61.3274 95.9218 61.6425 95.4121 61.8033C94.9025 61.964 94.3558 61.9627 93.847 61.7994C93.3381 61.6362 92.892 61.3189 92.5697 60.8912C92.2474 60.4635 92.0647 59.9462 92.0465 59.4101C92.0427 59.2203 91.9967 59.0337 91.912 58.864C91.8272 58.6943 91.7059 58.5456 91.5568 58.4289C91.4272 58.3294 91.2794 58.2566 91.1218 58.2144C90.9642 58.1723 90.7999 58.1618 90.6382 58.1834C90.4766 58.2051 90.3207 58.2585 90.1796 58.3406C90.0385 58.4227 89.9149 58.5319 89.8158 58.662L85.8744 63.8546Z" fill="#EBEBEB"/>
<path d="M37.4461 43.2381C35.8213 43.2381 32.5483 43.2707 30.9699 43.2847C30.7526 43.2877 30.5381 43.2362 30.3458 43.1347C30.1535 43.0332 29.9895 42.885 29.8689 42.7036C29.7482 42.5222 29.6746 42.3134 29.6549 42.0961C29.6352 41.8789 29.6699 41.6602 29.7559 41.4598C29.8812 41.1336 30.1923 40.9355 30.4105 40.6907C31.8519 39.0919 30.6913 36.4793 28.5535 36.4956C27.9136 36.5025 27.3009 36.7568 26.8431 37.2056C26.3852 37.6545 26.1173 38.2634 26.0953 38.9055C26.0835 39.2625 26.1498 39.6177 26.2893 39.9462C26.4289 40.2748 26.6383 40.5687 26.9031 40.8073C27.169 40.9904 27.3662 41.2577 27.4629 41.5666C27.5597 41.8754 27.5506 42.2079 27.4369 42.5109C27.3318 42.7721 27.1505 42.9952 26.9169 43.1511C26.6833 43.3071 26.4083 43.3886 26.1278 43.3849H25.6287H23.6371L19.6492 43.3989H19.4728V43.2194L19.4565 39.2178V37.2158V36.7147C19.4607 36.4935 19.3948 36.2766 19.2685 36.0953C19.1422 35.914 18.9619 35.7775 18.7535 35.7055C18.5452 35.6335 18.3194 35.6297 18.1087 35.6946C17.898 35.7596 17.7133 35.8899 17.5809 36.0668C17.4953 36.1706 17.4022 36.268 17.3024 36.3581C15.5383 37.9896 12.6089 36.6937 12.6205 34.2792C12.6321 31.8647 15.5313 30.5503 17.3117 32.1817C17.4117 32.2724 17.5055 32.3697 17.5926 32.473C17.7222 32.6467 17.9034 32.7746 18.1101 32.8383C18.3168 32.902 18.5383 32.8982 18.7427 32.8275C18.9471 32.7568 19.1239 32.6227 19.2476 32.4447C19.3712 32.2666 19.4355 32.0538 19.431 31.8368V29.3616V25.36V25.1269H19.6631H23.651H26.1231C26.4309 25.1216 26.7324 25.2139 26.9849 25.3907C27.2374 25.5675 27.4278 25.8198 27.5292 26.1116C27.6305 26.4034 27.6375 26.7199 27.5493 27.0159C27.4611 27.312 27.282 27.5726 27.0377 27.7605C26.9508 27.8328 26.8686 27.9107 26.7916 27.9936C26.3806 28.4532 26.1621 29.0543 26.1815 29.6717C26.201 30.2891 26.4569 30.8751 26.8961 31.3077C29.1686 33.3773 32.2883 30.3288 30.3176 27.9819C30.2404 27.8985 30.1574 27.8206 30.0692 27.7489C29.8291 27.5633 29.6534 27.3064 29.5669 27.0148C29.4805 26.7232 29.4878 26.4117 29.5878 26.1245C29.6877 25.8373 29.8753 25.589 30.1238 25.415C30.3724 25.2409 30.6692 25.1499 30.9722 25.1549H31.462C32.8547 25.1549 36.202 25.1689 37.6202 25.1759V25.353L37.604 29.3547V31.3566V31.8577C37.5993 32.0797 37.6615 32.2979 37.7825 32.4838C37.9034 32.6697 38.0775 32.8146 38.2818 32.8995C38.4153 32.9548 38.5585 32.9825 38.7029 32.9809C38.8473 32.9793 38.9899 32.9485 39.1221 32.8902C39.4238 32.769 39.5863 32.4777 39.8324 32.2656C40.1536 31.9686 40.5415 31.7539 40.9632 31.6401C41.3849 31.5262 41.8278 31.5165 42.254 31.6118C42.6803 31.707 43.0772 31.9044 43.411 32.187C43.7448 32.4697 44.0055 32.8292 44.1709 33.235C44.3364 33.6408 44.4015 34.0807 44.3609 34.5172C44.3203 34.9537 44.1751 35.3739 43.9376 35.7419C43.7002 36.1098 43.3777 36.4146 42.9975 36.6303C42.6173 36.846 42.1908 36.9661 41.7544 36.9804C41.0622 37.0025 40.3889 36.7515 39.8788 36.2812C39.7564 36.1661 39.6417 36.0431 39.5353 35.913C39.4011 35.7652 39.2319 35.654 39.0433 35.5898C38.8547 35.5256 38.653 35.5105 38.457 35.5459C38.2611 35.5813 38.0772 35.6661 37.9228 35.7922C37.7683 35.9184 37.6482 36.0818 37.5738 36.2672C37.4438 36.5609 37.4926 36.9035 37.4786 37.2391L37.4647 39.2458L37.4369 43.2404L37.4461 43.2381ZM37.4461 43.2381L37.4183 39.2271L37.4044 37.2321V36.7334C37.3993 36.5146 37.4494 36.2981 37.55 36.1039C37.6506 35.9098 37.7984 35.7444 37.9797 35.623C38.1611 35.5016 38.3701 35.4282 38.5872 35.4096C38.8044 35.3911 39.0227 35.4279 39.2219 35.5168C39.5445 35.6403 39.7442 35.9549 39.9879 36.174C40.4731 36.6114 41.11 36.8399 41.7613 36.8103C43.8922 36.745 44.9577 34.1021 43.4535 32.5756C43.2022 32.321 42.8992 32.1239 42.5652 31.9974C42.2312 31.871 41.874 31.8182 41.5178 31.8428C41.1617 31.8673 40.815 31.9686 40.5014 32.1397C40.1877 32.3107 39.9144 32.5476 39.7001 32.8343C39.5079 33.0374 39.2593 33.1779 38.9867 33.2375C38.714 33.2971 38.4298 33.2731 38.1709 33.1686C37.912 33.0641 37.6903 32.884 37.5346 32.6515C37.3789 32.419 37.2963 32.1449 37.2976 31.8647V31.3636C37.2976 30.0818 37.279 26.6838 37.2744 25.36L37.4531 25.5394C35.8282 25.5394 32.553 25.5604 30.9745 25.5604C30.7641 25.5574 30.5578 25.6184 30.3825 25.7353C30.2073 25.8523 30.0715 26.0198 29.9928 26.2157C29.9142 26.4117 29.8965 26.627 29.9421 26.8332C29.9876 27.0395 30.0942 27.2271 30.248 27.3713C30.7141 27.7288 31.0569 28.224 31.228 28.7874C31.3991 29.3507 31.39 29.9537 31.2019 30.5115C31.0138 31.0694 30.6562 31.5539 30.1794 31.897C29.7027 32.2401 29.1307 32.4244 28.5442 32.4241C26.1324 32.4404 24.8302 29.4991 26.4551 27.7139C26.572 27.5887 26.696 27.4705 26.8265 27.3597C26.9761 27.2179 27.0796 27.0341 27.1235 26.8323C27.1673 26.6304 27.1494 26.42 27.0721 26.2286C26.9949 26.0372 26.8618 25.8736 26.6904 25.7594C26.519 25.6451 26.3172 25.5855 26.1115 25.5884H19.6329L19.8651 25.3553V29.357V31.359C19.8651 31.6923 19.8975 32.1211 19.756 32.4311C19.6574 32.6687 19.4987 32.8764 19.2956 33.0335C19.0925 33.1906 18.852 33.2918 18.598 33.3268C18.3439 33.3619 18.0852 33.3298 17.8474 33.2336C17.6095 33.1374 17.4009 32.9804 17.242 32.7783C15.8493 31.0653 13.029 32.0791 13.029 34.2955C13.029 36.4653 15.724 37.5141 17.1794 35.9083C17.3696 35.6322 17.6468 35.4285 17.9665 35.33C18.2861 35.2314 18.6295 35.2439 18.9412 35.3653C19.2096 35.4762 19.4387 35.6655 19.5988 35.9085C19.759 36.1516 19.8428 36.4373 19.8395 36.7287V37.2298V39.2318L19.8233 43.2334L19.6445 43.054L23.6324 43.0703H25.6241H26.1231C26.345 43.0757 26.5633 43.0132 26.749 42.8911C26.9346 42.769 27.0789 42.593 27.1625 42.3866C27.2462 42.1802 27.2653 41.9531 27.2172 41.7355C27.1692 41.5179 27.0564 41.3202 26.8938 41.1685C26.7653 41.0587 26.6429 40.942 26.527 40.8189C26.053 40.2915 25.8031 39.599 25.8306 38.8892C25.898 36.5586 28.7647 35.3933 30.4174 37.0247C30.9082 37.5141 31.1927 38.1744 31.2117 38.8687C31.2307 39.5629 30.9828 40.2379 30.5196 40.7537C30.2874 41.003 30.0042 41.1662 29.8766 41.4808C29.8117 41.6262 29.7766 41.7831 29.7733 41.9423C29.7699 42.1016 29.7984 42.2599 29.8571 42.4079C29.9157 42.5558 30.0033 42.6905 30.1147 42.8039C30.2261 42.9173 30.3591 43.0071 30.5056 43.068C30.8004 43.1985 31.1393 43.1495 31.4689 43.1635L33.4559 43.1775L37.4508 43.2055L37.4461 43.2381Z" fill="#EBEBEB"/>
<path d="M75.1571 20.8245L74.1729 22.6145C74.0797 22.7962 73.9506 22.9569 73.7934 23.0869C73.6362 23.2168 73.4543 23.3132 73.2588 23.3701C73.0632 23.4271 72.8582 23.4434 72.6562 23.418C72.4541 23.3927 72.2594 23.3262 72.0838 23.2227C71.9067 23.1251 71.7505 22.9933 71.6242 22.835C71.498 22.6766 71.4041 22.4947 71.3481 22.2998C71.292 22.105 71.2748 21.9009 71.2975 21.6993C71.3202 21.4977 71.3823 21.3026 71.4803 21.1252L73.0471 18.2609C73.061 18.2352 73.0889 18.2492 73.1051 18.2212C73.1214 18.1933 73.0912 18.1793 73.1051 18.1513C73.3092 17.8003 73.6399 17.5414 74.0287 17.4282C74.4175 17.315 74.8348 17.3561 75.1943 17.543C75.5977 17.7771 76.0436 17.928 76.5058 17.9869C76.9681 18.0459 77.4374 18.0117 77.8863 17.8864C78.3352 17.7611 78.7548 17.5472 79.1204 17.2572C79.486 16.9672 79.7904 16.6069 80.0157 16.1974C80.241 15.7879 80.3827 15.3374 80.4325 14.8723C80.4824 14.4071 80.4394 13.9367 80.306 13.4884C80.1726 13.0402 79.9516 12.6231 79.6558 12.2617C79.36 11.9002 78.9954 11.6016 78.5833 11.3832C78.0519 11.0874 77.4522 10.9373 76.8447 10.9479C76.2372 10.9585 75.6431 11.1296 75.1223 11.4438C74.9477 11.5516 74.7535 11.6233 74.551 11.6547C74.3485 11.6862 74.1418 11.6768 73.9429 11.6271C73.7441 11.5774 73.5571 11.4884 73.3929 11.3653C73.2287 11.2422 73.0907 11.0875 72.9868 10.9101C72.8848 10.7367 72.8179 10.5448 72.79 10.3454C72.7621 10.1459 72.7738 9.94293 72.8242 9.74803C72.8747 9.55312 72.963 9.37015 73.0841 9.20961C73.2052 9.04908 73.3567 8.91415 73.5299 8.81258C74.4632 8.24791 75.5216 7.92493 76.6099 7.87265C77.6983 7.82038 78.7825 8.04046 79.7652 8.5131C80.7479 8.98575 81.5982 9.69615 82.2397 10.5805C82.8812 11.4648 83.2938 12.4953 83.4404 13.5793C83.587 14.6634 83.4631 15.767 83.0796 16.7911C82.6962 17.8151 82.0654 18.7274 81.2438 19.4461C80.4223 20.1647 79.4357 20.6671 78.3729 20.9081C77.3101 21.1491 76.2042 21.1212 75.1548 20.8269L75.1571 20.8245ZM71.8517 26.8538L71.5801 27.3502C71.4869 27.532 71.3578 27.6927 71.2006 27.8227C71.0434 27.9526 70.8615 28.049 70.6659 28.1059C70.4704 28.1629 70.2654 28.1792 70.0633 28.1538C69.8613 28.1285 69.6665 28.062 69.491 27.9585C69.3139 27.8609 69.1577 27.7291 69.0314 27.5708C68.9052 27.4124 68.8113 27.2305 68.7552 27.0356C68.6991 26.8407 68.682 26.6367 68.7047 26.4351C68.7273 26.2335 68.7895 26.0384 68.8875 25.861L69.159 25.3646C69.359 25.0091 69.6896 24.7464 70.0801 24.6327C70.4705 24.519 70.8898 24.5634 71.2482 24.7563C71.4273 24.8518 71.5855 24.9825 71.7134 25.1406C71.8413 25.2987 71.9362 25.481 71.9925 25.6767C72.0488 25.8724 72.0653 26.0774 72.0411 26.2796C72.0169 26.4818 71.9525 26.6771 71.8517 26.8538Z" fill="#455A64"/>
<path d="M66.1368 9.71225L66.2528 8.10879C66.2608 7.94878 66.3011 7.79207 66.3713 7.64815C66.4414 7.50423 66.5398 7.3761 66.6607 7.27151C66.7816 7.16692 66.9224 7.08805 67.0745 7.03968C67.2266 6.99131 67.3869 6.97444 67.5457 6.9901C67.8645 7.01395 68.1608 7.16378 68.3697 7.4067C68.5786 7.64963 68.683 7.96582 68.6599 8.28592L68.4719 10.8496C68.4719 10.8729 68.4464 10.8706 68.4441 10.8962C68.4417 10.9218 68.4673 10.9218 68.465 10.9475C68.4327 11.2647 68.2808 11.5576 68.0404 11.766C67.8 11.9744 67.4893 12.0826 67.172 12.0685C66.4425 12.0147 65.7216 12.2541 65.1679 12.734C64.6141 13.2139 64.273 13.895 64.2194 14.6275C64.1658 15.36 64.4043 16.0838 64.8823 16.6398C65.3602 17.1957 66.0386 17.5383 66.7681 17.592C67.2448 17.6289 67.7227 17.5391 68.1538 17.3317C68.5849 17.1242 68.954 16.8065 69.224 16.4104C69.3143 16.277 69.4301 16.1629 69.5646 16.0746C69.6992 15.9863 69.8498 15.9257 70.0078 15.8963C70.1658 15.8668 70.328 15.869 70.4851 15.9029C70.6422 15.9367 70.7911 16.0015 70.9232 16.0935C71.0529 16.1842 71.1635 16.2999 71.2486 16.4337C71.3337 16.5675 71.3916 16.7169 71.419 16.8733C71.4463 17.0297 71.4427 17.1899 71.4082 17.3449C71.3737 17.4998 71.309 17.6464 71.2179 17.7762C70.7343 18.4872 70.0823 19.0666 69.3205 19.462C68.5587 19.8575 67.711 20.0567 66.8535 20.0418C65.9961 20.0269 65.1557 19.7983 64.408 19.3766C63.6603 18.9549 63.0287 18.3533 62.5699 17.6258C62.1111 16.8984 61.8395 16.0678 61.7795 15.2089C61.7195 14.3499 61.873 13.4895 62.2262 12.7048C62.5794 11.9202 63.1212 11.236 63.803 10.7136C64.4848 10.1913 65.2851 9.84717 66.1321 9.71225H66.1368ZM66.5337 4.3099L66.5662 3.86708C66.5736 3.70676 66.6134 3.54963 66.6833 3.40528C66.7532 3.26092 66.8516 3.13238 66.9726 3.02748C67.0936 2.92258 67.2346 2.84353 67.387 2.79514C67.5394 2.74676 67.7001 2.73006 67.8591 2.74606C68.1776 2.77169 68.4732 2.92235 68.6818 3.16536C68.8903 3.40838 68.9951 3.72416 68.9733 4.04421L68.9408 4.48936C68.9118 4.80775 68.7608 5.1024 68.5196 5.31111C68.2784 5.51983 67.9658 5.6263 67.6479 5.60805C67.4892 5.59807 67.3341 5.55635 67.1917 5.48533C67.0492 5.4143 66.9224 5.31541 66.8186 5.19447C66.7148 5.07353 66.6361 4.93298 66.5872 4.78107C66.5383 4.62916 66.5201 4.46897 66.5337 4.3099Z" fill="#455A64"/>
<path d="M68.0402 96.63C67.497 95.2899 66.8656 93.803 67.3322 92.3533C67.764 91.0156 68.6321 89.6428 70.069 89.2699C70.4798 89.165 70.7653 89.165 70.7421 89.6545C70.7236 90.3956 70.192 91.1577 69.8577 91.7916C69.414 92.6017 69.0479 93.4524 68.7644 94.332C68.5718 94.9519 68.4441 95.5905 68.2654 96.2151C68.2445 96.2944 68.2213 96.3736 68.1957 96.4482C68.1957 96.4785 68.1795 96.5088 68.1702 96.5391C68.1609 96.5694 68.1702 96.5647 68.1818 96.5764C68.1873 96.5868 68.1902 96.5984 68.1902 96.6102C68.1902 96.622 68.1873 96.6336 68.1818 96.644C68.1765 96.6519 68.1693 96.6583 68.1609 96.6626C68.1517 96.671 68.1405 96.677 68.1284 96.6799C68.1163 96.6828 68.1037 96.6826 68.0917 96.6794C68.0797 96.6762 68.0686 96.6699 68.0597 96.6613C68.0507 96.6527 68.044 96.6419 68.0402 96.63Z" fill="#455A64"/>
<path d="M68.1539 96.665C67.7384 95.4624 67.2138 94.1945 67.6734 92.936C67.8962 92.3555 68.2096 91.8142 68.6019 91.3325C68.776 91.1111 69.2982 90.4516 69.6209 90.5238C70.2151 90.659 68.776 92.8031 68.6599 93.0688C68.2582 94.0637 68.1198 95.146 68.2583 96.2105C68.2374 96.2897 68.2142 96.369 68.1887 96.4436C68.0772 95.6931 68.0889 94.9295 68.2235 94.1829C68.4185 93.1504 68.9895 92.4046 69.4445 91.484C69.542 91.2859 69.8902 90.666 69.5164 90.6194C69.2681 90.5891 68.762 91.23 68.6529 91.3675C68.2801 91.8257 67.9788 92.338 67.7593 92.887C67.2788 94.1432 67.7778 95.4181 68.1678 96.6393C68.1655 96.649 68.1607 96.6578 68.1539 96.665Z" fill="white"/>
<path d="M67.4901 97.681L67.3206 97.7043C67.3141 97.7059 67.3072 97.7054 67.301 97.7029C67.2948 97.7004 67.2894 97.696 67.2858 97.6904C67.2757 97.6792 67.2701 97.6646 67.2701 97.6496C67.2701 97.6345 67.2757 97.6199 67.2858 97.6088C67.2963 97.6048 67.3078 97.6048 67.3183 97.6088H67.3972H67.4111C68.2189 97.0378 69.1149 96.5996 69.9204 96.017C70.6864 95.46 71.4153 94.8517 72.2254 94.3529C72.7337 94.0406 75.3568 92.6399 75.4589 93.987C75.503 94.586 74.8577 95.2432 74.4654 95.6184C73.9348 96.1193 73.3182 96.5197 72.6455 96.8001C70.9882 97.4876 69.2287 97.434 67.4901 97.681Z" fill="#455A64"/>
<path d="M71.0717 96.8095C71.7111 96.6019 72.3176 96.3036 72.873 95.9238C73.0656 95.791 73.9848 95.1524 73.8316 94.8145C73.7365 94.5977 73.2838 94.7212 73.1353 94.7562C72.4923 94.903 71.9375 95.3342 71.3827 95.6745C70.2532 96.3633 69.0747 96.9677 67.8568 97.483L67.6107 97.5366L67.4064 97.5832L67.3368 97.5995L67.2811 97.6135C67.271 97.6247 67.2654 97.6392 67.2654 97.6543C67.2654 97.6694 67.271 97.6839 67.2811 97.6951L67.4389 97.6601L67.3182 97.7114L67.4552 97.6881H67.4854C67.555 97.6648 67.6246 97.6368 67.6896 97.6089C68.834 97.3641 69.9737 97.1824 71.0717 96.8095ZM68.1376 97.4247C68.8503 97.1241 69.5466 96.7862 70.2268 96.4179C70.7746 96.1243 71.3085 95.8026 71.8331 95.4694C72.1281 95.2726 72.4386 95.1003 72.7616 94.9543C73.0099 94.8517 73.9547 94.5441 73.5531 95.2386C73.2606 95.7397 72.3925 96.1546 71.9004 96.3853C71.3447 96.6364 70.7674 96.8361 70.1757 96.9819C69.4909 97.1544 68.8085 97.2849 68.1376 97.4247Z" fill="white"/>
<path d="M64.0407 99.7787C64.032 99.7637 64.0242 99.7481 64.0175 99.7321C63.6252 98.4666 62.9056 96.8538 63.3467 95.5184C63.6716 94.5302 64.5932 93.3416 65.6958 93.2087C66.9399 93.0619 66.1345 95.1175 65.9534 95.6489C65.417 97.0585 64.8032 98.4372 64.115 99.7787L64.0964 99.8043C64.0779 99.8323 64.057 99.8113 64.0407 99.7787Z" fill="#455A64"/>
<path d="M64.0941 99.8136C64.1104 99.7274 64.1289 99.6388 64.1498 99.5502C64.3634 98.5434 64.6141 97.5459 64.9251 96.5647C65.0017 96.3177 65.7306 94.4672 65.2106 94.4136C64.8949 94.3856 64.5143 95.0498 64.3889 95.2642C64.1559 95.6517 63.9888 96.0755 63.8945 96.5181C63.6809 97.5343 63.9386 98.5807 64.0338 99.6085C64.0338 99.6574 64.0338 99.7064 64.0477 99.7553V99.7833C64.0593 99.8113 64.0779 99.8322 64.0941 99.8136ZM63.8991 97.0961C63.9338 96.6346 64.0461 96.1823 64.2311 95.7583C64.3518 95.4763 64.823 94.4695 65.199 94.5534C65.3986 94.5954 65.3453 94.7142 65.3197 94.9473C65.3081 95.0548 65.2895 95.1615 65.264 95.2666C65.206 95.5253 65.1155 95.777 65.0319 96.0264C64.8833 96.4668 64.7464 96.9097 64.621 97.3595C64.4121 98.0913 64.2334 98.8301 64.0802 99.5759C64.0384 98.7438 63.8411 97.9141 63.8991 97.0961Z" fill="white"/>
<path d="M67.4205 101.116C65.8836 101.314 64.3231 101.047 62.9381 100.35C62.9286 100.346 62.9204 100.34 62.9149 100.331C62.9075 100.32 62.9036 100.308 62.9036 100.295C62.9036 100.282 62.9075 100.269 62.9149 100.259C62.9232 100.247 62.9352 100.239 62.9487 100.236C62.9623 100.233 62.9766 100.234 62.9892 100.24L63.0751 100.28C64.8346 99.8649 66.5894 99.4757 68.3397 99.0282C68.7528 98.9233 71.3991 98.3034 71.2714 99.2356C71.1925 99.8113 70.1688 100.226 69.7162 100.438C68.9899 100.781 68.2157 101.009 67.4205 101.116Z" fill="#455A64"/>
<path d="M69.5119 99.8346C69.6372 99.7413 69.7556 99.6132 69.5978 99.492C69.2983 99.2589 68.0658 99.5759 67.7176 99.6458C66.2831 99.9371 64.8601 100.096 63.4117 100.256L63.0449 100.298L62.9149 100.261C62.9077 100.271 62.9039 100.284 62.9039 100.296C62.9039 100.309 62.9077 100.321 62.9149 100.331H62.9521L63.1262 100.38C64.0479 100.644 65.0048 100.762 65.9627 100.732C66.5687 100.711 67.1709 100.627 67.7594 100.48C68.3049 100.347 69.0662 100.179 69.5119 99.8346ZM63.2167 100.343L63.1331 100.322H63.284C64.4136 100.27 65.5387 100.145 66.6521 99.9464C67.2162 99.8416 67.771 99.6994 68.3373 99.6155C68.5695 99.5805 69.2542 99.4547 69.4237 99.6038C69.5931 99.753 69.3448 99.8369 69.2101 99.9091C69.1126 99.9604 68.9246 100.028 68.8295 100.065C67.0348 100.751 65.0698 100.848 63.2167 100.343Z" fill="white"/>
<path d="M59.3842 101.892L59.2937 101.643L59.9413 101.389C60.8095 101.035 61.6753 100.676 62.5342 100.301C63.0263 100.086 63.5091 99.8672 63.9849 99.6318L64.0337 99.6085L64.1497 99.5502L64.2728 99.485C65.3471 98.965 66.3327 98.2775 67.1929 97.448C67.4784 97.166 67.7477 96.87 68.0123 96.567L68.0889 96.4785C68.0963 96.4718 68.1026 96.4639 68.1075 96.4552L68.1864 96.3643L68.2444 96.2944C69.0429 95.3481 69.7648 94.3366 70.5076 93.3555C70.7189 93.0735 70.9324 92.7914 71.1483 92.5141C71.1588 92.4964 71.1712 92.48 71.1854 92.4652C71.1996 92.4432 71.2151 92.4222 71.2318 92.4022C72.1789 91.1647 73.1376 89.9365 74.0498 88.6733C74.0823 88.6243 74.1497 88.6849 74.1172 88.7292C73.516 89.5752 72.9333 90.4352 72.346 91.2929L72.1139 91.6355C71.9607 91.8685 71.8052 92.0876 71.6497 92.3113C71.3386 92.7612 71.0253 93.2063 70.7026 93.6468C69.8275 94.9199 68.8755 96.1379 67.8521 97.2942C67.7732 97.3781 67.692 97.4597 67.62 97.5412C67.548 97.6228 67.5202 97.6461 67.4691 97.6927C67.418 97.7393 67.3507 97.8116 67.2927 97.8675C66.2319 98.886 65.004 99.5595 63.6994 100.14L63.4232 100.261L63.2955 100.317L63.2282 100.347L63.14 100.385L63.075 100.413L62.8429 100.513C61.9763 100.872 61.1074 101.22 60.2361 101.559C59.939 101.664 59.6605 101.778 59.3842 101.892Z" fill="#455A64"/>
<path d="M72.6015 88.608C73.2654 87.5918 74.8275 86.028 76.1715 86.6713C76.4267 86.784 76.6314 86.9875 76.7463 87.2426C76.8611 87.4977 76.878 87.7865 76.7936 88.0533C76.6056 88.7245 75.9719 89.2186 75.438 89.6195C74.0105 90.6659 72.497 91.5679 71.1437 92.7192C71.1437 92.7308 71.03 92.8147 70.9998 92.8427C70.9696 92.8707 70.9395 92.8194 70.9673 92.7961C70.9952 92.7728 71.0555 92.7192 71.0973 92.6819C71.485 91.3092 71.8169 89.8129 72.6015 88.608Z" fill="#455A64"/>
<path d="M71.1554 92.7285L71.1786 92.7029C71.4724 92.3273 71.7878 91.9694 72.1233 91.6308C72.8344 90.9388 73.5872 90.2912 74.3772 89.6918C74.679 89.4587 76.1762 88.3517 75.2895 87.9974C74.9158 87.8482 74.4306 88.0673 74.101 88.2305C73.5743 88.5033 73.1059 88.877 72.7222 89.3305C71.9515 90.2278 71.5268 91.3348 71.1971 92.4559C71.1809 92.5071 71.167 92.5584 71.1507 92.6097C71.1391 92.6213 71.1298 92.6353 71.1182 92.6493C71.1107 92.6582 71.1037 92.6675 71.0973 92.6773C71.095 92.6833 71.095 92.6899 71.0973 92.6959C71.097 92.7016 71.0979 92.7073 71.0998 92.7127C71.1018 92.718 71.1048 92.723 71.1087 92.7271C71.1126 92.7312 71.1173 92.7345 71.1226 92.7368C71.1278 92.739 71.1334 92.7402 71.1391 92.7402C71.1457 92.7383 71.1514 92.7342 71.1554 92.7285ZM71.2436 92.3953C71.5147 91.4657 71.9239 90.5826 72.4576 89.7757C72.7426 89.3642 73.0859 88.9968 73.4766 88.6849C73.6552 88.5492 73.8447 88.4284 74.043 88.3237C74.1916 88.2434 74.347 88.1764 74.5072 88.1233C74.8554 88.0067 75.2825 88.0114 75.3939 88.2025C75.5332 88.4356 75.4148 88.5777 75.1874 88.8504C75.1106 88.943 75.0276 89.0302 74.939 89.1114C74.7176 89.3154 74.4851 89.5068 74.2426 89.6848C73.8503 89.9901 73.4627 90.2954 73.082 90.617C72.8267 90.8338 72.5736 91.0575 72.3322 91.2882C71.9163 91.6872 71.5285 92.1148 71.1716 92.5677C71.1925 92.5095 71.2134 92.4535 71.232 92.3953H71.2436Z" fill="white"/>
<path d="M13.3564 93.3392C14.1085 93.9522 14.8188 94.6164 15.5221 95.2876C15.9191 95.6675 16.3137 96.052 16.7129 96.4319C17.154 96.8514 17.5741 97.3222 18.166 97.504C18.1917 97.5139 18.2159 97.5272 18.238 97.5436V97.5553C18.2421 97.5676 18.2429 97.5808 18.2402 97.5935C18.2375 97.6062 18.2314 97.618 18.2227 97.6275C18.2139 97.6371 18.2027 97.6441 18.1902 97.6478C18.1778 97.6515 18.1646 97.6517 18.1521 97.6485L18.1126 97.6368H18.0964C17.9164 97.6267 17.738 97.5962 17.5648 97.546C17.0844 97.4642 16.6092 97.3537 16.1419 97.215C15.1749 96.9394 14.2462 96.5432 13.3773 96.0357C12.6037 95.5772 11.8942 95.0177 11.2673 94.3717C10.7636 93.8543 10.0092 93.0922 9.83275 92.365C9.67259 91.7054 10.5291 91.7824 10.9423 91.8756C11.8569 92.0877 12.66 92.7589 13.3564 93.3392Z" fill="#455A64"/>
<path d="M11.1721 92.9872C10.9864 93.2855 11.8128 94.1059 12.161 94.4718C12.7119 95.0492 13.3308 95.5572 14.004 95.9844C15.2192 96.7419 16.5535 97.2872 17.9501 97.5972L18.1173 97.6345H18.1335L18.173 97.6461C18.1857 97.6488 18.1988 97.648 18.2111 97.644C18.2235 97.6399 18.2345 97.6327 18.2432 97.623C18.2519 97.6134 18.2579 97.6016 18.2606 97.5889C18.2634 97.5762 18.2628 97.563 18.2589 97.5506C18.1451 97.5063 18.0383 97.4597 17.9292 97.4084C17.8201 97.3571 17.7366 97.3175 17.6437 97.2662C16.6177 96.7348 15.7055 95.9681 14.8141 95.2363C13.7626 94.3786 11.4205 92.591 11.1721 92.9872ZM17.7969 97.448C17.9385 97.5156 18.0824 97.5785 18.2264 97.6345L17.8875 97.5459C16.6696 97.2389 15.4984 96.7685 14.4056 96.1475C13.7904 95.7882 13.2147 95.3648 12.6879 94.8843C12.407 94.6272 12.1419 94.3533 11.894 94.064C11.7919 93.9404 11.1234 93.218 11.2766 93.0595C11.3857 92.9476 12.1285 93.3718 12.1447 93.3788C12.2956 93.4627 12.4395 93.5536 12.5857 93.6468C12.8829 93.8379 13.1684 94.0477 13.4516 94.2597C14.0621 94.7259 14.6493 95.22 15.2436 95.7024C16.0234 96.3829 16.8805 96.9689 17.7969 97.448Z" fill="white"/>
<path d="M18.5421 90.0483C19.2663 91.2672 19.5077 92.7029 19.6145 94.0943C19.6702 94.8424 19.6911 95.5905 19.7306 96.3363C19.7263 97.0062 19.7908 97.6747 19.9232 98.3313C19.9232 98.3593 19.9371 98.3896 19.9464 98.4176C19.9974 98.5981 20.0683 98.7724 20.1577 98.9373C20.1623 98.9493 20.1623 98.9626 20.1577 98.9746L20.1925 99.0212C20.1925 99.0328 20.1925 99.0491 20.1762 99.0398L20.1252 99.0002C20.1163 99.0012 20.1074 98.9996 20.0995 98.9954C20.0916 98.9912 20.0852 98.9848 20.0811 98.9769V98.9559L20.0323 98.9163C18.8833 97.9841 18.1753 96.3153 17.6716 94.9729C17.1679 93.6305 16.8917 92.1878 17.1656 90.7778C17.2329 90.4212 17.3374 89.5775 17.7505 89.4331C18.1637 89.2886 18.3889 89.792 18.5421 90.0483Z" fill="#455A64"/>
<path d="M18.0198 90.899C17.5973 90.9969 17.7621 92.1668 17.7877 92.4535C17.897 93.3184 18.0802 94.1722 18.3355 95.0055C18.6849 96.371 19.2449 97.6733 19.9952 98.865C20.0003 98.8817 20.0065 98.898 20.0137 98.9139C20.0285 98.9279 20.044 98.9411 20.0602 98.9536C20.0597 98.9605 20.0597 98.9676 20.0602 98.9745C20.064 98.9827 20.0704 98.9893 20.0784 98.9935C20.0863 98.9977 20.0954 98.9992 20.1043 98.9978C20.1043 98.9745 20.0903 98.9536 20.0857 98.9326C20.0277 98.7625 19.9766 98.59 19.9279 98.4175C19.9279 98.3896 19.9116 98.3593 19.9046 98.3313C19.582 97.1334 19.4613 95.8841 19.2942 94.6489C19.1917 93.7869 19.0091 92.9364 18.7487 92.1086C18.6953 91.8988 18.3749 90.8174 18.0198 90.899ZM18.4423 91.4979C19.1085 92.8147 19.192 94.4275 19.3708 95.8678C19.4731 96.843 19.6682 97.806 19.9534 98.7438C19.3131 97.6403 18.8221 96.456 18.4933 95.2223C18.2805 94.5266 18.1076 93.8193 17.9757 93.1037C17.9003 92.7194 17.8545 92.3298 17.8387 91.9384C17.8265 91.7044 17.8413 91.4698 17.8828 91.2392C18.0105 90.7941 18.3262 91.2719 18.4423 91.4979Z" fill="white"/>
<path d="M22.5857 100.711C22.5914 100.722 22.5944 100.735 22.5944 100.748C22.5944 100.761 22.5914 100.774 22.5857 100.785H22.6135C22.6165 100.785 22.6194 100.785 22.6222 100.786C22.625 100.787 22.6276 100.789 22.6298 100.791C22.632 100.793 22.6338 100.795 22.635 100.798C22.6361 100.801 22.6368 100.803 22.6367 100.806C22.6378 100.809 22.6383 100.812 22.638 100.815C22.6378 100.818 22.6368 100.821 22.6352 100.823C22.6336 100.826 22.6314 100.828 22.6289 100.83C22.6263 100.831 22.6234 100.832 22.6205 100.832C20.9631 101.203 19.1061 101.396 17.4302 101.046C16.7209 100.905 16.0395 100.647 15.413 100.284C14.9859 100.033 14.1294 99.5246 14.0481 98.9746C13.8857 97.8652 16.9009 98.837 17.3536 98.9862C18.1823 99.2566 18.9785 99.5945 19.8071 99.8812C20.7078 100.193 21.627 100.438 22.5462 100.685C22.5542 100.686 22.5619 100.689 22.5688 100.694C22.5756 100.698 22.5813 100.704 22.5857 100.711Z" fill="#455A64"/>
<path d="M22.5856 100.711L22.314 100.699C20.8382 100.625 19.3827 100.322 17.9988 99.8019C17.3116 99.5211 16.6019 99.2997 15.8772 99.14C15.6962 99.1074 15.03 98.9419 15.1599 99.3568C15.2296 99.5712 16.3461 100.128 16.6479 100.249C17.3414 100.516 18.0648 100.696 18.802 100.785C20.0342 100.949 21.2818 100.956 22.516 100.809L22.6227 100.797C22.6228 100.794 22.6221 100.791 22.621 100.788C22.6198 100.786 22.618 100.783 22.6158 100.781C22.6136 100.779 22.611 100.778 22.6082 100.777C22.6054 100.776 22.6025 100.776 22.5995 100.776H22.5717C22.5783 100.767 22.583 100.756 22.5854 100.745C22.5878 100.734 22.5878 100.722 22.5856 100.711ZM19.431 100.776C18.6959 100.723 17.9684 100.591 17.2607 100.385C16.9807 100.298 16.7057 100.196 16.4366 100.079C16.2252 99.9881 16.0205 99.8822 15.8238 99.7623C15.3596 99.4593 15.2505 99.3451 15.283 99.2542C15.3155 99.1633 15.399 99.1633 15.7704 99.2006C16.0072 99.2305 16.2404 99.2836 16.4668 99.3591C16.7941 99.4616 17.1168 99.5735 17.4371 99.69C18.0824 99.9231 18.7254 100.156 19.3823 100.347C20.3275 100.616 21.3039 100.757 22.2862 100.769C21.3361 100.849 20.3811 100.849 19.431 100.769V100.776Z" fill="white"/>
<path d="M22.1122 95.8842C22.5382 96.3191 22.8666 96.8403 23.0755 97.4131C23.5281 98.5341 23.7371 99.7437 24.1108 100.883C24.1665 101.056 24.2268 101.226 24.2895 101.396C24.2895 101.412 24.4241 101.599 24.4102 101.587C24.3963 101.576 24.3475 101.534 24.2501 101.44C23.7672 100.991 22.3281 99.6062 21.7501 98.6436C21.3744 98.0498 21.0727 97.4119 20.8518 96.7442C20.7566 96.4272 20.5755 95.7047 20.8796 95.4367C21.1837 95.1687 21.8824 95.6698 22.1122 95.8842Z" fill="#455A64"/>
<path d="M21.4436 96.2105C21.0072 96.4249 22.0564 98.3477 22.1887 98.5994C22.6801 99.5344 23.2911 100.401 24.0062 101.177C24.0852 101.266 24.1664 101.352 24.25 101.438L24.4101 101.585C24.4101 101.585 24.2987 101.41 24.2894 101.391C24.2801 101.373 24.2685 101.333 24.2569 101.305C24.2059 101.163 24.1571 101.023 24.1107 100.883C23.7695 100.121 23.4398 99.3498 23.0801 98.5924C22.8275 98.044 22.5309 97.5171 22.1933 97.0169C22.1167 96.9073 21.6339 96.1149 21.4436 96.2105ZM21.8359 96.5974C22.9292 97.9794 23.4004 99.6948 24.1571 101.259L24.1942 101.333L24.1037 101.233C23.5268 100.579 23.0131 99.8709 22.5694 99.1191C22.3 98.6593 22.0581 98.1838 21.8452 97.6951C21.7167 97.4328 21.6065 97.1617 21.5155 96.884C21.4807 96.7628 21.3995 96.4179 21.4784 96.376C21.5573 96.334 21.7639 96.5158 21.8359 96.5974Z" fill="white"/>
<path d="M12.718 85.0772C14.4613 87.6245 13.8787 91.0692 15.4362 93.7004V93.7121C15.485 93.7936 15.5337 93.8729 15.5871 93.9451C15.5917 93.953 15.5944 93.9619 15.5949 93.971C15.5955 93.9802 15.5939 93.9893 15.5903 93.9977C15.5867 94.0061 15.5811 94.0135 15.5741 94.0194C15.5671 94.0252 15.5588 94.0293 15.5499 94.0314C15.5414 94.0326 15.5326 94.0313 15.5247 94.0276C15.5169 94.0238 15.5103 94.0179 15.5058 94.0104C15.4942 93.9941 15.4826 93.9731 15.471 93.9545C14.1456 92.8661 13.0337 91.3418 12.1934 89.8549C11.4646 88.5614 10.9446 87.0908 11.0746 85.5876C11.1048 85.217 11.1419 84.4782 11.576 84.3127C12.0101 84.1473 12.5045 84.7625 12.718 85.0772Z" fill="#455A64"/>
<path d="M12.2352 86.0816C12.0541 86.1538 12.0495 86.4312 12.0355 86.5827C12.0069 86.9607 12.0225 87.3409 12.082 87.7153C12.2085 88.4818 12.4488 89.225 12.7946 89.9201C13.349 91.1297 14.0508 92.2656 14.8837 93.3018C15.0764 93.5349 15.2737 93.7679 15.4849 93.9684L15.5638 94.0453C15.5727 94.0432 15.581 94.0391 15.588 94.0333C15.595 94.0274 15.6005 94.02 15.6041 94.0116C15.6078 94.0032 15.6094 93.9941 15.6088 93.9849C15.6083 93.9758 15.6056 93.9669 15.601 93.959C15.5476 93.8821 15.5035 93.8075 15.4547 93.726L15.4454 93.719C15.0947 93.2156 14.7931 92.6794 14.5448 92.1179C14.1961 91.2276 13.9038 90.316 13.6697 89.3887C13.556 89.0181 12.8573 85.8322 12.2352 86.0816ZM12.6855 86.5966C13.0499 87.2679 13.2031 88.0486 13.412 88.7781C13.6209 89.5076 13.8299 90.2557 14.0527 90.9875C14.2308 91.5716 14.4568 92.1398 14.7282 92.6865C14.9549 93.1412 15.2214 93.5749 15.5244 93.9823C15.1866 93.6138 14.8719 93.2246 14.5819 92.817V92.8007C14.0743 92.0709 13.613 91.3096 13.2008 90.5214L13.1846 90.4934C12.8032 89.8091 12.5047 89.0815 12.2955 88.326C12.1861 87.9141 12.1238 87.4911 12.1098 87.0651C12.1098 86.5827 12.147 86.1911 12.3094 86.1748C12.4116 86.1701 12.5787 86.3985 12.6855 86.5966Z" fill="white"/>
<path d="M13.2519 90.4912C13.7301 91.2277 14.2269 91.9571 14.7283 92.6866C14.9604 93.0292 15.1925 93.3695 15.4246 93.7074L15.4386 93.7284L15.6939 94.099C16.4622 95.2107 17.2259 96.383 18.166 97.3618C18.6697 97.8722 19.2199 98.3342 19.8095 98.7415L19.9905 98.8697L20.0926 98.9373C20.1105 98.9508 20.1291 98.9633 20.1484 98.9746C20.6614 99.3219 21.1929 99.6458 21.7106 99.9558C22.4325 100.392 23.1799 100.776 23.9297 101.151C23.9506 101.164 23.9723 101.175 23.9947 101.184L24.0968 101.238L24.1502 101.263L24.2454 101.312C24.4775 101.431 24.7282 101.545 24.9696 101.678L24.8326 101.897C24.0501 101.601 23.2905 101.248 22.5601 100.839C22.5447 100.832 22.5299 100.823 22.516 100.813L22.3025 100.697C22.2119 100.648 22.1261 100.599 22.0402 100.548L21.4227 100.184C20.2412 99.471 19.0318 98.6949 18.0476 97.7184L17.9687 97.6345C17.956 97.6249 17.9444 97.6139 17.9339 97.6019L17.8759 97.5436L17.7853 97.4457C17.7319 97.3898 17.6786 97.3292 17.6275 97.2709L17.5811 97.2173C16.8021 96.256 16.0886 95.243 15.4455 94.1852L15.0834 93.6212L14.8838 93.3042L14.589 92.8241V92.8078C14.1247 92.0504 13.6767 91.2836 13.2078 90.5285C13.1707 90.4935 13.2287 90.4562 13.2519 90.4912Z" fill="#455A64"/>
<path d="M64.5747 101.893H38.3005C38.3005 101.851 38.2773 101.809 38.268 101.769C38.217 101.566 38.1636 101.366 38.1148 101.165C37.9415 100.474 37.7713 99.7989 37.6042 99.1401C37.502 98.7424 37.4022 98.3477 37.3047 97.9562C37.2003 97.56 37.1028 97.1684 37.0076 96.7909C36.9798 96.6906 36.9565 96.5928 36.9287 96.4949C36.9008 96.397 36.8753 96.2781 36.8498 96.1709C36.8242 96.0637 36.7801 95.9076 36.7499 95.7747C36.7105 95.6372 36.678 95.502 36.6455 95.3692C36.5759 95.1128 36.5132 94.8588 36.4528 94.6117C36.3577 94.2505 36.2695 93.8939 36.1812 93.5466L36.0675 93.0968C36.0048 92.8521 35.9445 92.6191 35.8864 92.3976C35.847 92.2415 35.8098 92.09 35.7727 91.9315C35.6149 91.3232 35.4733 90.7522 35.3363 90.2162C35.2992 90.074 35.2667 89.9389 35.2295 89.8014C35.1738 89.5683 35.1158 89.3492 35.0624 89.1348C35.0253 88.9996 34.9928 88.8691 34.9626 88.7386C34.8442 88.2725 34.7305 87.8646 34.6469 87.4987C34.6214 87.4008 34.5958 87.3076 34.5749 87.2167C34.5146 86.9836 34.4566 86.7506 34.4101 86.5688C34.3892 86.4896 34.373 86.415 34.3544 86.3497C34.3359 86.2845 34.315 86.2006 34.2987 86.1376L34.2662 86.0025C34.25 85.9349 34.2314 85.8743 34.2175 85.8207C34.2129 85.7931 34.2067 85.7659 34.1989 85.7391C34.1571 85.5806 34.1385 85.506 34.1385 85.506H59.8742C59.8742 85.506 60.7214 88.4403 62.077 93.1668C62.3509 94.1293 62.6504 95.1711 62.9684 96.2735C63.4628 97.9934 64.006 99.8812 64.5747 101.893Z" fill="#263238"/>
<path d="M42.604 101.893H42.0608C41.5084 99.551 40.9668 97.2056 40.436 94.8564C40.2038 93.8612 39.9973 92.8707 39.7791 91.8755L39.7187 91.5959C39.7168 91.5859 39.7188 91.5756 39.7243 91.567C39.7298 91.5585 39.7383 91.5524 39.7482 91.55C39.758 91.5476 39.7684 91.5491 39.7772 91.5542C39.7859 91.5592 39.7924 91.5675 39.7953 91.5772C39.7953 91.6052 39.8116 91.6355 39.8232 91.6635C40.1203 92.7309 40.4197 93.8006 40.7099 94.868C41.3536 97.2095 41.985 99.551 42.604 101.893Z" fill="#37474F"/>
<path d="M59.0431 85.4827C59.0315 85.6225 58.934 87.163 58.6857 89.5146C58.616 90.2021 58.5348 90.9549 58.4373 91.7613C58.2864 93.0362 58.0961 94.4439 57.8663 95.9285C57.5784 97.8279 57.2233 99.8509 56.7915 101.881H21.6549C21.6549 101.881 21.2115 100.837 21.2928 100.212C22.0518 94.3716 23.9761 85.4827 23.9761 85.4827H54.1105H59.0431Z" fill="#263238"/>
<path d="M52.857 87.8203C52.8384 87.9881 52.8221 88.1629 52.8036 88.3307C52.7061 89.2955 52.5908 90.2573 52.4577 91.216C52.2975 92.3416 52.1861 93.4766 52.0283 94.6023C51.9749 94.9869 51.9215 95.3714 51.8658 95.7536C51.6058 97.6181 51.3389 99.4593 51.0232 101.307C50.9953 101.48 50.9489 101.68 50.9048 101.892H50.1504C50.2456 101.27 50.3361 100.648 50.4313 100.028C50.6262 98.7718 50.8769 97.5319 51.0975 96.285C51.13 96.0962 51.1648 95.9051 51.1996 95.7164C51.643 93.176 52.1095 90.6356 52.6689 88.1209C52.6898 88.016 52.713 87.9111 52.7363 87.8063C52.7595 87.7014 52.8639 87.755 52.857 87.8203Z" fill="#37474F"/>
<path d="M55.9929 88.5474C55.9558 89.7407 55.9047 90.934 55.8281 92.1203C55.7468 93.4091 55.6308 94.6839 55.4637 95.9798C55.4637 96.0264 55.4637 96.073 55.4474 96.1219C55.2896 97.3245 55.1108 98.5271 54.9066 99.7227C54.7859 100.434 54.6744 101.179 54.5003 101.893H53.7111C53.9432 101.056 54.0523 100.173 54.2032 99.3288C54.4052 98.1985 54.5816 97.0682 54.7394 95.9331C54.9414 94.5185 55.148 93.1038 55.3685 91.6914C55.4799 90.9721 55.5929 90.2519 55.7074 89.531L55.8676 88.5335C55.8838 88.4565 55.9929 88.4775 55.9929 88.5474Z" fill="#37474F"/>
<path d="M29.5749 97.4154C30.9581 97.4022 32.3343 97.2167 33.6719 96.863C34.2894 96.7022 34.8999 96.5041 35.5057 96.3037C36.1055 96.1376 36.667 95.8549 37.1584 95.4717C38.0869 94.6653 38.5256 93.3951 38.9295 92.2671C39.3721 90.9947 39.7311 89.6945 40.0043 88.375C40.0182 88.3097 40.1134 88.3307 40.1157 88.3913C40.1494 89.887 39.9608 91.3795 39.5563 92.8194C39.222 94.0383 38.774 95.4017 37.7921 96.2547C36.7592 97.1544 35.3571 97.4713 34.0364 97.6345C32.5513 97.8082 31.0499 97.7871 29.5703 97.5715C29.5497 97.5709 29.5301 97.5621 29.516 97.547C29.5018 97.5319 29.4942 97.5118 29.4948 97.4911C29.4955 97.4704 29.5042 97.4508 29.5193 97.4366C29.5343 97.4224 29.5543 97.4148 29.5749 97.4154Z" fill="#37474F"/>
<path d="M27.2838 88.4122C27.2235 89.9085 26.0141 97.1637 25.4384 101.892H24.9092C25.6056 97.1474 26.9983 89.9015 27.1236 88.4099C27.1271 88.391 27.1372 88.3739 27.152 88.3617C27.1669 88.3495 27.1855 88.3429 27.2047 88.3432C27.2239 88.3435 27.2424 88.3506 27.2568 88.3632C27.2713 88.3758 27.2809 88.3932 27.2838 88.4122Z" fill="#37474F"/>
<path d="M50.7795 42.8232C57.2418 45.9206 75.8628 56.2475 77.9148 63.6169C79.5791 69.6019 73.7366 72.3241 69.2891 70.2778C63.2538 67.4997 54.3612 58.5618 48.4188 50.0248C45.1342 45.3053 44.4309 39.7818 50.7795 42.8232Z" fill="#EB9481"/>
<path d="M50.7795 42.8232C57.2418 45.9206 75.8628 56.2475 77.9148 63.6169C79.5791 69.6019 73.7366 72.3241 69.2891 70.2778C63.2538 67.4997 54.3612 58.5618 48.4188 50.0248C45.1342 45.3053 44.4309 39.7818 50.7795 42.8232Z" fill="#FFC727"/>
<path d="M57.8964 53.5183C57.6606 54.0151 57.4972 54.5434 57.4112 55.0868C58.1092 54.2322 58.5753 53.211 58.7645 52.1223C58.4113 52.5444 58.1191 53.0144 57.8964 53.5183ZM69.2704 66.3577C69.0333 66.8541 68.8691 67.3824 68.783 67.9262C69.1389 67.5042 69.4328 67.0333 69.6558 66.5278C69.8893 66.0295 70.0518 65.5007 70.1386 64.957C69.7846 65.3798 69.493 65.8515 69.2728 66.3577H69.2704ZM73.3349 58.4476C72.8402 58.2113 72.314 58.0481 71.7727 57.9628C72.1923 58.3198 72.6615 58.6134 73.1655 58.8344C73.6613 59.0711 74.1881 59.2359 74.73 59.3239C74.31 58.9662 73.841 58.6711 73.3372 58.4476H73.3349ZM46.2019 42.7905C46.1584 42.8741 46.1227 42.9614 46.0952 43.0516C46.3006 43.1114 46.5101 43.1565 46.7219 43.1867C46.5585 43.042 46.3847 42.9096 46.2019 42.7905ZM52.005 47.7314C51.8213 47.2121 51.565 46.7216 51.2437 46.2748C51.2898 46.824 51.4133 47.3639 51.6104 47.8782C51.7951 48.3972 52.0514 48.8875 52.3718 49.3349C52.3248 48.7851 52.199 48.245 51.9981 47.7314H52.005ZM63.6345 59.762C63.118 59.9466 62.6303 60.2039 62.186 60.5265C63.2818 60.4222 64.3316 60.0325 65.2315 59.3961C64.6841 59.4384 64.1459 59.5617 63.6345 59.762ZM77.0211 66.4765C77.4151 66.4492 77.8047 66.3757 78.1817 66.2574C78.1979 66.1153 78.2072 65.9708 78.2119 65.8216C77.7884 65.9874 77.3882 66.2075 77.0211 66.4765Z" fill="white"/>
<path opacity="0.1" d="M76.2017 69.7441C74.3865 71.1075 71.6452 71.3615 69.2868 70.2778C63.2515 67.4997 54.3635 58.5595 48.4211 50.0248C46.7754 47.6639 45.7772 45.1002 45.9908 43.4991L76.2017 69.7441Z" fill="black"/>
<path d="M59.9158 86.2797L23.3818 87.5406C23.3818 87.5406 21.3972 85.739 21.5248 83.4457C22.0076 74.9833 33.2146 46.8388 38.1519 42.956C40.3594 41.2197 45.2386 39.6489 48.1332 41.5367C52.6341 44.4733 58.421 67.2387 61.7171 80.0826C62.6619 83.765 59.9391 86.2425 59.9158 86.2797Z" fill="#FFC727"/>
<path d="M45.9815 52.6304C45.4658 52.8168 44.9783 53.0741 44.533 53.3948C45.6288 53.2905 46.6786 52.9009 47.5785 52.2645C47.0312 52.3078 46.4932 52.431 45.9815 52.6304ZM39.3265 71.9372C38.8099 72.1225 38.3222 72.3806 37.878 72.7039C38.4253 72.6607 38.9633 72.5374 39.475 72.338C39.9926 72.1524 40.4812 71.8934 40.9258 71.5689C40.378 71.6152 39.8396 71.7392 39.3265 71.9372ZM28.8414 59.8576C28.8136 59.9205 28.788 59.9811 28.7648 60.0417C28.8623 59.9811 28.9575 59.9136 29.0526 59.8413L28.8414 59.8576ZM39.7141 84.5248C39.1964 84.7097 38.7072 84.9671 38.261 85.2892C39.3578 85.186 40.4089 84.7981 41.3111 84.1635C40.7639 84.204 40.2257 84.3257 39.7141 84.5248ZM57.1675 76.5191C56.6514 76.7046 56.1639 76.9619 55.7191 77.2836C56.8149 77.1793 57.8646 76.7897 58.7645 76.1532C58.2173 76.1967 57.6794 76.32 57.1675 76.5191ZM28.9575 86.4149C28.7742 85.8954 28.5178 85.4049 28.1961 84.9583C28.242 85.5075 28.3655 86.0474 28.5629 86.5617C28.6641 86.8307 28.7803 87.0937 28.9111 87.3495L29.2291 87.3378C29.1611 87.0239 29.0704 86.7155 28.9575 86.4149ZM26.7709 72.4569C26.5854 71.9396 26.3275 71.4515 26.0049 71.0072C26.1083 72.1069 26.4981 73.1599 27.1353 74.0603C27.0886 73.5115 26.9659 72.9718 26.7709 72.4569ZM51.9981 47.7315C51.8144 47.2121 51.5581 46.7217 51.2368 46.2748C51.2829 46.824 51.4063 47.3639 51.6035 47.8783C51.7882 48.3972 52.0445 48.8875 52.3649 49.3349C52.3202 48.7855 52.1966 48.2454 51.9981 47.7315ZM44.526 64.1623C44.3409 63.6435 44.0847 63.1533 43.7647 62.7056C43.8713 63.8063 44.2599 64.8606 44.8928 65.7657C44.8467 65.2165 44.7232 64.6766 44.526 64.1623ZM52.9614 82.4692C52.7761 81.9497 52.5182 81.4592 52.1954 81.0126C52.2986 82.1144 52.6884 83.1697 53.3259 84.0726C53.2828 83.5232 53.16 82.983 52.9614 82.4692ZM38.8599 47.0439C38.6745 46.5244 38.4166 46.034 38.0939 45.5873C38.1971 46.6892 38.5869 47.7445 39.2243 48.6474C39.1817 48.0964 39.0589 47.5546 38.8599 47.0393V47.0439ZM33.4816 65.5723C32.9859 65.3352 32.4591 65.1704 31.9171 65.0828C32.3363 65.4415 32.8055 65.7367 33.3098 65.9592C33.8061 66.1941 34.3327 66.358 34.8743 66.4463C34.454 66.0896 33.985 65.7953 33.4816 65.5723ZM22.9849 80.1805C22.6929 80.0482 22.3929 79.9346 22.0866 79.8403C22.0657 79.9428 22.0425 80.043 22.0216 80.1432C22.2751 80.2984 22.537 80.4393 22.8062 80.5651C23.3012 80.8032 23.8283 80.9673 24.3707 81.0522C23.9515 80.6982 23.4851 80.4048 22.9849 80.1805ZM46.3993 77.7707C45.9033 77.5349 45.3766 77.3709 44.8348 77.2836C45.254 77.6417 45.7232 77.9361 46.2275 78.1576C46.7224 78.3939 47.2485 78.5579 47.7897 78.6447C47.3701 78.2882 46.9019 77.9939 46.3993 77.7707ZM31.9867 52.8332C31.931 52.9497 31.873 53.0662 31.8196 53.1851C32.1865 53.335 32.5699 53.4406 32.9616 53.4997C32.6663 53.2335 32.3387 53.0056 31.9867 52.8215V52.8332ZM45.3338 42.3221C44.8378 42.0871 44.311 41.9239 43.7693 41.8373C44.189 42.1942 44.6582 42.4878 45.1621 42.709C45.6577 42.946 46.1845 43.1108 46.7266 43.1984C46.307 42.8371 45.838 42.5381 45.3338 42.3105V42.3221ZM52.2836 60.1116C51.788 59.875 51.2612 59.7109 50.7191 59.6246C51.1387 59.9821 51.6079 60.2765 52.1119 60.4985C52.6079 60.7345 53.1346 60.8993 53.6764 60.988C53.258 60.6251 52.7887 60.3259 52.2836 60.1V60.1116ZM50.4684 70.5388C50.2312 71.0362 50.0662 71.5652 49.9786 72.1096C50.3347 71.6878 50.6286 71.2169 50.8514 70.7113C51.0871 70.2138 51.2497 69.6847 51.3342 69.1404C50.9826 69.5598 50.6911 70.0266 50.4684 70.5271V70.5388ZM33.2912 78.8148C33.0576 79.3132 32.8943 79.8419 32.8061 80.3856C33.5062 79.5267 33.971 78.4992 34.1547 77.4048C33.8007 77.8276 33.5076 78.2983 33.2843 78.8031L33.2912 78.8148ZM37.9616 57.0702C37.7252 57.5682 37.5626 58.0982 37.4788 58.6434C37.8324 58.2207 38.1247 57.7499 38.3469 57.245C38.5806 56.7474 38.7438 56.2195 38.832 55.6765C38.477 56.0969 38.1838 56.5662 37.9616 57.0702Z" fill="white"/>
<path d="M34.3219 46.7712C24.3405 59.6618 13.3007 77.8056 16.5365 82.4132C20.1414 87.5405 32.834 75.5635 33.2123 74.6872C33.6348 73.7107 38.3817 61.5193 40.5242 50.1063C42.8757 37.5862 36.801 43.5829 34.3219 46.7712Z" fill="#EB9481"/>
<path d="M34.3219 46.7712C24.3405 59.6618 13.3007 77.8056 16.5365 82.4132C20.1414 87.5405 32.834 75.5635 33.2123 74.6872C33.6348 73.7107 38.3817 61.5193 40.5242 50.1063C42.8757 37.5862 36.801 43.5829 34.3219 46.7712Z" fill="#FFC727"/>
<path d="M37.9616 57.0702C37.7252 57.5682 37.5626 58.0982 37.4787 58.6434C37.8324 58.2207 38.1247 57.75 38.3469 57.245C38.5805 56.7474 38.7438 56.2195 38.832 55.6765C38.4769 56.0969 38.1838 56.5662 37.9616 57.0702ZM21.3299 66.3577C21.0952 66.8557 20.9318 67.3846 20.8447 67.9285C21.5428 67.0728 22.0096 66.0511 22.2003 64.9617C21.8469 65.3841 21.5539 65.854 21.3299 66.3577ZM31.5735 52.6071C31.1655 52.419 30.7392 52.2737 30.3015 52.1736L30.2156 52.2948C30.5815 52.5712 30.977 52.8057 31.3948 52.994C31.8922 53.2287 32.4194 53.3933 32.9616 53.4834C32.5431 53.1267 32.0756 52.8324 31.5735 52.6094V52.6071ZM22.9849 80.1782C22.4886 79.9412 21.9609 79.7772 21.4181 79.6911C22.2686 80.393 23.2859 80.8612 24.3707 81.0499C23.9514 80.6967 23.4849 80.4041 22.9849 80.1806V80.1782ZM33.4816 65.57C32.9859 65.3329 32.4591 65.1681 31.9171 65.0805C32.3363 65.4392 32.8055 65.7344 33.3098 65.9568C33.8061 66.1918 34.3327 66.3557 34.8743 66.4439C34.4539 66.0882 33.9849 65.7946 33.4816 65.5723V65.57ZM38.8599 47.037C38.6745 46.5174 38.4166 46.027 38.0939 45.5803C38.197 46.6822 38.5869 47.7375 39.2243 48.6404C39.181 48.0918 39.0582 47.5524 38.8599 47.0393V47.037ZM26.7709 72.4569C26.5854 71.9396 26.3275 71.4515 26.0048 71.0073C26.1082 72.107 26.4981 73.1599 27.1353 74.0604C27.0886 73.5115 26.9659 72.9718 26.7709 72.4569ZM18.1823 74.0114C17.8911 74.1228 17.6066 74.2512 17.3304 74.396C17.2886 74.5055 17.2491 74.6127 17.2073 74.7199C17.5895 74.6501 17.9646 74.5464 18.3285 74.41C18.8459 74.226 19.3345 73.9685 19.7793 73.6455C19.2328 73.689 18.6956 73.8123 18.1846 74.0114H18.1823ZM27.4533 60.2119C26.9359 60.3959 26.4473 60.6533 26.0025 60.9763C27.0996 60.8709 28.1502 60.4797 29.0503 59.8413C28.5033 59.8839 27.9657 60.0088 27.4556 60.2119H27.4533Z" fill="white"/>
<path d="M33.2123 74.6873C35.4987 67.4088 38.0103 60.1909 39.9439 52.8028C40.0576 52.3087 40.176 51.8123 40.299 51.3182C39.7327 55.3618 38.5929 59.3006 37.3882 63.1927C36.1835 67.0848 34.793 70.9257 33.2239 74.6873H33.2123Z" fill="#263238"/>
<path d="M40.5637 52.9684C40.3826 54.1823 39.9449 55.3433 39.28 56.3734C39.6723 55.2081 40.06 54.0847 40.5637 52.9684Z" fill="#263238"/>
<path d="M40.3756 40.707C38.8111 41.7185 39.7141 43.3779 40.7912 45.1352C44.0896 50.5189 49.5469 55.8233 49.8092 55.8187C50.0715 55.814 51.1485 47.1232 50.928 44.7343C50.7075 42.3454 50.1202 41.7721 47.2953 40.6627C44.8649 39.7118 41.7521 39.8167 40.3756 40.707Z" fill="#EBEBEB"/>
<path opacity="0.1" d="M39.9625 45.6362C41.1739 47.8321 42.5875 49.9092 44.1848 51.8403C46.1393 54.1546 48.2145 56.4386 50.6704 58.2169L50.7005 58.2308C50.6763 58.2289 50.6522 58.2364 50.6332 58.2518C50.751 57.9371 50.8343 57.6104 50.8816 57.2776C51.5384 53.2508 51.657 49.1539 51.2344 45.0955C51.5975 47.5864 51.7095 50.1076 51.5687 52.6211C51.5153 53.8773 51.4016 55.1335 51.2391 56.3827C51.1207 57.0562 51.0928 57.7484 50.812 58.387C50.6912 58.5548 50.4777 58.359 50.3477 58.2844C48.9738 57.2313 47.6924 56.0617 46.5177 54.7885C43.9295 52.0594 41.6431 49.004 39.9532 45.6339L39.9625 45.6362Z" fill="black"/>
<path d="M47.727 48.8618C45.3129 49.2324 41.5409 45.2704 40.1713 42.1963C40.0808 41.9865 40.559 39.8843 41.0209 37.302C41.2948 35.7335 41.5618 33.9809 41.6918 32.3635L51.5942 35.645C51.5942 35.645 50.3291 38.9521 50.1202 41.7745C50.1056 41.9975 50.1111 42.2213 50.1364 42.4434C50.1364 42.4736 50.1364 42.5109 50.1364 42.5529C50.2479 43.8301 50.0575 48.5053 47.727 48.8618Z" fill="#EB9481"/>
<path d="M50.1226 41.772C50.1126 41.9272 50.1126 42.0829 50.1226 42.2382C44.909 41.9049 42.2814 37.4161 41.3506 35.2463C41.4968 34.2768 41.6198 33.2886 41.6941 32.347L51.5989 35.6285C51.5989 35.6285 50.3291 38.9497 50.1226 41.772Z" fill="#263238"/>
<path d="M39.4077 20.151C38.1798 23.7168 39.6979 34.2022 42.1653 36.6167C45.747 40.1127 51.7962 40.665 54.8068 36.2998C57.7269 32.0697 55.5032 18.4403 52.734 16.2262C50.7284 14.6298 47.9429 14.2755 45.3895 14.9444C44.9253 15.0656 44.5655 15.7112 44.1268 15.8976C43.6463 16.1027 43.0915 15.8557 42.6551 16.1307C41.1492 17.0615 40.0039 18.4794 39.4077 20.151Z" fill="#EB9481"/>
<path d="M44.2289 16.3428C44.2292 16.373 44.2362 16.4027 44.2494 16.4297C44.2627 16.4567 44.2819 16.4804 44.3055 16.499C44.3598 16.5432 44.4021 16.6005 44.4284 16.6655C44.4547 16.7305 44.4641 16.8012 44.4557 16.8709C44.4474 16.9406 44.4216 17.007 44.3807 17.064C44.3398 17.1209 44.2852 17.1665 44.222 17.1965C44.1588 17.2265 44.089 17.2399 44.0193 17.2354C43.9495 17.231 43.882 17.2088 43.8231 17.171C43.7641 17.1332 43.7157 17.081 43.6824 17.0193C43.649 16.9577 43.6318 16.8885 43.6323 16.8183C43.632 16.7571 43.6454 16.6966 43.6715 16.6414C43.6977 16.5861 43.7358 16.5374 43.7832 16.499C43.8065 16.4801 43.8254 16.4563 43.8386 16.4294C43.8518 16.4024 43.8591 16.3729 43.8598 16.3428C43.8598 16.2903 43.839 16.2399 43.802 16.2028C43.765 16.1656 43.7148 16.1447 43.6625 16.1447H42.6481C43.0383 15.8928 43.4473 15.6715 43.8714 15.4828C44.1633 15.352 44.4616 15.2361 44.7651 15.1356C44.8556 15.1053 44.9485 15.075 45.0413 15.0494C45.1528 15.0144 45.2735 14.9841 45.3802 14.9538C45.4041 14.9721 45.4235 14.9958 45.4368 15.0229C45.4501 15.0499 45.4569 15.0798 45.4568 15.1099V16.1471H44.4239C44.3724 16.1477 44.3231 16.1685 44.2867 16.2051C44.2502 16.2417 44.2295 16.2911 44.2289 16.3428Z" fill="white"/>
<path d="M39.0432 28.2615C38.5024 27.3899 37.3719 23.6586 37.5553 22.1553C37.7526 20.5472 39.7373 19.3586 39.7373 19.3586C39.7373 19.3586 39.8092 20.3538 40.3919 20.8525C41.2855 21.6216 43.0288 22.0901 43.2539 22.8638C43.6253 24.141 42.5204 30.8718 41.4318 30.6178C40.3431 30.3637 39.9647 29.7508 39.0432 28.2615Z" fill="#DBDBDB"/>
<path d="M54.1452 18.3984C54.1452 18.3984 56.0347 19.5124 56.4154 20.6101C56.745 21.5633 56.6962 23.873 56.7334 24.7493C56.817 26.6604 56.0834 27.1195 56.0834 27.1195C56.0834 27.1195 55.5101 21.9782 54.1452 18.3984Z" fill="#DBDBDB"/>
<path d="M42.6504 28.0192C42.7967 29.0703 43.9434 31.4918 47.3277 31.6037C48.0999 31.6478 48.8725 31.525 49.5933 31.2435C50.3141 30.9621 50.9664 30.5285 51.506 29.9722L53.0078 30.1004C53.0078 30.1004 53.7831 30.9441 54.8184 30.6831C55.8537 30.4221 56.051 29.0936 56.1461 27.8234C56.1461 27.8234 56.3388 31.3683 56.434 32.5522C56.5291 33.7362 56.8007 36.6634 54.9136 38.6118C52.7177 40.8772 47.2094 41.5833 43.4652 39.2085C39.721 36.8336 40.1644 31.9136 40.1644 31.9136L42.6504 28.0192Z" fill="#DBDBDB"/>
<path d="M41.8519 29.0936C41.8519 29.0936 39.2638 25.8983 37.806 26.8539C36.3483 27.8094 38.4653 32.5476 40.2967 33.0813C40.5274 33.1661 40.7729 33.203 41.0182 33.1899C41.2635 33.1768 41.5037 33.1139 41.7241 33.005C41.9445 32.8961 42.1407 32.7434 42.3007 32.5562C42.4607 32.3691 42.5813 32.1513 42.6551 31.916L41.8519 29.0936Z" fill="#EB9481"/>
<path d="M38.4466 28.1987C38.4188 28.1987 38.4165 28.2383 38.4466 28.2476C39.7326 28.6625 40.4754 29.7788 41.0255 30.9511C40.6193 30.5153 40.097 30.2985 39.5074 30.788C39.4773 30.8136 39.5074 30.8626 39.5469 30.8532C39.7614 30.7663 39.9976 30.7485 40.2226 30.8023C40.4476 30.8562 40.6504 30.9791 40.8027 31.1539C41.0572 31.4464 41.279 31.7661 41.4643 32.1071C41.5292 32.2143 41.7289 32.1397 41.6755 32.0139V31.9859C41.5733 30.3825 40.1713 28.229 38.4466 28.1987Z" fill="#263238"/>
<g opacity="0.2">
<path d="M49.4563 21.6636C49.8346 21.6584 50.2122 21.6289 50.5868 21.575C50.9651 21.5074 51.3272 21.3723 51.7079 21.314C52.427 21.2323 53.1545 21.2685 53.862 21.4212C53.9224 21.4212 53.9177 21.4678 53.862 21.4608C53.1119 21.3275 52.3432 21.3425 51.5988 21.5051C50.995 21.6836 50.371 21.7839 49.7418 21.8034C48.3027 21.8174 46.889 21.9992 45.668 22.7939C45.668 22.7939 45.6495 22.7939 45.668 22.7823C46.7567 22.0341 48.1239 21.7312 49.4563 21.6636Z" fill="black"/>
<path d="M49.308 20.75C49.6668 20.7442 50.025 20.7161 50.3804 20.6661C50.7402 20.6008 51.0767 20.475 51.4435 20.4167C52.1255 20.3405 52.8152 20.3752 53.4862 20.5193C53.5442 20.5193 53.5396 20.5659 53.4862 20.5566C52.7753 20.4309 52.0469 20.4451 51.3414 20.5985C50.7696 20.7659 50.1794 20.8614 49.5842 20.8828C48.2193 20.8828 46.8799 21.0693 45.7216 21.8151C45.7216 21.8151 45.7054 21.8151 45.7216 21.8151C46.7499 21.1019 48.0452 20.8129 49.308 20.75Z" fill="black"/>
</g>
<path opacity="0.1" d="M52.8987 29.3127C53.226 30.3848 53.674 31.4615 54.4864 32.2516C54.6011 32.3662 54.7219 32.4744 54.8485 32.5755C53.6624 31.9672 53.0263 30.5968 52.8987 29.3127Z" fill="black"/>
<path opacity="0.1" d="M47.3602 33.1372C48.7297 32.2819 50.0853 31.1469 50.5287 29.5248C50.3267 31.2285 48.8527 32.4986 47.3602 33.1372Z" fill="black"/>
<path opacity="0.1" d="M47.727 26.1826C46.3343 26.1826 46.4248 28.9793 47.7131 28.9793C49.0014 28.9793 48.8946 26.1873 47.727 26.1826Z" fill="black"/>
<path opacity="0.1" d="M53.5139 25.3832C52.156 25.6932 52.8755 28.3967 54.1313 28.11C55.3871 27.8234 54.6466 25.1245 53.5139 25.3832Z" fill="black"/>
<path d="M48.5256 26.8305C48.5256 26.8049 48.4745 26.8725 48.4791 26.9004C48.5998 27.5996 48.6207 28.4247 48.0149 28.7486C47.9963 28.7486 48.0033 28.7929 48.0149 28.7882C48.7902 28.5575 48.7507 27.4645 48.5256 26.8305Z" fill="#263238"/>
<path d="M47.7943 26.1733C46.6546 26.2479 46.8867 28.5296 47.9429 28.462C48.9991 28.3944 48.7507 26.1104 47.7943 26.1733Z" fill="#263238"/>
<path d="M52.7897 26.1873C52.7897 26.1616 52.8477 26.2176 52.85 26.2455C52.8941 26.9447 53.0636 27.7604 53.7228 27.9352C53.7437 27.9352 53.746 27.9772 53.7228 27.9749C52.9336 27.9399 52.7177 26.8678 52.7897 26.1873Z" fill="#263238"/>
<path d="M53.349 25.3879C54.4749 25.1945 54.7789 27.4692 53.7367 27.6486C52.6945 27.8281 52.4043 25.5534 53.349 25.3879Z" fill="#263238"/>
<path d="M46.5084 24.6887C46.7834 24.5378 47.0662 24.4017 47.3556 24.2808C47.6829 24.1294 47.9267 23.9732 48.2981 24.0315C48.4007 24.0586 48.4916 24.119 48.5567 24.2033C48.6217 24.2876 48.6573 24.391 48.6579 24.4976C48.63 24.9637 48.2748 25.2434 47.8895 25.4415C47.5081 25.657 47.0603 25.7218 46.6337 25.6233C46.1881 25.5324 46.1463 24.9078 46.5084 24.6887Z" fill="#DBDBDB"/>
<path d="M54.3286 23.2018C54.0839 23.0057 53.829 22.8228 53.5649 22.6541C53.2678 22.4466 53.0542 22.2532 52.6782 22.2462C52.5719 22.2555 52.4716 22.2998 52.3931 22.3724C52.3146 22.4449 52.2622 22.5415 52.2441 22.6471C52.193 23.1132 52.4925 23.4465 52.8383 23.7098C53.1779 23.9873 53.6083 24.1278 54.0454 24.1037C54.5004 24.0897 54.6489 23.4791 54.3286 23.2018Z" fill="#DBDBDB"/>
<path d="M49.3008 32.445C50.155 31.9929 51.3133 31.9789 52.0492 31.9952C52.1281 31.9743 52.1861 31.8064 52.1908 31.7272C52.1908 31.7016 51.9842 30.2379 51.9842 30.2379C52.1908 30.3149 53.2353 30.6575 53.1889 30.3778C52.8012 28.0681 52.3672 25.4998 51.4944 23.2834C51.4889 23.268 51.478 23.2553 51.4636 23.2476C51.4493 23.24 51.4326 23.238 51.4168 23.2421C51.4011 23.2462 51.3875 23.256 51.3786 23.2697C51.3698 23.2834 51.3664 23.2999 51.369 23.316C51.6569 25.5511 52.3324 27.7186 52.655 29.9606C52.3254 29.872 51.7822 29.7042 51.4944 29.7415C51.4201 29.7718 51.7938 31.3054 51.7938 31.5478C51.7938 31.5478 50.3268 31.2751 49.2405 32.1421C48.9758 32.3635 48.8923 32.6571 49.3008 32.445Z" fill="#263238"/>
<path d="M48.226 33.7012C48.4094 33.848 48.6021 34.0531 48.8574 34.0461C49.1161 34.0122 49.3646 33.9232 49.5863 33.7851C49.5909 33.7829 49.5961 33.7821 49.6012 33.7828C49.6063 33.7836 49.6111 33.7859 49.6148 33.7894C49.6186 33.793 49.6212 33.7976 49.6223 33.8026C49.6235 33.8077 49.623 33.8129 49.6211 33.8177C49.5369 33.9662 49.4144 34.0891 49.2666 34.1736C49.1187 34.258 48.9509 34.301 48.7808 34.2978C48.6341 34.2774 48.4967 34.2135 48.3863 34.1142C48.2759 34.015 48.1975 33.885 48.1611 33.7408C48.1471 33.7012 48.1982 33.6802 48.226 33.7012Z" fill="#263238"/>
<path d="M42.1584 14.6112L41.715 13.8421C41.7038 13.8227 41.6966 13.8012 41.6937 13.779C41.6908 13.7567 41.6923 13.7341 41.6981 13.7125C41.7039 13.6908 41.7139 13.6705 41.7276 13.6528C41.7413 13.635 41.7583 13.6202 41.7777 13.609C41.801 13.598 41.8263 13.5923 41.852 13.5923C41.8777 13.5923 41.9031 13.598 41.9263 13.609C41.9754 13.6272 42.0279 13.6343 42.08 13.6299C42.1321 13.6255 42.1827 13.6096 42.228 13.5834C42.2796 13.5535 42.3228 13.511 42.3536 13.4599C42.3844 13.4087 42.4019 13.3506 42.4043 13.2909C42.4067 13.2311 42.394 13.1718 42.3674 13.1183C42.3408 13.0648 42.3011 13.019 42.2521 12.985C42.2032 12.9511 42.1464 12.9301 42.0872 12.9241C42.0279 12.9181 41.9681 12.9272 41.9134 12.9507C41.8586 12.9741 41.8106 13.0111 41.7739 13.0581C41.7372 13.1052 41.713 13.1608 41.7034 13.2198C41.6992 13.2452 41.6895 13.2694 41.6751 13.2907C41.6606 13.312 41.6418 13.33 41.6199 13.3433C41.5947 13.3576 41.5664 13.3652 41.5375 13.3652C41.5086 13.3652 41.4802 13.3576 41.4551 13.3433C41.4263 13.3293 41.4027 13.3065 41.3878 13.2781L40.9467 12.509L41.7127 12.0662L42.2791 11.7376L43.0451 11.2947L43.4885 12.0638C43.5 12.0832 43.5075 12.1046 43.5106 12.127C43.5137 12.1493 43.5122 12.172 43.5064 12.1937C43.5006 12.2155 43.4904 12.2358 43.4766 12.2535C43.4627 12.2713 43.4454 12.286 43.4258 12.2969C43.4029 12.3089 43.3774 12.3152 43.3515 12.3152C43.3257 12.3152 43.3002 12.3089 43.2772 12.2969C43.2216 12.2758 43.1616 12.2692 43.1027 12.2776C43.0438 12.2861 42.988 12.3093 42.9405 12.3452C42.893 12.3811 42.8552 12.4285 42.8308 12.4829C42.8064 12.5374 42.7961 12.5971 42.8009 12.6567C42.8056 12.7162 42.8253 12.7735 42.8581 12.8234C42.8908 12.8732 42.9356 12.9139 42.9882 12.9418C43.0408 12.9696 43.0996 12.9836 43.1591 12.9825C43.2185 12.9814 43.2767 12.9652 43.3283 12.9355C43.3739 12.9097 43.413 12.8738 43.4427 12.8306C43.4725 12.7874 43.4921 12.738 43.5001 12.6861C43.5044 12.6607 43.514 12.6365 43.5285 12.6152C43.5429 12.5939 43.5617 12.5759 43.5836 12.5626C43.609 12.5489 43.6373 12.5418 43.6661 12.5418C43.6948 12.5418 43.7231 12.5489 43.7485 12.5626C43.7767 12.5774 43.8001 12.6 43.8158 12.6278L44.2568 13.3969L43.4908 13.8398C43.4521 13.8627 43.4238 13.8999 43.4121 13.9435C43.4004 13.987 43.4061 14.0335 43.4281 14.0728C43.444 14.1 43.4674 14.1218 43.4954 14.1358C43.513 14.1451 43.5318 14.1522 43.5512 14.1567C43.6028 14.1647 43.6521 14.1844 43.6951 14.2143C43.7381 14.2442 43.7738 14.2835 43.7995 14.3292C43.842 14.4102 43.8516 14.5046 43.8263 14.5925C43.801 14.6805 43.7428 14.7552 43.6639 14.801C43.5849 14.8468 43.4914 14.8601 43.4029 14.8382C43.3144 14.8163 43.2377 14.7608 43.189 14.6834C43.1632 14.6378 43.1477 14.5869 43.1437 14.5346C43.1397 14.4822 43.1472 14.4296 43.1658 14.3805C43.1773 14.3573 43.1832 14.3318 43.1832 14.3059C43.1832 14.28 43.1773 14.2545 43.1658 14.2313C43.155 14.2116 43.1403 14.1943 43.1226 14.1804C43.105 14.1664 43.0847 14.1563 43.0631 14.1504C43.0414 14.1445 43.0188 14.1431 42.9966 14.1462C42.9743 14.1493 42.953 14.1568 42.9337 14.1684L42.1584 14.6112Z" fill="#EB9481"/>
<path d="M45.4637 18.9764H44.4308C44.3784 18.9764 44.3283 18.9555 44.2913 18.9184C44.2543 18.8812 44.2335 18.8308 44.2335 18.7783C44.2334 18.7478 44.2402 18.7176 44.2535 18.6901C44.2668 18.6627 44.2861 18.6386 44.3101 18.6198C44.3633 18.5755 44.4045 18.5185 44.4299 18.4539C44.4553 18.3894 44.464 18.3195 44.4554 18.2506C44.4467 18.1818 44.4209 18.1163 44.3804 18.0601C44.3398 18.0039 44.2857 17.9589 44.2233 17.9293C44.1608 17.8997 44.0919 17.8863 44.0229 17.8905C43.9539 17.8947 43.8871 17.9163 43.8286 17.9534C43.7702 17.9904 43.722 18.0416 43.6884 18.1023C43.6549 18.1629 43.6372 18.2311 43.6369 18.3005C43.6366 18.3617 43.65 18.4221 43.6761 18.4774C43.7022 18.5327 43.7404 18.5814 43.7878 18.6198C43.8114 18.639 43.8304 18.6631 43.8437 18.6905C43.8569 18.7179 43.864 18.7478 43.8644 18.7783C43.8644 18.8308 43.8436 18.8812 43.8066 18.9184C43.7696 18.9555 43.7194 18.9764 43.6671 18.9764H42.6341V17.9393C42.6341 17.8867 42.6133 17.8363 42.5763 17.7992C42.5393 17.762 42.4892 17.7412 42.4368 17.7412C42.4068 17.7411 42.3771 17.748 42.3501 17.7613C42.3231 17.7747 42.2996 17.7941 42.2813 17.8181C42.2425 17.865 42.1939 17.9029 42.139 17.9291C42.084 17.9552 42.0241 17.9691 41.9633 17.9696C41.8934 17.9701 41.8245 17.9528 41.763 17.9193C41.7016 17.8858 41.6496 17.8372 41.612 17.7781C41.5743 17.7189 41.5523 17.6511 41.5478 17.5811C41.5434 17.511 41.5567 17.441 41.5866 17.3775C41.6165 17.3141 41.6619 17.2592 41.7186 17.2182C41.7753 17.1771 41.8415 17.1512 41.9109 17.1428C41.9803 17.1345 42.0507 17.1439 42.1155 17.1703C42.1803 17.1967 42.2373 17.2391 42.2813 17.2937C42.2999 17.3173 42.3235 17.3364 42.3504 17.3498C42.3773 17.3631 42.4068 17.3702 42.4368 17.3706C42.4892 17.3706 42.5393 17.3497 42.5763 17.3126C42.6133 17.2754 42.6341 17.225 42.6341 17.1725V16.1354H43.6671C43.7194 16.1354 43.7696 16.1562 43.8066 16.1934C43.8436 16.2306 43.8644 16.2809 43.8644 16.3335C43.8637 16.3635 43.8564 16.393 43.8432 16.42C43.83 16.447 43.8111 16.4707 43.7878 16.4896C43.7335 16.5338 43.6912 16.5911 43.6649 16.6561C43.6386 16.7212 43.6292 16.7919 43.6376 16.8616C43.6459 16.9313 43.6717 16.9977 43.7126 17.0546C43.7535 17.1116 43.8081 17.1572 43.8713 17.1872C43.9345 17.2171 44.0043 17.2305 44.074 17.2261C44.1438 17.2216 44.2113 17.1994 44.2702 17.1616C44.3291 17.1239 44.3775 17.0717 44.4109 17.01C44.4443 16.9483 44.4615 16.8791 44.461 16.8089C44.4605 16.7479 44.4467 16.6877 44.4206 16.6325C44.3946 16.5774 44.3568 16.5286 44.3101 16.4896C44.2868 16.4725 44.2674 16.4505 44.2534 16.4252C44.2394 16.3998 44.231 16.3717 44.2288 16.3428C44.2288 16.2903 44.2496 16.2399 44.2866 16.2027C44.3236 16.1656 44.3738 16.1447 44.4261 16.1447H45.4591V17.1818C45.4591 17.2344 45.4799 17.2847 45.5169 17.3219C45.5539 17.3591 45.6041 17.3799 45.6564 17.3799C45.6863 17.3792 45.7157 17.3719 45.7426 17.3586C45.7694 17.3454 45.7931 17.3264 45.8119 17.303C45.8502 17.2554 45.8987 17.2171 45.9537 17.1909C46.0088 17.1647 46.069 17.1512 46.1299 17.1515C46.1998 17.151 46.2687 17.1683 46.3302 17.2018C46.3916 17.2353 46.4436 17.2839 46.4812 17.343C46.5189 17.4022 46.5409 17.4699 46.5454 17.54C46.5498 17.6101 46.5365 17.6801 46.5066 17.7436C46.4768 17.807 46.4314 17.8619 46.3746 17.9029C46.3179 17.9439 46.2518 17.9699 46.1824 17.9782C46.1129 17.9866 46.0425 17.9772 45.9778 17.9508C45.913 17.9244 45.8559 17.882 45.8119 17.8274C45.7934 17.8037 45.7698 17.7844 45.7429 17.7711C45.716 17.7578 45.6864 17.7507 45.6564 17.7505C45.6041 17.7505 45.5539 17.7714 45.5169 17.8085C45.4799 17.8457 45.4591 17.8961 45.4591 17.9486L45.4637 18.9764Z" fill="white"/>
<path d="M36.3367 17.9137L36.8381 17.0071C36.8507 16.9842 36.8677 16.9641 36.888 16.9478C36.9084 16.9316 36.9318 16.9195 36.9568 16.9124C36.9818 16.9052 37.008 16.9031 37.0339 16.9062C37.0597 16.9092 37.0847 16.9174 37.1074 16.9302C37.1332 16.9453 37.1554 16.9658 37.1727 16.9904C37.1899 17.0149 37.2017 17.0428 37.2072 17.0723C37.2194 17.1409 37.2487 17.2052 37.2923 17.2593C37.336 17.3134 37.3926 17.3555 37.4568 17.3818C37.521 17.408 37.5908 17.4175 37.6597 17.4094C37.7286 17.4012 37.7943 17.3757 37.8507 17.3352C37.9071 17.2947 37.9524 17.2405 37.9823 17.1777C38.0122 17.1149 38.0258 17.0455 38.0218 16.976C38.0178 16.9064 37.9964 16.8391 37.9595 16.7801C37.9226 16.7212 37.8714 16.6726 37.8107 16.6388C37.7578 16.6089 37.6988 16.5912 37.6381 16.5872C37.5774 16.5831 37.5166 16.5928 37.4602 16.6155C37.4331 16.6287 37.4033 16.6356 37.3732 16.6356C37.343 16.6356 37.3133 16.6287 37.2861 16.6155C37.2634 16.6031 37.2434 16.5863 37.2273 16.5661C37.2111 16.5458 37.1991 16.5225 37.192 16.4976C37.1848 16.4727 37.1827 16.4466 37.1857 16.4208C37.1887 16.395 37.1968 16.3701 37.2095 16.3475L37.7109 15.4409L38.6139 15.942C38.6364 15.9547 38.6612 15.9628 38.6869 15.9659C38.7125 15.9689 38.7385 15.9667 38.7634 15.9596C38.7882 15.9524 38.8114 15.9404 38.8315 15.9242C38.8517 15.9079 38.8685 15.8878 38.8808 15.8651C38.8939 15.8382 38.9007 15.8087 38.9007 15.7788C38.9007 15.7489 38.8939 15.7194 38.8808 15.6926C38.8501 15.6138 38.8443 15.5274 38.8642 15.4452C38.884 15.3629 38.9286 15.2888 38.9918 15.2328C39.0551 15.1769 39.1339 15.1418 39.2177 15.1324C39.3014 15.123 39.3861 15.1396 39.4601 15.1801C39.5341 15.2206 39.5939 15.283 39.6314 15.3588C39.6689 15.4346 39.6823 15.5201 39.6697 15.6038C39.6572 15.6875 39.6193 15.7653 39.5612 15.8266C39.5031 15.8879 39.4277 15.9298 39.3451 15.9466C39.3154 15.9513 39.2871 15.9625 39.2622 15.9794C39.2373 15.9964 39.2165 16.0186 39.2011 16.0445C39.176 16.0907 39.17 16.1449 39.1843 16.1954C39.1987 16.246 39.2322 16.2889 39.2777 16.3149L40.1784 16.809L39.677 17.7156C39.6646 17.7384 39.6479 17.7584 39.6277 17.7747C39.6076 17.7909 39.5844 17.8029 39.5596 17.8101C39.5347 17.8173 39.5087 17.8194 39.483 17.8164C39.4574 17.8133 39.4326 17.8052 39.4101 17.7925C39.3841 17.7776 39.3616 17.7571 39.3444 17.7325C39.3271 17.708 39.3155 17.6799 39.3102 17.6503C39.2997 17.5899 39.2759 17.5327 39.2406 17.4827C39.2053 17.4327 39.1593 17.3912 39.106 17.3613C39.0585 17.3299 39.0051 17.3086 38.9491 17.2988C38.8931 17.289 38.8357 17.2909 38.7804 17.3044C38.7252 17.3179 38.6733 17.3427 38.6281 17.3773C38.5828 17.4119 38.5451 17.4554 38.5174 17.5053C38.4897 17.5552 38.4726 17.6102 38.467 17.667C38.4615 17.7238 38.4677 17.7812 38.4852 17.8355C38.5028 17.8898 38.5313 17.9399 38.569 17.9826C38.6067 18.0253 38.6528 18.0598 38.7044 18.0838C38.7578 18.1138 38.8171 18.1315 38.8782 18.1355C38.9392 18.1395 39.0004 18.1298 39.0572 18.1071C39.0845 18.0945 39.1142 18.088 39.1443 18.088C39.1743 18.088 39.204 18.0945 39.2313 18.1071C39.2541 18.1198 39.2742 18.1368 39.2903 18.1572C39.3065 18.1777 39.3185 18.2012 39.3256 18.2263C39.3328 18.2514 39.3349 18.2777 39.3318 18.3037C39.3288 18.3296 39.3207 18.3547 39.3079 18.3775L38.8065 19.2841L37.9036 18.7807C37.8809 18.7679 37.8559 18.7597 37.8301 18.7567C37.8042 18.7536 37.778 18.7557 37.753 18.7629C37.728 18.77 37.7046 18.7821 37.6842 18.7983C37.6639 18.8146 37.6469 18.8347 37.6343 18.8576C37.6217 18.8845 37.6151 18.914 37.6151 18.9438C37.6151 18.9736 37.6217 19.0031 37.6343 19.03C37.6568 19.087 37.6666 19.1483 37.663 19.2095C37.6594 19.2707 37.6425 19.3304 37.6134 19.3843C37.5571 19.4738 37.4689 19.5382 37.3668 19.5645C37.2647 19.5908 37.1564 19.5769 37.0642 19.5257C36.9719 19.4745 36.9027 19.3898 36.8706 19.289C36.8385 19.1882 36.846 19.0789 36.8915 18.9834C36.9215 18.9299 36.9629 18.8836 37.0126 18.8478C37.0623 18.8119 37.1192 18.7874 37.1793 18.776C37.2089 18.772 37.2372 18.761 37.2618 18.744C37.2864 18.727 37.3066 18.7044 37.3209 18.6781C37.3337 18.6553 37.3418 18.6302 37.3448 18.6043C37.3479 18.5784 37.3458 18.5521 37.3387 18.5269C37.3315 18.5018 37.3195 18.4783 37.3034 18.4579C37.2872 18.4374 37.2671 18.4204 37.2443 18.4078L36.3367 17.9137Z" fill="#EB9481"/>
<path d="M50.1341 42.364L47.7107 47.6056L40.4615 40.679L38.3724 42.7766C38.3724 42.7766 45.4197 53.6535 45.4684 53.1734L47.9429 48.6637L51.4131 51.9475L51.2112 43.9465L50.1341 42.364Z" fill="#EBEBEB"/>
<path d="M51.5595 47.9925C51.4782 46.671 51.4365 45.3402 51.2856 44.0304C51.2856 43.9838 51.1997 43.9605 51.1858 44.0141C50.8794 45.2796 51.2252 50.3301 51.2067 51.5373L51.1904 51.5233C51.0465 51.3812 47.9732 48.6287 47.9407 48.6707C47.4068 49.3699 45.5916 52.663 45.4662 52.9637C44.352 51.2367 40.0786 44.9487 38.7555 43.3079C38.7161 43.2613 38.6371 43.3079 38.6673 43.3522C39.6469 45.1701 45.3037 53.6325 45.3989 53.6069C45.4593 53.6512 47.7202 49.6099 47.9871 48.8408C48.5047 49.4374 51.6036 52.5325 51.6175 52.3367C51.683 50.8887 51.6636 49.4382 51.5595 47.9925Z" fill="#263238"/>
<path d="M70.5123 69.4224C74.1706 72.7878 78.509 68.7232 78.9175 65.2599C79.8785 57.1541 75.1594 43.6412 71.406 38.5092C70.0132 36.5934 57.2464 43.5736 57.8058 46.0487C58.4256 48.7522 63.7111 63.1624 70.5123 69.4224Z" fill="#EB9481"/>
<path d="M72.6084 41.2174C72.6084 41.2174 73.0123 33.7781 70.1548 27.9959C68.9942 25.6373 62.3972 16.6714 60.1921 18.219C58.1958 19.6173 64.7974 26.6255 64.7974 26.6255C64.7974 26.6255 58.7622 18.9647 56.6731 21.0949C54.5839 23.2251 63.0867 30.1447 63.0867 30.1447C63.0867 30.1447 56.7056 22.4141 54.8903 24.9521C53.5208 26.8725 60.8745 33.5753 60.8745 33.5753C60.8745 33.5753 55.343 26.9681 53.8504 28.8815C52.1977 30.9954 58.5997 37.6096 58.5997 37.6096C57.1466 39.2574 57.3602 45.0093 58.0263 46.8249C58.2515 47.4658 72.6084 41.2174 72.6084 41.2174Z" fill="#EB9481"/>
<path d="M67.0559 29.1402C66.3781 28.208 65.7003 27.2757 64.9436 26.4111C64.1869 25.5464 63.4 24.7144 62.5667 23.9266C60.5217 21.9946 58.9409 21.1066 59.0337 21.1719C61.2018 22.7217 63.9571 25.7655 64.7161 26.6278C65.4752 27.4901 66.269 28.3105 67.0258 29.1705C67.0443 29.1915 67.0722 29.1612 67.0559 29.1402Z" fill="#263238"/>
<path d="M64.0059 31.9415C63.0913 30.7972 62.2232 29.6272 61.2576 28.5225C60.2919 27.4178 59.2868 26.4669 58.2539 25.4368C58.175 25.3576 58.1587 25.4368 58.2353 25.5091C59.2265 26.5788 60.0621 27.6462 61.0417 28.7276C62.0213 29.809 63.0449 30.8531 63.9804 31.9648C63.9943 31.9812 64.0198 31.9579 64.0059 31.9415Z" fill="#263238"/>
<path d="M61.817 34.8176C60.5078 32.995 58.8644 31.4195 57.2163 29.9116C57.135 29.8371 57.1234 29.9303 57.2023 30.0119C58.7622 31.613 59.9994 32.8575 61.7543 34.8619C61.7822 34.8945 61.8448 34.8549 61.817 34.8176Z" fill="#263238"/>
<path d="M58.2468 25.4462C57.3787 24.8659 55.9256 24.0199 55.025 24.9171C54.3425 25.8074 55.4892 27.3247 55.972 28.1194C56.4363 28.7929 56.9307 29.4315 57.446 30.0631L57.3926 30.1097C56.5895 29.3873 55.4428 28.4061 54.2938 28.6927C53.0844 29.1122 54.0106 30.9721 54.3797 31.7575C55.473 33.904 56.998 35.8104 58.5997 37.6003C56.7987 35.963 55.296 34.0228 54.1591 31.867C53.7901 31.042 53.3351 30.1214 53.5486 29.1845C53.9108 28.1124 55.2989 28.4527 56.0138 28.9351C56.5312 29.255 57.0109 29.6326 57.4437 30.0608L57.3926 30.1074C56.8727 29.4805 56.3504 28.8535 55.8583 28.201C55.2896 27.3876 54.5584 26.467 54.6164 25.4042C54.6744 24.7051 55.4335 24.2949 56.0626 24.3741C56.8959 24.4697 57.6271 24.9148 58.2608 25.4345L58.2468 25.4532V25.4462Z" fill="#263238"/>
<path d="M57.0468 48.3025L73.4765 39.6606C73.4765 39.6606 80.8789 57.541 79.0475 65.9965C78.4463 68.7932 74.4537 72.1866 71.3549 70.3897C65.9534 67.2573 57.0468 48.3025 57.0468 48.3025Z" fill="#FFC727"/>
<path d="M78.4719 65.7122C77.9547 65.8968 77.4663 66.1542 77.0211 66.4766C77.568 66.4311 78.1057 66.3079 78.6181 66.1107C78.7737 66.0501 78.9269 65.9872 79.0824 65.9196C79.1126 65.7798 79.1381 65.6399 79.1613 65.4954C78.9245 65.556 78.6971 65.6329 78.4719 65.7122ZM72.555 42.8722C72.0378 43.0576 71.5493 43.3157 71.1043 43.639C72.2006 43.5319 73.2506 43.1417 74.1521 42.5063C73.6024 42.5486 73.062 42.6719 72.5481 42.8722H72.555ZM63.6345 59.7621C63.4883 59.8204 63.342 59.8786 63.1981 59.9439L63.4001 60.2888C63.5277 60.2492 63.6531 60.2049 63.7808 60.1607C64.2973 59.9762 64.785 59.7188 65.2292 59.3962C64.6826 59.4387 64.1453 59.562 63.6345 59.7621ZM68.0449 51.2531C67.8603 50.7344 67.6032 50.2447 67.2812 49.7988C67.3896 50.8987 67.779 51.952 68.4116 52.8565C68.3668 52.3076 68.2449 51.7678 68.0495 51.2531H68.0449ZM61.6963 45.8554L61.2622 46.0884C61.6746 46.2685 62.1084 46.3946 62.5528 46.4637C62.2916 46.2306 62.0059 46.0266 61.7009 45.8554H61.6963ZM73.3327 58.4407C72.8379 58.2044 72.3117 58.0412 71.7705 57.9559C72.19 58.3129 72.6592 58.6065 73.1632 58.8275C73.659 59.0642 74.1858 59.229 74.7277 59.317C74.308 58.962 73.8398 58.6692 73.3373 58.4477L73.3327 58.4407ZM69.2728 66.3577C69.0357 66.8542 68.8715 67.3825 68.7854 67.9262C69.1412 67.5043 69.4352 67.0334 69.6581 66.5279C69.8917 66.0296 70.0542 65.5008 70.141 64.957C69.7861 65.3797 69.4938 65.8515 69.2728 66.3577ZM77.0768 50.0691C76.9886 50.2276 76.9074 50.3884 76.8308 50.5516C76.5953 51.0495 76.4312 51.5783 76.3433 52.1224C76.6998 51.7013 76.993 51.2302 77.2138 50.724L77.244 50.6541C77.1906 50.4607 77.1325 50.2626 77.0768 50.0691Z" fill="white"/>
<path d="M67.1929 65.9336C64.8716 63.4375 63.1957 60.4263 61.5221 57.4804C59.8485 54.5346 58.3675 51.4581 57.0142 48.3398L56.998 48.3048L57.0305 48.2885L58.277 47.6569L57.0676 48.3561L57.0839 48.3048C58.5161 50.9454 60.5031 54.6604 61.926 57.2544C63.5833 60.2049 65.1548 63.2231 67.1929 65.9312V65.9336Z" fill="#263238"/>
<path d="M60.5379 51.6282C61.6846 51.1878 62.7803 50.5678 63.8759 50.0155C65.0156 49.4375 66.1368 48.8245 67.2626 48.2162C68.3884 47.6079 72.8034 45.0303 73.906 44.3847C73.9161 44.3788 73.9236 44.3692 73.9266 44.3578C73.9296 44.3464 73.9281 44.3343 73.9222 44.3241C73.9164 44.3139 73.9067 44.3065 73.8954 44.3034C73.8841 44.3003 73.872 44.3019 73.8619 44.3078C72.7198 44.8811 68.1911 47.1628 67.0908 47.7641C65.9905 48.3654 64.8856 48.9597 63.8016 49.5913C62.7176 50.2229 61.5454 50.8312 60.5194 51.577C60.4962 51.5933 60.5078 51.6399 60.5379 51.6282Z" fill="#263238"/>
<path d="M17.7668 83.1568C22.0634 84.4503 32.1585 82.3947 47.9569 74.2119C50.1435 73.0792 40.45 58.3637 38.0545 59.4521C35.0368 60.8249 23.6256 66.8029 22.8457 67.3459C16.2719 71.9279 14.8536 82.2781 17.7668 83.1568Z" fill="#EB9481"/>
<path d="M34.1733 62.6614C34.1733 62.6614 35.0461 62.0531 39.1384 58.0841C41.968 55.3409 50.6053 50.4746 60.6563 55.0985C64.5073 56.8698 64.9506 60.3564 60.6238 59.2284C57.5784 58.436 55.5333 57.6226 54.4679 57.6436C54.4679 57.6436 57.3625 61.51 56.5152 64.1809C56.1345 65.3742 55.025 68.6091 53.8017 71.0003C53.355 70.8974 52.9154 70.7658 52.4856 70.6064C52.0572 71.6309 51.3493 72.5129 50.4433 73.1508C49.5372 73.7888 48.4701 74.1566 47.3649 74.2119L34.1733 62.6614Z" fill="#EB9481"/>
<path d="M42.2558 55.9002C44.3147 55.7953 48.681 55.6485 52.2952 56.7742C56.3109 58.0281 63.7087 61.5263 62.7593 64.4909C62.063 66.6676 59.1196 65.5792 59.1196 65.5792C59.1196 65.5792 61.8726 67.6768 60.8164 69.4993C59.8508 71.1634 57.6271 70.1869 57.6271 70.1869C57.6271 70.1869 59.0802 71.746 57.8429 73.1677C56.3573 74.8807 53.5556 71.3335 50.5566 71.7693C49.8834 71.8579 42.2558 55.9002 42.2558 55.9002Z" fill="#EB9481"/>
<path d="M50.2641 60.8132C52.2163 61.0346 56.5315 62.6777 59.0848 65.4954C59.1452 65.5583 59.1266 65.6375 59.0616 65.5909C56.3311 63.6609 53.3769 62.0714 50.2641 60.8575C50.2386 60.8435 50.2502 60.8108 50.2641 60.8132Z" fill="#263238"/>
<path d="M49.1291 64.9197C50.7957 65.2833 55.1643 67.1781 57.6666 70.1216C57.7223 70.1869 57.7014 70.2638 57.6387 70.2148C55.0051 68.1437 52.1455 66.3797 49.1151 64.957C49.1035 64.9477 49.1035 64.915 49.1291 64.9197Z" fill="#263238"/>
<path d="M34.5215 60.7782L44.229 77.7357C44.229 77.7357 20.1809 86.4196 17.0379 83.0775C13.895 79.7354 18.3587 69.9305 22.1447 67.4973C25.9306 65.0642 34.5215 60.7782 34.5215 60.7782Z" fill="#FFC727"/>
<path d="M33.2843 78.8031C33.0506 79.3015 32.8873 79.8302 32.7991 80.374C33.4999 79.5191 33.9671 78.4958 34.1547 77.4048C33.8006 77.8275 33.5076 78.2983 33.2843 78.8031ZM22.9849 80.1805C22.4886 79.9435 21.9609 79.7795 21.4181 79.6934C22.2686 80.3953 23.2859 80.8634 24.3707 81.0522C23.9515 80.6981 23.4851 80.4048 22.9849 80.1805ZM33.4816 65.5723C32.9859 65.3352 32.4591 65.1704 31.917 65.0828C32.3363 65.4414 32.8055 65.7367 33.3098 65.9591C33.8061 66.1941 34.3327 66.358 34.8743 66.4462C34.454 66.0896 33.985 65.7953 33.4816 65.5723ZM26.7708 72.4569C26.5854 71.9396 26.3275 71.4515 26.0048 71.0072C26.1082 72.1069 26.4981 73.1599 27.1353 74.0603C27.0886 73.5114 26.9659 72.9718 26.7708 72.4569ZM18.1823 74.0114C17.8322 74.1391 17.493 74.295 17.1679 74.4775C17.133 74.5614 17.1006 74.6476 17.0657 74.7339C17.4971 74.6674 17.9203 74.5557 18.3285 74.4006C18.8459 74.2166 19.3345 73.9592 19.7793 73.6362C19.2323 73.6826 18.6951 73.809 18.1846 74.0114H18.1823ZM40.6983 71.5876C40.2222 71.6501 39.7549 71.7674 39.3056 71.9371C38.7889 72.1225 38.3012 72.3806 37.8571 72.7039C38.4043 72.6607 38.9424 72.5374 39.4541 72.338C39.9077 72.1724 40.3402 71.9534 40.7424 71.6854L40.6983 71.5876Z" fill="white"/>
<path d="M21.0374 71.0119C21.4669 70.3244 22.3489 68.1756 24.5982 66.3134C26.562 64.682 32.8456 61.4681 34.3962 60.7806C34.4356 60.7642 34.4589 60.7992 34.4217 60.8225C33.1311 61.6755 27.1075 64.8288 24.9952 66.5395C22.7877 68.3294 21.5365 70.4036 21.0862 71.0283C21.063 71.0609 21.0165 71.0446 21.0374 71.0119Z" fill="#263238"/>
<path d="M38.9783 77.4444C38.514 76.3047 37.8664 75.221 37.2884 74.1373C36.6849 73.0069 36.0442 71.8952 35.4105 70.7835C34.7768 69.6718 32.0958 65.3019 31.4273 64.2135C31.4214 64.2033 31.4118 64.1959 31.4005 64.1928C31.3892 64.1898 31.3771 64.1913 31.3669 64.1972C31.3568 64.2031 31.3494 64.2128 31.3463 64.2241C31.3433 64.2355 31.3448 64.2476 31.3507 64.2578C31.9519 65.3905 34.3404 69.8769 34.9649 70.9653C35.5893 72.0537 36.2114 73.1491 36.8683 74.2281C37.5252 75.3072 38.1589 76.4609 38.9295 77.4724C38.9458 77.4863 38.9922 77.4747 38.9783 77.4444Z" fill="#263238"/>
<path d="M43.493 76.4376C43.7693 76.8781 44.0432 77.3186 44.3101 77.7637L44.2451 77.7894C40.5122 79.2797 36.7013 80.565 32.8292 81.6395C28.9621 82.693 25.0113 83.6299 20.9909 83.8093C26.9495 82.9866 32.7201 81.2224 38.4675 79.4907C40.3833 78.9019 42.2953 78.299 44.2033 77.6822L44.1731 77.7637C43.941 77.3233 43.7089 76.8804 43.4907 76.4376H43.493Z" fill="#263238"/>
<path d="M0.905273 101.892C31.7778 101.75 66.4223 101.748 97.3018 101.892C66.4293 102.037 31.7848 102.035 0.905273 101.892Z" fill="#263238"/>
<path d="M36.7778 21.7312C36.7574 21.8932 36.7854 22.0575 36.8581 22.2035C36.9308 22.3495 37.0451 22.4705 37.1863 22.5513C37.3276 22.6321 37.4895 22.669 37.6517 22.6574C37.8139 22.6457 37.9689 22.586 38.0973 22.4859C38.2256 22.3857 38.3215 22.2495 38.3728 22.0947C38.4241 21.9398 38.4284 21.7731 38.3853 21.6157C38.3422 21.4583 38.2536 21.3173 38.1307 21.2105C38.0077 21.1037 37.856 21.0359 37.6946 21.0157C37.4786 20.9887 37.2607 21.0489 37.0888 21.183C36.9169 21.3172 36.805 21.5143 36.7778 21.7312Z" fill="white"/>
<path d="M36.7778 21.7312C36.7529 21.933 36.8088 22.1365 36.9333 22.2969C37.0578 22.4573 37.2407 22.5615 37.4417 22.5866C37.6427 22.6116 37.8453 22.5554 38.0051 22.4304C38.1649 22.3054 38.2686 22.1218 38.2936 21.92C38.3185 21.7182 38.2626 21.5147 38.1381 21.3543C38.0136 21.1939 37.8307 21.0897 37.6297 21.0647C37.4287 21.0396 37.226 21.0958 37.0662 21.2208C36.9065 21.3458 36.8027 21.5294 36.7778 21.7312ZM36.7778 21.7312C36.812 21.5036 36.9333 21.2984 37.116 21.1593C37.2986 21.0202 37.5281 20.9582 37.7557 20.9864C37.9832 21.0147 38.1907 21.131 38.3341 21.3106C38.4775 21.4902 38.5454 21.7189 38.5234 21.948C38.4891 22.1756 38.3678 22.3808 38.1852 22.5199C38.0025 22.659 37.773 22.721 37.5455 22.6928C37.318 22.6645 37.1104 22.5482 36.967 22.3686C36.8236 22.189 36.7557 21.9603 36.7778 21.7312Z" fill="#263238"/>
<path d="M33.6301 20.6987C33.6017 20.9314 33.6426 21.1673 33.7476 21.3767C33.8526 21.5861 34.0171 21.7596 34.2202 21.8752C34.4234 21.9908 34.6561 22.0434 34.8889 22.0263C35.1218 22.0092 35.3444 21.9232 35.5287 21.7792C35.7129 21.6352 35.8505 21.4396 35.9241 21.2171C35.9977 20.9946 36.004 20.7552 35.9422 20.5291C35.8804 20.303 35.7532 20.1004 35.5768 19.9468C35.4004 19.7933 35.1826 19.6956 34.9509 19.6663C34.6394 19.6274 34.3253 19.7143 34.0776 19.9079C33.8299 20.1015 33.669 20.386 33.6301 20.6987Z" fill="white"/>
<path d="M33.6301 20.6987C33.4954 22.1949 35.6379 22.449 35.8631 20.976C36.0024 19.4961 33.8645 19.2164 33.6301 20.6987ZM33.6301 20.6987C33.8784 19.0672 36.2438 19.3562 36.0929 21.0063C35.8353 22.6377 33.4769 22.3324 33.6301 20.6987Z" fill="#263238"/>
<path d="M25.1988 23.1751C31.2353 22.4974 35.5816 17.0348 34.9066 10.974C34.2317 4.91323 28.791 0.549359 22.7546 1.22704C16.7181 1.90473 12.3718 7.36735 13.0468 13.4281C13.7217 19.4889 19.1624 23.8528 25.1988 23.1751Z" fill="white"/>
<path d="M13.6791 8.33016C12.1216 12.4064 13.2706 17.3193 16.5018 20.2466C22.1725 25.5301 31.4831 23.3113 34.171 16.0258C36.9032 8.75899 31.3298 0.960771 23.5978 1.19383C19.2478 1.27074 15.1694 4.22362 13.6791 8.32317V8.33016ZM13.6791 8.33016C15.1578 4.20964 19.2362 1.25676 23.5955 1.12624C31.4761 0.813942 37.1422 8.68907 34.3892 16.1074C31.6363 23.5257 22.1958 25.7258 16.453 20.3025C13.2497 17.331 12.1007 12.4157 13.6675 8.33249L13.6791 8.33016Z" fill="#263238"/>
<path d="M18.2982 16.0748C18.6305 16.3631 19.0047 16.5989 19.4078 16.774C19.9165 17.5603 20.697 18.1298 21.599 18.3728C22.3966 18.611 23.2365 18.6707 24.0595 18.5476C25.3256 18.3207 26.5272 17.8197 27.5809 17.0793L27.683 17.0117C27.8919 16.8719 28.1008 16.7274 28.3074 16.5782C28.6325 16.3431 28.9426 16.0878 29.2359 15.8138C29.8043 15.3809 30.3187 14.8809 30.7679 14.3245C31.3951 13.5536 31.7181 12.5781 31.6755 11.5837C31.6265 10.4215 31.1721 9.3136 30.3919 8.45369C30.075 8.10495 29.7208 7.79231 29.3357 7.52145C29.1002 7.33217 28.852 7.1593 28.5929 7.00405C27.8376 6.54586 26.9973 6.24691 26.1231 6.12541C25.9119 6.09512 25.6983 6.07414 25.4871 6.06249L25.3896 6.02986C24.5598 5.79406 23.6898 5.73609 22.8363 5.85972C21.1268 6.08507 19.5466 6.894 18.3609 8.15071C17.7156 8.82867 17.1742 9.59921 16.7546 10.437C16.5138 10.8793 16.3663 11.3666 16.3211 11.8686C16.276 12.3706 16.3343 12.8766 16.4923 13.355C16.7607 14.1758 17.2097 14.9254 17.8061 15.5481C17.9549 15.7374 18.1195 15.9137 18.2982 16.0748ZM28.5117 15.8044C28.1564 16.0589 27.7867 16.2923 27.4045 16.5036L27.2745 16.2985C27.3534 16.2426 27.4323 16.1843 27.5066 16.1214C27.5778 16.0636 27.6452 16.0014 27.7085 15.9349C28.4037 15.4683 29.0224 14.8959 29.5423 14.2383C30.0381 13.5973 30.4493 12.8946 30.7656 12.1477C30.5249 13.4578 29.8421 14.6446 28.832 15.5084C28.7276 15.618 28.6138 15.7112 28.5001 15.8044H28.5117ZM20.3548 8.2789C20.5498 8.16004 20.7471 8.04584 20.9491 7.94096C20.5207 8.43976 20.1948 9.01878 19.9904 9.64463C19.723 10.4772 19.6601 11.3624 19.807 12.2246C19.6546 12.5908 19.5509 12.9756 19.4983 13.3689C19.4588 13.4272 19.4171 13.4831 19.3799 13.5461C19.2346 13.7939 19.1237 14.0605 19.0503 14.3385C19.0225 14.3012 18.9923 14.2686 18.9667 14.2289C18.7105 13.8162 18.5401 13.3556 18.4659 12.8749C18.3917 12.3943 18.4152 11.9035 18.535 11.4322C18.7304 10.5975 19.0964 9.81256 19.6097 9.12724C19.8328 8.82302 20.0821 8.53914 20.3548 8.2789ZM20.1691 15.6786C20.2898 15.742 20.4138 15.7988 20.5405 15.8487C20.5409 15.99 20.5525 16.1311 20.5754 16.2706C20.4195 16.0882 20.2834 15.8897 20.1691 15.6786ZM27.1329 16.3778C27.177 16.4407 27.2164 16.5059 27.2605 16.5689C26.7194 16.8615 26.1511 17.1004 25.5637 17.282C25.8964 17.1173 26.2222 16.9379 26.541 16.7437C26.7475 16.6271 26.9472 16.5106 27.1422 16.3824L27.1329 16.3778ZM26.1812 15.2428C24.8135 16.0628 23.2702 16.5423 21.6803 16.6411C21.469 16.6528 21.2555 16.6551 21.0373 16.6411C20.9496 16.4227 20.9054 16.1891 20.9073 15.9536C21.7386 16.1564 22.6062 16.1564 23.4375 15.9536C24.2761 15.7665 25.097 15.5069 25.891 15.1775C25.9444 15.1565 25.9583 15.0959 25.9514 15.0307L25.9908 15.0633C26.0605 15.1169 26.1231 15.1775 26.1904 15.2474L26.1812 15.2428ZM21.2532 15.6506C21.1572 15.6366 21.0597 15.618 20.9607 15.5947C21.0683 15.2615 21.3005 14.9833 21.6083 14.8186C22.2362 14.4088 22.9524 14.1555 23.6974 14.0798C24.4212 14.0698 25.124 14.3241 25.6751 14.7953C24.3126 15.343 22.885 15.8953 21.2625 15.6553L21.2532 15.6506ZM26.5085 15.5877C26.5967 15.6879 26.6849 15.7905 26.7684 15.8953C26.6709 15.9559 26.5711 16.0095 26.4713 16.0678C26.3251 16.1377 26.1788 16.203 26.028 16.2636C25.2475 16.57 24.4262 16.7585 23.5907 16.8229C24.4513 16.6163 25.2815 16.2982 26.0605 15.8767C26.216 15.7788 26.3669 15.6856 26.5177 15.5923L26.5085 15.5877ZM26.6686 15.4898C27.0744 15.2255 27.4621 14.9343 27.8292 14.6182C27.7828 14.8782 27.6655 15.1202 27.4903 15.3173C27.321 15.5073 27.1256 15.6721 26.91 15.8068C26.8427 15.7019 26.7615 15.597 26.6779 15.4945L26.6686 15.4898ZM23.8135 17.282L23.6951 17.3147C23.3299 17.393 22.9565 17.4267 22.5832 17.4149C22.4718 17.4149 22.3511 17.4149 22.2304 17.4032C22.1608 17.3799 22.0935 17.3566 22.0238 17.3287L21.8938 17.2681C22.5347 17.3365 23.1807 17.3428 23.8228 17.2867L23.8135 17.282ZM19.9463 15.1775C19.7881 14.7294 19.7233 14.2534 19.756 13.7791C19.893 13.5752 20.0543 13.3889 20.2365 13.2245C20.3942 13.377 20.5939 13.4785 20.8098 13.5158C21.2305 13.5901 21.657 13.626 22.0842 13.623C23.5599 13.6321 24.9989 13.1611 26.1858 12.2806C26.6159 12.4849 27.0016 12.7724 27.3209 13.1266C27.5624 13.3908 27.7347 13.7111 27.8223 14.0588C27.3704 14.4582 26.885 14.8176 26.3715 15.1332C26.2787 15.0307 26.1835 14.9328 26.086 14.8372C25.2991 14.0751 24.4611 13.6836 23.6696 13.6882C22.8783 13.7236 22.1084 13.9567 21.4296 14.3664C21.2167 14.4673 21.0297 14.6157 20.8829 14.8003C20.736 14.9849 20.6332 15.2008 20.5823 15.4315C20.581 15.4447 20.581 15.458 20.5823 15.4712C20.3608 15.3955 20.1477 15.2971 19.9463 15.1775ZM28.0707 9.08529C28.0739 9.28358 28.0309 9.4799 27.9453 9.65862C27.221 9.18154 26.3961 8.87995 25.5359 8.77765C24.7945 8.65456 24.0352 8.69817 23.3127 8.90532C22.5902 9.11248 21.9224 9.47801 21.3576 9.97558C20.8256 10.4594 20.3873 11.0378 20.0647 11.6816C20.0647 11.6466 20.0647 11.6117 20.0647 11.579C20.0538 11.1522 20.0999 10.7258 20.2016 10.3112C20.3602 9.66182 20.654 9.05355 21.0637 8.52649C21.4734 7.99943 21.9897 7.56554 22.5786 7.25343L22.6645 7.22546C23.9487 6.81849 25.3135 6.7384 26.6361 6.9924L26.7104 7.03668C27.2652 7.41191 28.0614 8.21364 28.0776 9.08063L28.0707 9.08529ZM20.1181 12.3481C20.3738 11.7365 20.7336 11.1743 21.1812 10.6864C21.6471 10.1792 22.215 9.77707 22.8472 9.50668C23.4795 9.23628 24.1617 9.10377 24.8488 9.11792C25.6117 9.13307 26.3651 9.29115 27.0702 9.58404C27.3195 9.68312 27.5588 9.80563 27.7851 9.94994C27.7132 10.0595 27.6366 10.162 27.5669 10.2576C27.331 10.5892 27.0686 10.9009 26.7824 11.1898C26.5714 11.402 26.3465 11.5998 26.1092 11.7818L26.0674 11.7632C24.3752 10.9964 22.8177 11.3483 21.4435 11.9333C20.999 12.1115 20.5793 12.3465 20.1947 12.6325C20.1634 12.5351 20.1401 12.4353 20.125 12.3342L20.1181 12.3481ZM20.8145 12.8143C21.447 12.4392 22.1326 12.1625 22.8479 11.9939C23.563 11.8104 24.3097 11.7881 25.0345 11.9286C25.2521 11.9737 25.4669 12.0321 25.6775 12.1034C24.8238 12.6737 23.8478 13.0331 22.8293 13.1522C22.4534 13.1963 22.0747 13.2111 21.6965 13.1965C21.4853 13.1965 21.2741 13.1708 21.0582 13.1429C20.8667 13.1364 20.6776 13.0978 20.4988 13.0287C20.6102 12.9308 20.7146 12.8585 20.8214 12.7933L20.8145 12.8143ZM29.0316 11.7632C29.1315 12.6278 28.6835 13.2291 28.2912 13.6276C28.2355 13.6859 28.1751 13.7395 28.1148 13.7954C27.82 13.033 27.2634 12.4015 26.5456 12.0149C27.1702 11.5044 27.6986 10.8855 28.1055 10.1877C28.3556 10.372 28.5669 10.6043 28.7271 10.8711C28.8873 11.1379 28.9932 11.434 29.0386 11.7422L29.0316 11.7632ZM19.5981 14.9235C19.5163 14.8562 19.4388 14.7838 19.366 14.7067C19.3973 14.5677 19.4392 14.4314 19.4913 14.2989C19.4913 14.3804 19.5053 14.462 19.5192 14.5459C19.5384 14.6732 19.5647 14.7992 19.5981 14.9235ZM30.8283 10.8705C30.769 11.0933 30.6913 11.3108 30.5962 11.5208C30.302 12.2721 29.9118 12.9819 29.4355 13.6323C29.0843 14.1122 28.6819 14.5522 28.2355 14.9444C28.2706 14.7244 28.2706 14.5002 28.2355 14.2802L28.254 14.2639C28.7322 13.8118 29.2568 13.2571 29.3381 12.3505C29.3746 11.862 29.28 11.3727 29.0641 10.9335C28.8681 10.5355 28.5914 10.183 28.2517 9.89867C28.4063 9.52098 28.4276 9.10158 28.3121 8.71006C28.1803 8.27014 27.9608 7.86176 27.6668 7.50979C27.5689 7.38819 27.4643 7.27225 27.3534 7.16253C28.0753 7.33223 28.7599 7.63403 29.3729 8.05283C29.83 8.37778 30.1975 8.81405 30.4406 9.32068C30.6528 9.78375 30.7816 10.2808 30.8213 10.789C30.826 10.8169 30.826 10.8426 30.8283 10.8705ZM20.3479 16.5759C20.0647 16.5051 19.787 16.414 19.5169 16.3032C19.3301 15.9143 19.2546 15.4811 19.2987 15.0516C19.4472 15.1946 19.608 15.324 19.7792 15.4385C19.9597 15.864 20.2074 16.2575 20.5127 16.6038L20.3479 16.5759ZM18.2472 15.5318C17.7859 15.092 17.4433 14.5419 17.2513 13.933C16.9639 13.0451 16.9926 12.0845 17.3326 11.2155C17.704 10.3392 18.3493 9.78913 18.976 9.2764L19.0758 9.19716C18.6946 9.80981 18.417 10.4815 18.2541 11.1852C18.0072 12.1709 18.1234 13.213 18.5814 14.1194C18.6933 14.3299 18.8255 14.529 18.976 14.7137C18.904 15.1887 18.9478 15.6741 19.1037 16.1284C18.7965 15.9657 18.5091 15.7678 18.2472 15.5387V15.5318ZM23.2518 6.24194C22.5589 6.40167 21.8944 6.66652 21.281 7.02736C20.9237 7.23972 20.5872 7.48553 20.2759 7.7615C19.8904 7.99264 19.5176 8.24472 19.1594 8.51662C17.9384 9.43022 16.4018 10.6468 16.7639 13.1918C16.7639 13.2734 16.7941 13.3573 16.8103 13.4389C16.7302 13.2172 16.6704 12.9886 16.6316 12.756C16.5567 12.2668 16.6062 11.7665 16.7755 11.3017C17.09 10.4772 17.5448 9.71389 18.1195 9.04567C19.1169 7.79017 20.4857 6.88513 22.0285 6.46102C22.4295 6.35549 22.8387 6.28454 23.2518 6.24893V6.24194ZM30.819 13.5111C30.7935 13.5531 30.7656 13.5927 30.7401 13.6323C31.0704 12.8203 31.2156 11.9443 31.1649 11.0686C31.1981 10.9077 31.2121 10.7434 31.2067 10.5792C31.2067 10.5442 31.2067 10.5093 31.195 10.4743C31.2229 10.5745 31.2484 10.6771 31.2693 10.782C31.4737 11.7183 31.3125 12.6976 30.819 13.5181V13.5111ZM20.5754 17.4568C20.3537 17.3163 20.1502 17.1488 19.9695 16.9581C20.2449 17.0316 20.526 17.0815 20.8098 17.1072L20.8702 17.1212H20.8841C21.0988 17.4879 21.4451 17.7581 21.852 17.8763C22.2757 17.9884 22.7151 18.0286 23.1519 17.9952C23.3198 18.0163 23.4888 18.0272 23.658 18.0278C23.8565 18.0284 24.0548 18.0183 24.2522 17.9975C23.8078 18.0935 23.3533 18.1342 22.8989 18.1187C22.0787 18.1152 21.2752 17.8863 20.5754 17.4568Z" fill="#263238"/>
</svg>
