<svg width="32" height="32" viewBox="0 0 32 32" fill="none" xmlns="http://www.w3.org/2000/svg">
<rect width="32" height="32" rx="4" fill="#FFCDD2"/>
<path d="M22.4444 16L18.8889 12.4444M22.4444 16L18.8889 19.5556M22.4444 16H13.5556M18 24C16.9494 24 15.9091 23.7931 14.9385 23.391C13.9679 22.989 13.086 22.3997 12.3431 21.6569C11.6003 20.914 11.011 20.0321 10.609 19.0615C10.2069 18.0909 10 17.0506 10 16C10 14.9494 10.2069 13.9091 10.609 12.9385C11.011 11.9679 11.6003 11.086 12.3431 10.3431C13.086 9.60028 13.9679 9.011 14.9385 8.60896C15.9091 8.20693 16.9494 8 18 8" stroke="#EF5350" stroke-width="2" stroke-linecap="round" stroke-linejoin="round"/>
</svg>
