<svg width="32" height="32" viewBox="0 0 32 32" fill="none" xmlns="http://www.w3.org/2000/svg">
<rect width="32" height="32" rx="4" fill="#DA7B23" fill-opacity="0.15"/>
<path d="M22.8667 7.46667H8.86667C8.07102 7.46667 7.30796 7.78275 6.74535 8.34535C6.18274 8.90796 5.86667 9.67103 5.86667 10.4667V20.4667C5.86667 21.2623 6.18274 22.0254 6.74535 22.588C7.30796 23.1506 8.07102 23.4667 8.86667 23.4667H22.8667C23.6623 23.4667 24.4254 23.1506 24.988 22.588C25.5506 22.0254 25.8667 21.2623 25.8667 20.4667V10.4667C25.8667 9.67103 25.5506 8.90796 24.988 8.34535C24.4254 7.78275 23.6623 7.46667 22.8667 7.46667ZM22.4567 9.46667L16.5767 15.3467C16.4837 15.4404 16.3731 15.5148 16.2512 15.5656C16.1294 15.6163 15.9987 15.6425 15.8667 15.6425C15.7347 15.6425 15.604 15.6163 15.4821 15.5656C15.3602 15.5148 15.2496 15.4404 15.1567 15.3467L9.27667 9.46667H22.4567ZM23.8667 20.4667C23.8667 20.7319 23.7613 20.9862 23.5738 21.1738C23.3862 21.3613 23.1319 21.4667 22.8667 21.4667H8.86667C8.60145 21.4667 8.3471 21.3613 8.15956 21.1738C7.97203 20.9862 7.86667 20.7319 7.86667 20.4667V10.8767L13.7467 16.7567C14.3092 17.3185 15.0717 17.634 15.8667 17.634C16.6617 17.634 17.4242 17.3185 17.9867 16.7567L23.8667 10.8767V20.4667Z" fill="#DA7B23" fill-opacity="0.68"/>
</svg>
