<svg width="16" height="20" viewBox="0 0 16 20" fill="none" xmlns="http://www.w3.org/2000/svg">
<path d="M10 14C9.72386 14 9.5 14.2239 9.5 14.5C9.5 14.7761 9.72386 15 10 15V14ZM15 15C15.2761 15 15.5 14.7761 15.5 14.5C15.5 14.2239 15.2761 14 15 14V15ZM13 12C13 11.7239 12.7761 11.5 12.5 11.5C12.2239 11.5 12 11.7239 12 12H13ZM12 17C12 17.2761 12.2239 17.5 12.5 17.5C12.7761 17.5 13 17.2761 13 17H12ZM15.5 8C15.5 7.72386 15.2761 7.5 15 7.5C14.7239 7.5 14.5 7.72386 14.5 8H15.5ZM8 15H8.5C8.5 14.7239 8.27614 14.5 8 14.5V15ZM1.5 8C1.5 7.72386 1.27614 7.5 1 7.5C0.723858 7.5 0.5 7.72386 0.5 8H1.5ZM7.5 19C7.5 19.2761 7.72386 19.5 8 19.5C8.27614 19.5 8.5 19.2761 8.5 19H7.5ZM5 18.5C4.72386 18.5 4.5 18.7239 4.5 19C4.5 19.2761 4.72386 19.5 5 19.5V18.5ZM11 19.5C11.2761 19.5 11.5 19.2761 11.5 19C11.5 18.7239 11.2761 18.5 11 18.5V19.5ZM13.9458 10.6263C13.8342 10.8789 13.9485 11.1742 14.2011 11.2857C14.4537 11.3973 14.7489 11.283 14.8605 11.0304L13.9458 10.6263ZM10 15H12.5V14H10V15ZM12.5 15H15V14H12.5V15ZM12 12V14.5H13V12H12ZM12 14.5V17H13V14.5H12ZM8 14.5C6.2761 14.5 4.62281 13.8151 3.40382 12.5962L2.69671 13.3033C4.10323 14.7098 6.01087 15.5 8 15.5V14.5ZM3.40382 12.5962C2.18483 11.3772 1.5 9.7239 1.5 8H0.5C0.5 9.98913 1.29019 11.8967 2.69671 13.3033L3.40382 12.5962ZM7.5 15V19H8.5V15H7.5ZM5 19.5H11V18.5H5V19.5ZM12.5 5C12.5 3.80652 12.0259 2.66199 11.182 1.81808L10.4749 2.52518C11.1313 3.18157 11.5 4.07175 11.5 5H12.5ZM11.182 1.81808C10.3381 0.974177 9.19349 0.5 8 0.5V1.5C8.92824 1.5 9.81849 1.86879 10.4749 2.52518L11.182 1.81808ZM8 0.5C6.80651 0.5 5.66192 0.974177 4.81802 1.81808L5.52512 2.52518C6.18151 1.86879 7.07176 1.5 8 1.5V0.5ZM4.81802 1.81808C3.97411 2.66199 3.5 3.80652 3.5 5H4.5C4.5 4.07175 4.86874 3.18157 5.52512 2.52518L4.81802 1.81808ZM3.5 5V8H4.5V5H3.5ZM3.5 8C3.5 9.19348 3.97411 10.338 4.81802 11.1819L5.52512 10.4748C4.86874 9.81843 4.5 8.92825 4.5 8H3.5ZM4.81802 11.1819C5.66192 12.0258 6.80651 12.5 8 12.5V11.5C7.07176 11.5 6.18151 11.1312 5.52512 10.4748L4.81802 11.1819ZM8 12.5C9.19349 12.5 10.3381 12.0258 11.182 11.1819L10.4749 10.4748C9.81849 11.1312 8.92824 11.5 8 11.5V12.5ZM11.182 11.1819C12.0259 10.338 12.5 9.19348 12.5 8H11.5C11.5 8.92825 11.1313 9.81843 10.4749 10.4748L11.182 11.1819ZM12.5 8V5H11.5V8H12.5ZM14.5 8C14.5 8.9133 14.3078 9.80674 13.9458 10.6263L14.8605 11.0304C15.2782 10.0848 15.5 9.05381 15.5 8H14.5Z" fill="#C93A52"/>
</svg>
