<svg width="16" height="18" viewBox="0 0 16 18" fill="none" xmlns="http://www.w3.org/2000/svg">
<path d="M14 3C14 4.10457 13.1046 5 12 5C10.8954 5 10 4.10457 10 3C10 1.89543 10.8954 1 12 1C13.1046 1 14 1.89543 14 3Z" fill="#E91818"/>
<path d="M14.304 9.40497L14.9045 8.9556L14.9045 8.9556L14.304 9.40497ZM8 1.75C8.41422 1.75 8.75 1.41421 8.75 1C8.75 0.585786 8.41422 0.25 8 0.25V1.75ZM1.69602 9.40497L2.29649 9.85434L2.29649 9.85434L1.69602 9.40497ZM13.988 7.25266C13.8514 6.86162 13.4236 6.65535 13.0326 6.79196C12.6415 6.92856 12.4353 7.3563 12.5719 7.74734L13.988 7.25266ZM10.75 15C10.75 14.5858 10.4142 14.25 10 14.25C9.58579 14.25 9.25 14.5858 9.25 15H10.75ZM6.75 15C6.75 14.5858 6.41421 14.25 6 14.25C5.58579 14.25 5.25 14.5858 5.25 15H6.75ZM4.5 14.25C2.98122 14.25 1.75 13.0188 1.75 11.5H0.25C0.25 13.8472 2.15279 15.75 4.5 15.75V14.25ZM11.5 14.25H4.5V15.75H11.5V14.25ZM14.25 11.5C14.25 13.0188 13.0188 14.25 11.5 14.25V15.75C13.8472 15.75 15.75 13.8472 15.75 11.5H14.25ZM13.7035 9.85434C14.0469 10.3132 14.25 10.8818 14.25 11.5H15.75C15.75 10.5468 15.4353 9.66496 14.9045 8.9556L13.7035 9.85434ZM3.75 6C3.75 3.65279 5.65279 1.75 8 1.75V0.25C4.82436 0.25 2.25 2.82436 2.25 6H3.75ZM1.75 11.5C1.75 10.8818 1.95309 10.3132 2.29649 9.85434L1.09555 8.95559C0.564688 9.66495 0.25 10.5468 0.25 11.5H1.75ZM2.25 6C2.25 6.94605 1.74309 8.09032 1.09555 8.95559L2.29649 9.85434C3.04971 8.84785 3.75 7.39182 3.75 6H2.25ZM14.9045 8.9556C14.5377 8.4655 14.202 7.86532 13.988 7.25266L12.5719 7.74734C12.8422 8.52111 13.2557 9.2559 13.7035 9.85434L14.9045 8.9556ZM9.25 15C9.25 15.6904 8.69036 16.25 8 16.25V17.75C9.51878 17.75 10.75 16.5188 10.75 15H9.25ZM8 16.25C7.30965 16.25 6.75 15.6904 6.75 15H5.25C5.25 16.5188 6.48122 17.75 8 17.75V16.25ZM13.25 3C13.25 3.69035 12.6904 4.25 12 4.25V5.75C13.5188 5.75 14.75 4.51878 14.75 3H13.25ZM12 4.25C11.3096 4.25 10.75 3.69035 10.75 3H9.25C9.25 4.51878 10.4812 5.75 12 5.75V4.25ZM10.75 3C10.75 2.30964 11.3096 1.75 12 1.75V0.25C10.4812 0.25 9.25 1.48122 9.25 3H10.75ZM12 1.75C12.6904 1.75 13.25 2.30964 13.25 3H14.75C14.75 1.48122 13.5188 0.25 12 0.25V1.75Z" fill="#FDFDFD"/>
</svg>
