<svg width="131" height="97" viewBox="0 0 131 97" fill="none" xmlns="http://www.w3.org/2000/svg">
<path d="M117.086 89.6127H108.539V89.6772H117.086V89.6127Z" fill="#EBEBEB"/>
<path d="M86.4594 90.3146H84.2169V90.3791H86.4594V90.3146Z" fill="#EBEBEB"/>
<path d="M108.281 87.2179H103.329V87.2824H108.281V87.2179Z" fill="#EBEBEB"/>
<path d="M25.6688 87.6515H14.5233V87.716H25.6688V87.6515Z" fill="#EBEBEB"/>
<path d="M29.6016 87.6515H27.9681V87.716H29.6016V87.6515Z" fill="#EBEBEB"/>
<path d="M59.0873 88.7405H34.9125V88.805H59.0873V88.7405Z" fill="#EBEBEB"/>
<path d="M62.5066 73.9512H12.6757C12.2849 73.9512 11.9101 73.7959 11.6337 73.5196C11.3574 73.2433 11.2021 72.8685 11.2021 72.4777V2.43311C11.2056 2.04455 11.3623 1.67306 11.6383 1.39951C11.9142 1.12596 12.2871 0.972489 12.6757 0.972504H62.5066C62.7001 0.972504 62.8917 1.01062 63.0705 1.08467C63.2492 1.15872 63.4117 1.26726 63.5485 1.40408C63.6853 1.54091 63.7939 1.70335 63.8679 1.88213C63.942 2.0609 63.9801 2.25251 63.9801 2.44601V72.4777C63.9801 72.6712 63.942 72.8628 63.8679 73.0416C63.7939 73.2203 63.6853 73.3828 63.5485 73.5196C63.4117 73.6564 63.2492 73.765 63.0705 73.839C62.8917 73.9131 62.7001 73.9512 62.5066 73.9512ZM12.6757 1.02412C12.3022 1.0248 11.9442 1.17346 11.6801 1.43755C11.416 1.70164 11.2673 2.05963 11.2667 2.43311V72.4777C11.2673 72.8512 11.416 73.2091 11.6801 73.4732C11.9442 73.7373 12.3022 73.886 12.6757 73.8867H62.5066C62.8801 73.886 63.238 73.7373 63.5021 73.4732C63.7662 73.2091 63.9149 72.8512 63.9156 72.4777V2.43311C63.9149 2.05963 63.7662 1.70164 63.5021 1.43755C63.238 1.17346 62.8801 1.0248 62.5066 1.02412H12.6757Z" fill="#EBEBEB"/>
<path d="M118.324 73.9512H68.4935C68.1027 73.9512 67.7279 73.7959 67.4516 73.5196C67.1753 73.2433 67.02 72.8685 67.02 72.4777V2.43311C67.0234 2.04455 67.1802 1.67306 67.4561 1.39951C67.7321 1.12596 68.105 0.972489 68.4935 0.972504H118.324C118.715 0.972504 119.09 1.12775 119.366 1.40408C119.643 1.68042 119.798 2.05521 119.798 2.44601V72.4777C119.798 72.8685 119.643 73.2433 119.366 73.5196C119.09 73.7959 118.715 73.9512 118.324 73.9512ZM68.4935 1.02412C68.1201 1.0248 67.7621 1.17346 67.498 1.43755C67.2339 1.70164 67.0852 2.05963 67.0845 2.43311V72.4777C67.0852 72.8512 67.2339 73.2091 67.498 73.4732C67.7621 73.7373 68.1201 73.886 68.4935 73.8867H118.324C118.698 73.886 119.056 73.7373 119.32 73.4732C119.584 73.2091 119.733 72.8512 119.733 72.4777V2.43311C119.733 2.05963 119.584 1.70164 119.32 1.43755C119.056 1.17346 118.698 1.0248 118.324 1.02412H68.4935Z" fill="#EBEBEB"/>
<path d="M130.014 85.4605H0.985596V85.5251H130.014V85.4605Z" fill="#EBEBEB"/>
<path d="M26.5024 85.5251C26.4446 85.5198 26.3912 85.4919 26.354 85.4474C26.3168 85.4029 26.2987 85.3455 26.3037 85.2877L30.6907 32.5691H31.1294V33.0052H31.0932L26.7398 85.3238C26.7345 85.3818 26.7067 85.4354 26.6623 85.473C26.6179 85.5107 26.5604 85.5294 26.5024 85.5251Z" fill="#E0E0E0"/>
<path d="M46.0554 85.5251C46.1134 85.5198 46.167 85.492 46.2046 85.4476C46.2423 85.4031 46.261 85.3457 46.2567 85.2877L41.8568 32.5691H41.4181V33.0052H41.4542L44.2671 66.7178H30.1126L27.2611 32.5691H26.825V33.0052H26.8611L31.2274 85.3238C31.232 85.3815 31.2593 85.4351 31.3033 85.4729C31.3473 85.5106 31.4045 85.5293 31.4622 85.5251C31.5202 85.5198 31.5738 85.492 31.6115 85.4476C31.6491 85.4031 31.6678 85.3457 31.6635 85.2877L30.1462 67.1565H44.3006L45.818 85.3238C45.8232 85.3818 45.8511 85.4354 45.8955 85.473C45.9399 85.5107 45.9973 85.5294 46.0554 85.5251Z" fill="#E0E0E0"/>
<path d="M47.0669 59.7555H26.1616L23.5243 28.1305H44.4295L47.0669 59.7555Z" fill="#EBEBEB"/>
<path d="M46.1173 58.8806L43.6245 29.0053H24.474L26.9668 58.8806H46.1173Z" fill="#FAFAFA"/>
<path d="M47.2193 60.4496H26.2985C26.1149 60.4489 25.939 60.3755 25.8093 60.2454C25.6797 60.1153 25.6069 59.9391 25.6069 59.7554C25.6069 59.5718 25.6797 59.3956 25.8093 59.2655C25.939 59.1354 26.1149 59.0619 26.2985 59.0612H47.2193C47.4029 59.0619 47.5788 59.1354 47.7084 59.2655C47.8381 59.3956 47.9109 59.5718 47.9109 59.7554C47.9109 59.9391 47.8381 60.1153 47.7084 60.2454C47.5788 60.3755 47.4029 60.4489 47.2193 60.4496Z" fill="#E6E6E6"/>
<path d="M88.5032 77.8737C88.2116 74.3641 87.0039 72.2893 86.0388 71.1642C85.4895 70.4814 84.7936 69.9311 84.0027 69.5539L84.0956 69.3113C84.1369 69.3268 88.1884 70.968 88.7613 77.8504L88.5032 77.8737Z" fill="#E6E6E6"/>
<path d="M89.4709 77.1872H89.2129C89.347 65.7088 81.4143 62.287 81.3344 62.2534L81.4324 62.0135C81.515 62.047 89.6051 65.5359 89.4709 77.1872Z" fill="#E6E6E6"/>
<path d="M90.227 77.1846C90.209 72.8493 91.2412 69.959 93.2979 68.6197C95.9146 66.9062 99.2874 68.3617 99.321 68.3771L99.2178 68.6146C99.1842 68.5991 95.9353 67.2004 93.4399 68.8365C91.4606 70.1268 90.467 72.9422 90.4851 77.1846H90.227Z" fill="#E6E6E6"/>
<path d="M89.8477 79.0943C89.0735 72.6222 89.2128 65.3476 89.2154 65.2753H89.4735C89.4735 65.3476 89.3367 72.6041 90.1057 79.0582L89.8477 79.0943Z" fill="#E6E6E6"/>
<path d="M91.2644 77.1872H91.0063C91.218 66.0365 92.694 59.6393 95.272 58.7129C96.7455 58.1787 97.9894 59.5851 98.041 59.647L97.8449 59.8148C97.8449 59.8019 96.6656 58.4806 95.3572 58.9554C93.6282 59.5748 91.5302 63.2469 91.2644 77.1872Z" fill="#E6E6E6"/>
<path d="M99.9197 67.6933C99.9197 67.6933 103.246 62.305 105.744 67.2081C107.77 71.1874 104.428 74.5395 104.428 74.5395C104.428 74.5395 90.1032 72.3254 93.6282 67.3423C95.814 64.274 99.9197 67.6933 99.9197 67.6933Z" fill="#F0F0F0"/>
<path d="M100.338 68.0675C100.338 68.0675 104.655 68.1759 104.622 68.5062C104.588 68.8365 100.854 68.3075 101.112 68.8416C101.37 69.3758 104.877 70.4029 104.833 70.8493C104.789 71.2958 101.602 69.6158 101.682 70.0287C101.762 70.4416 103.698 72.6712 103.646 73.1641C103.594 73.657 101.894 70.7281 101.582 70.9655C101.269 71.2029 100.725 73.4789 100.604 72.9112C100.482 72.3435 101.164 70.0726 100.725 69.5307C100.286 68.9887 96.7043 71.3242 96.0798 70.808C95.4553 70.2919 99.8397 69.3836 100.338 68.0675Z" fill="#E0E0E0"/>
<path d="M98.0953 67.8894C98.0953 67.8894 94.5909 67.3036 94.3148 68.2223C94.0386 69.141 94.9857 68.292 98.0953 67.8894Z" fill="#E0E0E0"/>
<path d="M79.5874 61.7502C79.5874 61.7502 76.8287 56.0497 73.843 60.6741C71.4224 64.4237 74.403 68.101 74.403 68.101C74.403 68.101 88.8775 67.3604 85.8711 62.0418C84.0208 58.7774 79.5874 61.7502 79.5874 61.7502Z" fill="#F0F0F0"/>
<path d="M79.1357 62.0676C79.1357 62.0676 74.8313 61.7321 74.8313 62.0676C74.8313 62.4031 78.6016 62.2663 78.2867 62.7592C77.9719 63.2521 74.3823 63.9256 74.3823 64.3747C74.3823 64.8237 77.7216 63.4766 77.6003 63.8818C77.479 64.2869 75.3242 66.3049 75.3242 66.7978C75.3242 67.2907 77.3164 64.5553 77.6003 64.8237C77.8842 65.0921 78.1964 67.4042 78.3745 66.8572C78.5525 66.3101 78.1164 63.9798 78.599 63.4818C79.0816 62.9837 82.4131 65.6778 83.0866 65.2288C83.7601 64.7798 79.4944 63.4379 79.1357 62.0676Z" fill="#E0E0E0"/>
<path d="M81.3834 62.1322C81.3834 62.1322 84.9291 61.9077 85.1072 62.8496C85.2853 63.7915 84.4337 62.8496 81.3834 62.1322Z" fill="#E0E0E0"/>
<path d="M97.352 58.6871C97.352 58.6871 99.0062 55.2652 100.797 58.0394C102.25 60.2896 100.462 62.496 100.462 62.496C100.462 62.496 91.778 62.0522 93.5818 58.86C94.6915 56.8962 97.352 58.6871 97.352 58.6871Z" fill="#F0F0F0"/>
<path d="M97.6204 58.8755C97.6204 58.8755 100.201 58.6767 100.201 58.8755C100.201 59.0742 97.9404 58.9942 98.1365 59.2909C98.3326 59.5877 100.48 59.9903 100.48 60.2612C100.48 60.5322 98.4745 59.7219 98.5494 59.9645C98.6242 60.207 99.9145 61.4173 99.9145 61.7141C99.9145 62.0109 98.7171 60.3696 98.5494 60.5296C98.3816 60.6896 98.1907 62.0779 98.0823 61.7502C97.9739 61.4225 98.2449 60.0238 97.9481 59.7245C97.6513 59.4251 95.6591 61.0406 95.2566 60.7722C94.854 60.5038 97.4088 59.6987 97.6204 58.8755Z" fill="#E0E0E0"/>
<path d="M96.2734 58.9142C96.2734 58.9142 94.147 58.78 94.0386 59.3451C93.9303 59.9103 94.4438 59.3451 96.2734 58.9142Z" fill="#E0E0E0"/>
<path d="M92.5677 73.2802C92.5677 73.2802 93.636 71.0738 94.7921 72.8648C95.7289 74.315 94.5754 75.7395 94.5754 75.7395C94.5754 75.7395 88.9729 75.4531 90.1368 73.3938C90.8516 72.1267 92.5677 73.2802 92.5677 73.2802Z" fill="#F0F0F0"/>
<path d="M92.7432 73.4041C92.7432 73.4041 94.4102 73.2751 94.4102 73.4041C94.4102 73.5331 92.9496 73.4789 93.0709 73.6622C93.1922 73.8454 94.5831 74.1138 94.5831 74.2867C94.5831 74.4596 93.2928 73.9383 93.3367 74.0957C93.3806 74.2531 94.2193 75.0325 94.2193 75.2234C94.2193 75.4144 93.4451 74.3563 93.3367 74.4492C93.2283 74.5421 93.107 75.4505 93.0374 75.2363C92.9677 75.0221 93.1406 74.1241 92.9496 73.9305C92.7587 73.737 91.4735 74.7795 91.2129 74.6067C90.9523 74.4338 92.5961 73.9331 92.7432 73.4041Z" fill="#E0E0E0"/>
<path d="M91.8735 73.4273C91.8735 73.4273 90.5006 73.3422 90.4309 73.706C90.3613 74.0699 90.6916 73.706 91.8735 73.4273Z" fill="#E0E0E0"/>
<path d="M83.0221 69.8455C83.0221 69.8455 79.7603 67.8997 79.7886 71.2003C79.8119 73.8789 82.5189 74.7383 82.5189 74.7383C82.5189 74.7383 89.5277 69.5952 86.2685 67.9204C84.2634 66.8907 83.0221 69.8455 83.0221 69.8455Z" fill="#F0F0F0"/>
<path d="M82.9008 70.1526C82.9008 70.1526 80.6325 71.4067 80.7434 71.5719C80.8544 71.737 82.6969 70.4287 82.7021 70.7797C82.7073 71.1306 81.1305 72.6532 81.2776 72.8777C81.4247 73.1022 82.6582 71.3293 82.7279 71.5693C82.7976 71.8093 82.3873 73.5331 82.5498 73.7809C82.7124 74.0286 82.8079 72.0003 83.0402 72.0416C83.2724 72.0828 84.1911 73.1435 84.0982 72.8157C84.0053 72.488 83.0169 71.4635 83.0995 71.0506C83.1821 70.6377 85.7343 70.8932 85.9227 70.4468C86.111 70.0003 83.533 70.7229 82.9008 70.1526Z" fill="#E0E0E0"/>
<path d="M84.0492 69.4455C84.0492 69.4455 85.7524 68.1552 86.1524 68.5784C86.5524 69.0017 85.8143 68.8004 84.0492 69.4455Z" fill="#E0E0E0"/>
<path d="M90.756 63.3321C90.756 63.3321 93.734 61.5541 93.7082 64.5682C93.6875 67.012 91.2179 67.7965 91.2179 67.7965C91.2179 67.7965 84.8181 63.105 87.7935 61.5747C89.6257 60.6354 90.756 63.3321 90.756 63.3321Z" fill="#F0F0F0"/>
<path d="M90.8671 63.6134C90.8671 63.6134 92.9316 64.7566 92.8361 64.9037C92.7406 65.0508 91.0529 63.8715 91.0477 64.1811C91.0426 64.4908 92.4825 65.8895 92.338 66.0959C92.1935 66.3024 91.0787 64.6792 91.0142 64.9011C90.9497 65.123 91.3264 66.6946 91.1768 66.9191C91.0271 67.1436 90.9393 65.2934 90.7303 65.3321C90.5213 65.3708 89.6774 66.3359 89.7626 66.0288C89.8478 65.7217 90.751 64.7927 90.6761 64.416C90.6013 64.0392 88.271 64.274 88.0956 63.8663C87.9201 63.4586 90.2916 64.1347 90.8671 63.6134Z" fill="#E0E0E0"/>
<path d="M89.8193 62.9657C89.8193 62.9657 88.271 61.7967 87.8993 62.1734C87.5277 62.5502 88.209 62.3902 89.8193 62.9657Z" fill="#E0E0E0"/>
<path d="M83.066 76.7124L85.2931 85.4915H95.1251L97.3495 76.7124H83.066Z" fill="#E6E6E6"/>
<path d="M65.5 96.9725C93.1334 96.9725 115.535 95.6646 115.535 94.0513C115.535 92.438 93.1334 91.1301 65.5 91.1301C37.8665 91.1301 15.4652 92.438 15.4652 94.0513C15.4652 95.6646 37.8665 96.9725 65.5 96.9725Z" fill="#F5F5F5"/>
<path d="M94.7637 55.2988V55.0407C95.2721 55.0408 95.7799 55.0064 96.2837 54.9375L96.3172 55.1955C95.8023 55.2645 95.2833 55.299 94.7637 55.2988ZM93.7315 55.2497C93.2095 55.2033 92.6919 55.117 92.1831 54.9917L92.2476 54.7336C92.7394 54.857 93.2397 54.9432 93.7444 54.9917L93.7315 55.2497ZM97.3443 55.0123L97.2875 54.7543C97.7842 54.6431 98.2737 54.5018 98.7533 54.331L98.8384 54.5736C98.3486 54.7518 97.8478 54.8983 97.3391 55.0123H97.3443ZM91.1999 54.6768C90.7111 54.4947 90.2403 54.2675 89.7935 53.9982L89.9277 53.7788C90.3612 54.0387 90.8172 54.2589 91.2903 54.4369L91.1999 54.6768ZM99.801 54.1943L99.6952 53.9594C100.158 53.7481 100.607 53.5085 101.04 53.242L101.174 53.4614C100.731 53.7348 100.27 53.9796 99.7958 54.1943H99.801ZM88.9368 53.4046C88.7159 53.2306 88.5048 53.0445 88.3045 52.8472C88.1342 52.6795 87.9665 52.504 87.8065 52.3311L87.9974 52.1556C88.1549 52.3285 88.3174 52.4988 88.4852 52.6717C88.6792 52.8632 88.8833 53.0441 89.0968 53.2137L88.9368 53.4046ZM102.031 52.873L101.876 52.6666C102.281 52.3618 102.663 52.0271 103.019 51.6653L103.04 51.6447L103.223 51.8279L103.202 51.846C102.836 52.2172 102.443 52.5605 102.025 52.873H102.031ZM87.1433 51.5337C86.8285 51.1231 86.5415 50.6921 86.2839 50.2434L86.5084 50.117C86.7593 50.5585 87.0395 50.9826 87.3471 51.3866L87.1433 51.5337ZM103.917 51.046L103.713 50.886C104.027 50.4889 104.303 50.0639 104.539 49.6163L104.769 49.735C104.52 50.1937 104.231 50.629 103.904 51.0357L103.917 51.046ZM85.8246 49.3067C85.6142 48.8307 85.4416 48.3389 85.3085 47.8357L85.5665 47.7686C85.7018 48.2585 85.8743 48.7373 86.0827 49.2009L85.8246 49.3067ZM105.192 48.7906L104.949 48.7002C105.125 48.2268 105.251 47.7364 105.326 47.237L105.584 47.2758C105.5 47.7906 105.365 48.2955 105.179 48.7828L105.192 48.7906ZM85.0917 46.8242C85.0271 46.3928 84.9943 45.9572 84.9937 45.521C84.9937 45.4358 84.9937 45.3506 84.9937 45.2629H85.2517C85.2517 45.3455 85.2517 45.4281 85.2517 45.521C85.2528 45.9442 85.2847 46.3668 85.3472 46.7854L85.0917 46.8242ZM105.669 46.2358H105.411V46.099C105.411 45.6388 105.371 45.1795 105.292 44.7262L105.551 44.6823C105.63 45.1503 105.671 45.6242 105.672 46.099L105.669 46.2358ZM85.3498 44.2668L85.0917 44.2281C85.1717 43.7121 85.3005 43.2049 85.4762 42.7133L85.7188 42.801C85.5458 43.2739 85.4179 43.7621 85.3369 44.2591L85.3498 44.2668ZM105.065 43.7352C104.922 43.249 104.742 42.7745 104.526 42.3159L104.758 42.2075C104.982 42.677 105.167 43.1638 105.313 43.663L105.065 43.7352ZM86.1214 41.872L85.8865 41.7456C86.1234 41.2809 86.4006 40.8379 86.7149 40.4217L86.9188 40.5766C86.6117 40.9814 86.3406 41.4123 86.1085 41.8643L86.1214 41.872ZM104.051 41.4204C103.792 40.9838 103.505 40.5641 103.192 40.1637L103.393 40.0037C103.714 40.4146 104.008 40.8455 104.273 41.294L104.051 41.4204ZM87.5794 39.8127L87.391 39.6373C87.44 39.5831 87.4917 39.5315 87.5433 39.4773C87.8571 39.1598 88.1907 38.8625 88.5419 38.587L88.6994 38.7882C88.3579 39.0583 88.033 39.3487 87.7265 39.6579L87.5794 39.8127ZM102.534 39.3869C102.376 39.2166 102.214 39.0463 102.046 38.8708C101.851 38.6792 101.647 38.4975 101.434 38.3263L101.594 38.125C101.815 38.3007 102.026 38.4876 102.227 38.685C102.397 38.8528 102.565 39.0257 102.722 39.2011L102.534 39.3869ZM89.5277 38.2025L89.3884 37.9857C89.8259 37.7055 90.282 37.4555 90.7535 37.2373L90.8619 37.4722C90.397 37.6823 89.947 37.9237 89.5148 38.1947L89.5277 38.2025ZM100.596 37.7483C100.164 37.4838 99.7112 37.2567 99.241 37.0696L99.3339 36.8296C99.8193 37.0204 100.287 37.2545 100.73 37.5289L100.596 37.7483ZM91.7883 37.0773L91.7031 36.8347C92.1926 36.6607 92.6925 36.5176 93.1999 36.4064L93.2541 36.6644C92.7572 36.7709 92.2677 36.9088 91.7883 37.0773ZM98.2733 36.7522C97.7842 36.619 97.2855 36.5241 96.7817 36.4683L96.8101 36.2103C97.327 36.2662 97.8387 36.3629 98.3404 36.4993L98.2733 36.7522ZM94.2502 36.4941L94.2166 36.2361C94.6807 36.1787 95.1477 36.1494 95.6153 36.1483H95.7727V36.4064H95.6205C95.1642 36.4057 94.7082 36.4333 94.2553 36.489L94.2502 36.4941Z" fill="#407BFF"/>
<path d="M86.2917 41.2836C85.8391 41.0232 85.4022 40.7362 84.9833 40.4243L85.1356 40.2153C85.5482 40.5217 85.9791 40.8026 86.4259 41.0565L86.2917 41.2836ZM84.1627 39.7843C83.7627 39.454 83.3731 39.1031 83.004 38.7392L83.1847 38.556C83.5485 38.9121 83.933 39.2605 84.3253 39.5882L84.1627 39.7843ZM82.2815 37.9779C81.9512 37.6141 81.6363 37.2347 81.3447 36.8528L81.5486 36.6954C81.8376 37.0721 82.1473 37.4463 82.4724 37.805L82.2815 37.9779Z" fill="#407BFF"/>
<g opacity="0.3">
<path d="M94.7637 55.2988V55.0407C95.2721 55.0408 95.7799 55.0064 96.2837 54.9375L96.3172 55.1955C95.8023 55.2645 95.2833 55.299 94.7637 55.2988ZM93.7315 55.2497C93.2095 55.2033 92.6919 55.117 92.1831 54.9917L92.2476 54.7336C92.7394 54.857 93.2397 54.9432 93.7444 54.9917L93.7315 55.2497ZM97.3443 55.0123L97.2875 54.7543C97.7842 54.6431 98.2737 54.5018 98.7533 54.331L98.8384 54.5736C98.3486 54.7518 97.8478 54.8983 97.3391 55.0123H97.3443ZM91.1999 54.6768C90.7111 54.4947 90.2403 54.2675 89.7935 53.9982L89.9277 53.7788C90.3612 54.0387 90.8172 54.2589 91.2903 54.4369L91.1999 54.6768ZM99.801 54.1943L99.6952 53.9594C100.158 53.7481 100.607 53.5085 101.04 53.242L101.174 53.4614C100.731 53.7348 100.27 53.9796 99.7958 54.1943H99.801ZM88.9368 53.4046C88.7159 53.2306 88.5048 53.0445 88.3045 52.8472C88.1342 52.6795 87.9665 52.504 87.8065 52.3311L87.9974 52.1556C88.1549 52.3285 88.3174 52.4988 88.4852 52.6717C88.6792 52.8632 88.8833 53.0441 89.0968 53.2137L88.9368 53.4046ZM102.031 52.873L101.876 52.6666C102.281 52.3618 102.663 52.0271 103.019 51.6653L103.04 51.6447L103.223 51.8279L103.202 51.846C102.836 52.2172 102.443 52.5605 102.025 52.873H102.031ZM87.1433 51.5337C86.8285 51.1231 86.5415 50.6921 86.2839 50.2434L86.5084 50.117C86.7593 50.5585 87.0395 50.9826 87.3471 51.3866L87.1433 51.5337ZM103.917 51.046L103.713 50.886C104.027 50.4889 104.303 50.0639 104.539 49.6163L104.769 49.735C104.52 50.1937 104.231 50.629 103.904 51.0357L103.917 51.046ZM85.8246 49.3067C85.6142 48.8307 85.4416 48.3389 85.3085 47.8357L85.5665 47.7686C85.7018 48.2585 85.8743 48.7373 86.0827 49.2009L85.8246 49.3067ZM105.192 48.7906L104.949 48.7002C105.125 48.2268 105.251 47.7364 105.326 47.237L105.584 47.2758C105.5 47.7906 105.365 48.2955 105.179 48.7828L105.192 48.7906ZM85.0917 46.8242C85.0271 46.3928 84.9943 45.9572 84.9937 45.521C84.9937 45.4358 84.9937 45.3506 84.9937 45.2629H85.2517C85.2517 45.3455 85.2517 45.4281 85.2517 45.521C85.2528 45.9442 85.2847 46.3668 85.3472 46.7854L85.0917 46.8242ZM105.669 46.2358H105.411V46.099C105.411 45.6388 105.371 45.1795 105.292 44.7262L105.551 44.6823C105.63 45.1503 105.671 45.6242 105.672 46.099L105.669 46.2358ZM85.3498 44.2668L85.0917 44.2281C85.1717 43.7121 85.3005 43.2049 85.4762 42.7133L85.7188 42.801C85.5458 43.2739 85.4179 43.7621 85.3369 44.2591L85.3498 44.2668ZM105.065 43.7352C104.922 43.249 104.742 42.7745 104.526 42.3159L104.758 42.2075C104.982 42.677 105.167 43.1638 105.313 43.663L105.065 43.7352ZM86.1214 41.872L85.8865 41.7456C86.1234 41.2809 86.4006 40.8379 86.7149 40.4217L86.9188 40.5766C86.6117 40.9814 86.3406 41.4123 86.1085 41.8643L86.1214 41.872ZM104.051 41.4204C103.792 40.9838 103.505 40.5641 103.192 40.1637L103.393 40.0037C103.714 40.4146 104.008 40.8455 104.273 41.294L104.051 41.4204ZM87.5794 39.8127L87.391 39.6373C87.44 39.5831 87.4917 39.5315 87.5433 39.4773C87.8571 39.1598 88.1907 38.8625 88.5419 38.587L88.6994 38.7882C88.3579 39.0583 88.033 39.3487 87.7265 39.6579L87.5794 39.8127ZM102.534 39.3869C102.376 39.2166 102.214 39.0463 102.046 38.8708C101.851 38.6792 101.647 38.4975 101.434 38.3263L101.594 38.125C101.815 38.3007 102.026 38.4876 102.227 38.685C102.397 38.8528 102.565 39.0257 102.722 39.2011L102.534 39.3869ZM89.5277 38.2025L89.3884 37.9857C89.8259 37.7055 90.282 37.4555 90.7535 37.2373L90.8619 37.4722C90.397 37.6823 89.947 37.9237 89.5148 38.1947L89.5277 38.2025ZM100.596 37.7483C100.164 37.4838 99.7112 37.2567 99.241 37.0696L99.3339 36.8296C99.8193 37.0204 100.287 37.2545 100.73 37.5289L100.596 37.7483ZM91.7883 37.0773L91.7031 36.8347C92.1926 36.6607 92.6925 36.5176 93.1999 36.4064L93.2541 36.6644C92.7572 36.7709 92.2677 36.9088 91.7883 37.0773ZM98.2733 36.7522C97.7842 36.619 97.2855 36.5241 96.7817 36.4683L96.8101 36.2103C97.327 36.2662 97.8387 36.3629 98.3404 36.4993L98.2733 36.7522ZM94.2502 36.4941L94.2166 36.2361C94.6807 36.1787 95.1477 36.1494 95.6153 36.1483H95.7727V36.4064H95.6205C95.1642 36.4057 94.7082 36.4333 94.2553 36.489L94.2502 36.4941Z" fill="black"/>
<path d="M86.2917 41.2836C85.8391 41.0232 85.4022 40.7362 84.9833 40.4243L85.1356 40.2153C85.5482 40.5217 85.9791 40.8026 86.4259 41.0565L86.2917 41.2836ZM84.1627 39.7843C83.7627 39.454 83.3731 39.1031 83.004 38.7392L83.1847 38.556C83.5485 38.9121 83.933 39.2605 84.3253 39.5882L84.1627 39.7843ZM82.2815 37.9779C81.9512 37.6141 81.6363 37.2347 81.3447 36.8528L81.5486 36.6954C81.8376 37.0721 82.1473 37.4463 82.4724 37.805L82.2815 37.9779Z" fill="black"/>
</g>
<path d="M102.314 38.7199L91.2765 36.5244L88.4627 50.6701L99.5004 52.8656L102.314 38.7199Z" fill="#407BFF"/>
<path opacity="0.7" d="M102.314 38.7199L91.2765 36.5244L88.4627 50.6701L99.5004 52.8656L102.314 38.7199Z" fill="white"/>
<path d="M100.466 40.1227L91.9841 38.3917L91.0298 43.0677L99.512 44.7988L100.466 40.1227Z" fill="#407BFF"/>
<path d="M99.4424 45.2577L92.4516 43.8668C92.389 43.8546 92.3241 43.8675 92.271 43.9028C92.2179 43.938 92.1808 43.9928 92.1677 44.0552C92.1613 44.0865 92.1612 44.1188 92.1674 44.1502C92.1735 44.1816 92.1858 44.2115 92.2036 44.2381C92.2213 44.2648 92.2442 44.2876 92.2708 44.3054C92.2974 44.3231 92.3273 44.3355 92.3587 44.3416L99.3495 45.7325C99.3807 45.7389 99.4128 45.739 99.4441 45.7328C99.4753 45.7266 99.505 45.7143 99.5314 45.6965C99.5578 45.6788 99.5804 45.6559 99.5979 45.6293C99.6154 45.6027 99.6275 45.5729 99.6333 45.5416C99.6397 45.5104 99.6398 45.4782 99.6336 45.447C99.6274 45.4158 99.6151 45.3861 99.5973 45.3597C99.5795 45.3332 99.5567 45.3106 99.5301 45.2931C99.5035 45.2756 99.4737 45.2636 99.4424 45.2577Z" fill="#263238"/>
<path d="M91.0968 45.3248L98.1624 46.7312C98.1938 46.7376 98.2261 46.7377 98.2575 46.7316C98.2889 46.7254 98.3187 46.7131 98.3454 46.6954C98.372 46.6776 98.3948 46.6548 98.4126 46.6282C98.4304 46.6015 98.4427 46.5717 98.4488 46.5403C98.4552 46.5091 98.4553 46.4769 98.4491 46.4457C98.4429 46.4144 98.4306 46.3848 98.4128 46.3583C98.395 46.3319 98.3722 46.3093 98.3456 46.2918C98.319 46.2743 98.2892 46.2623 98.2579 46.2564L91.1923 44.8422C91.1611 44.8359 91.1289 44.8358 91.0977 44.842C91.0664 44.8482 91.0368 44.8605 91.0103 44.8783C90.9839 44.896 90.9613 44.9189 90.9438 44.9455C90.9263 44.9721 90.9143 45.0019 90.9084 45.0332C90.9012 45.0647 90.9004 45.0974 90.906 45.1293C90.9117 45.1611 90.9236 45.1915 90.9412 45.2187C90.9587 45.2459 90.9815 45.2693 91.0083 45.2875C91.035 45.3057 91.0651 45.3184 91.0968 45.3248Z" fill="#263238"/>
<path d="M98.3379 47.5054L90.9548 46.0371C90.8919 46.0249 90.8267 46.0382 90.7735 46.074C90.7203 46.1098 90.6835 46.1652 90.671 46.228C90.6646 46.2592 90.6645 46.2914 90.6707 46.3226C90.6769 46.3539 90.6892 46.3835 90.707 46.41C90.7248 46.4364 90.7476 46.459 90.7742 46.4765C90.8008 46.494 90.8306 46.506 90.8619 46.5119L98.2424 47.9802C98.3049 47.9894 98.3686 47.9752 98.4214 47.9405C98.4742 47.9058 98.5124 47.8529 98.5288 47.7919C98.5352 47.7605 98.5353 47.7282 98.5292 47.6968C98.523 47.6654 98.5107 47.6355 98.493 47.6089C98.4752 47.5823 98.4524 47.5594 98.4258 47.5417C98.3991 47.5239 98.3693 47.5116 98.3379 47.5054Z" fill="#263238"/>
<path d="M98.4178 48.757L91.7418 47.4228C91.6789 47.4107 91.6137 47.424 91.5605 47.4598C91.5073 47.4955 91.4704 47.5509 91.458 47.6138C91.4516 47.645 91.4515 47.6772 91.4577 47.7084C91.4639 47.7396 91.4762 47.7693 91.494 47.7957C91.5118 47.8222 91.5346 47.8448 91.5612 47.8623C91.5878 47.8798 91.6176 47.8918 91.6489 47.8977L98.3249 49.2292C98.3878 49.2414 98.453 49.2281 98.5062 49.1923C98.5594 49.1566 98.5963 49.1012 98.6087 49.0383C98.6147 49.0073 98.6145 48.9754 98.6082 48.9444C98.6018 48.9135 98.5894 48.8841 98.5717 48.858C98.5539 48.8319 98.5312 48.8095 98.5048 48.7922C98.4784 48.7748 98.4488 48.7629 98.4178 48.757Z" fill="#263238"/>
<path d="M90.3897 48.8886L97.7701 50.357C97.8015 50.3633 97.8338 50.3635 97.8652 50.3573C97.8966 50.3512 97.9265 50.3389 97.9531 50.3211C97.9797 50.3034 98.0026 50.2805 98.0203 50.2539C98.0381 50.2273 98.0504 50.1974 98.0566 50.166C98.0629 50.1348 98.063 50.1026 98.0569 50.0714C98.0507 50.0402 98.0383 50.0105 98.0206 49.9841C98.0028 49.9577 97.9799 49.935 97.9533 49.9175C97.9267 49.9 97.8969 49.888 97.8656 49.8821L90.4826 48.4138C90.42 48.4016 90.3551 48.4145 90.302 48.4498C90.2489 48.485 90.2118 48.5398 90.1987 48.6022C90.1923 48.6335 90.1922 48.6658 90.1984 48.6972C90.2045 48.7286 90.2168 48.7585 90.2346 48.7851C90.2523 48.8118 90.2752 48.8346 90.3018 48.8524C90.3284 48.8701 90.3583 48.8824 90.3897 48.8886Z" fill="#263238"/>
<path d="M98.1365 51.4176C98.1455 51.3547 98.131 51.2907 98.0958 51.2378C98.0606 51.185 98.0071 51.147 97.9456 51.1311L90.2477 49.6008C90.1864 49.5922 90.1241 49.6073 90.0736 49.643C90.0231 49.6788 89.9882 49.7325 89.976 49.7932C89.9638 49.8539 89.9752 49.9169 90.008 49.9695C90.0407 50.022 90.0924 50.06 90.1522 50.0757L97.8501 51.6059C97.9126 51.6151 97.9763 51.6009 98.0291 51.5662C98.0819 51.5315 98.1201 51.4786 98.1365 51.4176Z" fill="#263238"/>
<g opacity="0.5">
<path d="M99.4422 45.2577L92.4515 43.8668C92.3889 43.8546 92.324 43.8675 92.2709 43.9028C92.2178 43.938 92.1807 43.9928 92.1676 44.0552C92.1612 44.0865 92.1611 44.1188 92.1672 44.1502C92.1734 44.1816 92.1857 44.2115 92.2035 44.2381C92.2212 44.2648 92.2441 44.2876 92.2707 44.3054C92.2973 44.3231 92.3272 44.3355 92.3586 44.3416L99.3493 45.7325C99.3805 45.7389 99.4127 45.739 99.4439 45.7328C99.4752 45.7266 99.5049 45.7143 99.5313 45.6965C99.5577 45.6788 99.5803 45.6559 99.5978 45.6293C99.6153 45.6027 99.6273 45.5729 99.6332 45.5416C99.6396 45.5104 99.6397 45.4782 99.6335 45.447C99.6273 45.4158 99.615 45.3861 99.5972 45.3597C99.5794 45.3332 99.5566 45.3106 99.53 45.2931C99.5034 45.2756 99.4735 45.2636 99.4422 45.2577Z" fill="white"/>
<path d="M91.0968 45.3248L98.1624 46.7312C98.1938 46.7376 98.2261 46.7377 98.2575 46.7316C98.2889 46.7254 98.3187 46.7131 98.3454 46.6954C98.372 46.6776 98.3948 46.6548 98.4126 46.6282C98.4304 46.6015 98.4427 46.5717 98.4488 46.5403C98.4552 46.5091 98.4553 46.4769 98.4491 46.4457C98.4429 46.4144 98.4306 46.3848 98.4128 46.3583C98.395 46.3319 98.3722 46.3093 98.3456 46.2918C98.319 46.2743 98.2892 46.2623 98.2579 46.2564L91.1923 44.8422C91.1611 44.8359 91.1289 44.8358 91.0977 44.842C91.0664 44.8482 91.0368 44.8605 91.0103 44.8783C90.9839 44.896 90.9613 44.9189 90.9438 44.9455C90.9263 44.9721 90.9143 45.0019 90.9084 45.0332C90.9012 45.0647 90.9004 45.0974 90.906 45.1293C90.9117 45.1611 90.9236 45.1915 90.9412 45.2187C90.9587 45.2459 90.9815 45.2693 91.0083 45.2875C91.035 45.3057 91.0651 45.3184 91.0968 45.3248Z" fill="white"/>
<path d="M98.3379 47.5054L90.9548 46.0371C90.8919 46.0249 90.8267 46.0382 90.7735 46.074C90.7203 46.1098 90.6835 46.1652 90.671 46.228C90.6646 46.2592 90.6645 46.2914 90.6707 46.3226C90.6769 46.3539 90.6892 46.3835 90.707 46.41C90.7248 46.4364 90.7476 46.459 90.7742 46.4765C90.8008 46.494 90.8306 46.506 90.8619 46.5119L98.2424 47.9802C98.3049 47.9894 98.3686 47.9752 98.4214 47.9405C98.4742 47.9058 98.5124 47.8529 98.5288 47.7919C98.5352 47.7605 98.5353 47.7282 98.5292 47.6968C98.523 47.6654 98.5107 47.6355 98.493 47.6089C98.4752 47.5823 98.4524 47.5594 98.4258 47.5417C98.3991 47.5239 98.3693 47.5116 98.3379 47.5054Z" fill="white"/>
<path d="M98.4178 48.757L91.7418 47.4228C91.6789 47.4107 91.6137 47.424 91.5605 47.4598C91.5073 47.4955 91.4704 47.5509 91.458 47.6138C91.4516 47.645 91.4515 47.6772 91.4577 47.7084C91.4639 47.7396 91.4762 47.7693 91.494 47.7957C91.5118 47.8222 91.5346 47.8448 91.5612 47.8623C91.5878 47.8798 91.6176 47.8918 91.6489 47.8977L98.3249 49.2292C98.3878 49.2414 98.453 49.2281 98.5062 49.1923C98.5594 49.1566 98.5963 49.1012 98.6087 49.0383C98.6147 49.0073 98.6145 48.9754 98.6082 48.9444C98.6018 48.9135 98.5894 48.8841 98.5717 48.858C98.5539 48.8319 98.5312 48.8095 98.5048 48.7922C98.4784 48.7748 98.4488 48.7629 98.4178 48.757Z" fill="white"/>
<path d="M90.3897 48.8886L97.7701 50.357C97.8015 50.3633 97.8338 50.3635 97.8652 50.3573C97.8966 50.3512 97.9265 50.3389 97.9531 50.3211C97.9797 50.3034 98.0026 50.2805 98.0203 50.2539C98.0381 50.2273 98.0504 50.1974 98.0566 50.166C98.0629 50.1348 98.063 50.1026 98.0569 50.0714C98.0507 50.0402 98.0383 50.0105 98.0206 49.9841C98.0028 49.9577 97.9799 49.935 97.9533 49.9175C97.9267 49.9 97.8969 49.888 97.8656 49.8821L90.4826 48.4138C90.42 48.4016 90.3551 48.4145 90.302 48.4498C90.2489 48.485 90.2118 48.5398 90.1987 48.6022C90.1923 48.6335 90.1922 48.6658 90.1984 48.6972C90.2045 48.7286 90.2168 48.7585 90.2346 48.7851C90.2523 48.8118 90.2752 48.8346 90.3018 48.8524C90.3284 48.8701 90.3583 48.8824 90.3897 48.8886Z" fill="white"/>
<path d="M98.1365 51.4176C98.1455 51.3547 98.131 51.2907 98.0958 51.2378C98.0606 51.185 98.0071 51.147 97.9456 51.1311L90.2477 49.6008C90.1864 49.5922 90.1241 49.6073 90.0736 49.643C90.0231 49.6788 89.9882 49.7325 89.976 49.7932C89.9638 49.8539 89.9752 49.9169 90.008 49.9695C90.0407 50.022 90.0924 50.06 90.1522 50.0757L97.8501 51.6059C97.9126 51.6151 97.9763 51.6009 98.0291 51.5662C98.0819 51.5315 98.1201 51.4786 98.1365 51.4176Z" fill="white"/>
</g>
<path d="M101.404 42.0397C101.046 41.681 100.591 41.4344 100.095 41.3303C99.5991 41.2262 99.0836 41.269 98.6117 41.4536C98.1397 41.6381 97.7319 41.9563 97.4382 42.3693C97.1445 42.7822 96.9776 43.2718 96.9581 43.7782C96.9386 44.2845 97.0672 44.7856 97.3283 45.2199C97.5893 45.6542 97.9714 46.0029 98.4277 46.2232C98.884 46.4436 99.3947 46.526 99.8972 46.4604C100.4 46.3948 100.872 46.184 101.256 45.8538C101.203 45.964 101.185 46.088 101.205 46.2088C101.226 46.3295 101.283 46.4409 101.37 46.5274L103.083 48.2409C103.196 48.3447 103.345 48.401 103.498 48.3979C103.651 48.3947 103.797 48.3325 103.905 48.2241C104.014 48.1158 104.076 47.9697 104.079 47.8165C104.082 47.6633 104.026 47.5148 103.922 47.4022L102.209 45.6887C102.121 45.6031 102.01 45.5465 101.889 45.5267C101.769 45.5068 101.645 45.5246 101.535 45.5777C101.962 45.0795 102.186 44.4387 102.161 43.783C102.137 43.1273 101.866 42.5049 101.404 42.0397ZM101.037 45.3584C100.745 45.6504 100.373 45.8492 99.9682 45.9298C99.5632 46.0104 99.1434 45.9691 98.7619 45.8111C98.3804 45.6531 98.0543 45.3855 97.8249 45.0422C97.5955 44.6988 97.4731 44.2952 97.4731 43.8823C97.4731 43.4693 97.5955 43.0657 97.8249 42.7224C98.0543 42.379 98.3804 42.1115 98.7619 41.9535C99.1434 41.7955 99.5632 41.7541 99.9682 41.8347C100.373 41.9153 100.745 42.1142 101.037 42.4062C101.429 42.7977 101.648 43.3286 101.648 43.8823C101.648 44.4359 101.429 44.9668 101.037 45.3584Z" fill="#263238"/>
<path d="M100.947 27.1783C100.712 27.1783 100.472 27.1783 100.235 27.1576L100.25 26.8996C100.766 26.9311 101.283 26.9268 101.798 26.8867L101.819 27.1447C101.538 27.1679 101.241 27.1783 100.947 27.1783ZM99.1765 27.0363C98.6527 26.9561 98.1353 26.8388 97.6282 26.6854L97.703 26.4273C98.1997 26.5787 98.7069 26.6934 99.2204 26.7705L99.1765 27.0363ZM102.882 27.0054L102.836 26.7473C103.347 26.6562 103.851 26.5259 104.343 26.3576L104.451 26.5925H104.425C103.923 26.7727 103.407 26.9125 102.882 27.0105V27.0054ZM96.6191 26.3292C96.1265 26.126 95.651 25.8835 95.1972 25.6041L95.3314 25.3848C95.774 25.6558 96.2374 25.8914 96.7172 26.0893L96.6191 26.3292ZM105.434 26.1899L105.321 25.9602C105.786 25.7347 106.228 25.4632 106.64 25.1499L106.797 25.3538C106.372 25.6788 105.915 25.9606 105.434 26.1951V26.1899ZM94.3224 24.9925C93.9041 24.6603 93.5202 24.2868 93.1767 23.8777L93.3728 23.7125C93.7065 24.1084 94.0791 24.4698 94.485 24.7912L94.3224 24.9925ZM107.597 24.6467L107.411 24.4661C107.771 24.0964 108.089 23.6879 108.358 23.248L108.578 23.3822C108.298 23.8403 107.97 24.2661 107.597 24.6519V24.6467ZM92.5522 23.0106C92.2993 22.5962 92.0917 22.1559 91.9328 21.6971L91.8864 21.5552L92.1289 21.4726L92.178 21.6145C92.3303 22.0551 92.5292 22.4782 92.7715 22.8764L92.5522 23.0106ZM109.068 22.43L108.83 22.3294C109.032 21.8535 109.183 21.3579 109.282 20.8507L109.54 20.8997C109.437 21.4269 109.278 21.9416 109.065 22.4352L109.068 22.43ZM91.6051 20.5281C91.4901 20.0076 91.4176 19.4785 91.3883 18.9462H91.6464C91.6749 19.4672 91.7457 19.985 91.858 20.4946L91.6051 20.5281ZM109.669 19.8417L109.411 19.8236C109.424 19.6198 109.432 19.4133 109.432 19.2069C109.432 18.8998 109.416 18.5849 109.385 18.2727L109.643 18.2469C109.676 18.5658 109.693 18.8862 109.692 19.2069C109.695 19.4236 109.687 19.6378 109.674 19.8468L109.669 19.8417ZM91.6438 17.8985L91.3857 17.8804C91.423 17.3472 91.5093 16.8185 91.6438 16.3011L91.9019 16.3656C91.7699 16.8693 91.6852 17.3842 91.649 17.9037L91.6438 17.8985ZM109.228 17.2456C109.132 16.7731 109.004 16.3075 108.846 15.8521L108.807 15.7489L109.05 15.6586L109.088 15.767C109.25 16.2337 109.381 16.7103 109.481 17.194L109.228 17.2456ZM92.196 15.385L91.956 15.287C92.1568 14.7922 92.4076 14.3192 92.7044 13.8754L92.9186 14.0173C92.6364 14.4495 92.3995 14.9095 92.2115 15.3902L92.196 15.385ZM108.374 14.8096C108.125 14.357 107.83 13.9322 107.491 13.5425L107.685 13.3722C108.037 13.7756 108.344 14.2161 108.601 14.6857L108.374 14.8096ZM93.5534 13.2044L93.3625 13.0315C93.7206 12.635 94.1183 12.2761 94.5495 11.9606L94.7018 12.1671C94.2898 12.4752 93.9102 12.8246 93.5689 13.2096L93.5534 13.2044ZM106.789 12.8148C106.4 12.4726 105.98 12.1669 105.535 11.9013L105.669 11.6793C106.126 11.9544 106.558 12.2696 106.96 12.6212L106.789 12.8148ZM95.5895 11.6174L95.4656 11.3929C95.9138 11.1461 96.3827 10.9389 96.8669 10.7735L96.9262 10.7529L97.0088 10.9955L96.952 11.0161C96.4819 11.1781 96.0261 11.3792 95.5895 11.6174ZM104.606 11.4187C104.134 11.2022 103.645 11.0219 103.145 10.8793L103.218 10.6213C103.73 10.767 104.23 10.9516 104.714 11.1735L104.606 11.4187ZM98.0152 10.7193L97.9611 10.4613C98.4809 10.3456 99.0089 10.2705 99.5404 10.2368L99.5558 10.4948C99.0372 10.5289 98.522 10.604 98.0152 10.7193ZM102.144 10.6471C101.633 10.5546 101.115 10.4994 100.596 10.4819V10.2239C101.127 10.2423 101.657 10.2984 102.18 10.3916L102.144 10.6471Z" fill="#407BFF"/>
<path d="M88.1239 25.9292H87.6078V25.6712C88.1497 25.6712 88.6555 25.6712 89.1561 25.6531V25.9112C88.831 25.9189 88.48 25.9292 88.1239 25.9292ZM90.2038 25.8234L90.1755 25.5654C90.6843 25.5125 91.19 25.4324 91.6903 25.3254L91.7445 25.5834C91.2355 25.6904 90.7212 25.7706 90.2038 25.8234ZM92.7534 25.3073L92.676 25.0622C93.1606 24.9243 93.6242 24.7211 94.0541 24.4583L94.2037 24.6673C93.7539 24.9511 93.2654 25.1684 92.7534 25.3125V25.3073Z" fill="#407BFF"/>
<g opacity="0.3">
<path d="M100.947 27.1783C100.712 27.1783 100.472 27.1783 100.235 27.1576L100.25 26.8996C100.766 26.9311 101.283 26.9268 101.798 26.8867L101.819 27.1447C101.538 27.1679 101.241 27.1783 100.947 27.1783ZM99.1765 27.0363C98.6527 26.9561 98.1353 26.8388 97.6282 26.6854L97.703 26.4273C98.1997 26.5787 98.7069 26.6934 99.2204 26.7705L99.1765 27.0363ZM102.882 27.0054L102.836 26.7473C103.347 26.6562 103.851 26.5259 104.343 26.3576L104.451 26.5925H104.425C103.923 26.7727 103.407 26.9125 102.882 27.0105V27.0054ZM96.6191 26.3292C96.1265 26.126 95.651 25.8835 95.1972 25.6041L95.3314 25.3848C95.774 25.6558 96.2374 25.8914 96.7172 26.0893L96.6191 26.3292ZM105.434 26.1899L105.321 25.9602C105.786 25.7347 106.228 25.4632 106.64 25.1499L106.797 25.3538C106.372 25.6788 105.915 25.9606 105.434 26.1951V26.1899ZM94.3224 24.9925C93.9041 24.6603 93.5202 24.2868 93.1767 23.8777L93.3728 23.7125C93.7065 24.1084 94.0791 24.4698 94.485 24.7912L94.3224 24.9925ZM107.597 24.6467L107.411 24.4661C107.771 24.0964 108.089 23.6879 108.358 23.248L108.578 23.3822C108.298 23.8403 107.97 24.2661 107.597 24.6519V24.6467ZM92.5522 23.0106C92.2993 22.5962 92.0917 22.1559 91.9328 21.6971L91.8864 21.5552L92.1289 21.4726L92.178 21.6145C92.3303 22.0551 92.5292 22.4782 92.7715 22.8764L92.5522 23.0106ZM109.068 22.43L108.83 22.3294C109.032 21.8535 109.183 21.3579 109.282 20.8507L109.54 20.8997C109.437 21.4269 109.278 21.9416 109.065 22.4352L109.068 22.43ZM91.6051 20.5281C91.4901 20.0076 91.4176 19.4785 91.3883 18.9462H91.6464C91.6749 19.4672 91.7457 19.985 91.858 20.4946L91.6051 20.5281ZM109.669 19.8417L109.411 19.8236C109.424 19.6198 109.432 19.4133 109.432 19.2069C109.432 18.8998 109.416 18.5849 109.385 18.2727L109.643 18.2469C109.676 18.5658 109.693 18.8862 109.692 19.2069C109.695 19.4236 109.687 19.6378 109.674 19.8468L109.669 19.8417ZM91.6438 17.8985L91.3857 17.8804C91.423 17.3472 91.5093 16.8185 91.6438 16.3011L91.9019 16.3656C91.7699 16.8693 91.6852 17.3842 91.649 17.9037L91.6438 17.8985ZM109.228 17.2456C109.132 16.7731 109.004 16.3075 108.846 15.8521L108.807 15.7489L109.05 15.6586L109.088 15.767C109.25 16.2337 109.381 16.7103 109.481 17.194L109.228 17.2456ZM92.196 15.385L91.956 15.287C92.1568 14.7922 92.4076 14.3192 92.7044 13.8754L92.9186 14.0173C92.6364 14.4495 92.3995 14.9095 92.2115 15.3902L92.196 15.385ZM108.374 14.8096C108.125 14.357 107.83 13.9322 107.491 13.5425L107.685 13.3722C108.037 13.7756 108.344 14.2161 108.601 14.6857L108.374 14.8096ZM93.5534 13.2044L93.3625 13.0315C93.7206 12.635 94.1183 12.2761 94.5495 11.9606L94.7018 12.1671C94.2898 12.4752 93.9102 12.8246 93.5689 13.2096L93.5534 13.2044ZM106.789 12.8148C106.4 12.4726 105.98 12.1669 105.535 11.9013L105.669 11.6793C106.126 11.9544 106.558 12.2696 106.96 12.6212L106.789 12.8148ZM95.5895 11.6174L95.4656 11.3929C95.9138 11.1461 96.3827 10.9389 96.8669 10.7735L96.9262 10.7529L97.0088 10.9955L96.952 11.0161C96.4819 11.1781 96.0261 11.3792 95.5895 11.6174ZM104.606 11.4187C104.134 11.2022 103.645 11.0219 103.145 10.8793L103.218 10.6213C103.73 10.767 104.23 10.9516 104.714 11.1735L104.606 11.4187ZM98.0152 10.7193L97.9611 10.4613C98.4809 10.3456 99.0089 10.2705 99.5404 10.2368L99.5558 10.4948C99.0372 10.5289 98.522 10.604 98.0152 10.7193ZM102.144 10.6471C101.633 10.5546 101.115 10.4994 100.596 10.4819V10.2239C101.127 10.2423 101.657 10.2984 102.18 10.3916L102.144 10.6471Z" fill="black"/>
<path d="M88.1239 25.9292H87.6078V25.6712C88.1497 25.6712 88.6555 25.6712 89.1561 25.6531V25.9112C88.831 25.9189 88.48 25.9292 88.1239 25.9292ZM90.2038 25.8234L90.1755 25.5654C90.6843 25.5125 91.19 25.4324 91.6903 25.3254L91.7445 25.5834C91.2355 25.6904 90.7212 25.7706 90.2038 25.8234ZM92.7534 25.3073L92.676 25.0622C93.1606 24.9243 93.6242 24.7211 94.0541 24.4583L94.2037 24.6673C93.7539 24.9511 93.2654 25.1684 92.7534 25.3125V25.3073Z" fill="black"/>
</g>
<path d="M99.8461 11.9982L91.7424 15.3549L94.0582 20.9457L102.162 17.589L99.8461 11.9982Z" fill="#407BFF"/>
<path opacity="0.6" d="M99.8461 11.9982L91.7424 15.3549L94.0582 20.9457L102.162 17.589L99.8461 11.9982Z" fill="white"/>
<path d="M94.3921 20.7758L95.3779 17.2353L98.5778 19.0417L94.3921 20.7758Z" fill="#407BFF"/>
<path opacity="0.3" d="M94.3921 20.7758L95.3779 17.2353L98.5778 19.0417L94.3921 20.7758Z" fill="white"/>
<path d="M96.1598 20.043L97.5146 15.1812L101.909 17.6611L96.1598 20.043Z" fill="#407BFF"/>
<path opacity="0.6" d="M95.1766 15.7231C95.2332 15.8604 95.2479 16.0114 95.2187 16.157C95.1895 16.3027 95.1178 16.4364 95.0127 16.5412C94.9075 16.6461 94.7736 16.7175 94.6279 16.7462C94.4822 16.775 94.3312 16.7599 94.1941 16.7029C94.0569 16.6459 93.9398 16.5495 93.8574 16.4259C93.7751 16.3023 93.7312 16.157 93.7314 16.0085C93.7316 15.86 93.7759 15.7149 93.8586 15.5915C93.9412 15.4681 94.0587 15.372 94.1959 15.3154C94.2871 15.2774 94.3848 15.2578 94.4835 15.2578C94.5822 15.2577 94.68 15.2772 94.7711 15.3151C94.8623 15.353 94.945 15.4086 95.0146 15.4786C95.0842 15.5486 95.1392 15.6317 95.1766 15.7231Z" fill="white"/>
<path d="M106.808 21.0052L99.8506 19.6213L98.8955 24.4226L105.853 25.8065L106.808 21.0052Z" fill="#407BFF"/>
<path opacity="0.6" d="M106.808 21.0052L99.8506 19.6213L98.8955 24.4226L105.853 25.8065L106.808 21.0052Z" fill="white"/>
<path d="M99.1971 24.4583L101.453 22.5203L102.792 25.1732L99.1971 24.4583Z" fill="#407BFF"/>
<path opacity="0.3" d="M99.1971 24.4583L101.453 22.5203L102.792 25.1732L99.1971 24.4583Z" fill="white"/>
<path d="M100.717 24.7603L103.811 22.0971L105.651 25.7409L100.717 24.7603Z" fill="#407BFF"/>
<path opacity="0.6" d="M102.002 21.4158C101.991 21.4983 101.963 21.5776 101.92 21.6488C101.877 21.7201 101.82 21.7818 101.753 21.8301C101.685 21.8785 101.608 21.9125 101.527 21.93C101.445 21.9475 101.361 21.9481 101.28 21.9318C101.198 21.9156 101.121 21.8828 101.052 21.8355C100.984 21.7882 100.926 21.7273 100.882 21.6567C100.838 21.5861 100.809 21.5073 100.796 21.425C100.784 21.3427 100.789 21.2588 100.81 21.1784C100.821 21.0959 100.849 21.0166 100.892 20.9454C100.935 20.8741 100.992 20.8124 101.06 20.7641C101.127 20.7157 101.204 20.6817 101.286 20.6642C101.367 20.6468 101.451 20.6461 101.533 20.6624C101.614 20.6786 101.692 20.7114 101.76 20.7587C101.828 20.806 101.886 20.8669 101.93 20.9375C101.974 21.0081 102.004 21.0869 102.016 21.1692C102.028 21.2515 102.024 21.3354 102.002 21.4158Z" fill="white"/>
<path d="M38.9201 53.2188C38.6621 53.2188 38.4195 53.2188 38.1666 53.1956L38.1847 52.9376C38.7002 52.9728 39.2175 52.9728 39.733 52.9376L39.7536 53.1956C39.4646 53.2085 39.1782 53.2188 38.9201 53.2188ZM37.1137 53.0769C36.5901 52.9959 36.0727 52.8786 35.5654 52.726L35.6402 52.4679C36.1334 52.6169 36.636 52.7324 37.1447 52.8137L37.1137 53.0769ZM40.7807 53.0589L40.7368 52.8008C41.2431 52.7119 41.7418 52.5842 42.2284 52.4189H42.2516L42.3342 52.664H42.3136C41.814 52.8364 41.3014 52.9685 40.7807 53.0589ZM34.5873 52.375C34.0989 52.177 33.6262 51.9424 33.1732 51.6731L33.3048 51.4512C33.7477 51.7132 34.2091 51.9427 34.6854 52.1376L34.5873 52.375ZM43.3123 52.2537L43.1987 52.0215C43.6595 51.7994 44.0962 51.5305 44.5019 51.2189L44.6593 51.4228C44.2374 51.7441 43.7844 52.0225 43.3071 52.2537H43.3123ZM32.2984 51.0847C31.8762 50.7668 31.4833 50.4118 31.1242 50.0241L31.3152 49.8486C31.6627 50.2262 32.0436 50.5717 32.4532 50.8808L32.2984 51.0847ZM45.4593 50.7183L45.2735 50.5402C45.6291 50.1732 45.9432 49.7682 46.2102 49.3325L46.4322 49.4667C46.1511 49.9185 45.8214 50.3382 45.449 50.7183H45.4593ZM30.4687 49.2035C30.1621 48.7713 29.9026 48.3076 29.6946 47.8203L29.932 47.7196C30.1323 48.1892 30.3814 48.6363 30.6752 49.0538L30.4687 49.2035ZM46.9199 48.5299L46.6825 48.4267C46.8847 47.956 47.0412 47.4669 47.1496 46.9661L47.4076 47.0203C47.294 47.538 47.1306 48.0436 46.9199 48.5299ZM29.3462 46.8268C29.1955 46.3195 29.0817 45.8021 29.0055 45.2784L29.2636 45.2397C29.3385 45.7485 29.4497 46.2513 29.5965 46.7442L29.3462 46.8268ZM47.5625 45.9778L47.3044 45.9545C47.3328 45.6629 47.3457 45.3636 47.3457 45.0642C47.3457 44.8475 47.3457 44.6307 47.3251 44.4165L47.5831 44.3984C47.596 44.6204 47.6038 44.8423 47.6038 45.0642C47.5934 45.3713 47.5805 45.6784 47.5521 45.9778H47.5625ZM28.9049 44.2359C28.9049 44.0862 28.9049 43.9365 28.9049 43.7868C28.9051 43.4099 28.9275 43.0334 28.972 42.6591L29.2301 42.6875C29.1865 43.0523 29.1649 43.4194 29.1655 43.7868C29.1655 43.9314 29.1655 44.0784 29.1655 44.2255L28.9049 44.2359ZM47.2089 43.3946C47.1269 42.8869 47.0114 42.3852 46.8631 41.8927L47.1212 41.8179C47.2717 42.3216 47.3898 42.8345 47.4747 43.3533L47.2089 43.3946ZM29.403 41.6785L29.1449 41.6192C29.269 41.105 29.4418 40.6038 29.661 40.1224L29.8958 40.2282C29.6795 40.6939 29.5092 41.1797 29.3875 41.6785H29.403ZM46.5277 40.925C46.3276 40.4536 46.0812 40.0032 45.7922 39.5805L46.0038 39.4334C46.3089 39.8693 46.5683 40.3354 46.778 40.8243L46.5277 40.925ZM30.381 39.3276L30.1616 39.1908C30.4425 38.7424 30.7685 38.3239 31.1345 37.9418L31.3203 38.1199C30.9609 38.4881 30.6408 38.8929 30.3655 39.3276H30.381ZM45.1625 38.7754C44.8208 38.3921 44.4451 38.0406 44.04 37.7251L44.2 37.5238C44.616 37.8481 45.002 38.2091 45.3535 38.6025L45.1625 38.7754ZM32.0764 37.4335L31.9164 37.2296C32.3322 36.9028 32.7791 36.6176 33.2506 36.378L33.3667 36.6077C32.9057 36.8399 32.4684 37.1165 32.061 37.4335H32.0764ZM43.1987 37.1393C42.7618 36.8693 42.3045 36.6338 41.831 36.4348L41.9317 36.1974C42.4177 36.4014 42.887 36.6429 43.3355 36.9199L43.1987 37.1393ZM34.3061 36.1948L34.2157 35.9522L34.4093 35.8851C34.8431 35.7345 35.2872 35.6154 35.7383 35.529L35.7873 35.7871C35.3496 35.8718 34.9184 35.9874 34.497 36.1329L34.3061 36.1948ZM40.8659 36.0812C40.3744 35.9287 39.8724 35.8123 39.364 35.7329L39.4053 35.4748C39.9295 35.5562 40.447 35.6761 40.9536 35.8335L40.8659 36.0812ZM36.804 35.64L36.7808 35.3819C37.0853 35.3561 37.395 35.3432 37.7021 35.3432C37.9292 35.3432 38.1408 35.3432 38.3601 35.3638L38.3421 35.6219C38.1305 35.6219 37.9163 35.6013 37.7021 35.6038C37.3873 35.6013 37.0853 35.6142 36.7886 35.64H36.804Z" fill="#407BFF"/>
<path d="M43.8697 37.0593L43.7535 36.8296C43.7535 36.8296 44.2697 36.5715 45.0774 36.0554L45.2167 36.2722C44.3935 36.7935 43.8903 37.049 43.8697 37.0593ZM46.0786 35.689L45.9315 35.4774C46.3444 35.1884 46.7625 34.8787 47.1702 34.5587L47.3276 34.7626C46.9199 35.0851 46.4967 35.3974 46.0786 35.689ZM48.1431 34.1097L47.9779 33.911C48.3702 33.5832 48.7521 33.2374 49.1315 32.8787L49.3069 33.0671C48.9199 33.4284 48.5276 33.7768 48.1328 34.1097H48.1431ZM50.0527 32.3549L49.8695 32.1742C50.2334 31.8078 50.5895 31.431 50.9301 31.0517L51.1211 31.2246C50.7701 31.6065 50.4088 31.9884 50.0424 32.3549H50.0527Z" fill="#407BFF"/>
<g opacity="0.3">
<path d="M38.9201 53.2188C38.6621 53.2188 38.4195 53.2188 38.1666 53.1956L38.1847 52.9376C38.7002 52.9728 39.2175 52.9728 39.733 52.9376L39.7536 53.1956C39.4646 53.2085 39.1782 53.2188 38.9201 53.2188ZM37.1137 53.0769C36.5901 52.9959 36.0727 52.8786 35.5654 52.726L35.6402 52.4679C36.1334 52.6169 36.636 52.7324 37.1447 52.8137L37.1137 53.0769ZM40.7807 53.0589L40.7368 52.8008C41.2431 52.7119 41.7418 52.5842 42.2284 52.4189H42.2516L42.3342 52.664H42.3136C41.814 52.8364 41.3014 52.9685 40.7807 53.0589ZM34.5873 52.375C34.0989 52.177 33.6262 51.9424 33.1732 51.6731L33.3048 51.4512C33.7477 51.7132 34.2091 51.9427 34.6854 52.1376L34.5873 52.375ZM43.3123 52.2537L43.1987 52.0215C43.6595 51.7994 44.0962 51.5305 44.5019 51.2189L44.6593 51.4228C44.2374 51.7441 43.7844 52.0225 43.3071 52.2537H43.3123ZM32.2984 51.0847C31.8762 50.7668 31.4833 50.4118 31.1242 50.0241L31.3152 49.8486C31.6627 50.2262 32.0436 50.5717 32.4532 50.8808L32.2984 51.0847ZM45.4593 50.7183L45.2735 50.5402C45.6291 50.1732 45.9432 49.7682 46.2102 49.3325L46.4322 49.4667C46.1511 49.9185 45.8214 50.3382 45.449 50.7183H45.4593ZM30.4687 49.2035C30.1621 48.7713 29.9026 48.3076 29.6946 47.8203L29.932 47.7196C30.1323 48.1892 30.3814 48.6363 30.6752 49.0538L30.4687 49.2035ZM46.9199 48.5299L46.6825 48.4267C46.8847 47.956 47.0412 47.4669 47.1496 46.9661L47.4076 47.0203C47.294 47.538 47.1306 48.0436 46.9199 48.5299ZM29.3462 46.8268C29.1955 46.3195 29.0817 45.8021 29.0055 45.2784L29.2636 45.2397C29.3385 45.7485 29.4497 46.2513 29.5965 46.7442L29.3462 46.8268ZM47.5625 45.9778L47.3044 45.9545C47.3328 45.6629 47.3457 45.3636 47.3457 45.0642C47.3457 44.8475 47.3457 44.6307 47.3251 44.4165L47.5831 44.3984C47.596 44.6204 47.6038 44.8423 47.6038 45.0642C47.5934 45.3713 47.5805 45.6784 47.5521 45.9778H47.5625ZM28.9049 44.2359C28.9049 44.0862 28.9049 43.9365 28.9049 43.7868C28.9051 43.4099 28.9275 43.0334 28.972 42.6591L29.2301 42.6875C29.1865 43.0523 29.1649 43.4194 29.1655 43.7868C29.1655 43.9314 29.1655 44.0784 29.1655 44.2255L28.9049 44.2359ZM47.2089 43.3946C47.1269 42.8869 47.0114 42.3852 46.8631 41.8927L47.1212 41.8179C47.2717 42.3216 47.3898 42.8345 47.4747 43.3533L47.2089 43.3946ZM29.403 41.6785L29.1449 41.6192C29.269 41.105 29.4418 40.6038 29.661 40.1224L29.8958 40.2282C29.6795 40.6939 29.5092 41.1797 29.3875 41.6785H29.403ZM46.5277 40.925C46.3276 40.4536 46.0812 40.0032 45.7922 39.5805L46.0038 39.4334C46.3089 39.8693 46.5683 40.3354 46.778 40.8243L46.5277 40.925ZM30.381 39.3276L30.1616 39.1908C30.4425 38.7424 30.7685 38.3239 31.1345 37.9418L31.3203 38.1199C30.9609 38.4881 30.6408 38.8929 30.3655 39.3276H30.381ZM45.1625 38.7754C44.8208 38.3921 44.4451 38.0406 44.04 37.7251L44.2 37.5238C44.616 37.8481 45.002 38.2091 45.3535 38.6025L45.1625 38.7754ZM32.0764 37.4335L31.9164 37.2296C32.3322 36.9028 32.7791 36.6176 33.2506 36.378L33.3667 36.6077C32.9057 36.8399 32.4684 37.1165 32.061 37.4335H32.0764ZM43.1987 37.1393C42.7618 36.8693 42.3045 36.6338 41.831 36.4348L41.9317 36.1974C42.4177 36.4014 42.887 36.6429 43.3355 36.9199L43.1987 37.1393ZM34.3061 36.1948L34.2157 35.9522L34.4093 35.8851C34.8431 35.7345 35.2872 35.6154 35.7383 35.529L35.7873 35.7871C35.3496 35.8718 34.9184 35.9874 34.497 36.1329L34.3061 36.1948ZM40.8659 36.0812C40.3744 35.9287 39.8724 35.8123 39.364 35.7329L39.4053 35.4748C39.9295 35.5562 40.447 35.6761 40.9536 35.8335L40.8659 36.0812ZM36.804 35.64L36.7808 35.3819C37.0853 35.3561 37.395 35.3432 37.7021 35.3432C37.9292 35.3432 38.1408 35.3432 38.3601 35.3638L38.3421 35.6219C38.1305 35.6219 37.9163 35.6013 37.7021 35.6038C37.3873 35.6013 37.0853 35.6142 36.7886 35.64H36.804Z" fill="black"/>
<path d="M43.8697 37.0593L43.7535 36.8296C43.7535 36.8296 44.2697 36.5715 45.0774 36.0554L45.2167 36.2722C44.3935 36.7935 43.8903 37.049 43.8697 37.0593ZM46.0786 35.689L45.9315 35.4774C46.3444 35.1884 46.7625 34.8787 47.1702 34.5587L47.3276 34.7626C46.9199 35.0851 46.4967 35.3974 46.0786 35.689ZM48.1431 34.1097L47.9779 33.911C48.3702 33.5832 48.7521 33.2374 49.1315 32.8787L49.3069 33.0671C48.9199 33.4284 48.5276 33.7768 48.1328 34.1097H48.1431ZM50.0527 32.3549L49.8695 32.1742C50.2334 31.8078 50.5895 31.431 50.9301 31.0517L51.1211 31.2246C50.7701 31.6065 50.4088 31.9884 50.0424 32.3549H50.0527Z" fill="black"/>
</g>
<path d="M32.9513 44.3236H31.3281V45.9468H32.9513V44.3236Z" fill="#407BFF"/>
<path d="M36.1976 42.7004H34.5745V45.9468H36.1976V42.7004Z" fill="#407BFF"/>
<path d="M39.444 41.2604H37.8208V45.9468H39.444V41.2604Z" fill="#407BFF"/>
<path d="M42.6903 39.7844H41.0671V45.9468H42.6903V39.7844Z" fill="#407BFF"/>
<path opacity="0.5" d="M36.1976 42.7004H34.5745V45.9468H36.1976V42.7004Z" fill="white"/>
<path opacity="0.5" d="M42.6903 39.7844H41.0671V45.9468H42.6903V39.7844Z" fill="white"/>
<path d="M43.8542 47.0745H31.3281V46.7519H43.5291V39.7844H43.8542V47.0745Z" fill="#407BFF"/>
<g opacity="0.5">
<path d="M43.8542 47.0745H31.3281V46.7519H43.5291V39.7844H43.8542V47.0745Z" fill="white"/>
</g>
<path d="M32.0815 29.0208C31.795 29.0208 31.5034 29.0079 31.2196 28.9846L31.2402 28.7266C31.7466 28.7743 32.2564 28.7743 32.7628 28.7266L32.7886 28.9846C32.5537 29.0096 32.3177 29.0217 32.0815 29.0208ZM30.1848 28.8453C29.6697 28.7495 29.1637 28.6097 28.6726 28.4272L28.7629 28.1847C29.2397 28.3624 29.731 28.4989 30.2312 28.5924L30.1848 28.8453ZM33.8234 28.7911L33.7563 28.533C34.2459 28.4018 34.72 28.2184 35.1704 27.986L35.2891 28.2156C34.8226 28.4594 34.3312 28.6523 33.8234 28.7911ZM27.7152 28.004C27.2499 27.7604 26.8092 27.4727 26.3991 27.1447L26.5616 26.9434C26.9571 27.2619 27.3833 27.5402 27.8339 27.7744L27.7152 28.004ZM36.1872 27.6866L36.0401 27.4724C36.4594 27.1834 36.8523 26.8578 37.2143 26.4995L37.3949 26.6853C37.0217 27.053 36.6176 27.388 36.1872 27.6866ZM25.6326 26.4273C25.2753 26.0414 24.9628 25.6164 24.701 25.1602L24.9256 25.0312C25.1762 25.4749 25.4776 25.888 25.8236 26.2621L25.6326 26.4273ZM38.102 25.9112L37.9007 25.7486C38.2242 25.354 38.5175 24.9356 38.7781 24.497L39 24.6286C38.7331 25.078 38.4329 25.5067 38.102 25.9112ZM24.2469 24.2132C24.0589 23.723 23.9231 23.2144 23.8417 22.6958L24.0998 22.6545C24.1777 23.1557 24.3092 23.6471 24.492 24.1203L24.2469 24.2132ZM39.4852 23.697L39.2529 23.5887C39.4667 23.1259 39.6461 22.6481 39.7897 22.159L40.0477 22.2313C39.8986 22.7354 39.7105 23.2272 39.4852 23.7022V23.697ZM23.7437 21.6326C23.7437 21.5706 23.7437 21.5087 23.7437 21.4442C23.7448 20.9835 23.7819 20.5236 23.8546 20.0688L24.1127 20.1075C24.0409 20.5494 24.0047 20.9964 24.0043 21.4442C24.0043 21.5061 24.0043 21.5655 24.0043 21.6274L23.7437 21.6326ZM40.2593 21.2016L40.0013 21.1552C40.0911 20.6544 40.1369 20.1466 40.1381 19.6378V19.6094H40.3961V19.6378C40.4024 20.1676 40.3618 20.697 40.2748 21.2197L40.2593 21.2016ZM24.314 19.1139L24.0559 19.0443C24.1968 18.5406 24.3771 18.0487 24.5952 17.5733L24.8301 17.6817C24.6253 18.1512 24.4579 18.6362 24.3294 19.132L24.314 19.1139ZM40.071 18.5978C40.0035 18.0955 39.8806 17.6022 39.7045 17.1269L39.9445 17.0366C40.1279 17.5292 40.256 18.0408 40.3264 18.5617L40.071 18.5978ZM25.3152 16.7914L25.0933 16.6598C25.36 16.206 25.6629 15.7745 25.9991 15.3695L26.1978 15.5347C25.875 15.932 25.585 16.3549 25.3307 16.7992L25.3152 16.7914ZM39.2761 16.2237C39.0237 15.7847 38.7196 15.3775 38.3704 15.0108L38.5587 14.8328C38.9208 15.2146 39.2362 15.6382 39.4981 16.0947L39.2761 16.2237ZM26.8894 14.8018L26.7113 14.616C27.0899 14.2533 27.5001 13.9251 27.9371 13.6354L28.079 13.8496C27.6616 14.1352 27.2696 14.4564 26.9074 14.8095L26.8894 14.8018ZM37.6297 14.3399C37.2278 14.0302 36.7955 13.7622 36.3394 13.5399L36.4556 13.3076C36.9264 13.5393 37.3733 13.8168 37.7897 14.136L37.6297 14.3399ZM28.9771 13.3593L28.8635 13.127C29.3351 12.8964 29.8288 12.7139 30.337 12.5825L30.399 12.8406C29.9084 12.9639 29.4318 13.1377 28.9771 13.3593ZM35.4079 13.158C34.927 12.9913 34.4334 12.8644 33.9318 12.7786L33.9756 12.5206C34.4907 12.6114 34.9979 12.7417 35.493 12.9102L35.4079 13.158ZM31.3951 12.6573L31.3693 12.3993C31.8913 12.3541 32.4162 12.3541 32.9382 12.3993L32.9202 12.6573C32.413 12.6096 31.9027 12.607 31.3951 12.6496V12.6573Z" fill="#407BFF"/>
<path d="M44.7572 27.2944C44.2411 27.2944 43.725 27.2505 43.2089 27.1911L43.2398 26.9331C43.7478 26.9938 44.2586 27.0283 44.7701 27.0363L44.7572 27.2944ZM45.7894 27.2763L45.7765 27.0182C46.2861 26.9901 46.7936 26.9324 47.2965 26.8453L47.3429 27.1034C46.8318 27.1936 46.3155 27.2522 45.7972 27.2789L45.7894 27.2763ZM42.1689 27.0363C41.6528 26.9486 41.1521 26.835 40.6464 26.7008L40.7134 26.4428C41.2115 26.5744 41.7173 26.6879 42.2153 26.7757L42.1689 27.0363ZM48.3623 26.8686L48.2952 26.6105C48.6487 26.515 48.9971 26.4015 49.3274 26.275L49.4203 26.515C49.0756 26.6522 48.7242 26.7719 48.3674 26.8737L48.3623 26.8686ZM39.6451 26.4066C39.1456 26.252 38.6561 26.0667 38.1793 25.8518L38.2877 25.6196C38.7553 25.8273 39.2343 26.0082 39.7225 26.1615L39.6451 26.4066Z" fill="#407BFF"/>
<g opacity="0.3">
<path d="M32.0815 29.0208C31.795 29.0208 31.5034 29.0079 31.2196 28.9846L31.2402 28.7266C31.7466 28.7743 32.2564 28.7743 32.7628 28.7266L32.7886 28.9846C32.5537 29.0096 32.3177 29.0217 32.0815 29.0208ZM30.1848 28.8453C29.6697 28.7495 29.1637 28.6097 28.6726 28.4272L28.7629 28.1847C29.2397 28.3624 29.731 28.4989 30.2312 28.5924L30.1848 28.8453ZM33.8234 28.7911L33.7563 28.533C34.2459 28.4018 34.72 28.2184 35.1704 27.986L35.2891 28.2156C34.8226 28.4594 34.3312 28.6523 33.8234 28.7911ZM27.7152 28.004C27.2499 27.7604 26.8092 27.4727 26.3991 27.1447L26.5616 26.9434C26.9571 27.2619 27.3833 27.5402 27.8339 27.7744L27.7152 28.004ZM36.1872 27.6866L36.0401 27.4724C36.4594 27.1834 36.8523 26.8578 37.2143 26.4995L37.3949 26.6853C37.0217 27.053 36.6176 27.388 36.1872 27.6866ZM25.6326 26.4273C25.2753 26.0414 24.9628 25.6164 24.701 25.1602L24.9256 25.0312C25.1762 25.4749 25.4776 25.888 25.8236 26.2621L25.6326 26.4273ZM38.102 25.9112L37.9007 25.7486C38.2242 25.354 38.5175 24.9356 38.7781 24.497L39 24.6286C38.7331 25.078 38.4329 25.5067 38.102 25.9112ZM24.2469 24.2132C24.0589 23.723 23.9231 23.2144 23.8417 22.6958L24.0998 22.6545C24.1777 23.1557 24.3092 23.6471 24.492 24.1203L24.2469 24.2132ZM39.4852 23.697L39.2529 23.5887C39.4667 23.1259 39.6461 22.6481 39.7897 22.159L40.0477 22.2313C39.8986 22.7354 39.7105 23.2272 39.4852 23.7022V23.697ZM23.7437 21.6326C23.7437 21.5706 23.7437 21.5087 23.7437 21.4442C23.7448 20.9835 23.7819 20.5236 23.8546 20.0688L24.1127 20.1075C24.0409 20.5494 24.0047 20.9964 24.0043 21.4442C24.0043 21.5061 24.0043 21.5655 24.0043 21.6274L23.7437 21.6326ZM40.2593 21.2016L40.0013 21.1552C40.0911 20.6544 40.1369 20.1466 40.1381 19.6378V19.6094H40.3961V19.6378C40.4024 20.1676 40.3618 20.697 40.2748 21.2197L40.2593 21.2016ZM24.314 19.1139L24.0559 19.0443C24.1968 18.5406 24.3771 18.0487 24.5952 17.5733L24.8301 17.6817C24.6253 18.1512 24.4579 18.6362 24.3294 19.132L24.314 19.1139ZM40.071 18.5978C40.0035 18.0955 39.8806 17.6022 39.7045 17.1269L39.9445 17.0366C40.1279 17.5292 40.256 18.0408 40.3264 18.5617L40.071 18.5978ZM25.3152 16.7914L25.0933 16.6598C25.36 16.206 25.6629 15.7745 25.9991 15.3695L26.1978 15.5347C25.875 15.932 25.585 16.3549 25.3307 16.7992L25.3152 16.7914ZM39.2761 16.2237C39.0237 15.7847 38.7196 15.3775 38.3704 15.0108L38.5587 14.8328C38.9208 15.2146 39.2362 15.6382 39.4981 16.0947L39.2761 16.2237ZM26.8894 14.8018L26.7113 14.616C27.0899 14.2533 27.5001 13.9251 27.9371 13.6354L28.079 13.8496C27.6616 14.1352 27.2696 14.4564 26.9074 14.8095L26.8894 14.8018ZM37.6297 14.3399C37.2278 14.0302 36.7955 13.7622 36.3394 13.5399L36.4556 13.3076C36.9264 13.5393 37.3733 13.8168 37.7897 14.136L37.6297 14.3399ZM28.9771 13.3593L28.8635 13.127C29.3351 12.8964 29.8288 12.7139 30.337 12.5825L30.399 12.8406C29.9084 12.9639 29.4318 13.1377 28.9771 13.3593ZM35.4079 13.158C34.927 12.9913 34.4334 12.8644 33.9318 12.7786L33.9756 12.5206C34.4907 12.6114 34.9979 12.7417 35.493 12.9102L35.4079 13.158ZM31.3951 12.6573L31.3693 12.3993C31.8913 12.3541 32.4162 12.3541 32.9382 12.3993L32.9202 12.6573C32.413 12.6096 31.9027 12.607 31.3951 12.6496V12.6573Z" fill="black"/>
<path d="M44.7572 27.2944C44.2411 27.2944 43.725 27.2505 43.2089 27.1911L43.2398 26.9331C43.7478 26.9938 44.2586 27.0283 44.7701 27.0363L44.7572 27.2944ZM45.7894 27.2763L45.7765 27.0182C46.2861 26.9901 46.7936 26.9324 47.2965 26.8453L47.3429 27.1034C46.8318 27.1936 46.3155 27.2522 45.7972 27.2789L45.7894 27.2763ZM42.1689 27.0363C41.6528 26.9486 41.1521 26.835 40.6464 26.7008L40.7134 26.4428C41.2115 26.5744 41.7173 26.6879 42.2153 26.7757L42.1689 27.0363ZM48.3623 26.8686L48.2952 26.6105C48.6487 26.515 48.9971 26.4015 49.3274 26.275L49.4203 26.515C49.0756 26.6522 48.7242 26.7719 48.3674 26.8737L48.3623 26.8686ZM39.6451 26.4066C39.1456 26.252 38.6561 26.0667 38.1793 25.8518L38.2877 25.6196C38.7553 25.8273 39.2343 26.0082 39.7225 26.1615L39.6451 26.4066Z" fill="black"/>
</g>
<path d="M34.0814 18.6778C34.0814 16.8224 31.8156 15.3231 29.0183 15.3231C26.221 15.3231 23.9526 16.8224 23.9526 18.6778C23.9526 20.5333 26.2184 22.0326 29.0157 22.0326C29.4833 22.0328 29.9499 21.9888 30.4092 21.901C30.6941 22.2173 31.0424 22.4702 31.4314 22.6431C31.8205 22.8161 32.2415 22.9052 32.6672 22.9048C32.7262 22.9089 32.7848 22.8927 32.8332 22.8588C32.8816 22.8249 32.9169 22.7754 32.9332 22.7186C32.9495 22.6618 32.9459 22.6012 32.9228 22.5467C32.8998 22.4923 32.8587 22.4475 32.8066 22.4197C32.4216 22.1711 32.0971 21.8396 31.8569 21.4494C33.204 20.8429 34.0814 19.8314 34.0814 18.6778Z" fill="#407BFF"/>
<path d="M26.5875 18.8611C26.588 18.9593 26.5593 19.0554 26.5051 19.1373C26.4508 19.2192 26.3735 19.2831 26.2828 19.3209C26.1922 19.3587 26.0924 19.3687 25.996 19.3497C25.8996 19.3307 25.8111 19.2834 25.7417 19.214C25.6722 19.1445 25.625 19.056 25.606 18.9597C25.5869 18.8633 25.5969 18.7635 25.6348 18.6728C25.6726 18.5822 25.7365 18.5048 25.8184 18.4506C25.9002 18.3963 25.9964 18.3677 26.0946 18.3682C26.2253 18.3682 26.3507 18.4201 26.4431 18.5125C26.5356 18.605 26.5875 18.7303 26.5875 18.8611Z" fill="white"/>
<path d="M28.5977 18.8611C28.5983 18.9592 28.5696 19.0552 28.5155 19.137C28.4614 19.2188 28.3842 19.2827 28.2937 19.3206C28.2032 19.3585 28.1035 19.3687 28.0072 19.3499C27.9109 19.3311 27.8224 19.2841 27.7528 19.2149C27.6833 19.1457 27.6359 19.0574 27.6165 18.9612C27.5972 18.8651 27.6069 18.7653 27.6443 18.6746C27.6817 18.5839 27.7452 18.5064 27.8267 18.4518C27.9083 18.3973 28.0042 18.3682 28.1023 18.3682C28.2332 18.3682 28.3589 18.42 28.4517 18.5124C28.5446 18.6047 28.5971 18.7301 28.5977 18.8611Z" fill="white"/>
<path d="M30.5796 18.8611C30.5801 18.9593 30.5514 19.0554 30.4971 19.1373C30.4429 19.2192 30.3655 19.2831 30.2749 19.3209C30.1843 19.3587 30.0844 19.3687 29.9881 19.3497C29.8917 19.3307 29.8032 19.2834 29.7337 19.214C29.6643 19.1445 29.6171 19.056 29.598 18.9597C29.579 18.8633 29.589 18.7635 29.6268 18.6728C29.6647 18.5822 29.7286 18.5048 29.8104 18.4506C29.8923 18.3963 29.9885 18.3677 30.0867 18.3682C30.2172 18.3688 30.3422 18.421 30.4344 18.5133C30.5267 18.6056 30.5789 18.7305 30.5796 18.8611Z" fill="white"/>
<path d="M32.5744 18.8611C32.5744 18.9585 32.5455 19.0538 32.4913 19.1349C32.4372 19.2159 32.3602 19.2791 32.2701 19.3164C32.1801 19.3537 32.081 19.3635 31.9854 19.3445C31.8897 19.3255 31.8019 19.2785 31.733 19.2096C31.6641 19.1406 31.6171 19.0528 31.5981 18.9572C31.5791 18.8616 31.5888 18.7625 31.6261 18.6724C31.6634 18.5824 31.7266 18.5054 31.8077 18.4512C31.8887 18.3971 31.984 18.3682 32.0815 18.3682C32.2122 18.3682 32.3376 18.4201 32.43 18.5125C32.5225 18.605 32.5744 18.7303 32.5744 18.8611Z" fill="white"/>
<path d="M33.635 21.8313C33.635 20.5875 35.1575 19.5759 37.0362 19.5759C38.9149 19.5759 40.4374 20.5875 40.4374 21.8313C40.4374 23.0751 38.9149 24.0867 37.0362 24.0867C36.7219 24.087 36.4083 24.0576 36.0995 23.999C35.9082 24.2111 35.6746 24.3806 35.4136 24.4967C35.1527 24.6127 34.8702 24.6726 34.5847 24.6725C34.5465 24.6722 34.5095 24.6595 34.4792 24.6363C34.449 24.6132 34.4271 24.5807 34.4169 24.544C34.4067 24.5072 34.4087 24.4682 34.4227 24.4327C34.4367 24.3972 34.4618 24.3673 34.4943 24.3474C34.7523 24.1802 34.9693 23.957 35.1292 23.6945C34.226 23.2893 33.635 22.6055 33.635 21.8313Z" fill="#407BFF"/>
<path opacity="0.6" d="M33.635 21.8313C33.635 20.5875 35.1575 19.5759 37.0362 19.5759C38.9149 19.5759 40.4374 20.5875 40.4374 21.8313C40.4374 23.0751 38.9149 24.0867 37.0362 24.0867C36.7219 24.087 36.4083 24.0576 36.0995 23.999C35.9082 24.2111 35.6746 24.3806 35.4136 24.4967C35.1527 24.6127 34.8702 24.6726 34.5847 24.6725C34.5465 24.6722 34.5095 24.6595 34.4792 24.6363C34.449 24.6132 34.4271 24.5807 34.4169 24.544C34.4067 24.5072 34.4087 24.4682 34.4227 24.4327C34.4367 24.3972 34.4618 24.3673 34.4943 24.3474C34.7523 24.1802 34.9693 23.957 35.1292 23.6945C34.226 23.2893 33.635 22.6055 33.635 21.8313Z" fill="white"/>
<path d="M35.1163 21.7668C35.1163 21.8389 35.0949 21.9093 35.0548 21.9692C35.0147 22.0291 34.9577 22.0757 34.8911 22.1032C34.8244 22.1307 34.7511 22.1377 34.6805 22.1235C34.6098 22.1092 34.545 22.0743 34.4942 22.0232C34.4434 21.972 34.409 21.9069 34.3952 21.8362C34.3815 21.7654 34.3891 21.6922 34.417 21.6258C34.4449 21.5593 34.492 21.5027 34.5521 21.463C34.6123 21.4233 34.6829 21.4024 34.755 21.4029C34.8027 21.4029 34.8498 21.4124 34.8938 21.4307C34.9378 21.449 34.9778 21.4758 35.0114 21.5097C35.045 21.5435 35.0715 21.5836 35.0895 21.6277C35.1075 21.6719 35.1166 21.7191 35.1163 21.7668Z" fill="#407BFF"/>
<path d="M36.5975 21.7668C36.5975 21.8388 36.5761 21.9091 36.5362 21.9689C36.4962 22.0288 36.4393 22.0754 36.3729 22.103C36.3064 22.1305 36.2332 22.1377 36.1626 22.1237C36.092 22.1096 36.0272 22.075 35.9763 22.0241C35.9254 21.9732 35.8908 21.9084 35.8767 21.8378C35.8627 21.7672 35.8699 21.694 35.8974 21.6275C35.925 21.5611 35.9716 21.5042 36.0315 21.4642C36.0913 21.4243 36.1616 21.4029 36.2336 21.4029C36.3301 21.4029 36.4227 21.4413 36.4909 21.5095C36.5591 21.5777 36.5975 21.6703 36.5975 21.7668Z" fill="#407BFF"/>
<path d="M38.0504 21.7668C38.0504 21.8388 38.029 21.9091 37.989 21.9689C37.9491 22.0288 37.8922 22.0754 37.8257 22.103C37.7592 22.1305 37.6861 22.1377 37.6155 22.1237C37.5449 22.1096 37.4801 22.075 37.4292 22.0241C37.3783 21.9732 37.3437 21.9084 37.3296 21.8378C37.3156 21.7672 37.3228 21.694 37.3503 21.6275C37.3779 21.5611 37.4245 21.5042 37.4843 21.4642C37.5442 21.4243 37.6145 21.4029 37.6865 21.4029C37.783 21.4029 37.8755 21.4413 37.9438 21.5095C38.012 21.5777 38.0504 21.6703 38.0504 21.7668Z" fill="#407BFF"/>
<path d="M39.5162 21.7668C39.5162 21.8389 39.4948 21.9093 39.4547 21.9692C39.4146 22.0291 39.3576 22.0757 39.291 22.1032C39.2243 22.1307 39.151 22.1377 39.0804 22.1235C39.0097 22.1092 38.9449 22.0743 38.8941 22.0232C38.8433 21.972 38.8089 21.9069 38.7951 21.8362C38.7814 21.7654 38.789 21.6922 38.8169 21.6258C38.8448 21.5593 38.8919 21.5027 38.952 21.463C39.0122 21.4233 39.0828 21.4024 39.1549 21.4029C39.2026 21.4029 39.2497 21.4124 39.2937 21.4307C39.3378 21.449 39.3777 21.4758 39.4113 21.5097C39.4449 21.5435 39.4714 21.5836 39.4894 21.6277C39.5074 21.6719 39.5165 21.7191 39.5162 21.7668Z" fill="#407BFF"/>
<path d="M74.9913 43.0875L76.1061 50.0034L70.9682 48.3519C70.9682 48.3519 68.1012 38.4321 63.5594 36.009C63.5594 36.009 56.2693 36.1199 55.1932 30.9407C55.1932 30.9407 43.8386 33.0336 43.8386 24.4377C43.8386 15.8418 50.9662 6.25494 68.096 6.25494C86.751 6.25494 91.6386 24.657 87.9329 29.2866C87.9329 29.2866 90.369 37.5212 77.9384 39.3328C76.0107 39.614 74.7023 41.3043 74.9913 43.0875Z" fill="#407BFF"/>
<path opacity="0.4" d="M74.9913 43.0875L76.1061 50.0034L70.9682 48.3519C70.9682 48.3519 68.1012 38.4321 63.5594 36.009C63.5594 36.009 56.2693 36.1199 55.1932 30.9407C55.1932 30.9407 43.8386 33.0336 43.8386 24.4377C43.8386 15.8418 50.9662 6.25494 68.096 6.25494C86.751 6.25494 91.6386 24.657 87.9329 29.2866C87.9329 29.2866 90.369 37.5212 77.9384 39.3328C76.0107 39.614 74.7023 41.3043 74.9913 43.0875Z" fill="white"/>
<path d="M82.7693 18.0275C82.7982 17.7938 82.8128 17.5585 82.8131 17.323C82.8129 17.0884 82.7982 16.854 82.7693 16.6211L81.4015 16.1334C81.3024 15.7642 81.1559 15.4094 80.9654 15.0779L81.5873 13.767C81.2974 13.397 80.9638 13.0634 80.5938 12.7735L79.2829 13.3954C78.9512 13.2054 78.5965 13.0588 78.2274 12.9593L77.7397 11.5916C77.2727 11.5331 76.8003 11.5331 76.3333 11.5916L75.8482 12.9593C75.4781 13.0583 75.1225 13.2049 74.7901 13.3954L73.4792 12.7735C73.1092 13.0634 72.7756 13.397 72.4857 13.767L73.1076 15.0779C72.9182 15.4099 72.7717 15.7646 72.6715 16.1334L71.3038 16.6211C71.2748 16.854 71.2601 17.0884 71.2599 17.323C71.2602 17.5585 71.2748 17.7938 71.3038 18.0275L72.6715 18.5127C72.7721 18.8822 72.9186 19.2376 73.1076 19.5707L72.4857 20.879C72.7756 21.2498 73.1092 21.5843 73.4792 21.8752L74.7901 21.2507C75.1229 21.4408 75.4784 21.5882 75.8482 21.6894L76.3333 23.0571C76.8003 23.1155 77.2727 23.1155 77.7397 23.0571L78.2274 21.6894C78.5962 21.5878 78.9508 21.4404 79.2829 21.2507L80.5938 21.8752C80.9638 21.5843 81.2974 21.2498 81.5873 20.879L80.9654 19.5707C81.1554 19.2381 81.302 18.8825 81.4015 18.5127L82.7693 18.0275ZM77.0378 19.7384C76.56 19.7389 76.0927 19.5977 75.6952 19.3326C75.2976 19.0675 74.9876 18.6905 74.8044 18.2491C74.6212 17.8078 74.573 17.3221 74.6659 16.8534C74.7588 16.3847 74.9886 15.954 75.3263 15.616C75.664 15.2779 76.0944 15.0476 76.563 14.9542C77.0317 14.8608 77.5174 14.9085 77.959 15.0912C78.4005 15.274 78.7779 15.5835 79.0434 15.9808C79.3089 16.3781 79.4506 16.8452 79.4506 17.323C79.4506 17.9632 79.1965 18.5772 78.7441 19.0301C78.2917 19.483 77.678 19.7378 77.0378 19.7384Z" fill="#263238"/>
<path d="M82.4028 26.9383C82.4269 26.6928 82.4269 26.4456 82.4028 26.2002L81.1615 25.8983C81.1088 25.7142 81.0352 25.5367 80.9422 25.3693L81.6054 24.2803C81.4514 24.0911 81.2785 23.9181 81.0893 23.7642L80.0003 24.4299C79.8327 24.3354 79.6542 24.2617 79.4687 24.2106L79.177 22.9616C79.0545 22.9482 78.9313 22.9413 78.808 22.9409C78.6847 22.9413 78.5616 22.9481 78.439 22.9616L78.1242 24.1977C77.9397 24.2493 77.762 24.3229 77.5952 24.417L76.5036 23.7512C76.3144 23.9052 76.1414 24.0782 75.9875 24.2674L76.6532 25.3564C76.5591 25.5232 76.4855 25.7009 76.4339 25.8854L75.1901 26.1873C75.1901 26.3086 75.172 26.4454 75.172 26.5563C75.172 26.6673 75.172 26.8144 75.1901 26.9254L76.4339 27.2273C76.4855 27.4118 76.5591 27.5894 76.6532 27.7563L75.9875 28.8453C76.1421 29.0339 76.315 29.2068 76.5036 29.3614L77.5952 28.6956C77.7626 28.7887 77.94 28.8623 78.1242 28.915L78.4261 30.1562C78.5487 30.1697 78.6718 30.1766 78.7951 30.1769C78.9184 30.1765 79.0416 30.1696 79.1641 30.1562L79.4635 28.915C79.6486 28.8627 79.827 28.7891 79.9951 28.6956L81.0841 29.3614C81.2727 29.2068 81.4456 29.0339 81.6002 28.8453L80.937 27.7563C81.0301 27.5889 81.1037 27.4114 81.1564 27.2273L82.4028 26.9383ZM78.79 27.5808C78.5899 27.5808 78.3943 27.5215 78.228 27.4103C78.0616 27.2992 77.9319 27.1412 77.8554 26.9564C77.7788 26.7715 77.7588 26.5681 77.7978 26.3719C77.8368 26.1757 77.9332 25.9954 78.0747 25.8539C78.2161 25.7125 78.3964 25.6161 78.5926 25.5771C78.7888 25.5381 78.9922 25.5581 79.1771 25.6347C79.3619 25.7112 79.5199 25.8409 79.6311 26.0072C79.7422 26.1736 79.8016 26.3692 79.8016 26.5692C79.8016 26.8366 79.6957 27.0932 79.5071 27.2827C79.3185 27.4723 79.0625 27.5795 78.7951 27.5808H78.79Z" fill="#263238"/>
<path d="M72.5476 12.887C72.5682 12.6863 72.5682 12.4839 72.5476 12.2832L71.5334 12.0251C71.4907 11.8751 71.4309 11.7306 71.3553 11.5942L71.8973 10.7039C71.7699 10.5481 71.6272 10.4054 71.4715 10.2781L70.5812 10.82C70.4448 10.7444 70.3002 10.6847 70.1502 10.6419L69.8921 9.62776C69.7927 9.61738 69.6928 9.61222 69.5928 9.61227C69.492 9.61228 69.3912 9.61745 69.2909 9.62776L69.0328 10.6419C68.8822 10.6851 68.7368 10.7448 68.5993 10.82L67.7116 10.2781C67.5623 10.4105 67.4266 10.5575 67.3064 10.7168L67.8483 11.6071C67.7728 11.7435 67.713 11.888 67.6703 12.038L66.6561 12.2961C66.6355 12.4968 66.6355 12.6992 66.6561 12.8999L67.6703 13.158C67.713 13.308 67.7728 13.4525 67.8483 13.5889L67.3064 14.4792C67.4338 14.635 67.5764 14.7776 67.7322 14.905L68.6199 14.3631C68.7574 14.4383 68.9028 14.498 69.0535 14.5412L69.3115 15.5553C69.4118 15.5656 69.5126 15.5708 69.6134 15.5708C69.7134 15.5709 69.8133 15.5657 69.9128 15.5553L70.1709 14.5412C70.3208 14.4984 70.4654 14.4387 70.6018 14.3631L71.4921 14.905C71.6479 14.7776 71.7905 14.635 71.9179 14.4792L71.376 13.5889C71.4516 13.4525 71.5113 13.308 71.554 13.158L72.5476 12.887ZM69.6031 13.4031C69.4398 13.4031 69.2801 13.3547 69.1443 13.264C69.0085 13.1732 68.9027 13.0443 68.8402 12.8934C68.7777 12.7425 68.7613 12.5764 68.7932 12.4163C68.8251 12.2561 68.9037 12.1089 69.0192 11.9934C69.1347 11.878 69.2818 11.7993 69.442 11.7674C69.6022 11.7356 69.7682 11.7519 69.9191 11.8144C70.07 11.8769 70.199 11.9828 70.2897 12.1186C70.3805 12.2544 70.4289 12.414 70.4289 12.5774C70.4299 12.6864 70.4093 12.7947 70.3683 12.8957C70.3272 12.9968 70.2666 13.0888 70.1898 13.1663C70.113 13.2438 70.0216 13.3053 69.9209 13.3473C69.8202 13.3893 69.7122 13.4109 69.6031 13.4109V13.4031Z" fill="#263238"/>
<path d="M52.6254 22.3448L51.7532 22.4816C51.5569 22.5135 51.3557 22.4925 51.1702 22.4208C50.9847 22.3492 50.8216 22.2294 50.6978 22.0739L53.5028 21.63C53.4321 21.8156 53.3138 21.9794 53.1598 22.1048C53.0058 22.2303 52.8215 22.3131 52.6254 22.3448Z" fill="#263238"/>
<path d="M53.2031 19.7347L50.3994 20.1788L50.6529 21.7794L53.4566 21.3354L53.2031 19.7347Z" fill="#263238"/>
<path d="M55.0511 14.3915C54.9607 13.8193 54.7502 13.2726 54.4336 12.7875C54.117 12.3023 53.7013 11.8896 53.2139 11.5765C52.7265 11.2633 52.1784 11.0568 51.6055 10.9704C51.0327 10.8841 50.448 10.9199 49.89 11.0755C48.2178 11.5322 46.832 13.398 46.8836 15.1347C46.9019 15.8167 47.0898 16.4834 47.4304 17.0745C47.7711 17.6657 48.2536 18.1626 48.8345 18.5204C49.4811 18.9316 49.9737 19.5449 50.2358 20.2649C50.256 20.315 50.2923 20.357 50.3391 20.3841C50.3858 20.4112 50.4403 20.4219 50.4938 20.4146L53.1312 19.9965C53.1855 19.9872 53.2351 19.9596 53.2717 19.9183C53.3083 19.877 53.3297 19.8245 53.3325 19.7694C53.3718 18.9885 53.6633 18.2415 54.1634 17.6405C54.533 17.1926 54.8032 16.6714 54.9562 16.1113C55.1093 15.5512 55.1416 14.965 55.0511 14.3915Z" fill="#407BFF"/>
<path opacity="0.7" d="M55.0511 14.3915C54.9607 13.8193 54.7502 13.2726 54.4336 12.7875C54.117 12.3023 53.7013 11.8896 53.2139 11.5765C52.7265 11.2633 52.1784 11.0568 51.6055 10.9704C51.0327 10.8841 50.448 10.9199 49.89 11.0755C48.2178 11.5322 46.832 13.398 46.8836 15.1347C46.9019 15.8167 47.0898 16.4834 47.4304 17.0745C47.7711 17.6657 48.2536 18.1626 48.8345 18.5204C49.4811 18.9316 49.9737 19.5449 50.2358 20.2649C50.256 20.315 50.2923 20.357 50.3391 20.3841C50.3858 20.4112 50.4403 20.4219 50.4938 20.4146L53.1312 19.9965C53.1855 19.9872 53.2351 19.9596 53.2717 19.9183C53.3083 19.877 53.3297 19.8245 53.3325 19.7694C53.3718 18.9885 53.6633 18.2415 54.1634 17.6405C54.533 17.1926 54.8032 16.6714 54.9562 16.1113C55.1093 15.5512 55.1416 14.965 55.0511 14.3915Z" fill="white"/>
<path d="M53.2835 20.843L50.6152 21.2662C50.5228 21.2803 50.4286 21.2572 50.3532 21.2021C50.2777 21.147 50.2272 21.0643 50.2126 20.972C50.2052 20.9265 50.207 20.8801 50.2177 20.8353C50.2284 20.7906 50.2479 20.7484 50.275 20.7112C50.3021 20.674 50.3363 20.6425 50.3757 20.6187C50.415 20.5948 50.4587 20.5789 50.5042 20.572L53.1751 20.1488C53.2205 20.1414 53.267 20.1432 53.3117 20.1539C53.3565 20.1646 53.3987 20.1841 53.4359 20.2112C53.4731 20.2383 53.5045 20.2725 53.5284 20.3119C53.5523 20.3512 53.5682 20.3949 53.5751 20.4404C53.5892 20.5324 53.5666 20.6262 53.512 20.7016C53.4574 20.7769 53.3753 20.8277 53.2835 20.843Z" fill="#263238"/>
<path d="M53.4203 21.6997L50.7494 22.1332C50.657 22.1473 50.5628 22.1243 50.4874 22.0692C50.412 22.0141 50.3614 21.9313 50.3468 21.839C50.3398 21.7935 50.3419 21.7469 50.3529 21.7022C50.364 21.6574 50.3837 21.6152 50.411 21.5781C50.4383 21.5409 50.4727 21.5095 50.5122 21.4857C50.5516 21.4618 50.5954 21.446 50.641 21.4391L53.3093 21.0158C53.4013 21.0017 53.4951 21.0244 53.5705 21.0789C53.6459 21.1335 53.6967 21.2156 53.7119 21.3074C53.7231 21.3978 53.6991 21.489 53.6448 21.5621C53.5904 21.6351 53.51 21.6844 53.4203 21.6997Z" fill="#263238"/>
<g opacity="0.5">
<path d="M53.2835 20.843L50.6152 21.2662C50.5228 21.2803 50.4286 21.2572 50.3532 21.2021C50.2777 21.147 50.2272 21.0643 50.2126 20.972C50.2052 20.9265 50.207 20.8801 50.2177 20.8353C50.2284 20.7906 50.2479 20.7484 50.275 20.7112C50.3021 20.674 50.3363 20.6425 50.3757 20.6187C50.415 20.5948 50.4587 20.5789 50.5042 20.572L53.1751 20.1488C53.2205 20.1414 53.267 20.1432 53.3117 20.1539C53.3565 20.1646 53.3987 20.1841 53.4359 20.2112C53.4731 20.2383 53.5045 20.2725 53.5284 20.3119C53.5523 20.3512 53.5682 20.3949 53.5751 20.4404C53.5892 20.5324 53.5666 20.6262 53.512 20.7016C53.4574 20.7769 53.3753 20.8277 53.2835 20.843Z" fill="white"/>
<path d="M53.4203 21.6997L50.7494 22.1332C50.657 22.1473 50.5628 22.1243 50.4874 22.0692C50.412 22.0141 50.3614 21.9313 50.3468 21.839C50.3398 21.7935 50.3419 21.7469 50.3529 21.7022C50.364 21.6574 50.3837 21.6152 50.411 21.5781C50.4383 21.5409 50.4727 21.5095 50.5122 21.4857C50.5516 21.4618 50.5954 21.446 50.641 21.4391L53.3093 21.0158C53.4013 21.0017 53.4951 21.0244 53.5705 21.0789C53.6459 21.1335 53.6967 21.2156 53.7119 21.3074C53.7231 21.3978 53.6991 21.489 53.6448 21.5621C53.5904 21.6351 53.51 21.6844 53.4203 21.6997Z" fill="white"/>
</g>
<path opacity="0.5" d="M53.4331 13.2405C53.2628 13.9476 52.5712 13.6354 51.6809 13.416C50.7906 13.1967 50.0319 13.158 50.2048 12.4509C50.3777 11.7438 51.237 11.349 52.1325 11.5658C53.028 11.7825 53.606 12.5335 53.4331 13.2405Z" fill="white"/>
<path d="M48.6642 10.4252L48.1197 9.10648C48.1008 9.06145 48.091 9.0131 48.0908 8.96423C48.0907 8.91537 48.1003 8.86697 48.119 8.82184C48.1377 8.7767 48.1652 8.73574 48.1999 8.70132C48.2346 8.6669 48.2758 8.63971 48.321 8.62133C48.3662 8.60232 48.4148 8.59245 48.4638 8.59229C48.5129 8.59213 48.5615 8.60168 48.6068 8.62039C48.6522 8.6391 48.6934 8.6666 48.728 8.70131C48.7627 8.73602 48.7901 8.77725 48.8088 8.82262L49.3533 10.1387C49.3723 10.1839 49.3821 10.2325 49.3823 10.2815C49.3825 10.3306 49.3729 10.3792 49.3542 10.4245C49.3355 10.4698 49.308 10.511 49.2733 10.5457C49.2386 10.5803 49.1973 10.6078 49.152 10.6264C49.0605 10.6634 48.9582 10.6631 48.867 10.6254C48.7758 10.5878 48.703 10.5159 48.6642 10.4252Z" fill="#407BFF"/>
<path d="M55.4357 13.2302C55.3987 13.1388 55.3991 13.0364 55.4367 12.9452C55.4743 12.854 55.5462 12.7813 55.637 12.7425L56.9556 12.198C57.0007 12.179 57.049 12.1692 57.0979 12.1691C57.1468 12.1689 57.1952 12.1785 57.2403 12.1972C57.2854 12.216 57.3264 12.2435 57.3608 12.2781C57.3952 12.3128 57.4224 12.354 57.4408 12.3993C57.4598 12.4445 57.4697 12.493 57.4698 12.5421C57.47 12.5911 57.4604 12.6397 57.4417 12.6851C57.423 12.7304 57.3955 12.7716 57.3608 12.8063C57.3261 12.8409 57.2849 12.8684 57.2395 12.887L55.9234 13.4315C55.8782 13.4505 55.8297 13.4604 55.7806 13.4606C55.7316 13.4607 55.683 13.4512 55.6376 13.4325C55.5923 13.4137 55.5511 13.3862 55.5164 13.3515C55.4818 13.3168 55.4543 13.2756 55.4357 13.2302Z" fill="#407BFF"/>
<path d="M44.5431 17.7462C44.5241 17.701 44.5142 17.6525 44.514 17.6034C44.5139 17.5544 44.5234 17.5058 44.5421 17.4605C44.5609 17.4151 44.5884 17.3739 44.6231 17.3393C44.6578 17.3046 44.699 17.2772 44.7444 17.2585L46.0605 16.714C46.1057 16.695 46.1542 16.6851 46.2033 16.685C46.2523 16.6848 46.3009 16.6944 46.3463 16.7131C46.3916 16.7318 46.4328 16.7593 46.4674 16.794C46.5021 16.8287 46.5295 16.8699 46.5482 16.9153C46.5852 17.0068 46.5848 17.1091 46.5472 17.2003C46.5095 17.2915 46.4376 17.3643 46.3469 17.403L45.0282 17.9475C44.9832 17.9665 44.9348 17.9763 44.886 17.9765C44.8371 17.9766 44.7887 17.967 44.7436 17.9483C44.6985 17.9296 44.6575 17.9021 44.6231 17.8674C44.5887 17.8327 44.5615 17.7915 44.5431 17.7462Z" fill="#407BFF"/>
<path d="M52.8345 10.6264C52.7891 10.6078 52.7479 10.5803 52.7132 10.5457C52.6784 10.511 52.6509 10.4698 52.6322 10.4245C52.6135 10.3792 52.604 10.3306 52.6041 10.2815C52.6043 10.2325 52.6142 10.1839 52.6332 10.1387L53.1777 8.82262C53.1963 8.77725 53.2238 8.73602 53.2584 8.70131C53.2931 8.6666 53.3343 8.6391 53.3796 8.62039C53.425 8.60168 53.4736 8.59213 53.5226 8.59229C53.5717 8.59245 53.6202 8.60232 53.6654 8.62133C53.7107 8.63971 53.7518 8.6669 53.7865 8.70132C53.8212 8.73574 53.8487 8.7767 53.8674 8.82184C53.8862 8.86697 53.8957 8.91537 53.8956 8.96423C53.8955 9.0131 53.8857 9.06145 53.8667 9.10648L53.3222 10.4252C53.2834 10.5159 53.2106 10.5878 53.1194 10.6254C53.0282 10.6631 52.9259 10.6634 52.8345 10.6264Z" fill="#407BFF"/>
<path d="M56.9582 17.945L55.6395 17.4005C55.5488 17.3617 55.4769 17.2889 55.4393 17.1977C55.4016 17.1065 55.4013 17.0042 55.4382 16.9127C55.4569 16.8674 55.4843 16.8261 55.519 16.7914C55.5537 16.7567 55.5948 16.7292 55.6402 16.7105C55.6855 16.6918 55.7341 16.6822 55.7832 16.6824C55.8322 16.6826 55.8808 16.6924 55.926 16.7114L57.2421 17.256C57.2874 17.2746 57.3287 17.302 57.3634 17.3367C57.3981 17.3714 57.4256 17.4126 57.4443 17.4579C57.463 17.5032 57.4726 17.5518 57.4724 17.6009C57.4722 17.6499 57.4624 17.6985 57.4434 17.7437C57.425 17.789 57.3978 17.8301 57.3634 17.8648C57.3289 17.8995 57.288 17.927 57.2428 17.9457C57.1977 17.9644 57.1493 17.974 57.1005 17.9739C57.0516 17.9738 57.0032 17.9639 56.9582 17.945Z" fill="#407BFF"/>
<path d="M46.0605 13.4315L44.7444 12.887C44.699 12.8684 44.6578 12.8409 44.6231 12.8063C44.5884 12.7716 44.5609 12.7304 44.5421 12.6851C44.5234 12.6397 44.5139 12.5911 44.514 12.5421C44.5142 12.493 44.5241 12.4445 44.5431 12.3993C44.5615 12.354 44.5887 12.3128 44.6231 12.2781C44.6575 12.2435 44.6985 12.216 44.7436 12.1972C44.7887 12.1785 44.8371 12.1689 44.886 12.1691C44.9348 12.1692 44.9832 12.179 45.0282 12.198L46.3469 12.7425C46.4376 12.7813 46.5095 12.854 46.5472 12.9452C46.5848 13.0364 46.5852 13.1388 46.5482 13.2302C46.5295 13.2756 46.5021 13.3168 46.4674 13.3515C46.4328 13.3862 46.3916 13.4137 46.3463 13.4325C46.3009 13.4512 46.2523 13.4607 46.2033 13.4606C46.1542 13.4604 46.1057 13.4505 46.0605 13.4315Z" fill="#407BFF"/>
<path d="M60.1453 94.6397L58.2743 94.6113L58.1737 90.2682L60.042 90.2965L60.1453 94.6397Z" fill="#FF8B7B"/>
<path d="M58.2047 94.0435L60.246 94.0771C60.2826 94.0767 60.3182 94.0895 60.3462 94.1132C60.3741 94.1369 60.3926 94.1699 60.3982 94.2061L60.6563 95.8783C60.6623 95.9195 60.6592 95.9614 60.6474 96.0013C60.6355 96.0412 60.6152 96.078 60.5877 96.1091C60.5602 96.1403 60.5262 96.1651 60.4881 96.1819C60.4501 96.1986 60.4088 96.2069 60.3672 96.2061C59.6318 96.1828 58.5608 96.1209 57.6422 96.108C56.5583 96.0899 56.6667 96.1338 55.3971 96.108C54.6229 96.0951 54.4655 95.3158 54.7906 95.2487C56.277 94.9519 56.4267 94.9364 57.7402 94.1752C57.8809 94.0915 58.041 94.0461 58.2047 94.0435Z" fill="#263238"/>
<path opacity="0.2" d="M58.1737 90.2682L58.2253 92.5081L60.0962 92.5365L60.0446 90.2991L58.1737 90.2682Z" fill="black"/>
<path d="M57.8744 94.2113C57.8821 94.209 57.8889 94.2042 57.8935 94.1977C57.8982 94.1911 57.9006 94.1832 57.9002 94.1752C57.9013 94.1664 57.8996 94.1575 57.8954 94.1496C57.8913 94.1418 57.8849 94.1354 57.877 94.1313C57.7893 94.0848 57.0228 93.6926 56.8009 93.8139C56.7798 93.8257 56.7623 93.843 56.7501 93.8638C56.7378 93.8847 56.7313 93.9084 56.7312 93.9326C56.7281 93.9733 56.7346 94.0142 56.7503 94.0518C56.766 94.0895 56.7904 94.1229 56.8216 94.1494C57.0332 94.3326 57.5673 94.2681 57.8538 94.2139L57.8744 94.2113ZM56.8629 93.8861C57.0022 93.8397 57.4151 94.0023 57.717 94.1442C57.3067 94.2061 56.997 94.1855 56.8783 94.0797C56.8578 94.0625 56.8418 94.0406 56.8314 94.0159C56.8211 93.9912 56.8168 93.9644 56.819 93.9377C56.8186 93.9281 56.8211 93.9185 56.8261 93.9102C56.8312 93.902 56.8386 93.8954 56.8474 93.8913L56.8629 93.8861Z" fill="#407BFF"/>
<path d="M57.8745 94.2113C57.8807 94.2066 57.8854 94.2002 57.8882 94.1929C57.8909 94.1856 57.8915 94.1776 57.8899 94.17C57.8613 93.9019 57.7515 93.6489 57.5751 93.4449C57.5397 93.4148 57.4986 93.3921 57.4543 93.3784C57.4099 93.3646 57.3632 93.36 57.3171 93.3649C57.1958 93.3649 57.1622 93.4371 57.1545 93.4861C57.1287 93.6978 57.5906 94.1106 57.8203 94.2139C57.8287 94.2185 57.8382 94.2207 57.8477 94.2203C57.8573 94.2198 57.8666 94.2167 57.8745 94.2113ZM57.3042 93.4578C57.3195 93.4544 57.3353 93.4544 57.3506 93.4578C57.383 93.4543 57.4157 93.4576 57.4468 93.4674C57.4779 93.4771 57.5066 93.4932 57.5312 93.5145C57.6738 93.6787 57.7637 93.8819 57.7893 94.0977C57.5519 93.9558 57.2371 93.6307 57.2551 93.5042C57.2654 93.4887 57.268 93.4681 57.3042 93.4578Z" fill="#407BFF"/>
<path d="M61.2782 68.7771C62.7982 57.7349 64.6949 53.2498 63.833 47.8745L58.2667 47.9648C58.2667 47.9648 55.6629 62.6947 56.2177 69.0481C56.7932 75.6518 57.6344 91.0243 57.6344 91.0243L60.6485 91.0733C60.6485 91.0733 62.4033 76.155 61.2782 68.7771Z" fill="#407BFF"/>
<path opacity="0.2" d="M63.9258 52.9014C63.6239 55.8794 62.8136 59.2754 61.9749 64.2379C61.2059 60.0445 60.9943 55.0898 63.9258 52.9014Z" fill="black"/>
<path d="M57.175 90.2682L57.4254 91.7313L60.7414 91.7984L60.873 90.4153L57.175 90.2682Z" fill="#407BFF"/>
<path d="M70.7464 94.6397L68.8729 94.6113L68.2535 90.2682L70.127 90.2965L70.7464 94.6397Z" fill="#FF8B7B"/>
<path d="M68.7386 94.0435L70.7798 94.0771C70.8156 94.0769 70.8502 94.09 70.8769 94.1138C70.9036 94.1376 70.9205 94.1705 70.9244 94.2061L71.1024 95.8783C71.1056 95.9204 71.1001 95.9628 71.086 96.0026C71.072 96.0425 71.0499 96.079 71.021 96.1098C70.9921 96.1406 70.9571 96.1651 70.9183 96.1817C70.8794 96.1982 70.8376 96.2065 70.7953 96.2061C70.0599 96.1828 69.8276 96.1209 68.9038 96.108C67.8199 96.0899 68.3206 96.1338 67.0509 96.108C66.2767 96.0951 66.1606 95.3183 66.4883 95.2487C67.5206 95.0319 67.8019 94.6164 68.2715 94.1751C68.4051 94.0741 68.5719 94.0271 68.7386 94.0435Z" fill="#263238"/>
<path opacity="0.2" d="M68.2561 90.2682L68.5735 92.5081L70.447 92.5365L70.1296 90.2991L68.2561 90.2682Z" fill="black"/>
<path d="M69.1128 94.1855C69.121 94.1865 69.1293 94.1851 69.1366 94.1815C69.144 94.1778 69.1501 94.172 69.1541 94.1648C69.1586 94.157 69.161 94.1481 69.161 94.139C69.161 94.13 69.1586 94.1211 69.1541 94.1132C69.0896 94.041 68.5244 93.4165 68.2664 93.4526C68.2424 93.4557 68.2196 93.465 68.2002 93.4794C68.1807 93.4939 68.1653 93.5131 68.1554 93.5352C68.1373 93.5712 68.1278 93.611 68.1278 93.6513C68.1278 93.6916 68.1373 93.7314 68.1554 93.7674C68.2819 94.01 68.8083 94.1339 69.1128 94.1855ZM68.2896 93.5403C68.4393 93.5403 68.7644 93.8345 68.9915 94.0745C68.5812 93.9893 68.2999 93.8629 68.2173 93.7261C68.2053 93.7025 68.1991 93.6765 68.1991 93.65C68.1991 93.6235 68.2053 93.5975 68.2173 93.5739C68.221 93.5649 68.227 93.557 68.2347 93.5511C68.2424 93.5452 68.2516 93.5415 68.2612 93.5403H68.2896Z" fill="#407BFF"/>
<path d="M69.1128 94.1855C69.1203 94.1837 69.1272 94.1799 69.1327 94.1744C69.1382 94.169 69.142 94.1621 69.1438 94.1545C69.2258 93.903 69.2258 93.6319 69.1438 93.3803C69.1231 93.3412 69.0945 93.3068 69.0599 93.2792C69.0253 93.2517 68.9853 93.2316 68.9425 93.2204C68.8238 93.1894 68.7696 93.2333 68.7438 93.2771C68.6354 93.4629 68.9089 93.9997 69.0844 94.1752C69.0922 94.1821 69.1024 94.1858 69.1128 94.1855ZM68.8728 93.2952H68.9193C68.9509 93.3038 68.9805 93.3188 69.0063 93.3392C69.032 93.3596 69.0533 93.385 69.0689 93.4139C69.1393 93.6159 69.1474 93.8343 69.0922 94.041C68.927 93.8294 68.7567 93.4216 68.8341 93.3107C68.8186 93.3133 68.8289 93.2952 68.8676 93.2952H68.8728Z" fill="#407BFF"/>
<path d="M69.2883 68.7771C70.3206 57.9387 70.1193 52.8601 69.0019 47.7583L62.1221 47.9674C62.1221 47.9674 62.9659 62.6973 64.2588 69.0507C65.6007 75.6544 67.7064 91.0268 67.7064 91.0268L70.7231 91.0759C70.7231 91.0759 71.2702 76.155 69.2883 68.7771Z" fill="#407BFF"/>
<path d="M67.2651 90.2682L67.4638 91.7313L70.847 91.7984L71.0379 90.4153L67.2651 90.2682Z" fill="#407BFF"/>
<path d="M61.8872 32.902L61.7349 33.0413L61.6059 33.1575L61.3478 33.3691C61.1749 33.5058 61.0021 33.6271 60.8317 33.7561C60.4819 34.0047 60.1193 34.2347 59.7453 34.4452C58.9893 34.8685 58.1887 35.2068 57.3583 35.4542C56.5121 35.706 55.6369 35.8474 54.7545 35.8748C54.5325 35.8748 54.3106 35.8748 54.0887 35.8748L53.7558 35.8542H53.6603L53.5029 35.8387C53.3843 35.8218 53.2671 35.7968 53.1519 35.7638C52.8321 35.671 52.5409 35.4988 52.3055 35.2632C52.0659 35.013 51.8983 34.7027 51.8204 34.3652C51.7395 33.9726 51.7546 33.5662 51.8642 33.1807C51.9964 32.713 52.1853 32.2632 52.4268 31.8414C52.6276 31.4758 52.8472 31.1209 53.0848 30.7782C53.5416 30.1072 54.0216 29.4879 54.5196 28.8814C55.5099 27.6871 56.5661 26.549 57.6834 25.4725L58.8369 26.4763C57.9828 27.7021 57.1286 28.9563 56.3286 30.2001C55.9338 30.8272 55.5545 31.4543 55.2061 32.0788C55.0383 32.3936 54.8809 32.7033 54.7467 33.0026C54.6295 33.2492 54.5429 33.5092 54.4887 33.7768C54.468 33.8594 54.5093 33.9058 54.4887 33.7226C54.4548 33.5712 54.3788 33.4325 54.2693 33.3226C54.1729 33.2179 54.0511 33.1397 53.9158 33.0955C53.8926 33.0955 53.8435 33.08 53.8435 33.0749H53.8719H54.1093C54.2667 33.0749 54.4267 33.0568 54.5816 33.0336C55.2175 32.9598 55.8427 32.8126 56.4448 32.5949C57.0604 32.372 57.6546 32.0939 58.2202 31.7639C58.5066 31.5988 58.7879 31.4233 59.0563 31.2323C59.1931 31.1394 59.3144 31.0414 59.4511 30.9433L59.6395 30.7988L59.7866 30.6775L61.8872 32.902Z" fill="#CE7A63"/>
<path d="M55.0538 32.662L55.9519 36.4167C55.9519 36.4167 60.8266 35.609 62.9194 33.1574C64.3955 31.4284 62.4033 29.9472 59.3066 30.5536C57.3996 30.9304 55.0538 32.662 55.0538 32.662Z" fill="#407BFF"/>
<path opacity="0.7" d="M55.0538 32.662L55.9519 36.4167C55.9519 36.4167 60.8266 35.609 62.9194 33.1574C64.3955 31.4284 62.4033 29.9472 59.3066 30.5536C57.3996 30.9304 55.0538 32.662 55.0538 32.662Z" fill="white"/>
<path d="M57.3995 26.0041L57.4718 23.6584L59.5827 24.4532C59.5827 24.4532 59.1595 26.6415 58.4627 26.6492L57.3995 26.0041Z" fill="#CE7A63"/>
<path d="M59.0872 22.3216L60.4111 23.2558L59.5801 24.4557L57.4718 23.6609L59.0872 22.3216Z" fill="#CE7A63"/>
<path d="M58.1299 48.2203L59.6653 48.9944L61.5801 47.9622L63.4846 49.2525L69.0173 48.2203C69.0948 47.2474 68.8702 44.0913 69.038 40.0553C69.1396 37.0662 69.5014 34.0916 70.1192 31.1652C70.1683 30.9459 70.2173 30.7291 70.2689 30.5072C70.2689 30.5072 69.7192 30.3962 68.927 30.2801C68.2715 30.1846 67.4483 30.0865 66.6406 30.0478C65.0996 29.9587 63.5547 29.9587 62.0137 30.0478C61.3014 30.1124 60.6072 30.2311 60.0524 30.3369C59.3428 30.4814 58.9247 30.5949 58.9247 30.5949C58.9247 30.5949 56.2435 36.7702 58.1299 48.2203Z" fill="#263238"/>
<path opacity="0.3" d="M69.0379 40.0579C69.1394 37.0679 69.5012 34.0924 70.1192 31.1652C69.3914 31.1033 68.1476 31.1652 67.9412 32.3497C67.7192 33.6219 67.9979 36.5844 69.0379 40.0579Z" fill="black"/>
<path d="M70.9012 31.8181C71.1154 32.151 71.296 32.4452 71.4741 32.7626C71.6521 33.08 71.8302 33.3897 71.9902 33.7071C72.3343 34.3419 72.6482 34.9905 72.9321 35.6529C73.5384 37.0037 73.9953 38.4168 74.2946 39.8669L74.3204 40.0063L74.3359 40.076L74.354 40.1921C74.3782 40.3457 74.3902 40.501 74.3901 40.6566C74.3878 40.9169 74.3593 41.1762 74.305 41.4308C74.2126 41.8508 74.0786 42.2605 73.905 42.654C73.5968 43.3448 73.2299 44.0078 72.8082 44.6358C72.0106 45.8281 71.1025 46.9427 70.096 47.9648L68.8909 47.0229C69.5515 45.859 70.2225 44.6642 70.7722 43.4823C71.046 42.9192 71.2788 42.337 71.4689 41.7404C71.5491 41.4929 71.6036 41.2378 71.6315 40.9792C71.6396 40.8933 71.6396 40.8069 71.6315 40.7211C71.6301 40.7038 71.6248 40.687 71.616 40.6721L71.6005 40.6153L71.567 40.5043L71.4379 40.0605L71.2831 39.614C71.1825 39.3147 71.0663 39.0153 70.9476 38.7186C70.7076 38.1225 70.4315 37.5289 70.1554 36.9406C69.8793 36.3522 69.567 35.7664 69.2548 35.1832C69.0999 34.8942 68.9399 34.6051 68.7748 34.3187L68.2948 33.4877L70.9012 31.8181Z" fill="#CE7A63"/>
<path d="M67.5644 34.2258C68.0238 35.5884 69.776 38.4683 69.776 38.4683L73.9049 36.1845C73.9049 36.1845 72.0985 30.9304 70.2715 30.5072C68.2406 30.0659 66.7335 31.7562 67.5644 34.2258Z" fill="#407BFF"/>
<path opacity="0.7" d="M67.5644 34.2258C68.0238 35.5884 69.776 38.4683 69.776 38.4683L73.9049 36.1845C73.9049 36.1845 72.0985 30.9304 70.2715 30.5072C68.2406 30.0659 66.7335 31.7562 67.5644 34.2258Z" fill="white"/>
<path d="M69.4431 46.5738L67.4148 46.2203L68.447 48.566C68.447 48.566 70.2973 48.5661 70.2121 47.6009L69.4431 46.5738Z" fill="#CE7A63"/>
<path d="M65.9026 47.3996L66.8548 49.2938L68.4574 48.566L67.4174 46.2203L65.9026 47.3996Z" fill="#CE7A63"/>
<path d="M62.3001 34.1871C62.3001 34.1871 60.6382 33.1394 61.6704 30.0943L62.0137 30.0582C63.5547 29.9691 65.0996 29.9691 66.6406 30.0582C66.8213 30.0582 67.0045 30.0788 67.1851 30.0917C65.4447 31.3172 63.8105 32.6872 62.3001 34.1871Z" fill="#407BFF"/>
<path opacity="0.7" d="M62.3001 34.1871C62.3001 34.1871 60.6382 33.1394 61.6704 30.0943L62.0137 30.0582C63.5547 29.9691 65.0996 29.9691 66.6406 30.0582C66.8213 30.0582 67.0045 30.0788 67.1851 30.0917C65.4447 31.3172 63.8105 32.6872 62.3001 34.1871Z" fill="white"/>
<path d="M63.8871 31.3149C66.4677 31.2685 66.8187 30.0685 66.8187 30.0685C65.8097 29.075 66.1967 26.3576 66.54 24.8661L65.3013 25.8983L63.6162 27.2944C63.6657 27.5191 63.7019 27.7466 63.7246 27.9757C63.8149 28.8892 63.5775 29.7227 62.233 30.0401C62.233 30.0401 60.6356 31.0981 63.0072 31.2891L63.8871 31.3149Z" fill="#CE7A63"/>
<path opacity="0.2" d="M63.6162 27.2944C63.6657 27.5191 63.7019 27.7466 63.7246 27.9757C64.3517 27.8492 65.1929 27.1783 65.2729 26.5357C65.3046 26.323 65.3115 26.1074 65.2936 25.8931L63.6162 27.2944Z" fill="black"/>
<path d="M60.8549 20.7191C60.0575 21.4778 60.4549 24.3319 61.8613 24.4867C63.2678 24.6416 62.3646 19.2946 60.8549 20.7191Z" fill="#263238"/>
<path d="M66.1787 22.1074C66.4213 24.1177 66.6665 25.279 65.8587 26.5176C65.5999 26.9216 65.2357 27.2472 64.8055 27.4594C64.3752 27.6715 63.8951 27.7622 63.4171 27.7216C62.9391 27.6809 62.4812 27.5105 62.0929 27.2288C61.7046 26.9471 61.4006 26.5647 61.2137 26.1228C60.4628 24.4325 60.1815 21.4288 61.9879 20.2159C62.3669 19.9466 62.8099 19.7812 63.2727 19.7362C63.7355 19.6913 64.2021 19.7683 64.6259 19.9596C65.0497 20.1508 65.416 20.4498 65.6885 20.8266C65.9609 21.2034 66.1299 21.645 66.1787 22.1074Z" fill="#CE7A63"/>
<path d="M67.7064 19.4959C68.7541 19.5862 68.6715 21.0081 68.3283 22.0145C67.8509 23.4132 66.8625 24.7577 66.0677 24.4661C65.7477 24.4248 65.1645 25.1448 64.9322 24.4351C64.811 24.0687 65.2961 23.4029 65.3039 22.7551C65.3116 22.1074 64.8393 21.4778 64.8729 21.1784C63.8252 20.9204 61.2343 22.8893 59.495 20.8971C58.7208 20.0043 58.9427 16.7398 60.7156 17.4392C61.8356 17.883 63.3968 19.1888 64.5529 18.4714C66.3361 17.3617 68.2405 18.105 67.7064 19.4959Z" fill="#263238"/>
<path d="M67.2884 23.9087C67.1125 24.3785 66.7798 24.7732 66.3465 25.026C65.7916 25.3331 65.4691 24.8325 65.5852 24.2003C65.691 23.6299 66.1013 22.7861 66.6794 22.7422C67.2574 22.6984 67.5103 23.3151 67.2884 23.9087Z" fill="#CE7A63"/>
<path d="M63.2936 23.3177C63.322 23.4777 63.2627 23.6274 63.1569 23.6506C63.0511 23.6738 62.9427 23.5629 62.9143 23.3926C62.8859 23.2222 62.9453 23.0803 63.0511 23.0571C63.1569 23.0339 63.2627 23.1655 63.2936 23.3177Z" fill="#263238"/>
<path d="M61.4795 23.7151C61.5105 23.8751 61.4485 24.0248 61.3453 24.048C61.2421 24.0712 61.1311 23.9603 61.0872 23.79C61.0434 23.6196 61.1182 23.4777 61.224 23.4545C61.3298 23.4313 61.4511 23.5525 61.4795 23.7151Z" fill="#263238"/>
<path d="M62.0704 23.6816C61.9675 24.2182 61.7939 24.7388 61.5543 25.2299C61.68 25.2844 61.8161 25.3105 61.953 25.3065C62.0899 25.3025 62.2243 25.2684 62.3466 25.2067L62.0704 23.6816Z" fill="#BA4D3C"/>
<path d="M63.7452 22.6029C63.7609 22.5978 63.775 22.5889 63.7865 22.5771C63.8043 22.5588 63.8143 22.5342 63.8143 22.5087C63.8143 22.4832 63.8043 22.4586 63.7865 22.4403C63.6754 22.3368 63.5406 22.2622 63.3939 22.2231C63.2472 22.1839 63.0931 22.1814 62.9452 22.2158C62.9206 22.2236 62.8999 22.2405 62.8875 22.2631C62.875 22.2856 62.8716 22.3121 62.8781 22.3371C62.8859 22.3616 62.9029 22.3821 62.9256 22.3941C62.9483 22.4062 62.9748 22.4089 62.9994 22.4016C63.1157 22.3762 63.2365 22.3796 63.3512 22.4115C63.4659 22.4435 63.571 22.503 63.6574 22.5848C63.6694 22.595 63.6837 22.602 63.699 22.6051C63.7143 22.6083 63.7302 22.6075 63.7452 22.6029Z" fill="#263238"/>
<path d="M60.597 23.2583C60.6116 23.2525 60.6248 23.2434 60.6355 23.2318C60.6463 23.2202 60.6542 23.2064 60.6589 23.1913C60.6887 23.0725 60.7451 22.962 60.8238 22.8681C60.9024 22.7743 61.0013 22.6995 61.1131 22.6493C61.137 22.6408 61.1566 22.6231 61.1675 22.6001C61.1784 22.5771 61.1797 22.5507 61.1711 22.5268C61.1626 22.5028 61.1449 22.4832 61.1219 22.4723C61.0989 22.4614 61.0725 22.4601 61.0486 22.4687C60.9064 22.5297 60.7803 22.6226 60.6801 22.7403C60.5798 22.8581 60.5081 22.9974 60.4705 23.1474C60.4642 23.1724 60.468 23.1988 60.481 23.221C60.4941 23.2432 60.5153 23.2594 60.5402 23.2661C60.5595 23.2688 60.5791 23.2661 60.597 23.2583Z" fill="#263238"/>
<path d="M60.0111 23.7383L60.184 24.5125C60.1956 24.5635 60.2241 24.6091 60.2649 24.6419C60.3056 24.6746 60.3562 24.6927 60.4085 24.6932C60.4256 24.6957 60.443 24.6957 60.4601 24.6932L61.7066 24.4145C61.7656 24.4009 61.817 24.3646 61.8494 24.3133C61.8818 24.2621 61.8926 24.2001 61.8795 24.1409L61.7375 23.5138C61.7974 23.4529 61.8731 23.4099 61.9561 23.3899C62.0391 23.3698 62.1261 23.3734 62.2072 23.4003L62.3491 24.0351C62.3607 24.0861 62.3892 24.1317 62.43 24.1645C62.4707 24.1972 62.5213 24.2153 62.5736 24.2158C62.5899 24.2182 62.6064 24.2182 62.6227 24.2158L64.2433 23.8545C64.3026 23.8403 64.3539 23.8035 64.3862 23.7518C64.4186 23.7002 64.4293 23.6379 64.4162 23.5784L64.2407 22.8042C64.2295 22.753 64.2011 22.7071 64.1603 22.6743C64.1194 22.6414 64.0686 22.6235 64.0162 22.6235H63.9671L62.3491 22.9874C62.3196 22.9938 62.2917 23.006 62.2669 23.0232C62.2421 23.0404 62.221 23.0624 62.2047 23.0878C62.1884 23.1132 62.1773 23.1416 62.1719 23.1713C62.1666 23.201 62.1672 23.2315 62.1736 23.2609C62.0925 23.2444 62.0088 23.2451 61.9279 23.2629C61.847 23.2806 61.7707 23.3151 61.704 23.3642C61.6924 23.3132 61.6639 23.2676 61.6231 23.2348C61.5824 23.202 61.5318 23.184 61.4795 23.1835C61.4632 23.181 61.4467 23.181 61.4304 23.1835L60.184 23.4622C60.1545 23.4689 60.1266 23.4814 60.1019 23.4989C60.0772 23.5164 60.0562 23.5387 60.0401 23.5643C60.0241 23.59 60.0132 23.6186 60.0083 23.6484C60.0033 23.6783 60.0042 23.7089 60.0111 23.7383ZM62.3775 23.1113L63.9955 22.7474H64.0162C64.0382 22.7474 64.0596 22.7547 64.0769 22.7683C64.0942 22.7819 64.1064 22.8009 64.1117 22.8222L64.2846 23.5964C64.2894 23.6078 64.2919 23.6201 64.2919 23.6325C64.2919 23.645 64.2894 23.6572 64.2846 23.6687C64.278 23.6793 64.2694 23.6884 64.2592 23.6955C64.249 23.7026 64.2374 23.7075 64.2252 23.71L62.6072 24.0738H62.5865C62.565 24.0733 62.5442 24.0657 62.5274 24.0522C62.5106 24.0386 62.4987 24.0199 62.4936 23.999L62.3182 23.2248C62.3116 23.2019 62.3141 23.1773 62.3251 23.1562C62.3362 23.135 62.3549 23.119 62.3775 23.1113ZM60.2124 23.5964L61.4588 23.3151H61.4795C61.5014 23.3155 61.5225 23.323 61.5398 23.3365C61.557 23.35 61.5693 23.3688 61.5749 23.39L61.7479 24.1641C61.751 24.1764 61.7515 24.1892 61.7493 24.2017C61.7471 24.2142 61.7422 24.226 61.7349 24.2364C61.7284 24.247 61.7198 24.2561 61.7096 24.2632C61.6994 24.2703 61.6878 24.2753 61.6756 24.2777L60.4292 24.559H60.4085C60.387 24.5584 60.3662 24.5508 60.3494 24.5373C60.3326 24.5238 60.3207 24.5051 60.3156 24.4841L60.1402 23.71C60.1348 23.6853 60.1393 23.6596 60.1529 23.6383C60.1664 23.617 60.1878 23.602 60.2124 23.5964Z" fill="#407BFF"/>
<path opacity="0.5" d="M60.0111 23.7383L60.184 24.5125C60.1956 24.5635 60.2241 24.6091 60.2649 24.6419C60.3056 24.6746 60.3562 24.6927 60.4085 24.6932C60.4256 24.6957 60.443 24.6957 60.4601 24.6932L61.7066 24.4145C61.7656 24.4009 61.817 24.3646 61.8494 24.3133C61.8818 24.2621 61.8926 24.2001 61.8795 24.1409L61.7375 23.5138C61.7974 23.4529 61.8731 23.4099 61.9561 23.3899C62.0391 23.3698 62.1261 23.3734 62.2072 23.4003L62.3491 24.0351C62.3607 24.0861 62.3892 24.1317 62.43 24.1645C62.4707 24.1972 62.5213 24.2153 62.5736 24.2158C62.5899 24.2182 62.6064 24.2182 62.6227 24.2158L64.2433 23.8545C64.3026 23.8403 64.3539 23.8035 64.3862 23.7518C64.4186 23.7002 64.4293 23.6379 64.4162 23.5784L64.2407 22.8042C64.2295 22.753 64.2011 22.7071 64.1603 22.6743C64.1194 22.6414 64.0686 22.6235 64.0162 22.6235H63.9671L62.3491 22.9874C62.3196 22.9938 62.2917 23.006 62.2669 23.0232C62.2421 23.0404 62.221 23.0624 62.2047 23.0878C62.1884 23.1132 62.1773 23.1416 62.1719 23.1713C62.1666 23.201 62.1672 23.2315 62.1736 23.2609C62.0925 23.2444 62.0088 23.2451 61.9279 23.2629C61.847 23.2806 61.7707 23.3151 61.704 23.3642C61.6924 23.3132 61.6639 23.2676 61.6231 23.2348C61.5824 23.202 61.5318 23.184 61.4795 23.1835C61.4632 23.181 61.4467 23.181 61.4304 23.1835L60.184 23.4622C60.1545 23.4689 60.1266 23.4814 60.1019 23.4989C60.0772 23.5164 60.0562 23.5387 60.0401 23.5643C60.0241 23.59 60.0132 23.6186 60.0083 23.6484C60.0033 23.6783 60.0042 23.7089 60.0111 23.7383ZM62.3775 23.1113L63.9955 22.7474H64.0162C64.0382 22.7474 64.0596 22.7547 64.0769 22.7683C64.0942 22.7819 64.1064 22.8009 64.1117 22.8222L64.2846 23.5964C64.2894 23.6078 64.2919 23.6201 64.2919 23.6325C64.2919 23.645 64.2894 23.6572 64.2846 23.6687C64.278 23.6793 64.2694 23.6884 64.2592 23.6955C64.249 23.7026 64.2374 23.7075 64.2252 23.71L62.6072 24.0738H62.5865C62.565 24.0733 62.5442 24.0657 62.5274 24.0522C62.5106 24.0386 62.4987 24.0199 62.4936 23.999L62.3182 23.2248C62.3116 23.2019 62.3141 23.1773 62.3251 23.1562C62.3362 23.135 62.3549 23.119 62.3775 23.1113ZM60.2124 23.5964L61.4588 23.3151H61.4795C61.5014 23.3155 61.5225 23.323 61.5398 23.3365C61.557 23.35 61.5693 23.3688 61.5749 23.39L61.7479 24.1641C61.751 24.1764 61.7515 24.1892 61.7493 24.2017C61.7471 24.2142 61.7422 24.226 61.7349 24.2364C61.7284 24.247 61.7198 24.2561 61.7096 24.2632C61.6994 24.2703 61.6878 24.2753 61.6756 24.2777L60.4292 24.559H60.4085C60.387 24.5584 60.3662 24.5508 60.3494 24.5373C60.3326 24.5238 60.3207 24.5051 60.3156 24.4841L60.1402 23.71C60.1348 23.6853 60.1393 23.6596 60.1529 23.6383C60.1664 23.617 60.1878 23.602 60.2124 23.5964Z" fill="white"/>
<path d="M62.4292 25.4209C62.7905 25.4776 63.5724 24.3086 63.864 25.1189C64.1556 25.9292 64.0446 27.7898 63.6059 27.2944C63.6059 27.2944 63.5904 27.9524 63.0898 27.3769C63.0898 27.3769 63.2059 27.8931 62.6743 27.3769C62.6743 27.3769 62.6976 27.8002 62.1169 27.2428C61.5363 26.6853 60.7028 25.1551 62.4292 25.4209Z" fill="#263238"/>
<path opacity="0.4" d="M62.4292 25.4209C62.7905 25.4776 63.5724 24.3086 63.864 25.1189C64.1556 25.9292 64.0446 27.7898 63.6059 27.2944C63.6059 27.2944 63.5904 27.9524 63.0898 27.3769C63.0898 27.3769 63.2059 27.8931 62.6743 27.3769C62.6743 27.3769 62.6976 27.8002 62.1169 27.2428C61.5363 26.6853 60.7028 25.1551 62.4292 25.4209Z" fill="white"/>
<path d="M62.1789 25.8931C62.3682 25.9004 62.5571 25.8696 62.7344 25.8027C62.9117 25.7358 63.0738 25.634 63.2111 25.5034C63.22 25.4939 63.2247 25.4811 63.2242 25.4681C63.2237 25.455 63.2181 25.4427 63.2085 25.4338C63.1989 25.4249 63.1862 25.4201 63.1731 25.4206C63.1601 25.4211 63.1477 25.4268 63.1388 25.4364C62.9876 25.5778 62.8058 25.6826 62.6076 25.7426C62.4093 25.8025 62.1999 25.8161 61.9956 25.7821C61.9895 25.781 61.9833 25.7812 61.9772 25.7825C61.9711 25.7839 61.9654 25.7864 61.9604 25.7901C61.9553 25.7937 61.951 25.7982 61.9478 25.8035C61.9445 25.8088 61.9424 25.8147 61.9414 25.8209C61.9405 25.8337 61.9441 25.8464 61.9516 25.8568C61.9592 25.8672 61.9702 25.8746 61.9827 25.8776L62.1789 25.8931Z" fill="#263238"/>
</svg>
