<svg width="32" height="32" viewBox="0 0 32 32" fill="none" xmlns="http://www.w3.org/2000/svg">
<rect width="32" height="32" rx="4" fill="#DA7B23" fill-opacity="0.15"/>
<path d="M22.418 15.7865C22.2296 15.7865 22.0326 15.7266 21.8442 15.6838C21.4627 15.5997 21.0877 15.4881 20.7223 15.3498C20.325 15.2052 19.8883 15.2127 19.4962 15.3708C19.1041 15.5289 18.7843 15.8265 18.5984 16.2062L18.41 16.5915C17.5759 16.1275 16.8094 15.5512 16.132 14.8787C15.4595 14.2013 14.8832 13.4348 14.4191 12.6007L14.7788 12.3609C15.1585 12.175 15.4561 11.8552 15.6142 11.4631C15.7723 11.071 15.7798 10.6343 15.6352 10.237C15.4993 9.87082 15.3877 9.49604 15.3012 9.11511C15.2584 8.9267 15.2242 8.72973 15.1985 8.53275C15.0945 7.92952 14.7785 7.38323 14.3075 6.99228C13.8365 6.60133 13.2413 6.3914 12.6292 6.4003H10.06C9.69094 6.39683 9.32544 6.47293 8.98841 6.62342C8.65138 6.7739 8.35073 6.99524 8.10692 7.27236C7.86312 7.54948 7.68189 7.87588 7.57557 8.22934C7.46925 8.5828 7.44034 8.95501 7.4908 9.32065C7.94704 12.9085 9.5856 16.242 12.1476 18.7948C14.7097 21.3475 18.0492 22.9739 21.6387 23.4171H21.9641C22.5956 23.418 23.2054 23.1863 23.6769 22.7663C23.9478 22.5239 24.1643 22.2269 24.3119 21.8947C24.4595 21.5625 24.535 21.2028 24.5333 20.8393V18.2701C24.5228 17.6752 24.3062 17.1024 23.9204 16.6495C23.5346 16.1966 23.0036 15.8915 22.418 15.7865V15.7865ZM22.8462 20.925C22.846 21.0466 22.82 21.1667 22.7698 21.2775C22.7196 21.3882 22.6464 21.487 22.555 21.5673C22.4593 21.6499 22.3474 21.7116 22.2265 21.7485C22.1056 21.7854 21.9783 21.7966 21.8528 21.7814C18.6454 21.3701 15.6663 19.9028 13.3852 17.6109C11.1042 15.319 9.65101 12.3329 9.255 9.12367C9.24137 8.99822 9.25331 8.87132 9.29011 8.75061C9.32691 8.62991 9.3878 8.51793 9.4691 8.42142C9.54935 8.33007 9.64814 8.25685 9.75889 8.20665C9.86964 8.15644 9.98981 8.13039 10.1114 8.13024H12.6806C12.8798 8.12581 13.0743 8.19094 13.2306 8.31443C13.3869 8.43791 13.4953 8.61203 13.537 8.8068C13.5713 9.04089 13.6141 9.27212 13.6655 9.50049C13.7644 9.95194 13.8961 10.3956 14.0594 10.8279L12.8605 11.3846C12.758 11.4316 12.6657 11.4984 12.5891 11.5812C12.5125 11.664 12.453 11.7611 12.414 11.8669C12.375 11.9727 12.3573 12.0852 12.3619 12.1979C12.3665 12.3106 12.3933 12.4213 12.4408 12.5236C13.6734 15.1637 15.7956 17.2859 18.4357 18.5185C18.6442 18.6041 18.8781 18.6041 19.0866 18.5185C19.1934 18.4803 19.2915 18.4212 19.3753 18.3448C19.4591 18.2683 19.5269 18.176 19.5747 18.0731L20.1057 16.8742C20.5484 17.0325 21.0003 17.164 21.4588 17.2681C21.6872 17.3195 21.9184 17.3623 22.1525 17.3966C22.3473 17.4384 22.5214 17.5467 22.6449 17.703C22.7684 17.8594 22.8335 18.0538 22.8291 18.253L22.8462 20.925Z" fill="#DA7B23" fill-opacity="0.68"/>
</svg>
