<svg width="137" height="89" viewBox="0 0 137 89" fill="none" xmlns="http://www.w3.org/2000/svg">
<path d="M22.3759 9.11933C22.4874 8.31025 21.3475 7.64484 20.4855 7.57678C20.0772 7.54276 19.6518 7.60514 19.2643 7.47092C18.425 7.17792 18.0904 6.09284 17.27 5.7488C16.6594 5.48982 15.9467 5.72044 15.3607 6.01912C14.7747 6.3178 14.1792 6.69398 13.5176 6.73557C12.9391 6.77338 12.3134 6.55788 11.8163 6.83954C11.4382 7.05126 11.2491 7.48416 10.8975 7.73936C10.5459 7.99456 10.1149 8.04182 9.69526 8.0645C9.27559 8.08719 8.83703 8.09286 8.45517 8.26866C8.07332 8.44446 7.75384 8.849 7.83513 9.26299L22.3759 9.11933Z" fill="#EBEBEB"/>
<path d="M111.906 7.30645C112.017 6.49737 110.875 5.83196 110.015 5.76202C109.607 5.72988 109.182 5.79226 108.796 5.65805C107.957 5.36504 107.62 4.27997 106.802 3.93403C106.189 3.67694 105.478 3.90567 104.891 4.20435C104.303 4.50303 103.711 4.87921 103.047 4.92269C102.48 4.95861 101.843 4.745 101.346 5.02666C100.968 5.23649 100.779 5.67128 100.427 5.92648C100.076 6.18168 99.6467 6.22894 99.2251 6.25162C98.8036 6.27431 98.3688 6.27998 97.985 6.45389C97.6013 6.62781 97.2856 7.03612 97.365 7.44823L111.906 7.30645Z" fill="#EBEBEB"/>
<path d="M53.9829 28.7697C54.0585 28.2234 53.2872 27.7716 52.7069 27.7262C52.429 27.7036 52.1398 27.7451 51.8789 27.6544C51.3118 27.4559 51.0849 26.7224 50.5311 26.488C50.1152 26.3141 49.6388 26.4691 49.2362 26.6771C48.8335 26.885 48.4384 27.1346 47.9885 27.1629C47.5991 27.1875 47.1757 27.0419 46.8335 27.2328C46.5783 27.3765 46.446 27.6695 46.2116 27.8415C45.9672 27.9928 45.6841 28.0697 45.3968 28.0627C45.111 28.0559 44.8265 28.102 44.5575 28.1988C44.4242 28.2512 44.3114 28.3452 44.2358 28.4667C44.1602 28.5883 44.1259 28.731 44.1378 28.8737L53.9829 28.7697Z" fill="#F5F5F5"/>
<path d="M131.923 17.8737C131.997 17.3273 131.225 16.8774 130.645 16.8302C130.367 16.8075 130.078 16.851 129.819 16.7583C129.252 16.5693 129.023 15.8264 128.469 15.592C128.055 15.4181 127.577 15.5731 127.176 15.781C126.775 15.989 126.376 16.2385 125.928 16.2668C125.537 16.2914 125.114 16.1478 124.772 16.3387C124.516 16.4805 124.394 16.7735 124.15 16.9474C123.905 17.0973 123.622 17.1734 123.335 17.1667C123.049 17.1598 122.764 17.2066 122.496 17.3047C122.363 17.3569 122.25 17.4506 122.175 17.5718C122.099 17.693 122.064 17.8353 122.076 17.9776L131.923 17.8737Z" fill="#F5F5F5"/>
<path d="M135.639 59.2312H74.4972C71.2886 59.2312 68.2113 57.9565 65.9424 55.6876C63.6735 53.4188 62.3989 50.3415 62.3989 47.1328V22.5485C62.3984 21.8341 62.1145 21.149 61.6094 20.6436C61.1044 20.1382 60.4195 19.8539 59.7051 19.8529H38.0358C37.5702 19.8534 37.1238 20.0385 36.7945 20.3678C36.4653 20.697 36.2801 21.1434 36.2796 21.609V30.7036C36.2761 33.5871 35.1286 36.3514 33.0889 38.3897C31.0492 40.428 28.2841 41.5736 25.4005 41.5751H4.68018V32.4597H25.4005C25.8661 32.4592 26.3125 32.2741 26.6418 31.9448C26.971 31.6156 27.1562 31.1692 27.1567 30.7036V21.609C27.1602 18.7268 28.3067 15.9636 30.3447 13.9256C32.3828 11.8875 35.146 10.741 38.0282 10.7375H59.7108C62.843 10.7395 65.8464 11.9844 68.0616 14.1988C70.2767 16.4133 71.5226 19.4163 71.5256 22.5485V47.1404C71.5271 47.9294 71.8413 48.6856 72.3994 49.2433C72.9575 49.8011 73.7139 50.1148 74.5029 50.1158H135.639V59.2312Z" fill="#EBEBEB"/>
<path d="M41.2796 21.5995C40.9887 21.599 40.7098 21.4831 40.5042 21.2772C40.2987 21.0713 40.1832 20.7922 40.1832 20.5012V9.23841C40.1832 8.94763 40.2987 8.66875 40.5044 8.46313C40.71 8.25751 40.9889 8.142 41.2796 8.142C41.5706 8.142 41.8497 8.25745 42.0556 8.46302C42.2615 8.66858 42.3774 8.94745 42.3779 9.23841V20.5069C42.3764 20.7972 42.2601 21.0751 42.0543 21.2799C41.8485 21.4846 41.57 21.5996 41.2796 21.5995Z" fill="#E0E0E0"/>
<path d="M38.3155 26.367C38.3155 26.6578 38.1999 26.9367 37.9943 27.1423C37.7887 27.3479 37.5098 27.4635 37.219 27.4635H25.9562C25.6653 27.4635 25.3862 27.348 25.1803 27.1424C24.9743 26.9369 24.8584 26.658 24.8579 26.367C24.8579 26.2229 24.8863 26.0802 24.9415 25.947C24.9968 25.8139 25.0777 25.6929 25.1797 25.5911C25.2817 25.4893 25.4028 25.4085 25.5361 25.3535C25.6693 25.2986 25.8121 25.2704 25.9562 25.2706H37.219C37.5098 25.2706 37.7887 25.3861 37.9943 25.5918C38.1999 25.7974 38.3155 26.0763 38.3155 26.367Z" fill="#E0E0E0"/>
<path d="M18.4817 44.2556C18.1909 44.2556 17.912 44.1401 17.7064 43.9345C17.5008 43.7289 17.3853 43.45 17.3853 43.1592V31.8964C17.3853 31.6054 17.5007 31.3263 17.7063 31.1204C17.9118 30.9145 18.1907 30.7986 18.4817 30.7981C18.6258 30.7981 18.7685 30.8265 18.9017 30.8817C19.0348 30.9369 19.1558 31.0179 19.2576 31.1199C19.3595 31.2219 19.4402 31.343 19.4952 31.4762C19.5502 31.6095 19.5783 31.7522 19.5781 31.8964V43.1592C19.5781 43.45 19.4626 43.7289 19.257 43.9345C19.0513 44.1401 18.7725 44.2556 18.4817 44.2556Z" fill="#E0E0E0"/>
<path d="M73.0567 27.1969C73.0567 27.4878 72.9412 27.7669 72.7357 27.9728C72.5301 28.1788 72.2512 28.2947 71.9603 28.2952H60.6974C60.4061 28.2952 60.1268 28.1795 59.9208 27.9735C59.7148 27.7675 59.5991 27.4882 59.5991 27.1969C59.5996 26.9059 59.7156 26.627 59.9215 26.4215C60.1274 26.2159 60.4065 26.1005 60.6974 26.1005H71.9603C72.1042 26.1005 72.2468 26.1288 72.3798 26.1839C72.5129 26.239 72.6337 26.3198 72.7355 26.4216C72.8373 26.5234 72.9181 26.6443 72.9732 26.7773C73.0283 26.9103 73.0567 27.0529 73.0567 27.1969Z" fill="#E0E0E0"/>
<path d="M73.0567 45.698C73.0567 45.9889 72.9412 46.268 72.7357 46.4739C72.5301 46.6798 72.2512 46.7958 71.9603 46.7963H60.6974C60.4061 46.7963 60.1268 46.6806 59.9208 46.4746C59.7148 46.2686 59.5991 45.9893 59.5991 45.698C59.5996 45.407 59.7156 45.1281 59.9215 44.9226C60.1274 44.717 60.4065 44.6016 60.6974 44.6016H71.9603C72.1042 44.6016 72.2468 44.6299 72.3798 44.685C72.5129 44.7401 72.6337 44.8209 72.7355 44.9227C72.8373 45.0245 72.9181 45.1454 72.9732 45.2784C73.0283 45.4114 73.0567 45.554 73.0567 45.698Z" fill="#E0E0E0"/>
<path d="M103.777 47.6507C103.921 47.6504 104.064 47.6786 104.197 47.7336C104.33 47.7887 104.451 47.8694 104.553 47.9713C104.655 48.0731 104.736 48.1941 104.791 48.3272C104.846 48.4604 104.874 48.6031 104.873 48.7471V60.0156C104.874 60.1597 104.846 60.3024 104.791 60.4355C104.736 60.5686 104.655 60.6896 104.553 60.7915C104.451 60.8933 104.33 60.9741 104.197 61.0291C104.064 61.0841 103.921 61.1123 103.777 61.112C103.486 61.112 103.207 60.9965 103.002 60.7909C102.796 60.5853 102.681 60.3064 102.681 60.0156V48.7471C102.681 48.4563 102.796 48.1774 103.002 47.9718C103.207 47.7662 103.486 47.6507 103.777 47.6507Z" fill="#E0E0E0"/>
<path d="M125.857 47.6507C126.147 47.6507 126.426 47.7662 126.632 47.9718C126.838 48.1774 126.953 48.4563 126.953 48.7471V60.0156C126.953 60.3064 126.838 60.5853 126.632 60.7909C126.426 60.9965 126.147 61.112 125.857 61.112C125.713 61.1123 125.57 61.0841 125.437 61.0291C125.304 60.9741 125.183 60.8933 125.081 60.7915C124.979 60.6896 124.898 60.5686 124.843 60.4355C124.788 60.3024 124.76 60.1597 124.76 60.0156V48.7471C124.76 48.6031 124.788 48.4604 124.843 48.3272C124.898 48.1941 124.979 48.0731 125.081 47.9713C125.183 47.8694 125.304 47.7887 125.437 47.7336C125.57 47.6786 125.713 47.6504 125.857 47.6507Z" fill="#E0E0E0"/>
<path d="M58.5028 22.0192C58.3588 22.0192 58.2162 21.9908 58.0832 21.9357C57.9502 21.8806 57.8293 21.7999 57.7275 21.6981C57.6257 21.5963 57.5449 21.4754 57.4898 21.3424C57.4347 21.2093 57.4064 21.0668 57.4064 20.9228V9.65995C57.4061 9.5159 57.4343 9.37322 57.4893 9.24008C57.5443 9.10694 57.6251 8.98598 57.7269 8.88412C57.8288 8.78226 57.9498 8.7015 58.0829 8.64649C58.2161 8.59148 58.3587 8.56329 58.5028 8.56354C58.7936 8.56354 59.0725 8.67905 59.2781 8.88467C59.4837 9.09029 59.5992 9.36917 59.5992 9.65995V20.9228C59.5992 21.0668 59.5708 21.2093 59.5157 21.3424C59.4606 21.4754 59.3799 21.5963 59.2781 21.6981C59.1763 21.7999 59.0554 21.8806 58.9224 21.9357C58.7893 21.9908 58.6468 22.0192 58.5028 22.0192Z" fill="#E0E0E0"/>
<path d="M135.195 85.5357C135.195 85.564 105.327 85.5848 68.5047 85.5848C31.6822 85.5848 1.80676 85.5565 1.80676 85.5357C1.80676 85.5149 31.6633 85.4865 68.5047 85.4865C105.346 85.4865 135.195 85.5016 135.195 85.5357Z" fill="#263238"/>
<path d="M123.751 73.4921C124.025 73.6223 124.27 73.8066 124.471 74.0341C124.671 74.2615 124.824 74.5273 124.919 74.8154C125.107 75.3925 125.16 76.0048 125.074 76.6056C124.942 77.7682 124.282 78.9421 123.571 79.8702C122.592 79.0158 122.367 77.5262 122.301 76.7625C122.195 75.5583 122.736 73.3144 123.751 73.494" fill="#FF725E"/>
<path d="M124.709 81.7871C124.642 81.4551 124.664 81.1112 124.773 80.7904C124.882 80.4696 125.074 80.1835 125.329 79.961C125.589 79.7415 125.89 79.5764 126.215 79.4754C126.539 79.3744 126.881 79.3396 127.22 79.3731C127.531 79.3958 127.868 79.4865 128.046 79.7512C128.122 79.8758 128.164 80.0189 128.166 80.1652C128.169 80.3116 128.132 80.4559 128.059 80.5829C127.911 80.8365 127.698 81.0464 127.443 81.1916C126.594 81.7228 125.677 82.082 124.719 81.7947" fill="#FF725E"/>
<path d="M123.454 85.3467C123.457 85.2663 123.469 85.1865 123.488 85.1085C123.518 84.9402 123.558 84.7304 123.607 84.462C123.716 83.7436 123.941 83.0477 124.273 82.4015C124.617 81.7549 125.128 81.212 125.753 80.8287C125.943 80.7165 126.145 80.627 126.356 80.5621C126.413 80.5431 126.471 80.528 126.53 80.5168C126.569 80.5168 126.59 80.5054 126.592 80.5168C126.31 80.6146 126.039 80.7413 125.783 80.8948C125.18 81.2857 124.686 81.8229 124.346 82.4563C124.02 83.097 123.791 83.7825 123.666 84.4903C123.605 84.7606 123.558 84.9799 123.52 85.1293C123.503 85.2031 123.481 85.2757 123.454 85.3467Z" fill="#263238"/>
<path d="M123.49 75.237C123.498 75.2709 123.502 75.3059 123.501 75.3409C123.501 75.4184 123.513 75.5167 123.52 75.6396C123.533 75.9005 123.549 76.2767 123.564 76.7436C123.594 77.6737 123.618 78.961 123.611 80.3826C123.603 81.8041 123.571 83.0915 123.531 84.0234C123.513 84.4884 123.496 84.8646 123.479 85.1255C123.479 85.2484 123.463 85.3467 123.458 85.4242C123.458 85.4593 123.453 85.4942 123.445 85.5281C123.442 85.4936 123.442 85.4588 123.445 85.4242C123.445 85.346 123.445 85.2459 123.445 85.1236C123.445 84.8533 123.46 84.479 123.471 84.0215C123.494 83.0896 123.518 81.8041 123.526 80.3826C123.533 78.961 123.516 77.6755 123.501 76.7436C123.501 76.2861 123.49 75.9118 123.484 75.6415C123.484 75.5186 123.484 75.4184 123.484 75.3409C123.484 75.3062 123.486 75.2715 123.49 75.237Z" fill="#263238"/>
<path d="M123.015 82.4941C122.897 81.7894 122.612 81.1232 122.185 80.5505C121.757 79.9778 121.2 79.5152 120.558 79.2011C120.231 79.0442 119.802 78.9421 119.535 79.1859C119.269 79.4298 119.327 79.8665 119.46 80.2048C119.747 80.9068 120.235 81.508 120.864 81.9326C121.492 82.3572 122.232 82.5861 122.991 82.5905" fill="#FF725E"/>
<path d="M120.719 80.3032C120.79 80.3275 120.86 80.3578 120.927 80.3939C121.007 80.4309 121.086 80.4732 121.161 80.5206C121.264 80.5781 121.364 80.6412 121.46 80.7096C121.579 80.7886 121.693 80.8744 121.802 80.9667C121.93 81.0695 122.052 81.18 122.167 81.2975C122.703 81.8312 123.1 82.4889 123.322 83.2124C123.369 83.3695 123.408 83.5292 123.437 83.6907C123.465 83.8306 123.484 83.972 123.496 84.1142C123.513 84.2446 123.507 84.3637 123.513 84.4658C123.516 84.5547 123.513 84.6438 123.503 84.7323C123.503 84.8079 123.495 84.8833 123.479 84.9573C123.46 84.9573 123.494 84.634 123.435 84.1198C123.42 83.9801 123.397 83.8412 123.367 83.7039C123.336 83.5455 123.296 83.389 123.248 83.2351C123.133 82.8833 122.981 82.5449 122.794 82.2257C122.601 81.9103 122.375 81.6162 122.119 81.3485C122.007 81.2323 121.889 81.1218 121.766 81.0177C121.66 80.9251 121.55 80.838 121.435 80.7568C121.006 80.4544 120.711 80.3202 120.719 80.3032Z" fill="#263238"/>
<path d="M59.0094 70.3371L61.7996 73.2955V85.5281H64.7902V73.2955L67.6994 70.4656L59.0094 70.3371Z" fill="#E0E0E0"/>
<path d="M59.0094 70.3371L67.7051 70.4278H67.7996L67.7316 70.494L64.8242 73.3295L64.8374 73.2974C64.8374 76.1216 64.8374 79.3144 64.8374 82.6831C64.8374 83.6472 64.8374 84.5999 64.8374 85.53V85.5791H61.7523V85.5356C61.7523 80.511 61.7674 76.2086 61.7712 73.3031V73.322L59.0094 70.3371L61.8204 73.2766V73.2879C61.8204 76.1934 61.8317 80.4959 61.8393 85.5205L61.792 85.4733H64.7826L64.7334 85.5224V82.6812C64.7334 79.3125 64.7334 76.1197 64.7334 73.2955V73.2766L64.7467 73.2634L67.6616 70.4373L67.6881 70.5053L59.0094 70.3371Z" fill="#263238"/>
<path d="M64.7901 73.3352C64.2908 73.385 63.7888 73.4014 63.2873 73.3843C62.7858 73.4014 62.2837 73.385 61.7844 73.3352C62.2838 73.2865 62.7858 73.2701 63.2873 73.286C63.7888 73.2701 64.2907 73.2865 64.7901 73.3352Z" fill="#263238"/>
<path d="M86.9378 71.0403H86.8187L0.657471 70.1972L0.791687 55.0062L82.1117 55.8039C82.4512 55.8069 82.7879 55.7427 83.1025 55.6148C83.417 55.4869 83.7031 55.298 83.9442 55.059C84.1854 54.82 84.3768 54.5356 84.5074 54.2221C84.638 53.9087 84.7053 53.5726 84.7052 53.233V41.6413C84.7052 39.9381 85.0407 38.2515 85.6925 36.6779C86.3443 35.1044 87.2997 33.6746 88.504 32.4702C90.9363 30.0379 94.2353 28.6714 97.6751 28.6714H136.345V43.8644H102.473C102.135 43.8644 101.801 43.9309 101.489 44.0601C101.177 44.1893 100.894 44.3787 100.656 44.6175C100.417 44.8562 100.228 45.1397 100.099 45.4516C99.9698 45.7635 99.9036 46.0977 99.9038 46.4353V58.0705C99.9038 61.5097 98.5379 64.808 96.1064 67.2402C93.6749 69.6724 90.3769 71.0393 86.9378 71.0403Z" fill="#455A64"/>
<path d="M21.1963 72.0271C20.9256 72.0271 20.666 71.9195 20.4745 71.7281C20.2831 71.5366 20.1755 71.277 20.1755 71.0063V55.4013C20.1755 55.1304 20.283 54.8705 20.4744 54.6788C20.6658 54.487 20.9254 54.3791 21.1963 54.3786C21.3306 54.3786 21.4636 54.405 21.5877 54.4564C21.7118 54.5078 21.8245 54.5831 21.9195 54.6781C22.0145 54.7731 22.0898 54.8858 22.1412 55.0099C22.1926 55.134 22.219 55.267 22.219 55.4013V71.0063C22.2185 71.2772 22.1106 71.5368 21.9188 71.7282C21.7271 71.9196 21.4672 72.0271 21.1963 72.0271Z" fill="#455A64"/>
<path d="M21.1963 72.0271C21.3258 72.021 21.4535 71.9942 21.5744 71.9477C21.7418 71.879 21.8879 71.767 21.9975 71.6231C22.1072 71.4792 22.1765 71.3087 22.1982 71.1291C22.2096 70.1839 22.1982 68.8002 22.1982 67.0989C22.1982 65.3975 22.1982 63.3692 22.1982 61.1196C22.1982 59.9948 22.1982 58.8134 22.1982 57.5884V55.7207C22.2025 55.5643 22.1981 55.4078 22.185 55.2519C22.1628 55.101 22.1045 54.9576 22.0149 54.8341C21.9025 54.6771 21.7458 54.5571 21.5649 54.4895C21.384 54.4219 21.187 54.4097 20.9992 54.4545C20.8113 54.4994 20.6411 54.5992 20.5102 54.7412C20.3793 54.8832 20.2938 55.061 20.2644 55.2519C20.251 55.4072 20.2472 55.5631 20.253 55.7188C20.253 56.3489 20.253 56.9715 20.253 57.5865C20.253 58.8115 20.253 59.993 20.253 61.1196C20.253 63.3692 20.2531 65.3956 20.2417 67.1007C20.2304 68.8059 20.2228 70.1821 20.2417 71.1291C20.2633 71.3091 20.3327 71.4799 20.4428 71.6239C20.5528 71.7678 20.6995 71.8796 20.8674 71.9477C20.9884 71.9943 21.116 72.0211 21.2455 72.0271H21.1491C21.0532 72.0209 20.9588 71.9999 20.8693 71.9647C20.7247 71.9092 20.5952 71.8205 20.4912 71.7057C20.344 71.5496 20.2494 71.3513 20.2209 71.1386C20.1982 70.1821 20.2058 68.8078 20.1963 67.1045C20.1869 65.4013 20.1963 63.3729 20.1963 61.1234C20.1963 59.9892 20.1963 58.8153 20.1963 57.5903V55.7226C20.1914 55.5618 20.1958 55.4008 20.2096 55.2406C20.234 55.0737 20.2989 54.9153 20.3986 54.7793C20.4975 54.6412 20.6278 54.5286 20.7789 54.4509C20.93 54.3732 21.0974 54.3327 21.2672 54.3327C21.4371 54.3327 21.6045 54.3732 21.7556 54.4509C21.9067 54.5286 22.037 54.6412 22.1359 54.7793C22.2348 54.9151 22.2996 55.0726 22.3249 55.2387C22.3386 55.3996 22.343 55.5612 22.3381 55.7226C22.3381 56.354 22.3381 56.9778 22.3381 57.5903C22.3381 58.8153 22.3381 59.9967 22.3381 61.1215C22.3381 63.371 22.3381 65.3975 22.3268 67.1007C22.3154 68.804 22.3268 70.1802 22.3022 71.1367C22.2744 71.3492 22.1805 71.5476 22.0338 71.7038C21.9298 71.8186 21.8003 71.9073 21.6557 71.9628C21.5662 71.9977 21.4718 72.0187 21.3759 72.0252L21.1963 72.0271Z" fill="#263238"/>
<path d="M102.017 48.2954C101.951 48.4121 101.862 48.5146 101.756 48.5968C101.649 48.679 101.528 48.7395 101.398 48.7746C101.269 48.8098 101.133 48.8189 101 48.8015C100.867 48.7842 100.739 48.7407 100.622 48.6735L84.0021 39.0741C83.8855 39.0075 83.7832 38.9185 83.7011 38.8123C83.619 38.706 83.5587 38.5846 83.5236 38.455C83.4885 38.3255 83.4792 38.1902 83.4965 38.057C83.5137 37.9239 83.557 37.7954 83.624 37.6791C83.6906 37.5625 83.7796 37.4602 83.8859 37.3781C83.9921 37.296 84.1135 37.2357 84.2431 37.2006C84.3727 37.1655 84.5079 37.1562 84.6411 37.1735C84.7742 37.1907 84.9027 37.234 85.0191 37.301L101.635 46.8946C101.753 46.961 101.856 47.05 101.939 47.1565C102.022 47.263 102.083 47.385 102.119 47.5153C102.154 47.6456 102.164 47.7816 102.146 47.9155C102.129 48.0494 102.085 48.1785 102.017 48.2954Z" fill="#455A64"/>
<path d="M102.017 48.2954C102.086 48.1611 102.128 48.0147 102.14 47.8644C102.151 47.7155 102.129 47.566 102.075 47.4269C102.02 47.2879 101.935 47.1628 101.826 47.0609C101.727 46.9734 101.617 46.899 101.499 46.8398L97.3405 44.4522L91.1703 40.9021L87.5276 38.8038L85.6013 37.6923L85.1117 37.4087C84.9606 37.3029 84.7848 37.2378 84.6013 37.2197C84.419 37.2051 84.2362 37.2424 84.0742 37.3272C83.9122 37.412 83.7774 37.5409 83.6855 37.699C83.5936 37.8571 83.5483 38.038 83.5548 38.2208C83.5613 38.4036 83.6193 38.5808 83.7222 38.732C83.8284 38.8817 83.9708 39.0021 84.1362 39.0817L84.6277 39.3652L86.554 40.4787L90.193 42.5827L96.3537 46.1517L100.513 48.5657C100.623 48.6378 100.743 48.6956 100.868 48.7377C100.979 48.7714 101.094 48.7855 101.21 48.7793C101.393 48.7691 101.569 48.7097 101.72 48.6073C101.838 48.5232 101.939 48.4173 102.017 48.2954C102 48.3299 101.98 48.3633 101.959 48.3955C101.892 48.4885 101.81 48.5697 101.717 48.6356C101.564 48.7446 101.384 48.8099 101.197 48.8247C101.078 48.834 100.958 48.8212 100.843 48.7869C100.715 48.7461 100.592 48.6882 100.478 48.6148L96.3197 46.2292L90.1476 42.6772L86.5049 40.5789L84.5691 39.4598L84.0776 39.1762C83.8998 39.0892 83.7465 38.9592 83.6315 38.7981C83.516 38.6316 83.4502 38.4357 83.4419 38.2332C83.4336 38.0307 83.4831 37.83 83.5846 37.6545C83.6861 37.4791 83.8354 37.3362 84.0151 37.2425C84.1948 37.1487 84.3974 37.108 84.5994 37.1252C84.7962 37.1415 84.9858 37.2065 85.1514 37.3142L85.641 37.5978L87.5672 38.7093L91.2062 40.8152L97.365 44.3823L101.514 46.7963C101.635 46.8583 101.747 46.9358 101.847 47.0269C101.933 47.1101 102.004 47.2073 102.057 47.3143C102.139 47.4828 102.173 47.6702 102.157 47.8568C102.146 47.9703 102.116 48.0813 102.07 48.1857C102.055 48.2235 102.037 48.2601 102.017 48.2954Z" fill="#263238"/>
<path d="M122.505 45.0685C122.234 45.0685 121.974 44.961 121.783 44.7697C121.591 44.5783 121.483 44.3186 121.482 44.0477V28.4465C121.482 28.1753 121.59 27.9151 121.782 27.7233C121.974 27.5315 122.234 27.4238 122.505 27.4238C122.776 27.4243 123.036 27.5323 123.227 27.724C123.418 27.9157 123.526 28.1756 123.526 28.4465V44.0515C123.525 44.3216 123.417 44.5803 123.225 44.7709C123.034 44.9615 122.775 45.0685 122.505 45.0685Z" fill="#455A64"/>
<path d="M122.505 45.0685C122.635 45.0624 122.762 45.0356 122.883 44.9891C123.051 44.9211 123.198 44.8093 123.308 44.6653C123.418 44.5213 123.487 44.3505 123.509 44.1706C123.509 43.2254 123.509 41.8416 123.509 40.1422C123.509 38.4427 123.509 36.4106 123.498 34.1611C123.498 33.0363 123.498 31.8548 123.498 30.6298C123.498 30.0174 123.498 29.3935 123.498 28.7622C123.503 28.6058 123.5 28.4492 123.486 28.2933C123.463 28.1425 123.404 27.9993 123.314 27.8756C123.224 27.7503 123.106 27.6482 122.968 27.5778C122.831 27.5074 122.679 27.4707 122.525 27.4707C122.371 27.4707 122.219 27.5074 122.081 27.5778C121.944 27.6482 121.826 27.7503 121.736 27.8756C121.646 27.9996 121.587 28.1436 121.566 28.2952C121.552 28.4505 121.547 28.6064 121.552 28.7622C121.552 29.3923 121.552 30.0155 121.552 30.6317C121.552 31.8548 121.552 33.0382 121.552 34.1629C121.552 36.4125 121.552 38.4409 121.541 40.1441C121.53 41.8473 121.524 43.2273 121.541 44.1725C121.563 44.352 121.632 44.5226 121.742 44.6665C121.851 44.8103 121.997 44.9224 122.165 44.991C122.286 45.0375 122.413 45.0643 122.543 45.0704H122.445C122.349 45.0622 122.255 45.0412 122.165 45.008C122.021 44.9511 121.891 44.8618 121.787 44.7471C121.64 44.5908 121.545 44.3926 121.516 44.18C121.494 43.2235 121.501 41.8492 121.494 40.146C121.486 38.4427 121.494 36.4144 121.482 34.1648C121.482 33.0401 121.482 31.8567 121.482 30.6336V28.764C121.477 28.6032 121.482 28.4423 121.496 28.282C121.521 28.1155 121.586 27.9574 121.685 27.8208C121.784 27.6826 121.914 27.57 122.065 27.4924C122.216 27.4147 122.383 27.3742 122.553 27.3742C122.723 27.3742 122.891 27.4147 123.042 27.4924C123.193 27.57 123.323 27.6826 123.422 27.8208C123.522 27.956 123.587 28.1138 123.611 28.2801C123.625 28.441 123.629 28.6026 123.624 28.764V30.6317C123.624 31.8567 123.624 33.0382 123.624 34.1629C123.624 36.4125 123.624 38.439 123.615 40.1441C123.605 41.8492 123.615 43.2216 123.59 44.1781C123.561 44.3906 123.466 44.5887 123.32 44.7452C123.215 44.8599 123.086 44.9492 122.942 45.0061C122.852 45.0393 122.758 45.0603 122.662 45.0685H122.505Z" fill="#263238"/>
<path d="M74.8129 72.0271C74.5419 72.0271 74.2821 71.9196 74.0904 71.7282C73.8986 71.5368 73.7907 71.2772 73.7902 71.0063V55.4013C73.7902 55.13 73.8979 54.8699 74.0897 54.6781C74.2815 54.4863 74.5416 54.3786 74.8129 54.3786C75.0838 54.3791 75.3434 54.487 75.5348 54.6788C75.7262 54.8705 75.8337 55.1304 75.8337 55.4013V71.0063C75.8337 71.277 75.7261 71.5366 75.5347 71.7281C75.3432 71.9195 75.0836 72.0271 74.8129 72.0271Z" fill="#455A64"/>
<path d="M74.8129 72.0271C74.9392 72.0201 75.0636 71.9933 75.1815 71.9477C75.3495 71.8797 75.4961 71.7679 75.6062 71.6239C75.7162 71.4799 75.7856 71.3091 75.8072 71.1292C75.8186 70.184 75.8072 68.8002 75.8072 67.0989C75.8072 65.3976 75.8072 63.3692 75.7959 61.1197C75.7959 59.9949 75.7959 58.8134 75.7959 57.5885V55.7208C75.8001 55.5644 75.7957 55.4079 75.7826 55.252C75.7605 55.101 75.7021 54.9577 75.6125 54.8342C75.5225 54.7089 75.404 54.6068 75.2668 54.5364C75.1296 54.466 74.9775 54.4293 74.8233 54.4293C74.669 54.4293 74.517 54.466 74.3798 54.5364C74.2425 54.6068 74.124 54.7089 74.034 54.8342C73.9435 54.958 73.8845 55.1021 73.862 55.2538C73.849 55.4091 73.8445 55.565 73.8488 55.7208V57.5885C73.8488 58.8134 73.8488 59.9949 73.8488 61.1216C73.8488 63.3711 73.8488 65.3976 73.8393 67.1027C73.8299 68.8078 73.8204 70.184 73.8393 71.1311C73.8611 71.3107 73.9304 71.4812 74.0401 71.6251C74.1497 71.7689 74.2958 71.881 74.4632 71.9496C74.5841 71.9961 74.7118 72.0229 74.8412 72.029H74.7429C74.6476 72.0227 74.5539 72.0016 74.4651 71.9666C74.3203 71.9114 74.1907 71.8227 74.087 71.7076C73.9403 71.5514 73.8464 71.353 73.8185 71.1405C73.794 70.184 73.8015 68.8097 73.794 67.1065C73.7864 65.4033 73.794 63.3749 73.7826 61.1253C73.7826 59.9911 73.7826 58.8172 73.7826 57.5922C73.7826 56.9798 73.7826 56.3572 73.7826 55.7246C73.7774 55.5637 73.7825 55.4027 73.7978 55.2425C73.8229 55.0758 73.8877 54.9176 73.9868 54.7813C74.0858 54.6431 74.2164 54.5305 74.3676 54.4529C74.5188 54.3752 74.6864 54.3347 74.8564 54.3347C75.0264 54.3347 75.1939 54.3752 75.3451 54.4529C75.4963 54.5305 75.6269 54.6431 75.7259 54.7813C75.8257 54.9165 75.8907 55.0743 75.915 55.2406C75.9287 55.4015 75.9331 55.5631 75.9282 55.7246V57.5922C75.9282 58.8172 75.9282 59.9987 75.9282 61.1234C75.9282 63.373 75.9282 65.3995 75.9282 67.1027C75.9282 68.8059 75.9282 70.1821 75.9036 71.1386C75.8751 71.3513 75.7806 71.5497 75.6333 71.7057C75.5297 71.8209 75.4001 71.9097 75.2552 71.9647C75.1658 71.9999 75.0714 72.021 74.9755 72.0271H74.8129Z" fill="#263238"/>
<path d="M52.9678 72.0271C52.6968 72.0271 52.437 71.9196 52.2453 71.7282C52.0535 71.5368 51.9456 71.2772 51.9451 71.0063V55.4013C51.9451 55.13 52.0528 54.8699 52.2446 54.6781C52.4364 54.4863 52.6965 54.3786 52.9678 54.3786C53.2387 54.3791 53.4983 54.487 53.6897 54.6788C53.8811 54.8705 53.9886 55.1304 53.9886 55.4013V71.0063C53.9886 71.277 53.881 71.5366 53.6896 71.7281C53.4981 71.9195 53.2385 72.0271 52.9678 72.0271Z" fill="#455A64"/>
<path d="M52.9677 72.0271C53.0939 72.0199 53.2183 71.9931 53.3363 71.9477C53.5043 71.8796 53.6509 71.7678 53.761 71.6239C53.871 71.4799 53.9404 71.3091 53.962 71.1291C53.9715 70.1839 53.962 68.8002 53.962 67.0989C53.962 65.3975 53.962 63.3692 53.9507 61.1196C53.9507 59.9948 53.9507 58.8134 53.9507 57.5884C53.9507 56.9759 53.9507 56.3521 53.9507 55.7207C53.9565 55.5644 53.9527 55.4078 53.9393 55.2519C53.903 55.0229 53.7865 54.8144 53.6106 54.6634C53.4347 54.5124 53.2108 54.4289 52.979 54.4277C52.8248 54.4284 52.6729 54.4654 52.5357 54.5357C52.3984 54.606 52.2796 54.7076 52.1888 54.8322C52.099 54.9563 52.0406 55.1003 52.0187 55.2519C52.0047 55.4071 52.0003 55.5631 52.0055 55.7188C52.0055 56.3489 52.0055 56.9715 52.0055 57.5865C52.0055 58.8115 52.0055 59.993 52.0055 61.1196C52.0055 63.3692 52.0055 65.3956 51.9941 67.1007C51.9828 68.8059 51.9771 70.1821 51.9941 71.1291C52.0159 71.3087 52.0852 71.4792 52.1949 71.6231C52.3045 71.767 52.4506 71.879 52.618 71.9477C52.7389 71.9942 52.8666 72.021 52.996 72.0271H52.8977C52.8018 72.0206 52.7075 71.9996 52.618 71.9647C52.4734 71.9092 52.3438 71.8205 52.2399 71.7057C52.0934 71.5491 51.9989 71.351 51.9696 71.1386C51.9469 70.1821 51.9544 68.8078 51.9469 67.1045C51.9393 65.4013 51.9469 63.3729 51.9355 61.1234C51.9355 59.9892 51.9355 58.8153 51.9355 57.5903V55.7226C51.9306 55.5618 51.935 55.4008 51.9488 55.2406C51.974 55.0739 52.0388 54.9157 52.1378 54.7793C52.2366 54.6412 52.367 54.5286 52.5181 54.4509C52.6692 54.3732 52.8366 54.3327 53.0064 54.3327C53.1763 54.3327 53.3437 54.3732 53.4948 54.4509C53.6458 54.5286 53.7762 54.6412 53.8751 54.7793C53.9748 54.9146 54.0397 55.0724 54.0641 55.2387C54.0778 55.3996 54.0822 55.5612 54.0773 55.7226V57.5903C54.0773 58.8153 54.0773 59.9967 54.0773 61.1215C54.0773 63.371 54.0773 65.3975 54.0679 67.1007C54.0584 68.804 54.0679 70.1802 54.0433 71.1367C54.0139 71.3491 53.9195 71.5472 53.773 71.7038C53.669 71.8186 53.5395 71.9073 53.3949 71.9628C53.3054 71.9977 53.211 72.0187 53.1151 72.0252L52.9677 72.0271Z" fill="#263238"/>
<g opacity="0.3">
<path d="M87.7827 39.0703C87.7827 39.0703 94.9226 40.2291 101.123 46.577L87.7827 39.0703Z" fill="black"/>
</g>
<g opacity="0.3">
<path d="M75.8336 55.9193C75.8336 55.9193 78.3251 62.7095 75.8336 71.2313V55.9193Z" fill="black"/>
</g>
<g opacity="0.3">
<path d="M54.0207 55.9193C54.0207 55.9193 56.4781 62.2028 53.9885 70.719L54.0207 55.9193Z" fill="black"/>
</g>
<g opacity="0.3">
<path d="M22.1245 55.9193C22.1245 55.9193 24.582 62.2028 22.0942 70.719L22.1245 55.9193Z" fill="black"/>
</g>
<g opacity="0.3">
<path d="M123.526 28.4465C123.526 28.4465 126.017 35.2367 123.526 43.7585V28.4465Z" fill="black"/>
</g>
<path d="M5.48169 70.1859L8.30023 73.1745V85.5281H11.3192V73.1745L14.2587 70.3182L5.48169 70.1859Z" fill="#E0E0E0"/>
<path d="M5.48169 70.1859L14.2587 70.2785H14.3532L14.2851 70.3446L11.3494 73.2067L11.3626 73.1745C11.3626 76.0271 11.3626 79.2502 11.3626 82.6528C11.3626 83.6283 11.3626 84.5886 11.3626 85.5281V85.5773H8.25108V85.5357C8.25108 80.46 8.2662 76.1159 8.27188 73.1821V73.2029L5.48169 70.1859L8.31725 73.1556V73.167C8.31725 76.1008 8.32859 80.4449 8.33615 85.5205L8.28889 85.4733H11.3135L11.2643 85.5224V82.6528C11.2643 79.2502 11.2643 76.0271 11.2643 73.1745V73.1556L11.2776 73.1424L14.2209 70.2898L14.2473 70.356L5.48169 70.1859Z" fill="#263238"/>
<path d="M11.319 73.2161C10.8165 73.2645 10.3114 73.2809 9.80673 73.2653C9.3021 73.2809 8.79698 73.2645 8.29443 73.2161C8.79691 73.1666 9.3021 73.1502 9.80673 73.167C10.3114 73.1502 10.8166 73.1666 11.319 73.2161Z" fill="#263238"/>
<path d="M106.397 43.749L109.354 46.8833V85.5281H112.518V46.8833L115.741 43.749H106.397Z" fill="#E0E0E0"/>
<path d="M106.397 43.7585L115.741 43.7301H115.813L115.762 43.7793L112.548 46.9173V46.8927C112.548 55.802 112.558 68.4013 112.564 82.3523V85.5867H109.305V85.5357C109.316 68.1877 109.327 53.6867 109.333 46.8908V46.904L106.397 43.7585L109.367 46.8795C109.367 53.6848 109.382 68.1764 109.395 85.5243L109.346 85.4752H112.513L112.463 85.5243V82.3428C112.463 68.3919 112.475 55.7926 112.479 46.8832V46.8681L112.49 46.8587L115.717 43.7282L115.736 43.7774L106.397 43.7585Z" fill="#263238"/>
<path d="M112.518 46.9249C111.459 46.9904 110.396 46.9904 109.337 46.9249C110.396 46.8593 111.459 46.8593 112.518 46.9249Z" fill="#263238"/>
<path d="M73.7939 70.8456C73.7939 70.872 69.361 70.8664 63.8941 70.8305C58.4271 70.7945 53.9923 70.7454 53.9923 70.7189C53.9923 70.6925 58.4252 70.6981 63.8941 70.7322C69.3629 70.7662 73.7939 70.8172 73.7939 70.8456Z" fill="#263238"/>
<path d="M100.297 16.0589C99.1865 18.6141 98.9688 21.4688 99.6788 24.1629C99.8825 24.9228 100.16 25.661 100.507 26.3671C100.536 26.4242 100.577 26.4747 100.626 26.5156C100.676 26.5564 100.733 26.5868 100.795 26.6047C100.857 26.6227 100.921 26.6279 100.985 26.62C101.049 26.6122 101.11 26.5914 101.166 26.559C101.221 26.5266 101.269 26.4832 101.307 26.4315C101.346 26.3798 101.373 26.3209 101.387 26.2584C101.402 26.1958 101.404 26.131 101.392 26.0677C101.381 26.0045 101.357 25.9443 101.322 25.8907C100.625 24.4358 100.246 22.8492 100.21 21.2365C100.173 19.6238 100.481 18.0218 101.112 16.5371C101.171 16.4282 101.187 16.3007 101.156 16.1805C101.124 16.0604 101.049 15.9567 100.943 15.8906C100.835 15.8279 100.706 15.8106 100.585 15.8425C100.464 15.8744 100.36 15.9528 100.297 16.0608V16.0589Z" fill="#E0E0E0"/>
<path d="M100.781 24.2045L102.76 21.3141C102.823 21.2058 102.84 21.0774 102.808 20.9564C102.777 20.8355 102.699 20.7318 102.592 20.6676C102.483 20.6074 102.355 20.5914 102.235 20.6231C102.114 20.6548 102.011 20.7317 101.946 20.8378L99.9644 23.7206C99.9022 23.8291 99.8852 23.9577 99.9171 24.0787C99.9489 24.1996 100.027 24.3032 100.135 24.3671C100.244 24.4273 100.372 24.4433 100.492 24.4116C100.612 24.3799 100.716 24.303 100.781 24.1969V24.2045Z" fill="#E0E0E0"/>
<path d="M99.8395 21.3084C100.721 21.365 101.606 21.3543 102.486 21.2763C102.611 21.2763 102.732 21.2265 102.82 21.1379C102.909 21.0492 102.959 20.929 102.959 20.8037C102.959 20.6783 102.909 20.5581 102.82 20.4695C102.732 20.3809 102.611 20.3311 102.486 20.3311C101.606 20.4091 100.721 20.4198 99.8395 20.3632C99.7143 20.3637 99.5944 20.4137 99.5059 20.5022C99.4174 20.5907 99.3674 20.7106 99.3669 20.8358C99.3698 20.9602 99.4205 21.0788 99.5085 21.1668C99.5966 21.2548 99.7151 21.3055 99.8395 21.3084Z" fill="#E0E0E0"/>
<path d="M100.036 17.626C100.709 18.5887 101.322 19.5912 101.874 20.6279C101.937 20.7354 102.041 20.8135 102.162 20.8454C102.283 20.8772 102.412 20.8602 102.52 20.798C102.627 20.7331 102.704 20.6296 102.736 20.509C102.767 20.3885 102.751 20.2603 102.69 20.1515C102.138 19.1146 101.525 18.1115 100.853 17.1477C100.787 17.0419 100.684 16.9654 100.563 16.9341C100.443 16.9028 100.315 16.919 100.206 16.9794C100.099 17.0433 100.021 17.1469 99.9888 17.2678C99.957 17.3888 99.974 17.5174 100.036 17.626Z" fill="#E0E0E0"/>
<path d="M82.5351 76.7436L82.0247 82.5583C82.0247 82.5583 87.7639 85.0309 87.7828 86.116L76.4633 85.5357L76.8867 76.4411L82.5351 76.7436Z" fill="#455A64"/>
<path d="M78.5522 81.8872C78.4419 81.915 78.3457 81.9824 78.2819 82.0765C78.2181 82.1706 78.1912 82.2849 78.2062 82.3976C78.2296 82.5091 78.2947 82.6074 78.3881 82.6724C78.4816 82.7374 78.5964 82.7642 78.7091 82.7473C78.8264 82.7177 78.9286 82.6457 78.996 82.5452C79.0634 82.4446 79.0911 82.3227 79.0739 82.2029C79.0096 81.9855 78.7147 81.8022 78.5068 81.9005" fill="#E0E0E0"/>
<path d="M76.4406 85.7682L76.4821 84.8853L87.3556 85.5186C87.3556 85.5186 87.8489 85.7644 87.7733 86.116L76.4406 85.7682Z" fill="#E0E0E0"/>
<path d="M82.2118 82.5111C82.2118 82.5659 81.9283 82.5772 81.6447 82.7398C81.3612 82.9024 81.2062 83.1292 81.157 83.1047C81.1079 83.0801 81.2062 82.7644 81.5502 82.5735C81.8943 82.3825 82.2251 82.46 82.2118 82.5111Z" fill="#263238"/>
<path d="M83.3725 83.0631C83.382 83.1179 83.1381 83.1992 82.9377 83.4223C82.7374 83.6453 82.6712 83.8911 82.6164 83.8854C82.5616 83.8797 82.5427 83.5659 82.796 83.2918C83.0493 83.0177 83.3744 83.0102 83.3725 83.0631Z" fill="#263238"/>
<path d="M83.9718 84.5186C83.9227 84.5186 83.8584 84.2464 84.0172 83.9515C84.176 83.6566 84.4388 83.5508 84.4596 83.5961C84.4803 83.6415 84.3121 83.7984 84.1873 84.0423C84.0626 84.2861 84.0285 84.5149 83.9718 84.5186Z" fill="#263238"/>
<path d="M82.1816 81.1727C82.1552 81.2219 81.9057 81.133 81.5918 81.1368C81.278 81.1406 81.0247 81.2294 81.0039 81.1803C80.9832 81.1311 81.2213 80.9459 81.5918 80.9459C81.9624 80.9459 82.21 81.1311 82.1816 81.1727Z" fill="#263238"/>
<path d="M80.7884 18.2857C80.7563 18.97 80.6977 19.7167 80.2213 20.2158C79.8206 20.643 79.2081 20.7829 78.6296 20.868C78.3044 20.9243 77.9728 20.9345 77.6447 20.8982C77.3148 20.8612 77.0067 20.7148 76.7695 20.4823C76.6533 20.3647 76.57 20.2187 76.5278 20.0588C76.4857 19.8989 76.4863 19.7308 76.5294 19.5712C76.3457 19.6018 76.157 19.5817 75.9838 19.5131C75.8106 19.4444 75.6594 19.3299 75.5464 19.1818C75.4366 19.0318 75.3601 18.8601 75.322 18.6782C75.2838 18.4963 75.285 18.3084 75.3253 18.1269C75.4102 17.7601 75.6086 17.4293 75.8924 17.1817C75.7276 17.045 75.6114 16.8587 75.561 16.6506C75.5105 16.4425 75.5287 16.2237 75.6126 16.0267C75.8527 15.3178 76.3687 15.2006 76.7865 15.3273C76.7184 15.23 76.6754 15.1173 76.6613 14.9993C76.6473 14.8813 76.6627 14.7616 76.7061 14.651C76.7495 14.5404 76.8196 14.4423 76.9102 14.3653C77.0007 14.2884 77.1089 14.2351 77.2251 14.2101L77.9529 14.0797L80.7884 18.2857Z" fill="#263238"/>
<path d="M86.7601 13.3235C86.846 13.1594 86.8878 12.9757 86.8813 12.7906C86.8748 12.6054 86.8202 12.4252 86.723 12.2675C86.6257 12.1098 86.4891 11.9801 86.3266 11.8912C86.1641 11.8022 85.9812 11.7571 85.796 11.7602L84.1362 12.1383L84.8508 14.9379C84.8951 15.2128 85.0171 15.4692 85.2024 15.677C85.3045 15.7597 85.4223 15.8208 85.5487 15.8565C85.6751 15.8922 85.8075 15.9019 85.9378 15.885C86.2239 15.8598 86.4962 15.7508 86.7207 15.5715C86.9451 15.3923 87.1116 15.1508 87.1994 14.8773C87.2872 14.6038 87.2924 14.3105 87.2142 14.0341C87.1361 13.7577 86.9781 13.5105 86.7601 13.3235Z" fill="#263238"/>
<path d="M82.2119 25.0665C81.5368 25.1187 80.868 24.9047 80.3486 24.4702C79.8293 24.0356 79.5007 23.4151 79.433 22.7413L78.5937 14.3046C78.2969 12.0361 79.3631 9.99075 81.6297 9.75446L81.8395 9.745C82.8622 9.69895 83.8647 10.0396 84.6476 10.6992C85.4304 11.3588 85.9363 12.2889 86.0645 13.3046C86.3121 15.263 86.5597 17.4313 86.5957 18.488C86.6656 20.6732 84.4974 21.1099 84.4974 21.1099C84.4974 21.1099 84.7488 22.5504 84.8055 23.1893C84.9321 24.626 83.6486 24.9549 82.2119 25.0665Z" fill="#B56760"/>
<path d="M84.4519 21.074C83.4427 21.1164 82.4423 20.8691 81.5691 20.3613C81.5691 20.3613 82.3725 21.9209 84.5426 21.626L84.4519 21.074Z" fill="#8A4A43"/>
<path d="M85.6014 15.1761C85.6056 15.2575 85.5779 15.3374 85.5243 15.3987C85.4707 15.4601 85.3953 15.4982 85.314 15.505C85.2745 15.51 85.2343 15.507 85.1959 15.4963C85.1575 15.4855 85.1217 15.4671 85.0905 15.4423C85.0593 15.4175 85.0334 15.3866 85.0144 15.3516C84.9953 15.3166 84.9834 15.2781 84.9794 15.2385C84.9752 15.1571 85.0028 15.0772 85.0565 15.0158C85.1101 14.9544 85.1855 14.9163 85.2668 14.9095C85.3063 14.9046 85.3465 14.9075 85.3849 14.9183C85.4232 14.9291 85.4591 14.9474 85.4903 14.9723C85.5214 14.9971 85.5473 15.0279 85.5664 15.0629C85.5855 15.0979 85.5974 15.1364 85.6014 15.1761Z" fill="#263238"/>
<path d="M85.5937 14.1912C85.5559 14.2328 85.3121 14.0683 84.9775 14.0853C84.6429 14.1023 84.4104 14.2744 84.365 14.2403C84.3196 14.2063 84.382 14.1477 84.486 14.0645C84.6267 13.9576 84.7971 13.8969 84.9737 13.8906C85.1482 13.8816 85.3211 13.9287 85.4671 14.0248C85.5729 14.1004 85.6126 14.1723 85.5937 14.1912Z" fill="#263238"/>
<path d="M82.4368 15.3859C82.4416 15.4672 82.4144 15.547 82.361 15.6085C82.3077 15.6699 82.2325 15.7081 82.1514 15.7149C82.1117 15.7198 82.0714 15.7168 82.0329 15.7059C81.9944 15.695 81.9585 15.6765 81.9273 15.6515C81.8961 15.6264 81.8702 15.5954 81.8512 15.5602C81.8322 15.5249 81.8205 15.4863 81.8168 15.4464C81.8127 15.364 81.8414 15.2833 81.8967 15.222C81.952 15.1607 82.0293 15.1238 82.1117 15.1194C82.1901 15.112 82.2682 15.1359 82.3291 15.1858C82.39 15.2357 82.4287 15.3076 82.4368 15.3859Z" fill="#263238"/>
<path d="M82.312 14.4747C82.2742 14.5163 82.0303 14.3537 81.6957 14.3689C81.3611 14.384 81.1286 14.5579 81.0833 14.5239C81.0379 14.4898 81.1003 14.4312 81.2042 14.3481C81.3454 14.2419 81.5155 14.1813 81.692 14.1742C81.8664 14.1659 82.0391 14.2128 82.1853 14.3084C82.3007 14.384 82.3309 14.4577 82.312 14.4747Z" fill="#263238"/>
<path d="M83.6239 17.0003C83.7984 16.9374 83.9799 16.8961 84.1645 16.8774C84.2496 16.8642 84.3309 16.8434 84.3422 16.7848C84.3455 16.696 84.3218 16.6083 84.2741 16.5334C84.1834 16.3292 84.0851 16.1156 83.9906 15.8906C83.5974 14.9776 83.3082 14.2252 83.3441 14.2101C83.38 14.195 83.7316 14.9228 84.1248 15.8358L84.397 16.4804C84.4562 16.5813 84.4776 16.6999 84.4575 16.815C84.4466 16.8461 84.4286 16.8742 84.405 16.8971C84.3813 16.9201 84.3528 16.9373 84.3214 16.9474C84.2749 16.9623 84.2266 16.9712 84.1777 16.9738C83.9949 17.0059 83.8089 17.0148 83.6239 17.0003Z" fill="#263238"/>
<path d="M83.4481 17.9001C83.4321 17.8205 83.394 17.7471 83.3382 17.6882C83.2823 17.6294 83.211 17.5875 83.1324 17.5673C83.0383 17.5497 82.941 17.5623 82.8545 17.6033C82.8122 17.6249 82.7747 17.6551 82.7445 17.6918C82.7142 17.7286 82.6919 17.7711 82.6787 17.8169C82.6767 17.8313 82.6767 17.8459 82.6787 17.8604C82.6645 17.8852 82.6561 17.913 82.6541 17.9416C82.6428 18.0271 82.652 18.114 82.6809 18.1952C82.7098 18.2764 82.7577 18.3495 82.8205 18.4086C82.8974 18.4751 82.9968 18.5096 83.0984 18.505C83.1947 18.4962 83.284 18.4509 83.3479 18.3783C83.4003 18.3117 83.4366 18.2339 83.454 18.1509C83.4714 18.068 83.4694 17.9821 83.4481 17.9001Z" fill="#8A4A43"/>
<path d="M82.6543 17.2762C82.7091 17.2762 82.7262 17.6354 83.0494 17.8793C83.3727 18.1231 83.7602 18.0683 83.764 18.1175C83.7677 18.1666 83.6808 18.1912 83.5182 18.2044C83.3048 18.2166 83.0939 18.153 82.9228 18.0248C82.7576 17.9029 82.6469 17.721 82.6146 17.5182C82.5938 17.367 82.6297 17.2744 82.6543 17.2762Z" fill="#263238"/>
<path d="M82.3006 13.3122C82.2704 13.4048 81.9339 13.3765 81.5445 13.4407C81.1551 13.505 80.8394 13.6298 80.7883 13.5485C80.7638 13.5107 80.8148 13.4218 80.9396 13.3292C81.105 13.2111 81.2961 13.1339 81.4972 13.1042C81.6976 13.0716 81.9029 13.0865 82.0965 13.1477C82.242 13.1988 82.3177 13.2687 82.3006 13.3122Z" fill="#263238"/>
<path d="M85.4066 12.9606C85.3498 13.0399 85.1154 12.9719 84.8394 12.9795C84.5635 12.987 84.329 13.0551 84.2723 12.9795C84.2459 12.9416 84.2723 12.8641 84.3801 12.7904C84.5145 12.6979 84.6733 12.6473 84.8365 12.6449C84.9997 12.6426 85.1599 12.6886 85.2969 12.7772C85.3952 12.8452 85.4311 12.9227 85.4066 12.9606Z" fill="#263238"/>
<path d="M78.7998 15.8736C78.762 15.8585 77.2875 15.4955 77.3934 16.9889C77.4992 18.4823 78.9813 18.057 78.9813 18.0135C78.9813 17.97 78.7998 15.8736 78.7998 15.8736Z" fill="#B56760"/>
<path d="M78.4822 17.4823C78.4822 17.4823 78.4576 17.5012 78.416 17.5258C78.3575 17.5552 78.2901 17.562 78.227 17.5447C78.0663 17.4993 77.9132 17.2592 77.8848 16.9908C77.8722 16.863 77.8877 16.7339 77.9302 16.6127C77.9403 16.5651 77.962 16.5207 77.9933 16.4835C78.0246 16.4462 78.0646 16.4173 78.1098 16.3991C78.1389 16.3888 78.1707 16.389 78.1997 16.3997C78.2288 16.4104 78.2531 16.4309 78.2685 16.4577C78.2912 16.4974 78.2837 16.5295 78.2931 16.5314C78.3026 16.5333 78.3234 16.5031 78.3064 16.4426C78.2946 16.4065 78.2713 16.3753 78.2402 16.3537C78.2187 16.3395 78.1946 16.3298 78.1692 16.3253C78.1438 16.3207 78.1178 16.3214 78.0927 16.3273C78.0326 16.3441 77.9778 16.3761 77.9334 16.4201C77.8891 16.4641 77.8567 16.5187 77.8394 16.5787C77.7863 16.7131 77.7668 16.8585 77.7827 17.0021C77.8149 17.3008 77.9907 17.5692 78.2099 17.6165C78.2509 17.6253 78.2933 17.6246 78.334 17.6144C78.3746 17.6043 78.4124 17.5849 78.4444 17.5579C78.4822 17.5201 78.4878 17.4823 78.4822 17.4823Z" fill="#8A4A43"/>
<path d="M80.7884 12.3783C80.5847 12.2315 80.3381 12.1563 80.0871 12.1647C79.4347 12.1386 78.7882 12.2964 78.2213 12.6203C77.9135 12.7742 77.6612 13.0199 77.4992 13.3235C77.4228 13.4765 77.3954 13.6494 77.4207 13.8185C77.4461 13.9876 77.523 14.1448 77.6409 14.2687C77.4343 14.4173 77.2888 14.636 77.2317 14.8841C77.1745 15.1322 77.2097 15.3925 77.3307 15.6165C77.4516 15.8405 77.6499 16.0128 77.8886 16.1012C78.1274 16.1896 78.3901 16.188 78.6277 16.0967C78.6481 16.2099 78.6969 16.3161 78.7695 16.4053C78.8421 16.4946 78.9361 16.564 79.0428 16.607C79.1495 16.6501 79.2653 16.6654 79.3795 16.6515C79.4937 16.6376 79.6025 16.595 79.6958 16.5277C79.7928 16.455 79.8766 16.3661 79.9434 16.2649C80.2005 15.8869 80.174 15.1799 80.0587 14.73C80.2072 14.713 80.35 14.6627 80.4763 14.5828C80.6027 14.503 80.7094 14.3956 80.7884 14.2687C80.9439 14.0115 81.0371 13.7215 81.0606 13.4218C81.1041 13.0456 81.0682 12.6184 80.7884 12.3783Z" fill="#263238"/>
<path d="M79.8281 8.24785C79.7279 8.2762 77.3422 9.19303 76.9925 11.1288C76.6428 13.0645 76.9093 13.5863 76.9093 13.5863C76.8221 13.6618 76.7463 13.7497 76.6844 13.8471C76.5993 13.9813 76.8356 14.539 77.1475 14.4275C79.4027 13.004 82.2421 12.4766 85.4368 12.108L87.8659 11.7186C88.5597 11.6978 88.7733 11.4823 88.4595 11.3537C88.2194 11.2535 86.1703 10.762 86.1703 10.762L85.7506 10.5409L84.5389 9.29511C84.5389 9.29511 84.6353 9.08339 84.365 8.95674C84.0946 8.83008 81.8016 7.67128 79.8281 8.24785Z" fill="#FF725E"/>
<g opacity="0.3">
<path d="M77.7335 9.66377C77.7335 9.66377 80.3309 8.84146 81.6069 9.24033L81.4576 9.19118L82.656 9.52011C82.8583 9.57682 83.0946 9.62597 83.2647 9.50309C82.6943 9.16875 82.0668 8.94313 81.4141 8.83768C80.2458 8.62596 78.4556 8.72237 77.7335 9.66377Z" fill="black"/>
</g>
<path d="M77.6978 9.68266C77.7646 9.61415 77.8366 9.55094 77.9133 9.49363C78.1198 9.33153 78.3443 9.19388 78.5824 9.08342C78.9362 8.91956 79.3119 8.80812 79.6978 8.7526C80.171 8.67255 80.6559 8.69576 81.1193 8.82065C81.3559 8.89073 81.5882 8.97468 81.815 9.07207C82.0324 9.16848 82.2479 9.24788 82.4464 9.34429C82.6274 9.44519 82.8172 9.52934 83.0135 9.59571C83.1853 9.64606 83.3665 9.65577 83.5428 9.62406C84.1969 9.5371 84.5787 9.3424 84.5428 9.30648C84.5355 9.33048 84.5202 9.3512 84.4993 9.36508C84.4401 9.40477 84.3767 9.43774 84.3103 9.46338C84.0655 9.55262 83.8121 9.61597 83.5541 9.65242C83.3732 9.68628 83.1869 9.67787 83.0097 9.62784C82.814 9.5607 82.6243 9.47723 82.4426 9.37831C82.2535 9.2819 82.0305 9.20251 81.8112 9.10799C81.5867 9.0104 81.3562 8.92706 81.1212 8.85846C80.6632 8.73665 80.1846 8.71282 79.7167 8.78852C79.3337 8.84289 78.9602 8.95042 78.607 9.10799C78.3697 9.2157 78.1447 9.34881 77.9359 9.50497C77.8622 9.55979 77.8055 9.60516 77.7696 9.63729C77.7467 9.65408 77.7227 9.66924 77.6978 9.68266Z" fill="#263238"/>
<g opacity="0.3">
<path d="M76.8754 11.9303C77.3165 11.8375 77.7458 11.6955 78.1552 11.5068C78.6429 11.3178 79.1306 11.1609 79.6089 10.953C79.9737 10.7961 80.4066 10.6392 80.6145 10.3291C80.6461 10.4197 80.6541 10.5168 80.6379 10.6114C80.6217 10.706 80.5818 10.7949 80.5219 10.8698C80.2983 11.0698 80.0427 11.2308 79.7658 11.3462C78.709 11.8112 77.968 12.125 76.8319 12.3783C76.8365 12.23 76.851 12.0823 76.8754 11.9359" fill="black"/>
</g>
<path d="M77.0416 10.9152C76.76 11.091 76.5861 11.2063 76.6163 11.4653C76.6409 11.6808 76.7222 11.936 76.9396 11.9435C77.0047 11.9408 77.0688 11.9261 77.1286 11.9001L80.3252 10.7526C80.4385 10.7249 80.5383 10.6579 80.6069 10.5636C80.6392 10.4806 80.6375 10.3881 80.6021 10.3064C80.5667 10.2246 80.5005 10.1601 80.4179 10.1269C80.2519 10.0642 80.0713 10.051 79.898 10.0891C78.9102 10.2324 77.9462 10.5083 77.0322 10.9095" fill="#FF725E"/>
<path d="M80.5653 10.624C80.6014 10.5789 80.6244 10.5246 80.6314 10.4671C80.6398 10.3902 80.6265 10.3125 80.5931 10.2427C80.5597 10.1729 80.5075 10.1138 80.4424 10.0721C80.2263 9.9793 79.9852 9.96198 79.7581 10.0229C79.4953 10.0739 79.208 10.1363 78.9093 10.2119C78.3963 10.333 77.8952 10.5 77.4121 10.711C77.2231 10.7923 77.0813 10.8679 76.9811 10.9208L76.8658 10.9813C76.8527 10.9897 76.8388 10.9967 76.8242 11.0021C76.8356 10.9917 76.8483 10.9828 76.862 10.9757L76.9736 10.9057C77.0719 10.849 77.2155 10.7696 77.3989 10.6845C77.8805 10.4645 78.3826 10.2923 78.898 10.1704C79.1985 10.0947 79.4878 10.0361 79.7505 9.98131C79.9863 9.91982 80.2361 9.94186 80.4575 10.0437C80.5259 10.0891 80.58 10.153 80.6135 10.228C80.647 10.3029 80.6584 10.3859 80.6465 10.4671C80.6398 10.5111 80.6223 10.5526 80.5955 10.5881C80.5785 10.6146 80.5653 10.6259 80.5653 10.624Z" fill="#263238"/>
<path d="M84.9208 9.69586L82.8433 9.95673L83.1041 10.5144L85.3499 10.1363L84.9208 9.69586Z" fill="white"/>
<path d="M82.0569 12.0003C82.0569 12.0003 82.9586 11.7224 84.0777 11.4048C85.1968 11.0872 86.1042 10.8377 86.108 10.8377C86.1117 10.8377 85.2062 11.1156 84.089 11.435C82.9718 11.7545 82.0607 12.0003 82.0569 12.0003Z" fill="#263238"/>
<path d="M96.5334 16.9719L91.3916 22.5485L85.2308 23.7395L87.0267 29.0892L92.6449 27.1667C93.6811 26.8199 94.5776 26.1475 95.2006 25.2499C96.5239 23.282 98.7924 19.1893 98.7924 19.1893L96.5334 16.9719Z" fill="#FF725E"/>
<path d="M93.1117 20.6827L96.072 23.8907L96.934 22.454L94.2043 19.4975L93.1117 20.6827Z" fill="white"/>
<path d="M97.7299 15.6297C97.7299 15.6297 100.161 13.66 100.66 13.607C101.159 13.5541 101.499 13.418 101.841 13.7129C102.184 14.0078 102.859 14.8471 102.938 15.1099C103.017 15.3726 102.841 15.953 102.841 15.953C102.69 15.6811 102.489 15.4405 102.248 15.2441C102.059 15.1023 101.339 14.8944 101.235 15.5768C101.17 15.9521 101.17 16.3357 101.235 16.711L101.637 16.6543L101.902 17.4899L99.2422 17.6033L98.539 18.9265L96.5333 16.9719L97.7299 15.6297Z" fill="#B56760"/>
<g opacity="0.3">
<path d="M85.3046 23.7394C85.3046 23.7394 86.7204 24.3821 87.331 25.8282C87.9416 27.2744 87.5711 28.902 87.5711 28.902L85.3046 23.7394Z" fill="black"/>
</g>
<path d="M78.2005 64.7416C77.312 68.8834 76.3347 81.6737 76.3347 81.6737L82.5843 81.8816L84.8357 68.9741C84.8357 68.9741 85.8527 64.4372 86.4747 61.9476C87.0285 59.7208 88.8906 42.5449 88.8906 42.5449L78.0663 42.7982C78.0663 42.7982 77.6523 43.7812 77.3725 46.422C77.1457 48.5657 77.157 49.7642 77.3253 50.8247C77.4249 51.4485 77.6549 52.0443 78.0001 52.5733L78.8035 54.3067L78.2005 64.7416Z" fill="#FF725E"/>
<path d="M109.976 24.6298H108.042V27.8605H109.976V24.6298Z" fill="#E0E0E0"/>
<path d="M112.153 27.764H106.131V28.6449H112.153V27.764Z" fill="#E0E0E0"/>
<path d="M105.891 19.5372H103.369V20.8831H105.891V19.5372Z" fill="#E0E0E0"/>
<path d="M112.155 16.7715H105.696V24.7508H112.155V16.7715Z" fill="#E0E0E0"/>
<path d="M110.24 21.9122C110.967 21.1858 110.967 20.008 110.24 19.2816C109.514 18.5552 108.336 18.5552 107.61 19.2816C106.883 20.008 106.883 21.1858 107.61 21.9122C108.336 22.6387 109.514 22.6387 110.24 21.9122Z" fill="white"/>
<path d="M110.785 20.5976C110.772 20.5976 110.785 20.4312 110.705 20.1496C110.595 19.7507 110.356 19.3997 110.025 19.1515C109.782 18.9702 109.498 18.8525 109.198 18.8089C108.899 18.7653 108.593 18.7973 108.308 18.9019C107.973 19.024 107.682 19.244 107.473 19.5333C107.246 19.8421 107.123 20.2153 107.123 20.5985C107.123 20.9818 107.246 21.355 107.473 21.6638C107.683 21.9519 107.974 22.171 108.308 22.2933C108.593 22.3979 108.899 22.4299 109.198 22.3863C109.498 22.3427 109.782 22.225 110.025 22.0437C110.356 21.7955 110.595 21.4445 110.705 21.0456C110.779 20.764 110.772 20.5976 110.785 20.5976C110.79 20.6372 110.79 20.6771 110.785 20.7167C110.787 20.7654 110.784 20.8142 110.775 20.8623C110.771 20.9261 110.76 20.9894 110.743 21.0513C110.661 21.4044 110.478 21.7261 110.217 21.9774C109.955 22.2287 109.627 22.3988 109.271 22.4672C108.935 22.5318 108.589 22.5057 108.267 22.3916C108.093 22.3303 107.929 22.2429 107.781 22.1326C107.624 22.0202 107.487 21.8829 107.375 21.7262C107.129 21.3989 106.997 21.001 106.997 20.5919C106.997 20.1829 107.129 19.7849 107.375 19.4577C107.487 19.3015 107.624 19.1648 107.781 19.0532C107.928 18.9414 108.092 18.854 108.267 18.7942C108.588 18.6786 108.935 18.6519 109.271 18.7167C109.627 18.7851 109.955 18.9552 110.217 19.2065C110.478 19.4578 110.661 19.7795 110.743 20.1326C110.76 20.1945 110.771 20.2577 110.775 20.3216C110.784 20.3697 110.787 20.4185 110.785 20.4672C110.791 20.5104 110.791 20.5543 110.785 20.5976Z" fill="#263238"/>
<path d="M105.696 16.7715C105.733 16.7688 105.77 16.7688 105.807 16.7715H106.146L107.448 16.7583L112.153 16.7318H112.203V16.781C112.203 19.0646 112.203 21.8094 112.212 24.7602C112.225 24.7489 112.101 24.8737 112.153 24.8207H108.766H105.692H105.637V24.7678C105.637 22.3897 105.656 20.3916 105.664 18.9795C105.664 18.2857 105.664 17.7375 105.677 17.3557C105.677 17.1666 105.677 17.0305 105.677 16.9303C105.672 16.8826 105.672 16.8344 105.677 16.7867C105.677 16.7867 105.677 16.8018 105.677 16.8283C105.677 16.8547 105.677 16.8944 105.677 16.9417C105.677 17.045 105.677 17.1906 105.677 17.3783C105.677 17.7564 105.677 18.3235 105.69 19.0135C105.69 20.4162 105.707 22.4048 105.717 24.7678L105.666 24.7149H108.739H112.123C112.176 24.6638 112.051 24.7886 112.065 24.7735C112.065 21.8226 112.065 19.0778 112.065 16.7942L112.114 16.8434L107.439 16.8188L106.127 16.8056H105.779C105.751 16.7954 105.723 16.7841 105.696 16.7715Z" fill="#263238"/>
<path d="M112.057 27.764C112.057 27.7962 110.734 27.8226 109.082 27.8226C107.429 27.8226 106.106 27.7962 106.106 27.764C106.106 27.7319 107.439 27.7054 109.082 27.7054C110.724 27.7054 112.057 27.7319 112.057 27.764Z" fill="#263238"/>
<path d="M108.732 20.5315L109.25 20.6921L109.444 19.3141L108.732 20.5315Z" fill="#FF725E"/>
<path d="M102.085 25.7338C102.652 25.2499 102.841 24.8567 103.078 23.9663C103.358 22.906 103.528 21.8196 103.584 20.7243C103.686 18.4729 103.252 16.9701 103.017 16.3292C102.911 16.0348 102.746 15.7648 102.533 15.5353C102.28 15.2687 101.911 15.0097 101.518 15.1723C100.804 15.4653 101.329 16.3065 101.518 16.5485C101.858 17.2204 102.072 17.9489 102.15 18.6979C102.291 20.4748 101.961 23.3935 101.688 24.3141C101.416 25.2348 101.414 25.4729 101.414 25.4729C101.414 25.4729 101.911 25.817 101.966 25.8283C102.011 25.8036 102.051 25.7716 102.085 25.7338Z" fill="#E0E0E0"/>
<path d="M102.085 25.7338C102.085 25.7338 102.074 25.747 102.049 25.7716L101.998 25.8132C101.987 25.823 101.975 25.8307 101.961 25.8358C101.942 25.833 101.925 25.8266 101.91 25.8169C101.789 25.7508 101.618 25.6279 101.395 25.4861C101.423 25.2374 101.472 24.9914 101.541 24.7508C101.613 24.4729 101.713 24.1666 101.773 23.8169C101.918 22.9969 102.019 22.1696 102.074 21.3386C102.108 20.8679 102.133 20.3689 102.136 19.849C102.152 19.3095 102.118 18.7697 102.034 18.2365C101.982 17.9579 101.91 17.6832 101.821 17.4142C101.736 17.1366 101.626 16.8671 101.494 16.6089C101.303 16.3647 101.173 16.0781 101.116 15.7734C101.103 15.6906 101.108 15.606 101.131 15.5256C101.155 15.4452 101.196 15.371 101.252 15.3084C101.308 15.2476 101.376 15.1987 101.452 15.1647C101.525 15.1252 101.606 15.1002 101.688 15.091C101.903 15.075 102.116 15.1382 102.288 15.2687C102.454 15.3871 102.6 15.5306 102.722 15.694C102.95 16.0166 103.115 16.3788 103.21 16.7621C103.415 17.4702 103.547 18.1973 103.603 18.9322C103.702 20.1752 103.639 21.4259 103.414 22.6525C103.322 23.1742 103.214 23.643 103.099 24.0494C103.007 24.3962 102.872 24.7302 102.698 25.0438C102.581 25.2411 102.437 25.4206 102.269 25.5769L102.134 25.6941C102.104 25.7186 102.087 25.7319 102.085 25.73C102.083 25.7281 102.146 25.6733 102.254 25.5617C102.414 25.4022 102.552 25.2216 102.664 25.0249C102.831 24.7058 102.958 24.3674 103.042 24.0173C103.152 23.6128 103.254 23.144 103.342 22.6222C103.558 21.4016 103.616 20.1582 103.514 18.9228C103.456 18.1947 103.324 17.4745 103.119 16.7734C103.027 16.4013 102.867 16.0495 102.647 15.7356C102.53 15.5811 102.39 15.4453 102.233 15.3329C102.081 15.2163 101.892 15.1591 101.702 15.1723C101.63 15.1799 101.561 15.2011 101.497 15.2346C101.433 15.2638 101.374 15.3056 101.325 15.3575C101.28 15.4106 101.246 15.4728 101.227 15.54C101.208 15.6072 101.203 15.6778 101.214 15.7469C101.27 16.0367 101.394 16.309 101.577 16.5409C101.713 16.8057 101.826 17.0822 101.913 17.367C102.002 17.6406 102.074 17.9197 102.127 18.2025C102.21 18.7414 102.243 19.287 102.225 19.832C102.225 20.3557 102.191 20.8547 102.153 21.3273C102.093 22.1606 101.987 22.9899 101.834 23.8112C101.77 24.1647 101.662 24.4729 101.588 24.747C101.517 24.9832 101.464 25.2246 101.431 25.4691V25.454C101.651 25.609 101.809 25.7262 101.934 25.798L101.972 25.8169C101.985 25.8133 101.996 25.8068 102.006 25.798L102.059 25.7602C102.067 25.7507 102.076 25.7419 102.085 25.7338Z" fill="#263238"/>
<path d="M79.1515 21.8415L78.9719 22.9115C78.331 24.0778 76.8187 26.3671 77.0191 29.8699C77.28 34.2178 77.6789 42.4012 77.6789 42.4012L77.66 42.5146C77.6099 42.82 77.6367 43.1331 77.738 43.4255C77.8394 43.718 78.012 43.9805 78.2403 44.1895L88.125 44.4031C88.7109 44.3048 89.2356 43.9827 89.5884 43.5048C89.9411 43.0268 90.0942 42.4304 90.0154 41.8416L88.4578 30.2348L85.4539 23.3822L85.1723 22.7943L84.8339 22.5901L79.1515 21.8415Z" fill="#FF725E"/>
<path d="M77.0889 31.0627L77.3252 35.4352L88.9415 35.3539L88.692 31.1251L77.0889 31.0627Z" fill="white"/>
<path d="M84.4236 22.5485C84.4227 22.6465 84.4157 22.7444 84.4028 22.8415C84.3797 23.1061 84.3715 23.3718 84.3782 23.6374V23.6827L84.3347 23.6733C83.7544 23.558 82.9661 23.42 82.0965 23.3047C81.1759 23.1818 80.3385 23.0948 79.7335 23.0211C79.4311 22.9871 79.1853 22.955 79.0171 22.9323C78.9289 22.9243 78.8416 22.9085 78.7562 22.885C78.8442 22.8754 78.9329 22.8754 79.0209 22.885L79.7392 22.9436C80.3479 22.9984 81.1854 23.074 82.1097 23.1969C82.9812 23.3141 83.7714 23.4616 84.3498 23.5939L84.3064 23.6298C84.3053 23.3616 84.3243 23.0937 84.3631 22.8283C84.3719 22.7329 84.3922 22.639 84.4236 22.5485Z" fill="#263238"/>
<path d="M88.3065 30.0949C88.2564 30.0106 88.214 29.9221 88.1798 29.8302C88.1004 29.6412 87.9908 29.3935 87.8679 29.0967C87.6051 28.4767 87.2365 27.6222 86.8206 26.6827L85.7393 24.2876L85.4123 23.5598C85.3682 23.4725 85.3322 23.3814 85.3046 23.2876C85.3592 23.3694 85.4072 23.4553 85.4482 23.5447C85.5333 23.7111 85.6562 23.9549 85.8017 24.2593C86.0966 24.8642 86.4936 25.7073 86.9095 26.6487C87.3254 27.5901 87.6845 28.4483 87.9322 29.0759C88.0551 29.3897 88.1515 29.6431 88.2157 29.8207C88.2533 29.9095 88.2836 30.0012 88.3065 30.0949Z" fill="#263238"/>
<path d="M88.7279 44.0288C88.6925 44.0407 88.6556 44.0477 88.6183 44.0496L88.3026 44.0855C88.0285 44.1157 87.6296 44.1517 87.1362 44.1895C86.1514 44.267 84.7884 44.3426 83.2818 44.3653C81.7752 44.388 80.4065 44.3558 79.4198 44.3086C78.9264 44.2859 78.5275 44.2632 78.2534 44.2405L77.9358 44.214C77.8987 44.2144 77.8618 44.2093 77.8262 44.1989C77.8626 44.1948 77.8994 44.1948 77.9358 44.1989H78.2553L79.4235 44.2367C80.4103 44.2651 81.7733 44.2859 83.2799 44.2632C84.7865 44.2405 86.1476 44.1762 87.1325 44.1157L88.2988 44.0439L88.6164 44.025C88.6536 44.0238 88.6909 44.025 88.7279 44.0288Z" fill="#263238"/>
<path d="M99.21 26.0476L100.66 24.4767C100.723 24.4084 100.8 24.3539 100.885 24.3165C100.97 24.2791 101.062 24.2596 101.155 24.2593H101.66C101.66 24.2593 101.501 25.0835 102.099 25.1534C102.265 25.1729 102.434 25.1375 102.579 25.0526C102.724 24.9676 102.837 24.8378 102.902 24.6827C102.902 24.6827 103.794 25.0835 103.702 25.6808C103.609 26.2782 103.335 26.505 103.335 26.505C103.335 26.505 103.565 27.0098 103.382 27.3765C103.256 27.6092 103.065 27.8003 102.832 27.9266C102.65 28.1577 102.434 28.3586 102.189 28.5221C101.915 28.6601 99.8811 28.7621 99.8811 28.7621L98.1079 30.5807L96.8036 27.7187L99.21 26.0476Z" fill="#B56760"/>
<g opacity="0.3">
<path d="M79.0757 28.6469C79.0757 28.6469 78.9642 29.5523 80.1665 31.3539C81.3687 33.1554 83.3045 36.2991 85.9623 36.9872C88.6202 37.6753 89.1268 37.456 89.1268 37.456L88.6883 34.1856L79.0757 28.6469Z" fill="black"/>
</g>
<path d="M78.6125 26.6147C78.7125 28.258 79.444 29.799 80.6541 30.9153C82.5066 32.6525 86.1059 36.4446 88.4367 36.4957C91.7581 36.5675 98.6258 30.6828 98.6258 30.6828L97.2043 26.9644L88.6881 31.0476L84.3138 25.3444C83.9563 24.8702 83.5014 24.4781 82.9797 24.1944C82.458 23.9107 81.8816 23.742 81.2892 23.6998C80.5841 23.6582 79.8431 23.7924 79.276 24.3349C78.7089 24.8775 78.569 25.7432 78.6125 26.6147Z" fill="#FF725E"/>
<path d="M92.8622 29.0457L94.5919 33.7414L96.0418 32.7168L94.4936 28.2801L92.8622 29.0457Z" fill="white"/>
<path d="M78.6125 26.6147C78.6125 26.6147 78.6012 26.5164 78.5993 26.3274C78.5935 26.0498 78.6163 25.7723 78.6673 25.4994C78.7217 25.1328 78.873 24.7874 79.1056 24.4989C79.3383 24.2104 79.6438 23.9893 79.9906 23.8586C80.2926 23.7421 80.6122 23.6781 80.9358 23.6695C81.69 23.6454 82.4357 23.8348 83.087 24.2159C83.4547 24.4285 83.7886 24.6948 84.0776 25.006C84.2283 25.1711 84.3703 25.344 84.5029 25.524L84.9226 26.0703L88.7279 31.0193L88.6731 31.0061L97.1892 26.9191L97.2364 26.8964L97.2572 26.9455C97.5786 27.7924 97.9226 28.6885 98.2686 29.5921L98.6769 30.662L98.6901 30.6942L98.6637 30.7168C97.2904 31.8706 95.856 32.9496 94.3669 33.9494C93.6447 34.4276 92.9207 34.8794 92.1873 35.2726C91.4747 35.6722 90.7267 36.0051 89.9528 36.267C89.5771 36.3912 89.1893 36.4755 88.7959 36.5184C88.6022 36.5345 88.4074 36.5345 88.2137 36.5184C88.0214 36.4946 87.8315 36.4534 87.6466 36.3955C86.9532 36.1572 86.298 35.8197 85.7014 35.3936C84.6328 34.6366 83.6218 33.8013 82.6768 32.8945C82.2401 32.4862 81.8318 32.0911 81.4443 31.7168L80.8772 31.1743C80.6881 30.9985 80.5142 30.8322 80.3516 30.6582C79.7964 30.0701 79.3548 29.3844 79.0492 28.6355C78.8549 28.1612 78.7227 27.6636 78.656 27.1554C78.6314 26.9815 78.622 26.8491 78.6182 26.7584C78.6144 26.6677 78.6182 26.6242 78.6182 26.6242C78.6182 26.6242 78.6182 26.6696 78.6333 26.7584C78.6484 26.8473 78.6541 26.9796 78.6806 27.1535C78.7557 27.658 78.8929 28.1514 79.0889 28.6223C79.4015 29.369 79.8502 30.051 80.4121 30.6337C80.5747 30.8057 80.7543 30.9701 80.9377 31.146L81.5048 31.6866C81.8923 32.0647 82.3025 32.4427 82.7411 32.8586C83.6839 33.7581 84.691 34.5876 85.7543 35.3407C86.3458 35.7603 86.9945 36.0926 87.6806 36.3275C87.8591 36.3823 88.0418 36.4221 88.2269 36.4466C88.4157 36.4618 88.6053 36.4618 88.794 36.4466C89.1799 36.4038 89.5601 36.3201 89.9283 36.197C90.691 35.9315 91.4281 35.5974 92.1305 35.1989C92.8621 34.8038 93.5823 34.352 94.3026 33.8756C95.7879 32.8769 97.2184 31.7991 98.588 30.6469L98.5748 30.7017C98.4444 30.3633 98.3064 30.0004 98.1665 29.6337C97.8187 28.7263 97.4765 27.8284 97.1533 26.9871L97.2213 27.0136L88.7071 31.093L88.6749 31.1081L88.6523 31.0798L84.8583 26.1195L84.4386 25.5731C84.3006 25.3841 84.1683 25.2159 84.0209 25.0571C83.7394 24.7489 83.4147 24.4834 83.0568 24.2688C82.4161 23.8921 81.6825 23.7028 80.9395 23.7225C80.6217 23.7322 80.3078 23.7961 80.0114 23.9115C79.6709 24.0386 79.3703 24.254 79.1408 24.5358C78.9112 24.8175 78.7608 25.1554 78.7051 25.5145C78.6516 25.7854 78.6237 26.0607 78.622 26.3368C78.622 26.4314 78.622 26.5032 78.622 26.5505C78.622 26.5977 78.6125 26.6147 78.6125 26.6147Z" fill="#263238"/>
<path d="M88.5579 32.851C88.548 32.5592 88.5626 32.2671 88.6014 31.9777C88.6063 31.6859 88.6354 31.3951 88.6884 31.1081C88.7302 31.399 88.7302 31.6944 88.6884 31.9853C88.6846 32.2785 88.6407 32.5698 88.5579 32.851Z" fill="#263238"/>
<g opacity="0.3">
<path d="M79.0285 22.9133C78.9963 22.9247 84.6996 24.0702 84.6996 24.0702L84.416 22.7092L84.3347 23.6392C84.3347 23.6392 79.4651 22.7753 79.0285 22.9133Z" fill="black"/>
</g>
<path d="M77.6107 41.0363C77.6047 40.9994 77.6015 40.9621 77.6012 40.9248C77.6012 40.8397 77.6012 40.7357 77.588 40.6015C77.588 40.3198 77.5634 39.9153 77.5388 39.4143C77.4897 38.4125 77.3838 37.0287 77.2572 35.5032C77.1305 33.9776 77.036 32.5901 77.0057 31.5863C76.9887 31.0854 76.9831 30.6789 76.9868 30.3973C76.9868 30.265 76.9868 30.1591 76.9868 30.074C76.986 30.036 76.9892 29.998 76.9963 29.9606C77.0048 29.9978 77.0086 30.0359 77.0076 30.074C77.0076 30.1572 77.0076 30.2631 77.0209 30.3973C77.0209 30.6771 77.0435 31.0835 77.07 31.5844C77.1192 32.5863 77.225 33.9682 77.3498 35.4956C77.4746 37.023 77.571 38.4068 77.6012 39.4106C77.6182 39.9134 77.6258 40.3198 77.6201 40.5996C77.6201 40.7319 77.6201 40.8397 77.6201 40.9248C77.6223 40.9622 77.6191 40.9997 77.6107 41.0363Z" fill="#263238"/>
<path d="M41.584 83.4563L46.9148 81.6321C46.9148 81.6321 50.5595 86.4393 51.5784 86.1992L48.4139 75.7341L39.9885 78.2332L41.584 83.4563Z" fill="#455A64"/>
<path d="M45.4839 78.5413C45.4842 78.4316 45.5248 78.326 45.598 78.2444C45.6712 78.1628 45.7719 78.111 45.8809 78.0989C45.9909 78.0951 46.0982 78.1335 46.1808 78.2062C46.2634 78.279 46.315 78.3806 46.3251 78.4902C46.3243 78.6068 46.2804 78.719 46.2019 78.8052C46.1234 78.8914 46.0158 78.9455 45.8998 78.9572C45.7848 78.9485 45.6775 78.896 45.6001 78.8105C45.5228 78.725 45.4811 78.6131 45.4839 78.4978" fill="#E0E0E0"/>
<path d="M48.6312 75.6642L47.8146 75.9043L50.9205 85.9497C50.9205 85.9497 51.2626 86.3542 51.5764 86.203L48.6312 75.6642Z" fill="#E0E0E0"/>
<path d="M46.9129 81.823C46.9639 81.8041 46.9129 81.5432 46.998 81.2407C47.083 80.9383 47.2607 80.7417 47.2267 80.7001C47.1927 80.6585 46.9205 80.8249 46.8184 81.1916C46.7163 81.5583 46.8694 81.8475 46.9129 81.823Z" fill="#263238"/>
<path d="M47.707 82.7833C47.7599 82.7833 47.7807 82.5319 47.9432 82.2918C48.1058 82.0517 48.3213 81.9345 48.3024 81.8835C48.2835 81.8324 47.9867 81.8835 47.7882 82.1897C47.5897 82.4959 47.6502 82.7965 47.707 82.7833Z" fill="#263238"/>
<path d="M49.2022 83.0082C49.2022 82.9591 48.9225 82.9647 48.6805 83.1803C48.4385 83.3958 48.4026 83.6699 48.4518 83.6774C48.5009 83.685 48.6049 83.4884 48.8053 83.3201C49.0056 83.1519 49.2193 83.0612 49.2022 83.0082Z" fill="#263238"/>
<path d="M45.6521 82.1027C45.6918 82.0668 45.55 81.8551 45.4838 81.5602C45.4177 81.2653 45.4385 81.012 45.3874 80.9931C45.3364 80.9742 45.2173 81.2521 45.3024 81.598C45.3874 81.944 45.6275 82.133 45.6521 82.1027Z" fill="#263238"/>
<path d="M40.9357 69.2426C40.7296 69.1858 31.7012 78.8721 31.4952 80.4732C31.2891 82.0744 31.618 83.4695 32.6861 84.3731C33.7541 85.2767 45.9017 82.322 45.9017 82.322L44.7523 77.2331L49.1437 75.7549L45.2192 68.5715L40.9357 69.2426Z" fill="#FF725E"/>
<g opacity="0.3">
<path d="M38.7994 71.39L38.5101 71.7C38.5101 71.7 43.686 77.1292 45.2739 77.0554L47.8145 76.1953L39.2171 70.9193L38.7994 71.39Z" fill="black"/>
</g>
<path d="M44.7826 77.3635C44.7826 77.39 42.9054 77.9666 40.5727 78.6528C38.24 79.339 36.3421 79.8721 36.3345 79.8456C36.3269 79.8191 38.2116 79.2426 40.5444 78.5583C42.8771 77.8739 44.775 77.3371 44.7826 77.3635Z" fill="#263238"/>
<path d="M33.5066 77.9231L35.2609 83.4903C35.2609 83.4903 30.1909 87.1444 30.4158 88.2049L41.3327 85.1897L38.9546 76.4033L33.5066 77.9231Z" fill="#455A64"/>
<path d="M38.5064 82.0858C38.6204 82.0887 38.7294 82.1338 38.8121 82.2124C38.8949 82.2909 38.9455 82.3974 38.9544 82.5111C38.9556 82.6248 38.9131 82.7347 38.8358 82.818C38.7584 82.9014 38.652 82.9519 38.5385 82.9591C38.4182 82.9562 38.3033 82.9088 38.216 82.826C38.1287 82.7433 38.0752 82.631 38.0659 82.5111C38.081 82.2843 38.3287 82.0423 38.5499 82.0914" fill="#E0E0E0"/>
<path d="M41.4044 85.4184L41.1738 84.5659L30.6936 87.5318C30.6936 87.5318 30.2664 87.8778 30.4157 88.2048L41.4044 85.4184Z" fill="#E0E0E0"/>
<path d="M35.0679 83.4846C35.0849 83.5375 35.359 83.4846 35.6671 83.5867C35.9753 83.6887 36.1794 83.8721 36.2229 83.8362C36.2664 83.8003 36.1019 83.5167 35.7238 83.4033C35.3458 83.2899 35.0414 83.4392 35.0679 83.4846Z" fill="#263238"/>
<path d="M34.0547 84.2748C34.0547 84.3296 34.3118 84.3561 34.5557 84.5319C34.7995 84.7077 34.9167 84.9307 34.9697 84.9099C35.0226 84.8891 34.9697 84.5829 34.6653 84.3693C34.361 84.1557 34.0415 84.2237 34.0547 84.2748Z" fill="#263238"/>
<path d="M33.7825 85.825C33.8335 85.825 33.8354 85.5357 33.6161 85.2824C33.3969 85.0291 33.1171 84.98 33.1076 85.031C33.0982 85.082 33.2967 85.1955 33.4706 85.4091C33.6445 85.6227 33.7277 85.8344 33.7825 85.825Z" fill="#263238"/>
<path d="M34.8089 82.1708C34.8448 82.2143 35.0698 82.0725 35.376 82.0101C35.6822 81.9477 35.9431 81.978 35.9601 81.9232C35.9771 81.8683 35.6955 81.7341 35.3363 81.8211C34.9771 81.908 34.7711 82.133 34.8089 82.1708Z" fill="#263238"/>
<g opacity="0.3">
<path d="M41.41 83.3334L40.7389 80.6925L41.2399 80.46L38.185 72.1462L37.6028 72.6547L40.0036 80.2691L40.8618 83.4487L41.41 83.3334Z" fill="black"/>
</g>
<path d="M34.204 62.7529C33.6117 62.6254 32.9991 62.625 32.4067 62.7518C31.8143 62.8785 31.2555 63.1296 30.7673 63.4883C29.9469 64.1046 29.255 65.0913 29.4837 66.6414C29.9771 70.0895 34.3836 81.8589 34.3836 81.8589L40.4781 80.0253C40.514 80.0139 40.5481 79.9137 40.5292 79.9459C40.4781 80.0253 37.4365 70.2218 37.5046 70.3371C37.5726 70.4524 43.6577 75.3579 46.1795 76.2596C47.3087 76.6693 48.5397 76.7049 49.6906 76.361C50.8416 76.0172 51.8514 75.3123 52.5708 74.3504C53.1606 73.5243 53.2022 69.8948 52.5708 67.976C52.5708 67.976 34.9771 62.9892 34.6482 62.872C34.5029 62.8228 34.3545 62.783 34.204 62.7529Z" fill="#FF725E"/>
<path d="M33.9545 66.339C34.9286 66.9975 35.7512 67.8561 36.3676 68.8574C36.984 69.8587 37.3799 70.9799 37.5292 72.1462" fill="#FF725E"/>
<path d="M52.6654 74.1935L52.5916 74.3088C52.5444 74.3863 52.4593 74.4978 52.3497 74.632C52.0084 75.0269 51.6132 75.3719 51.1757 75.6566C50.8581 75.8657 50.5221 76.0454 50.172 76.1935C49.7512 76.3663 49.3114 76.4888 48.8619 76.5583C48.3417 76.6341 47.8132 76.6341 47.2929 76.5583C46.7054 76.4706 46.1356 76.29 45.6048 76.0234C45.325 75.8891 45.0377 75.7341 44.756 75.5791C44.4744 75.4241 44.1889 75.2521 43.894 75.0649C43.5991 74.8778 43.308 74.6982 43.0131 74.4978C42.7182 74.2974 42.4139 74.0971 42.1095 73.8853C40.8921 73.0403 39.6161 72.0838 38.2929 71.0309L37.7976 70.6282C37.7144 70.5583 37.6331 70.4921 37.5481 70.4165L37.4838 70.356C37.5121 70.356 37.4082 70.356 37.5462 70.356C37.5594 70.3069 37.5462 70.3428 37.5462 70.3333V70.3522L37.5556 70.3901L37.601 70.5451L37.9923 71.8059L38.8222 74.4222C39.3893 76.2055 39.9803 78.0605 40.5953 79.9875L40.6105 80.0328L40.5651 80.0461L34.3892 81.9043L34.3458 81.9175L34.3288 81.8759C33.9299 80.8022 33.5121 79.6585 33.0981 78.4978C32.2153 76.0252 31.376 73.6018 30.6406 71.2388C30.2626 70.0573 29.9242 68.8891 29.652 67.7284C29.5764 67.4392 29.5253 67.1462 29.4724 66.8551C29.4136 66.5646 29.3876 66.2685 29.3949 65.9723C29.4024 65.3842 29.5789 64.8106 29.9034 64.3201C30.2295 63.8624 30.6477 63.478 31.1311 63.1915C31.6146 62.905 32.1526 62.7228 32.7106 62.6565C33.2434 62.585 33.7849 62.6119 34.308 62.7359L34.686 62.8342L35.0641 62.9439L35.7976 63.1632L41.1889 64.7719L48.9942 67.1065L51.1096 67.7473L51.6597 67.9156L51.8487 67.976C51.8487 67.976 51.7844 67.9609 51.6597 67.925L51.1096 67.7662L48.9829 67.1443L41.1662 64.838L35.7692 63.2407L35.0414 63.0233L34.6633 62.9117L34.2853 62.8172C33.7718 62.697 33.2406 62.672 32.7182 62.7435C32.1801 62.8127 31.6611 62.9874 31.1907 63.2577C30.706 63.532 30.2898 63.9127 29.9733 64.3711C29.6598 64.8482 29.4899 65.4052 29.4837 65.976C29.4767 66.266 29.5027 66.5558 29.5612 66.8399C29.6142 67.1292 29.6633 67.4184 29.7389 67.7076C30.0111 68.8626 30.359 70.029 30.7295 71.2086C31.4686 73.5715 32.3098 75.9931 33.187 78.4657C33.601 79.6245 34.0187 80.7682 34.4176 81.84L34.3571 81.8117L40.5329 79.9553L40.5008 80.0158L38.7333 74.4506C38.451 73.5583 38.1769 72.6868 37.911 71.8362L37.5216 70.5734L37.4762 70.4165L37.4649 70.3768V70.3541C37.4649 70.3409 37.4554 70.3693 37.4649 70.3125C37.5651 70.3409 37.5329 70.2993 37.5405 70.3125L37.5953 70.3617L37.8392 70.5677L38.3326 70.9704C39.6558 72.0252 40.9261 72.9836 42.1398 73.8305C42.4441 74.0422 42.7428 74.2502 43.0396 74.4449C43.3364 74.6396 43.6294 74.823 43.9186 75.012C44.2078 75.201 44.4971 75.3598 44.7768 75.5281C45.0566 75.6963 45.3439 75.8381 45.6199 75.9723C46.1442 76.239 46.7077 76.4203 47.2891 76.5092C47.805 76.5848 48.3291 76.5848 48.8449 76.5092C49.2908 76.4428 49.7273 76.3241 50.1455 76.1557C50.4946 76.0108 50.8294 75.8336 51.1455 75.6264C51.5836 75.347 51.9806 75.0079 52.3251 74.6188C52.4366 74.4808 52.5236 74.3787 52.5727 74.3012C52.6219 74.2237 52.6654 74.1935 52.6654 74.1935Z" fill="#263238"/>
<path d="M34.7275 67.6376C34.9052 67.7123 35.0739 67.8068 35.2304 67.9193C35.6184 68.1734 35.9829 68.4619 36.3192 68.7813C36.6567 69.1014 36.9601 69.4555 37.2247 69.838C37.3249 69.9854 37.4005 70.1083 37.4478 70.1953C37.4768 70.2387 37.4985 70.2866 37.5121 70.3371C37.4988 70.3371 37.3816 70.1594 37.168 69.8777C36.8899 69.5125 36.5834 69.1699 36.2512 68.8531C35.9175 68.5375 35.5633 68.2445 35.1907 67.976C35.0296 67.8727 34.8749 67.7597 34.7275 67.6376Z" fill="#263238"/>
<path d="M36.8088 66.959C36.8985 67.1028 36.9702 67.2571 37.0224 67.4183C37.1699 67.8007 37.288 68.1938 37.3759 68.5941C37.465 68.9937 37.5244 69.3994 37.5536 69.8077C37.5753 69.9766 37.5753 70.1474 37.5536 70.3162C37.5189 70.1511 37.4955 69.9837 37.4837 69.8153C37.4459 69.5053 37.3835 69.0799 37.2795 68.6149C37.1916 68.219 37.0837 67.8279 36.9563 67.4429C36.894 67.2859 36.8446 67.124 36.8088 66.959Z" fill="#263238"/>
<path d="M41.8864 41.6791L43.7049 50.0705C44.0149 51.4977 44.1775 53.6622 41.8977 54.0402C39.8958 54.2293 38.9998 52.4788 38.7124 51.1461C38.5763 50.5147 38.461 49.9892 38.4421 49.9249C38.4421 49.9249 36.2625 50.1877 35.65 48.1064C35.3532 47.1007 34.9128 44.9797 34.5366 43.0572C34.342 42.0608 34.5296 41.0276 35.062 40.1632C35.5944 39.2988 36.4326 38.6664 37.41 38.3917L37.6103 38.335C39.8183 37.8605 41.4686 39.4655 41.8864 41.6791Z" fill="#FFBE9D"/>
<path d="M38.4441 49.9324C39.4078 49.6588 40.273 49.115 40.9375 48.3653C40.9375 48.3653 40.7125 50.1271 38.5764 50.526L38.4441 49.9324Z" fill="#EB996E"/>
<path d="M35.1397 44.0156C35.1889 44.0496 35.4648 43.9003 35.8656 43.8965C36.2664 43.8927 36.5688 44.0269 36.6104 43.991C36.652 43.9551 36.5802 43.9154 36.4497 43.853C36.2618 43.7699 36.0578 43.7292 35.8524 43.7339C35.6552 43.7353 35.461 43.7826 35.2853 43.8719C35.1567 43.9475 35.117 44.0024 35.1397 44.0156Z" fill="#263238"/>
<path d="M38.4553 43.4598C38.5121 43.4598 38.6935 43.2141 39.0508 43.0326C39.4081 42.8511 39.7332 42.8436 39.7559 42.7869C39.7786 42.7301 39.6973 42.7339 39.5518 42.7358C39.3477 42.7463 39.1484 42.8011 38.9676 42.8965C38.7889 42.9853 38.6335 43.1148 38.514 43.2746C38.444 43.3804 38.4289 43.4561 38.4553 43.4598Z" fill="#263238"/>
<path d="M38.5594 44.0742C38.5759 44.1343 38.6151 44.1856 38.6687 44.2174C38.7223 44.2491 38.7862 44.2588 38.8468 44.2443C38.8777 44.2394 38.9072 44.2282 38.9337 44.2114C38.9601 44.1947 38.9829 44.1727 39.0006 44.1469C39.0182 44.1211 39.0305 44.092 39.0365 44.0613C39.0426 44.0305 39.0424 43.9989 39.0358 43.9683C39.0189 43.9085 38.9797 43.8574 38.9262 43.8258C38.8727 43.7941 38.809 43.7842 38.7485 43.7982C38.7176 43.8031 38.688 43.8143 38.6616 43.8311C38.6351 43.8478 38.6124 43.8698 38.5947 43.8956C38.577 43.9214 38.5647 43.9506 38.5587 43.9813C38.5526 44.012 38.5529 44.0436 38.5594 44.0742Z" fill="#263238"/>
<path d="M35.5084 44.7811C35.5248 44.8413 35.564 44.8926 35.6176 44.9243C35.6712 44.9561 35.7351 44.9658 35.7957 44.9513C35.8256 44.9452 35.8539 44.9333 35.8791 44.9162C35.9044 44.8991 35.9259 44.8772 35.9426 44.8517C35.9593 44.8262 35.9708 44.7976 35.9764 44.7677C35.982 44.7377 35.9816 44.707 35.9753 44.6772C35.9593 44.6168 35.9202 44.5651 35.8664 44.5333C35.8127 44.5015 35.7486 44.4921 35.688 44.507C35.658 44.5129 35.6295 44.5247 35.6041 44.5417C35.5788 44.5587 35.5571 44.5807 35.5403 44.6062C35.5236 44.6318 35.5121 44.6604 35.5067 44.6904C35.5012 44.7205 35.5017 44.7513 35.5084 44.7811Z" fill="#263238"/>
<path d="M37.9489 45.8378C37.7647 45.8316 37.5804 45.8494 37.4007 45.8908C37.3156 45.904 37.2344 45.9097 37.2117 45.8586C37.181 45.7757 37.1764 45.6853 37.1984 45.5996C37.2192 45.3804 37.2419 45.1497 37.2646 44.9078C37.3516 43.9248 37.3913 43.1252 37.3516 43.1233C37.3119 43.1214 37.2098 43.9134 37.1228 44.8964C37.102 45.1384 37.0831 45.369 37.0661 45.5902C37.0431 45.7032 37.0598 45.8208 37.1134 45.9229C37.1333 45.9484 37.1589 45.969 37.188 45.9831C37.2172 45.9972 37.2492 46.0044 37.2816 46.0042C37.3308 46.0046 37.3798 45.9983 37.4272 45.9853C37.6066 45.9583 37.7819 45.9087 37.9489 45.8378Z" fill="#263238"/>
<path d="M38.2135 41.8303C38.2626 41.9002 38.5349 41.7849 38.8789 41.732C39.223 41.6791 39.5179 41.698 39.5405 41.6148C39.5519 41.5751 39.4838 41.5127 39.3515 41.4673C39.1822 41.4116 39.0018 41.3979 38.826 41.4276C38.6499 41.4541 38.483 41.5236 38.3401 41.6299C38.2343 41.715 38.1908 41.7944 38.2135 41.8303Z" fill="#263238"/>
<path d="M34.9772 43.1743C35.0283 43.231 35.2891 43.1025 35.6237 43.0231C35.9583 42.9437 36.2438 42.9305 36.2665 42.8568C36.2665 42.8227 36.2079 42.7755 36.0774 42.749C35.9067 42.7174 35.7312 42.7238 35.5633 42.7679C35.3932 42.8079 35.2335 42.8833 35.0944 42.9891C34.9961 43.0741 34.9546 43.146 34.9772 43.1743Z" fill="#263238"/>
<path d="M42.1492 43.2802C42.1813 43.2537 43.4724 42.4522 43.8203 43.8927C44.1681 45.3331 42.6577 45.3917 42.6444 45.352C42.6312 45.3123 42.1492 43.2802 42.1492 43.2802Z" fill="#FFBE9D"/>
<path d="M42.9487 44.7037C42.9487 44.7037 42.979 44.715 43.0262 44.7226C43.0923 44.7343 43.1602 44.7193 43.2153 44.681C43.3533 44.5865 43.4213 44.3142 43.3646 44.0534C43.3382 43.9288 43.2839 43.8118 43.2058 43.7112C43.1813 43.6695 43.1469 43.6345 43.1057 43.6091C43.0645 43.5837 43.0178 43.5688 42.9695 43.5657C42.9388 43.5649 42.9088 43.5749 42.8847 43.5939C42.8605 43.6129 42.8438 43.6396 42.8372 43.6696C42.8277 43.715 42.8372 43.7415 42.8372 43.7471C42.8372 43.7528 42.8013 43.7301 42.7975 43.6677C42.7973 43.6303 42.8093 43.5939 42.8315 43.5638C42.8473 43.5436 42.8669 43.5268 42.8894 43.5145C42.9118 43.5021 42.9365 43.4944 42.9619 43.4919C43.024 43.4893 43.0857 43.5026 43.1412 43.5303C43.1968 43.5581 43.2444 43.5995 43.2795 43.6507C43.3722 43.7596 43.437 43.8893 43.4686 44.0288C43.531 44.3218 43.4497 44.6299 43.2568 44.7415C43.2207 44.762 43.1804 44.7744 43.1389 44.7777C43.0974 44.7809 43.0557 44.775 43.0168 44.7604C42.9601 44.732 42.9449 44.7037 42.9487 44.7037Z" fill="#EB996E"/>
<path d="M38.4951 46.783C38.4725 46.749 38.739 46.6053 38.8846 46.2991C38.9442 46.1646 38.9861 46.0229 39.0093 45.8775C39.0301 45.7641 39.049 45.6885 39.0641 45.6885C39.0793 45.6885 39.0906 45.7622 39.0925 45.8775C39.0923 46.0369 39.0574 46.1943 38.9904 46.3388C38.9214 46.4854 38.8135 46.6103 38.6785 46.6999C38.5764 46.7717 38.5027 46.783 38.4951 46.783Z" fill="#263238"/>
<path d="M32.4555 42.112C32.3976 42.1521 32.3514 42.2068 32.3215 42.2705C32.2916 42.3343 32.2792 42.4048 32.2854 42.4749C32.3027 42.5772 32.3532 42.6709 32.429 42.7416C32.5048 42.8123 32.6018 42.8561 32.705 42.8662C32.8085 42.8719 32.9117 42.8509 33.0047 42.8052C33.0977 42.7595 33.1774 42.6907 33.2362 42.6054C33.1778 42.6699 33.13 42.7433 33.0944 42.8228C33.0612 42.9067 33.059 42.9998 33.0884 43.0851C33.1178 43.1705 33.1768 43.2425 33.2546 43.2882C33.3325 43.3339 33.4242 43.3502 33.513 43.3342C33.6019 43.3181 33.682 43.2708 33.7391 43.2008C33.8279 43.2991 33.8997 43.4031 33.9754 43.5052L33.9924 43.5241C34.0396 43.5884 34.0869 43.6507 34.1417 43.7131L34.8393 44.5657C34.7485 43.9646 34.5255 43.1309 34.4366 42.5279C34.8819 42.4228 35.3013 42.229 35.67 41.9582C36.0386 41.6873 36.3489 41.3448 36.5822 40.9513C36.8355 40.5241 36.9981 40.0193 37.3894 39.715C37.896 39.3237 38.6049 39.3899 39.24 39.473L39.2098 39.456C39.5492 39.5359 39.8701 39.6803 40.155 39.8814C40.2618 41.0867 40.6267 42.2549 41.2249 43.3067C41.3157 43.4636 41.5387 43.7812 41.7164 43.8114C42.0699 43.8719 42.0945 43.5222 42.2495 43.3048C42.3996 43.1496 42.6013 43.0548 42.8166 43.0383C42.8791 42.5113 42.9094 41.981 42.9074 41.4504L43.0057 40.8946L42.8166 40.3275C42.4102 39.8757 43.0057 39.4806 42.7164 38.9437C42.4272 38.4069 41.9943 37.8776 41.3932 37.7925H41.3818C40.8374 37.6942 40.2174 37.8171 39.8695 38.25C39.6124 37.5165 38.8298 37.0534 38.0529 37.0099C37.2759 36.9664 36.119 37.3237 35.4706 37.7528C34.9678 38.0836 34.5255 38.6413 34.0245 39.4333C33.8109 39.7679 33.7239 40.766 33.567 41.1347L32.4555 42.112Z" fill="#263238"/>
<path d="M38.7597 36.0382C38.8675 36.0382 41.5178 36.1762 42.4819 37.9683C43.446 39.7603 43.359 40.3766 43.359 40.3766C43.469 40.4247 43.5715 40.4883 43.6634 40.5656C43.7919 40.6715 43.739 41.2972 43.393 41.2878C40.7125 40.6091 37.7408 41.0023 34.4705 41.6658L31.9468 42.0571C31.255 42.2594 30.9752 42.1139 31.2436 41.887C31.4478 41.7112 33.3117 40.5638 33.3117 40.5638L33.6557 40.2103L34.4497 38.5921C34.4265 38.5631 34.4097 38.5296 34.4002 38.4936C34.3907 38.4577 34.3889 38.4203 34.3948 38.3836C34.4006 38.3469 34.4141 38.3119 34.4343 38.2807C34.4545 38.2496 34.481 38.223 34.5121 38.2027C34.7389 37.9947 36.6274 36.1025 38.7597 36.0382Z" fill="#FF725E"/>
<path d="M33.6559 40.214C33.6559 40.214 33.6899 40.214 33.7542 40.197L34.034 40.144C34.2759 40.0911 34.6294 40.0344 35.068 39.9701C36.2104 39.8158 37.3642 39.7626 38.516 39.8113C39.6681 39.8642 40.8161 39.9829 41.9546 40.1667C42.3932 40.2329 42.7467 40.2934 42.9905 40.3331L43.2722 40.3784L43.3705 40.3917L43.2741 40.369L42.9924 40.3161C42.7505 40.2707 42.397 40.2064 41.9603 40.127C40.8212 39.9372 39.6716 39.8173 38.5179 39.7679C37.3632 39.7198 36.2065 39.7774 35.0623 39.9399C34.1871 40.0722 33.6559 40.214 33.6559 40.214Z" fill="#263238"/>
<g opacity="0.3">
<path d="M41.2795 36.7641C41.2795 36.7641 38.4534 36.7886 37.3211 37.592L37.4534 37.4956L36.3759 38.2064C36.1869 38.3255 35.9789 38.4522 35.771 38.3841C36.226 37.8712 36.7721 37.4469 37.3816 37.1327C38.4686 36.5448 40.2682 36.0646 41.2795 36.7641Z" fill="black"/>
</g>
<path d="M41.325 36.7641C41.2365 36.718 41.1449 36.6782 41.0509 36.645C40.7946 36.5508 40.5281 36.4873 40.2569 36.456C39.8549 36.4073 39.4479 36.4182 39.049 36.4881C38.5574 36.5618 38.0874 36.7404 37.6709 37.0117C37.4593 37.1561 37.2573 37.314 37.066 37.4843C36.8769 37.6488 36.6879 37.7962 36.5291 37.9569C36.3827 38.1132 36.2234 38.2567 36.0527 38.386C35.8988 38.4877 35.7235 38.5524 35.5404 38.5751C34.8656 38.6998 34.427 38.6318 34.4497 38.5845C34.4651 38.6055 34.487 38.6208 34.5121 38.628C34.5834 38.6486 34.6571 38.6601 34.7314 38.662C35.0042 38.6725 35.2774 38.6535 35.5461 38.6053C35.7351 38.5815 35.9158 38.5135 36.0735 38.4068C36.247 38.2781 36.4089 38.1345 36.5575 37.9777C36.7181 37.8208 36.9072 37.6715 37.0924 37.5089C37.2831 37.3406 37.4839 37.184 37.6936 37.0401C38.1058 36.7719 38.5704 36.5947 39.0565 36.5202C39.4513 36.4486 39.8544 36.4346 40.2531 36.4786C40.5227 36.5073 40.7884 36.5656 41.0452 36.6526C41.1359 36.6847 41.204 36.7112 41.2512 36.7301C41.2985 36.749 41.325 36.7641 41.325 36.7641Z" fill="#263238"/>
<g opacity="0.3">
<path d="M42.8562 38.7206C42.3628 38.8019 41.9659 38.7377 41.4592 38.7206C40.9167 38.6961 40.3855 38.6923 39.8449 38.6431C39.4365 38.6034 38.9583 38.5883 38.6539 38.3501C38.651 38.4496 38.6739 38.5482 38.7203 38.6363C38.7666 38.7244 38.8349 38.799 38.9186 38.853C39.2037 38.9783 39.5079 39.055 39.8184 39.0798C41.015 39.197 41.8411 39.2688 43.032 39.1498C42.979 39.0043 42.9159 38.8628 42.843 38.7263" fill="black"/>
</g>
<path d="M42.3666 37.7736C42.7011 37.8567 42.9091 37.9153 42.9639 38.1781C43.0093 38.3993 43.0093 38.6772 42.7994 38.7547C42.7331 38.7733 42.6639 38.7797 42.5953 38.7736L39.0735 38.6696C38.9536 38.6793 38.8341 38.6472 38.7352 38.5789C38.6766 38.5082 38.6479 38.4175 38.6553 38.326C38.6627 38.2345 38.7056 38.1495 38.7748 38.0893C38.9184 37.9738 39.0925 37.9029 39.2758 37.8851C40.2963 37.709 41.336 37.6715 42.3666 37.7736Z" fill="#FF725E"/>
<path d="M38.7976 38.6185C38.7466 38.5867 38.7058 38.5407 38.6804 38.4862C38.6477 38.412 38.6365 38.3301 38.6482 38.2498C38.6599 38.1696 38.694 38.0942 38.7466 38.0325C38.9292 37.8712 39.1611 37.7766 39.4045 37.7641C39.6804 37.7319 39.9848 37.6979 40.3043 37.6752C40.8492 37.6305 41.3971 37.6343 41.9413 37.6866C42.1493 37.7074 42.3194 37.7357 42.4328 37.7546L42.5652 37.7792H42.6124C42.5983 37.7716 42.5829 37.7665 42.567 37.7641L42.4366 37.7319C42.3213 37.7074 42.153 37.6752 41.9432 37.6506C41.3977 37.589 40.8475 37.5814 40.3005 37.628C39.981 37.6506 39.6767 37.6847 39.4007 37.7187C39.1482 37.733 38.9087 37.8354 38.7239 38.0079C38.669 38.0739 38.6343 38.1542 38.6239 38.2394C38.6135 38.3245 38.6279 38.4109 38.6653 38.4881C38.6871 38.5287 38.7174 38.5642 38.7542 38.592C38.7806 38.6128 38.7958 38.6204 38.7976 38.6185Z" fill="#263238"/>
<path d="M34.2002 39.1025L36.3344 38.6923L36.2569 39.3274L33.9204 39.6753L34.2002 39.1025Z" fill="white"/>
<path d="M37.7655 40.4503C37.7655 40.4371 36.7863 40.4654 35.5802 40.5089C34.3742 40.5524 33.3969 40.6016 33.3969 40.6129C33.3969 40.6242 34.3761 40.5978 35.5821 40.5524C36.7882 40.507 37.7655 40.4617 37.7655 40.4503Z" fill="#263238"/>
<path d="M11.9883 55.0837H10.3343V51.4768C10.3312 50.9601 10.5334 50.4633 10.8963 50.0954C11.2592 49.7275 11.7533 49.5186 12.27 49.5146H13.9997V51.1933H12.27C12.1951 51.1938 12.1235 51.2239 12.0707 51.277C12.0179 51.3301 11.9883 51.402 11.9883 51.4768V55.0837Z" fill="#E0E0E0"/>
<path d="M12.8485 51.6791C12.7955 51.4727 12.825 51.2537 12.9309 51.0687C13.0368 50.8837 13.2107 50.7473 13.4156 50.6886C14.2701 50.4372 15.5952 50.1215 15.9563 50.4504C16.5026 50.9494 17.807 52.1517 17.807 52.1517L20.5858 52.8171L20.7522 55.3086L15.8618 53.9079C15.8618 53.9079 14.5385 53.9797 14.65 53.267C14.65 53.267 13.9865 53.0062 14.0829 52.6035C14.1793 52.2009 14.7238 52.1045 14.7238 52.1045L14.6047 51.3918L12.8561 51.698L12.8485 51.6791Z" fill="#FFBE9D"/>
<path d="M13.6614 52.2066C14.5853 52.2066 15.3344 51.4575 15.3344 50.5336C15.3344 49.6096 14.5853 48.8606 13.6614 48.8606C12.7374 48.8606 11.9884 49.6096 11.9884 50.5336C11.9884 51.4575 12.7374 52.2066 13.6614 52.2066Z" fill="white"/>
<path d="M13.6613 52.3011C13.3117 52.3011 12.97 52.1974 12.6793 52.0032C12.3887 51.809 12.1621 51.5329 12.0283 51.21C11.8946 50.887 11.8596 50.5316 11.9278 50.1888C11.996 49.8459 12.1643 49.531 12.4115 49.2838C12.6587 49.0366 12.9736 48.8682 13.3165 48.8C13.6593 48.7318 14.0147 48.7668 14.3377 48.9006C14.6607 49.0344 14.9367 49.2609 15.1309 49.5516C15.3251 49.8423 15.4288 50.184 15.4288 50.5336C15.4288 51.0024 15.2426 51.4519 14.9111 51.7834C14.5796 52.1149 14.1301 52.3011 13.6613 52.3011ZM13.6613 48.9551C13.3491 48.9551 13.0439 49.0477 12.7844 49.2211C12.5248 49.3946 12.3225 49.6411 12.203 49.9295C12.0835 50.218 12.0523 50.5353 12.1132 50.8415C12.1741 51.1477 12.3244 51.429 12.5452 51.6497C12.7659 51.8705 13.0472 52.0208 13.3534 52.0817C13.6595 52.1426 13.9769 52.1114 14.2653 51.9919C14.5538 51.8724 14.8003 51.6701 14.9737 51.4105C15.1472 51.1509 15.2398 50.8458 15.2398 50.5336C15.2393 50.1151 15.0728 49.7139 14.7769 49.418C14.481 49.1221 14.0798 48.9556 13.6613 48.9551Z" fill="#E0E0E0"/>
<path d="M15.8333 51.5184L13.6254 50.9513C13.6254 50.9513 13.0337 50.785 13.3418 51.4258C13.65 52.0666 14.5763 51.923 14.9316 52.3029C15.287 52.6829 15.4893 53.3237 16.9619 53.5619" fill="#FFBE9D"/>
<path d="M16.9619 53.5601C16.8639 53.5564 16.7665 53.5438 16.6708 53.5223C16.4092 53.4732 16.1551 53.3906 15.9146 53.2765C15.7473 53.1943 15.592 53.0893 15.4534 52.9646C15.2982 52.8193 15.1576 52.6591 15.0337 52.4864C14.9703 52.3972 14.8931 52.3187 14.805 52.2538C14.7088 52.1933 14.6044 52.1468 14.495 52.1158C14.251 52.0547 14.0111 51.9783 13.7766 51.8871C13.6559 51.831 13.5458 51.7542 13.4515 51.6603C13.3687 51.5625 13.3046 51.4504 13.2625 51.3295C13.2402 51.2685 13.2256 51.205 13.219 51.1404C13.2171 51.1053 13.2229 51.0702 13.2359 51.0376C13.249 51.0049 13.269 50.9755 13.2946 50.9514C13.3488 50.9101 13.4155 50.8888 13.4836 50.8909C13.5437 50.8913 13.6034 50.8995 13.6613 50.9155L14.7955 51.2198L15.5517 51.4353C15.6472 51.4558 15.7404 51.4863 15.8296 51.5261C15.7325 51.5157 15.6363 51.4974 15.5422 51.4712L14.7691 51.2822L13.6235 50.9968C13.5772 50.9798 13.5278 50.9728 13.4786 50.9764C13.4293 50.98 13.3815 50.994 13.3381 51.0175C13.2738 51.0686 13.2946 51.1934 13.3381 51.2973C13.3786 51.4069 13.4388 51.5081 13.5158 51.596C13.6017 51.6798 13.7015 51.7482 13.8107 51.7983C14.0408 51.889 14.2763 51.9653 14.5158 52.027C14.6343 52.0601 14.7472 52.1111 14.8504 52.1782C14.9454 52.2495 15.0289 52.3349 15.098 52.4315C15.217 52.602 15.3518 52.7609 15.5007 52.906C15.6361 53.0266 15.7867 53.1289 15.9487 53.2104C16.1838 53.3271 16.4311 53.4177 16.6859 53.4807C16.78 53.4992 16.8724 53.5258 16.9619 53.5601Z" fill="#EB996E"/>
<path d="M13.65 50.5335L13.8976 50.3899L13.1736 49.4125L13.65 50.5335Z" fill="#FF725E"/>
<path d="M12.3399 49.3653C12.3512 49.3766 12.2586 49.4636 12.1641 49.6375C12.0409 49.8653 11.9675 50.1165 11.9486 50.3748C11.9256 50.6338 11.9552 50.8949 12.0355 51.1423C12.0804 51.2418 12.1189 51.3441 12.1508 51.4485C12.0667 51.3707 12.0019 51.2742 11.9618 51.1668C11.8573 50.914 11.8158 50.6396 11.8408 50.3672C11.8595 50.0936 11.9466 49.8291 12.0941 49.5978C12.2208 49.4296 12.3342 49.3559 12.3399 49.3653Z" fill="#263238"/>
<path d="M20.5668 52.5204L29.9317 53.5601L37.9072 51.6981L37.9809 58.2992C37.9809 58.2992 29.2682 57.9911 28.6992 57.9438C28.1302 57.8966 20.3702 56.8758 20.3702 56.8758L20.5668 52.5204Z" fill="#FF725E"/>
<path d="M22.3778 52.7207L22.3286 57.1404L23.9959 57.3578L24.0318 52.9041L22.3778 52.7207Z" fill="white"/>
<path d="M43.2552 47.6829L43.9546 48.2708L48.6351 49.8436L51.3365 53.8323C51.3365 53.8323 52.5936 65.7038 52.5255 66.7435C52.4575 67.7832 52.5785 67.976 52.5785 67.976L38.3345 63.9288L37.5784 57.4505L37.9073 51.6981L38.5973 50.6206L39.3818 51.9003L40.7636 49.9703L43.2552 47.6829Z" fill="#FF725E"/>
<path d="M51.7674 58.0175L37.5103 57.475L37.773 59.7964L52.0321 60.6792L51.7674 58.0175Z" fill="white"/>
<path d="M37.051 54.6375C37.0651 54.666 37.074 54.6967 37.0774 54.7283C37.0926 54.802 37.1096 54.889 37.1323 54.9967C37.1795 55.2292 37.2381 55.5638 37.3062 55.9873C37.4404 56.8266 37.5916 57.9911 37.7428 59.2765C37.8941 60.562 38.0321 61.734 38.1512 62.5677C38.2079 62.976 38.257 63.3125 38.2929 63.562C38.3062 63.6697 38.3194 63.751 38.3289 63.8323C38.3339 63.8643 38.3339 63.8968 38.3289 63.9287C38.3178 63.8987 38.3096 63.8677 38.3043 63.8361C38.2892 63.7643 38.2703 63.6754 38.2495 63.5677C38.2022 63.3351 38.1436 63.0005 38.0756 62.5771C37.9413 61.7378 37.7882 60.5752 37.6389 59.2879C37.4895 58.0005 37.3478 56.8304 37.2306 55.9986C37.172 55.5884 37.1247 55.2538 37.0888 55.0043C37.0737 54.8946 37.0623 54.8058 37.0529 54.7321C37.048 54.7008 37.0474 54.669 37.051 54.6375Z" fill="#263238"/>
<path d="M39.3892 51.9079C39.4187 51.8599 39.4529 51.8149 39.4912 51.7736L39.7975 51.4182L40.8882 50.1914L40.9185 50.1574L40.9525 50.1876L41.9298 51.0666L42.0111 51.1404H41.9393C42.5272 50.371 43.0584 49.681 43.4516 49.1857L43.9147 48.6054C43.9715 48.5313 44.0348 48.4623 44.1037 48.3993C44.0616 48.4803 44.0116 48.5569 43.9544 48.6281C43.8391 48.7831 43.6935 48.9853 43.5158 49.2273C43.1378 49.7339 42.6179 50.4296 42.03 51.199L41.9979 51.2424L41.9582 51.2065C41.9336 51.1819 41.9052 51.1574 41.8769 51.1328L40.9052 50.2481H40.9695L39.8523 51.4485L39.5272 51.7888C39.4866 51.8344 39.4402 51.8744 39.3892 51.9079Z" fill="#263238"/>
<path d="M39.2097 52.0062C38.9713 51.8183 38.7651 51.5929 38.5991 51.3389H38.6766C38.6237 51.4088 38.5689 51.4863 38.5159 51.5676C38.386 51.7667 38.271 51.9752 38.1719 52.1914L38.1435 52.2538L38.1057 52.2009C38.006 52.0818 37.9221 51.9502 37.8562 51.8096C37.9736 51.9108 38.0777 52.0264 38.1662 52.1536H38.1001C38.1919 51.9273 38.3072 51.7113 38.4441 51.509C38.497 51.4277 38.5537 51.3483 38.6086 51.2765L38.6502 51.2254L38.6861 51.2784C38.9696 51.7075 39.2286 51.9891 39.2097 52.0062Z" fill="#263238"/>
<path d="M28.601 56.6791L33.8713 60.9533L35.1435 59.4259L29.996 55.0799L28.601 56.6791Z" fill="#263238"/>
<path d="M29.2721 55.8833C29.2721 55.8833 28.7579 55.2443 27.5859 54.7245C26.8862 54.4153 26.0967 54.3769 25.3704 54.6167L25.3004 54.4428C26.0733 54.1785 26.9177 54.217 27.6634 54.5506C28.8808 55.0931 29.3987 55.7396 29.4195 55.768L29.2721 55.8833Z" fill="#263238"/>
<path d="M32.7408 57.3975C32.7408 57.3975 33.7597 57.526 34.1113 57.7075C34.463 57.889 35.4819 58.5676 35.4819 58.5676L37.5405 58.957L37.049 62.3597L35.6709 61.6754L32.6369 61.9779C32.6369 61.9779 31.9752 61.8266 31.9752 61.354C31.8176 61.2582 31.6831 61.1287 31.5815 60.9748C31.4798 60.8208 31.4135 60.6463 31.3873 60.4637C31.3873 60.4637 30.5745 59.3975 30.5007 59.1915C30.427 58.9854 30.841 58.4996 30.841 58.4996C30.841 58.4996 31.7068 59.233 32.2342 59.3484C32.7616 59.4637 33.238 59.2557 33.2834 58.9174C33.3741 58.2274 32.7408 57.3975 32.7408 57.3975Z" fill="#E0E0E0"/>
<g opacity="0.3">
<path d="M38.2229 63.2614C38.2229 63.2614 45.1322 65.7397 47.4498 65.5922C49.4139 65.4675 50.3798 64.5469 50.5349 63.2614C50.6899 61.976 50.9129 56.5166 50.9129 56.5166L47.2059 62.9438L38.1851 62.6622L38.2229 63.2614Z" fill="black"/>
</g>
<path d="M49.4385 62.9155C49.9356 61.4958 50.482 58.7567 50.482 58.7567L51.344 54.2085C51.3731 53.0217 50.9753 51.8639 50.223 50.9457C49.6559 50.2689 48.8657 49.6886 47.8109 49.6943C45.5746 49.7037 45.6539 53.8247 45.6539 53.8247L45.0452 59.7265L36.2966 58.3143L35.7408 62.5204L46.0301 64.7416C46.4608 64.8486 46.9097 64.8605 47.3455 64.7766C47.7812 64.6927 48.1936 64.515 48.5538 64.2558C48.9795 63.9107 49.2885 63.4426 49.4385 62.9155Z" fill="#FF725E"/>
<path d="M48.0584 50.0667C48.0584 50.0818 47.8789 50.0874 47.6048 50.1612C47.2472 50.2533 46.9158 50.4268 46.6364 50.6681C46.357 50.9095 46.1372 51.2121 45.9942 51.5525C45.8826 51.8134 45.8524 51.9892 45.8354 51.9873C45.8339 51.8286 45.8661 51.6714 45.9299 51.526C46.0604 51.1649 46.2816 50.8433 46.5723 50.5924C46.863 50.3415 47.2133 50.1695 47.5896 50.0931C47.7424 50.0517 47.902 50.0427 48.0584 50.0667Z" fill="#263238"/>
<path d="M38.533 58.6716L38.223 63.0497L40.0151 63.4354L40.2911 58.959L38.533 58.6716Z" fill="white"/>
<path d="M51.344 54.216C51.344 54.216 51.344 54.2519 51.327 54.3257C51.31 54.3994 51.2967 54.5147 51.2722 54.6432C51.2211 54.9287 51.1455 55.3408 51.0491 55.8701C50.9527 56.3994 50.8298 57.0535 50.6918 57.8077C50.62 58.1858 50.55 58.5903 50.4612 59.0176C50.3723 59.4448 50.2721 59.8947 50.1682 60.3654C50.0642 60.8361 49.9413 61.3314 49.8033 61.8418C49.7353 62.097 49.6597 62.356 49.5784 62.6187C49.4993 62.8891 49.3988 63.1527 49.2778 63.407C49.1513 63.6731 48.9792 63.9149 48.7693 64.1216C48.5457 64.325 48.2903 64.4904 48.0132 64.6112C47.4273 64.8589 46.7805 64.9247 46.1568 64.8002L38.0282 63.0497L35.7428 62.5563L35.6974 62.5469V62.5015C35.8864 61.0497 36.0755 59.6414 36.2532 58.2954V58.2482H36.3004L45.0604 59.7L45.0207 59.7302C45.2097 57.8985 45.3742 56.4259 45.4819 55.4051C45.5387 54.9003 45.5821 54.509 45.6124 54.2387C45.6275 54.1083 45.6388 54.0081 45.6483 53.9362C45.6578 53.8644 45.6634 53.8323 45.6634 53.8323C45.6634 53.8323 45.6634 53.8682 45.6634 53.9362C45.6634 54.0043 45.6483 54.1083 45.637 54.2406C45.6105 54.5109 45.5727 54.9041 45.5254 55.4088C45.4233 56.4296 45.2759 57.9041 45.0944 59.7359V59.7718H45.0585L36.308 58.3597L36.3609 58.3181C36.1851 59.666 35.9998 61.0724 35.8089 62.5261L35.7711 62.4713L38.0566 62.9647L46.1852 64.7208C46.7923 64.8398 47.4212 64.7739 47.9905 64.5318C48.2614 64.4175 48.5107 64.2576 48.7277 64.0592C48.9325 63.8605 49.1003 63.6268 49.223 63.3692C49.3418 63.1189 49.441 62.8598 49.5198 62.5941C49.603 62.3333 49.6786 62.0762 49.7466 61.821C49.8865 61.3125 50.0075 60.821 50.1247 60.3503C50.2419 59.8796 50.3345 59.4297 50.4253 59.0043C50.516 58.579 50.5878 58.1745 50.6616 57.7983C50.8071 57.0421 50.9338 56.3956 51.0396 55.8625C51.1455 55.3294 51.2287 54.9173 51.2816 54.6395C51.31 54.5034 51.3308 54.3975 51.3459 54.3238C51.361 54.25 51.344 54.216 51.344 54.216Z" fill="#263238"/>
<path d="M46.0623 61.2293C45.8484 60.9887 45.6585 60.7279 45.4952 60.4505L45.1266 59.8834C45.0752 59.81 45.0016 59.755 44.9167 59.7265C44.9167 59.7265 44.9432 59.7095 44.998 59.7265C45.0718 59.7467 45.1378 59.7889 45.1871 59.8474C45.3043 59.9873 45.4328 60.1858 45.5822 60.4146C45.7688 60.6695 45.9297 60.9425 46.0623 61.2293Z" fill="#263238"/>
<g opacity="0.3">
<path d="M39.688 51.5714L40.8751 50.8398L42.1814 52.2255L43.8827 48.6716L41.9716 51.1763L40.9148 50.2217L39.688 51.5714Z" fill="black"/>
</g>
<path d="M9.59332 49.543H7.44019V55.0534H9.59332V49.543Z" fill="#E0E0E0"/>
<path d="M8.56486 49.8643C10.0954 49.8643 11.3361 48.6092 11.3361 47.0609C11.3361 45.5126 10.0954 44.2575 8.56486 44.2575C7.03432 44.2575 5.79358 45.5126 5.79358 47.0609C5.79358 48.6092 7.03432 49.8643 8.56486 49.8643Z" fill="white"/>
<path d="M8.5649 49.9589C7.9905 49.9649 7.42726 49.8 6.94674 49.4853C6.46621 49.1705 6.09007 48.72 5.86609 48.1911C5.64211 47.6621 5.58039 47.0785 5.68876 46.5144C5.79714 45.9502 6.07073 45.4311 6.47479 45.0227C6.87884 44.6144 7.39513 44.3354 7.95808 44.2211C8.52104 44.1068 9.10526 44.1624 9.63655 44.3808C10.1678 44.5993 10.6222 44.9707 10.942 45.4478C11.2618 45.925 11.4326 46.4865 11.4326 47.061C11.4361 47.8254 11.1361 48.5599 10.5984 49.1033C10.0607 49.6467 9.32932 49.9544 8.5649 49.9589ZM8.5649 44.3521C8.02789 44.3461 7.50121 44.4998 7.05177 44.7938C6.60233 45.0878 6.25042 45.5087 6.04075 46.0032C5.83107 46.4976 5.77309 47.0432 5.87417 47.5707C5.97526 48.0981 6.23084 48.5836 6.60845 48.9655C6.98607 49.3474 7.46867 49.6084 7.99495 49.7154C8.52124 49.8224 9.06745 49.7705 9.5642 49.5664C10.061 49.3623 10.4858 49.0151 10.7848 48.569C11.0839 48.1229 11.2435 47.598 11.2436 47.061C11.2471 46.3467 10.967 45.6602 10.4647 45.1523C9.96248 44.6444 9.27919 44.3566 8.5649 44.3521Z" fill="#E0E0E0"/>
<path d="M8.22083 47.0609L8.75013 47.2141L9.18113 45.2443L8.22083 47.0609Z" fill="#FF725E"/>
<path d="M9.91458 49.6565C9.80609 49.7533 9.67671 49.8238 9.53651 49.8625C9.20893 49.9737 8.86295 50.0205 8.5176 50.0005C8.17261 49.9855 7.83234 49.9146 7.51003 49.7907C7.37157 49.7478 7.24304 49.6777 7.13196 49.5846C7.13196 49.5714 7.28319 49.6451 7.52894 49.7245C7.84855 49.8271 8.18037 49.8869 8.51571 49.9022C8.85006 49.9202 9.18513 49.8845 9.50815 49.7963C9.76713 49.7245 9.89946 49.6413 9.91458 49.6565Z" fill="#263238"/>
<path d="M14.6254 55.1007C14.6254 55.1272 12.1679 55.1291 9.12256 55.1007C6.07717 55.0723 3.62158 55.0345 3.62158 55.0081C3.62158 54.9816 6.07906 54.9778 9.12445 55.0081C12.1698 55.0383 14.6254 55.0667 14.6254 55.1007Z" fill="#263238"/>
</svg>
