<svg width="14" height="16" viewBox="0 0 14 16" fill="none" xmlns="http://www.w3.org/2000/svg">
<path d="M9.59939 8.49925C10.2891 7.95665 10.7924 7.21257 11.0395 6.37055C11.2866 5.52853 11.2651 4.63043 10.978 3.80119C10.6909 2.97196 10.1525 2.25283 9.43764 1.74386C8.7228 1.23488 7.86709 0.961365 6.98957 0.961365C6.11204 0.961365 5.25633 1.23488 4.54149 1.74386C3.82665 2.25283 3.28822 2.97196 3.00112 3.80119C2.71401 4.63043 2.69251 5.52853 2.9396 6.37055C3.18669 7.21257 3.69008 7.95665 4.37974 8.49925C3.19799 8.97271 2.16687 9.75798 1.39631 10.7714C0.625746 11.7847 0.144627 12.9882 0.00424314 14.2535C-0.00591858 14.3459 0.00221475 14.4394 0.0281785 14.5286C0.0541423 14.6179 0.0974282 14.7011 0.155565 14.7736C0.272977 14.92 0.443751 15.0138 0.630319 15.0344C0.816888 15.0549 1.00397 15.0005 1.1504 14.883C1.29684 14.7656 1.39063 14.5949 1.41116 14.4083C1.56562 13.0332 2.22132 11.7632 3.25296 10.8409C4.2846 9.91867 5.61987 9.40884 7.00364 9.40884C8.38741 9.40884 9.72267 9.91867 10.7543 10.8409C11.786 11.7632 12.4416 13.0332 12.5961 14.4083C12.6152 14.5811 12.6977 14.7408 12.8276 14.8564C12.9575 14.972 13.1257 15.0354 13.2996 15.0344H13.377C13.5614 15.0131 13.7299 14.9199 13.8458 14.775C13.9618 14.63 14.0158 14.4451 13.996 14.2606C13.8549 12.9917 13.3712 11.7851 12.5967 10.7702C11.8222 9.75522 10.7861 8.9702 9.59939 8.49925ZM6.98957 7.9998C6.43304 7.9998 5.88902 7.83477 5.42629 7.52558C4.96356 7.21639 4.6029 6.77693 4.38993 6.26277C4.17696 5.74862 4.12123 5.18285 4.22981 4.63702C4.33838 4.09119 4.60637 3.58981 4.99989 3.19629C5.39341 2.80277 5.89479 2.53478 6.44062 2.42621C6.98645 2.31764 7.55221 2.37336 8.06637 2.58633C8.58053 2.79931 9.01999 3.15996 9.32918 3.62269C9.63836 4.08542 9.80339 4.62945 9.80339 5.18597C9.80339 5.93224 9.50694 6.64795 8.97924 7.17565C8.45155 7.70334 7.73584 7.9998 6.98957 7.9998Z" fill="white"/>
</svg>
