<svg width="32" height="32" viewBox="0 0 32 32" fill="none" xmlns="http://www.w3.org/2000/svg">
<rect width="32" height="32" rx="4" fill="#DA7B23" fill-opacity="0.15"/>
<path d="M24.5333 12.9802C24.5235 12.8931 24.5044 12.8073 24.4765 12.7242V12.6388C24.4309 12.5414 24.3701 12.4517 24.2963 12.3734V12.3734L18.6074 6.68447C18.529 6.61072 18.4394 6.54991 18.3419 6.50432C18.3136 6.5003 18.2849 6.5003 18.2566 6.50432C18.1603 6.44908 18.0539 6.41362 17.9437 6.40002H14.1037C13.3493 6.40002 12.6258 6.69971 12.0924 7.23314C11.5589 7.76658 11.2593 8.49008 11.2593 9.24447V10.1926H10.3111C9.55673 10.1926 8.83323 10.4923 8.29979 11.0257C7.76636 11.5592 7.46667 12.2827 7.46667 13.0371V22.5185C7.46667 23.2729 7.76636 23.9964 8.29979 24.5299C8.83323 25.0633 9.55673 25.363 10.3111 25.363H17.8963C18.6507 25.363 19.3742 25.0633 19.9076 24.5299C20.4411 23.9964 20.7407 23.2729 20.7407 22.5185V21.5704H21.6889C22.4433 21.5704 23.1668 21.2707 23.7002 20.7373C24.2337 20.2038 24.5333 19.4803 24.5333 18.726V13.0371C24.5333 13.0371 24.5333 13.0371 24.5333 12.9802ZM18.8445 9.63321L21.3002 12.0889H19.7926C19.5411 12.0889 19.3 11.989 19.1222 11.8112C18.9443 11.6334 18.8445 11.3922 18.8445 11.1408V9.63321ZM18.8445 22.5185C18.8445 22.77 18.7446 23.0112 18.5667 23.189C18.3889 23.3668 18.1478 23.4667 17.8963 23.4667H10.3111C10.0597 23.4667 9.81849 23.3668 9.64068 23.189C9.46287 23.0112 9.36297 22.77 9.36297 22.5185V13.0371C9.36297 12.7856 9.46287 12.5444 9.64068 12.3666C9.81849 12.1888 10.0597 12.0889 10.3111 12.0889H11.2593V18.726C11.2593 19.4803 11.5589 20.2038 12.0924 20.7373C12.6258 21.2707 13.3493 21.5704 14.1037 21.5704H18.8445V22.5185ZM22.637 18.726C22.637 18.9774 22.5372 19.2186 22.3593 19.3964C22.1815 19.5742 21.9404 19.6741 21.6889 19.6741H14.1037C13.8522 19.6741 13.6111 19.5742 13.4333 19.3964C13.2555 19.2186 13.1556 18.9774 13.1556 18.726V9.24447C13.1556 8.993 13.2555 8.75184 13.4333 8.57403C13.6111 8.39621 13.8522 8.29632 14.1037 8.29632H16.9482V11.1408C16.9482 11.8952 17.2478 12.6187 17.7813 13.1521C18.3147 13.6855 19.0382 13.9852 19.7926 13.9852H22.637V18.726Z" fill="#E5A060"/>
</svg>
